<?xml version="1.0" encoding="UTF-8"?>
<!DOCTYPE svg PUBLIC "-//W3C//DTD SVG 1.1//EN" "http://www.w3.org/Graphics/SVG/1.1/DTD/svg11.dtd">
<!-- Creator: CorelDRAW X7 -->
<svg xmlns="http://www.w3.org/2000/svg" xml:space="preserve" width="2480px" height="2480px" version="1.1" style="shape-rendering:geometricPrecision; text-rendering:geometricPrecision; image-rendering:optimizeQuality; fill-rule:evenodd; clip-rule:evenodd"
viewBox="0 0 22728 22728"
 xmlns:xlink="http://www.w3.org/1999/xlink">
 <defs>
  <style type="text/css">
   <![CDATA[
    .fil0 {fill:black}
    .fil1 {fill:black}
   ]]>
  </style>
 </defs>
 <g id="Layer_x0020_1">
  <metadata id="CorelCorpID_0Corel-Layer"/>
  <g id="_194248410720">
   <polygon class="fil0" points="10718,3934 10718,4903 14918,4903 14918,6519 12656,6519 12656,7488 15887,7488 15887,3934 "/>
   <rect class="fil0" x="9749" y="4903" width="969" height="969"/>
   <polygon class="fil0" points="12656,8780 12656,7488 11687,7488 11687,9749 13625,9749 13625,11364 11687,11364 11687,17825 9749,17825 9749,11364 7811,11364 7811,9749 9749,9749 9749,5872 8780,5872 8780,8780 6842,8780 6842,12333 8780,12333 8780,18794 12656,18794 12656,12333 14595,12333 14595,8780 "/>
   <path class="fil1" d="M1482 2965l1483 0 0 -1483 -1483 0 0 1483zm18282 0l1482 0 0 -1483 -1482 0 0 1483zm-18282 18281l1483 0 0 -1482 -1483 0 0 1482zm18282 0l1482 0 0 -1482 -1482 0 0 1482zm-19764 -1482l1482 0 0 -16799 -1482 0 0 16799zm21246 0l1482 0 0 -16799 -1482 0 0 16799zm-18281 -18282l16799 0 0 -1482 -16799 0 0 1482zm0 21246l16799 0 0 -1482 -16799 0 0 1482z"/>
  </g>
 </g>
</svg>
