<?xml version="1.0" encoding="UTF-8"?>
<!DOCTYPE svg PUBLIC "-//W3C//DTD SVG 1.1//EN" "http://www.w3.org/Graphics/SVG/1.1/DTD/svg11.dtd">
<!-- Creator: CorelDRAW X7 -->
<svg xmlns="http://www.w3.org/2000/svg" xml:space="preserve" width="2480px" height="2480px" version="1.1" style="shape-rendering:geometricPrecision; text-rendering:geometricPrecision; image-rendering:optimizeQuality; fill-rule:evenodd; clip-rule:evenodd"
viewBox="0 0 44153 44153"
 xmlns:xlink="http://www.w3.org/1999/xlink">
 <defs>
  <style type="text/css">
   <![CDATA[
    .fil0 {fill:black}
    .fil1 {fill:black;fill-rule:nonzero}
   ]]>
  </style>
 </defs>
 <g id="Layer_x0020_1">
  <metadata id="CorelCorpID_0Corel-Layer"/>
  <g id="_194242526864">
   <path class="fil0" d="M2880 5759l2879 0 0 -2879 -2879 0 0 2879zm35514 0l2880 0 0 -2879 -2880 0 0 2879zm-35514 35515l2879 0 0 -2880 -2879 0 0 2880zm35514 0l2880 0 0 -2880 -2880 0 0 2880zm-38394 -2880l2880 0 0 -32635 -2880 0 0 32635zm41274 0l2879 0 0 -32635 -2879 0 0 32635zm-35515 -35514l32635 0 0 -2880 -32635 0 0 2880zm0 41273l32635 0 0 -2879 -32635 0 0 2879z"/>
   <path class="fil1" d="M16873 41383c15,-674 11,-1343 6,-2003 -522,36 -1041,60 -1590,28 -1164,-67 -2208,-358 -3094,-928 -910,-587 -1628,-1444 -2109,-2624 -191,-470 -422,-895 -706,-1255 -275,-349 -610,-654 -1019,-898 -169,-101 -327,-225 -474,-361 -138,-128 -248,-246 -342,-355 -193,-226 -319,-484 -374,-751 -48,-241 -37,-482 37,-713 79,-245 219,-460 424,-636 190,-162 431,-281 722,-341l-1 -1c212,-43 431,-79 643,-95 254,-18 517,-11 786,39 811,153 1498,484 2090,947 568,444 1031,993 1421,1608 493,777 1093,1276 1762,1484 596,186 1277,154 2017,-104 82,-313 186,-623 318,-930 -156,-32 -313,-65 -473,-102 -1081,-250 -2116,-605 -3072,-1128 -986,-541 -1874,-1250 -2623,-2192 -612,-770 -1056,-1601 -1378,-2475 -310,-844 -505,-1730 -627,-2642 -192,-1428 -200,-2817 87,-4149 274,-1265 808,-2467 1696,-3584 -187,-728 -265,-1453 -249,-2175 19,-840 165,-1669 416,-2489 200,-653 354,-1012 818,-1309 469,-301 855,-287 1525,-195l0 0c70,10 115,19 160,28 11,2 -23,-4 17,2l0 1c893,148 1709,432 2484,791 714,331 1387,722 2051,1128 1602,-376 3206,-563 4813,-562 1609,1 3215,190 4818,566 244,-129 533,-294 823,-459 402,-230 805,-459 1271,-687 485,-237 983,-445 1496,-591 543,-154 1113,-243 1718,-232 307,6 644,122 900,287 282,182 537,460 657,779 328,869 527,1753 579,2652 48,828 -31,1665 -251,2512 130,232 277,463 424,693 379,596 757,1190 987,1897 475,1460 634,2911 519,4340 -120,1490 -538,2952 -1206,4371 -635,1348 -1544,2366 -2646,3137 -1068,748 -2297,1246 -3615,1580 -272,68 -558,130 -854,189 117,272 210,549 285,832 215,820 262,1662 250,2517 -17,1263 -16,2520 -16,3777 0,261 0,521 0,781l-2336 0c0,-260 0,-520 0,-781 0,-1270 0,-2541 16,-3805 9,-666 -23,-1309 -177,-1893 -137,-522 -379,-1010 -795,-1445l-1481 -1547 2100 -413c42,-8 442,-81 835,-152 533,-97 1049,-192 1605,-332 1067,-270 2039,-658 2846,-1222 774,-542 1415,-1263 1867,-2222 547,-1162 889,-2352 986,-3555 91,-1133 -34,-2281 -409,-3433 -145,-445 -437,-905 -730,-1366 -190,-298 -380,-597 -551,-910 -102,-188 -194,-420 -239,-648 -51,-256 -52,-535 28,-812 190,-658 260,-1312 223,-1962 -29,-495 -122,-991 -273,-1487 -205,25 -410,69 -614,127 -379,107 -745,260 -1102,434 -356,174 -749,399 -1143,623 -294,168 -589,336 -951,525 -190,100 -419,183 -647,224 -248,46 -513,49 -768,-13 -1481,-359 -2957,-540 -4429,-540 -1472,-1 -2948,178 -4429,537 -265,65 -550,60 -816,6 -255,-51 -508,-149 -708,-272 -624,-383 -1250,-751 -1891,-1048 -591,-274 -1198,-489 -1835,-600 -163,570 -256,1134 -269,1692 -14,603 65,1207 249,1813l2 0c81,265 84,564 27,824 -57,259 -182,528 -355,730 -754,877 -1198,1831 -1416,2841 -226,1051 -216,2174 -60,3342 100,745 258,1466 509,2148 239,651 566,1264 1011,1824 547,688 1193,1205 1909,1597 747,409 1584,693 2476,899 422,98 886,178 1369,262 141,25 285,50 718,130l2111 391 -1470 1560c-253,268 -439,550 -578,846 -144,305 -245,649 -319,1023l-5 0c-63,309 -229,573 -436,772 -160,155 -372,290 -562,370 -1381,581 -2708,672 -3909,298 -523,-163 -1016,-412 -1470,-744 173,195 364,358 571,491 531,342 1194,518 1959,562 517,30 1088,-12 1674,-54 256,-19 516,-38 898,-56l1223 -57 0 1225c0,944 0,1014 1,1084 5,718 11,1446 -3,2169l-2338 0zm-3603 -28178l17 5c24,-25 30,-34 -17,-5zm-21 13l-17 11 -4 20 32 -10c10,-11 20,-21 27,-29l-17 -5c-6,4 -13,8 -21,13zm-17 11l-11 8 -2 15 9 -3 4 -20zm-11 8l-5 3 -2 14 5 -2 2 -15zm-5 3c-25,18 -21,19 -2,14l2 -14z"/>
  </g>
 </g>
</svg>
