<?xml version="1.0" encoding="UTF-8"?>
<!DOCTYPE svg PUBLIC "-//W3C//DTD SVG 1.1//EN" "http://www.w3.org/Graphics/SVG/1.1/DTD/svg11.dtd">
<!-- Creator: CorelDRAW X7 -->
<svg xmlns="http://www.w3.org/2000/svg" xml:space="preserve" width="2480px" height="2480px" version="1.1" style="shape-rendering:geometricPrecision; text-rendering:geometricPrecision; image-rendering:optimizeQuality; fill-rule:evenodd; clip-rule:evenodd"
viewBox="0 0 30009 30009"
 xmlns:xlink="http://www.w3.org/1999/xlink">
 <defs>
  <style type="text/css">
   <![CDATA[
    .fil0 {fill:black}
   ]]>
  </style>
 </defs>
 <g id="Layer_x0020_1">
  <metadata id="CorelCorpID_0Corel-Layer"/>
  <g id="_194537627008">
   <rect class="fil0" x="1957" y="1957" width="1957" height="1957"/>
   <rect class="fil0" x="26095" y="1957" width="1957" height="1957"/>
   <rect class="fil0" x="1957" y="26095" width="1957" height="1957"/>
   <rect class="fil0" x="26095" y="26095" width="1957" height="1957"/>
   <rect class="fil0" y="3914" width="1957" height="22181"/>
   <rect class="fil0" x="28052" y="3914" width="1957" height="22181"/>
   <rect class="fil0" x="3914" width="22181" height="1957"/>
   <rect class="fil0" x="3914" y="28052" width="22181" height="1957"/>
   <rect class="fil0" x="7176" y="11090" width="1957" height="7828"/>
   <rect class="fil0" x="20876" y="11090" width="1957" height="7828"/>
   <rect class="fil0" x="11090" y="7176" width="7828" height="1957"/>
   <rect class="fil0" x="11090" y="20876" width="7828" height="1957"/>
   <rect class="fil0" x="9133" y="9133" width="1957" height="1957"/>
   <rect class="fil0" x="18919" y="9133" width="1957" height="1957"/>
   <rect class="fil0" x="9133" y="18919" width="1957" height="1957"/>
   <rect class="fil0" x="18919" y="18919" width="1957" height="1957"/>
   <rect class="fil0" x="22181" y="5219" width="2610" height="2610"/>
  </g>
 </g>
</svg>
