<?xml version="1.0" encoding="UTF-8"?>
<!DOCTYPE svg PUBLIC "-//W3C//DTD SVG 1.1//EN" "http://www.w3.org/Graphics/SVG/1.1/DTD/svg11.dtd">
<!-- Creator: CorelDRAW X7 -->
<svg xmlns="http://www.w3.org/2000/svg" xml:space="preserve" width="2480px" height="2480px" version="1.1" style="shape-rendering:geometricPrecision; text-rendering:geometricPrecision; image-rendering:optimizeQuality; fill-rule:evenodd; clip-rule:evenodd"
viewBox="0 0 83517 83517"
 xmlns:xlink="http://www.w3.org/1999/xlink">
 <defs>
  <style type="text/css">
   <![CDATA[
    .fil0 {fill:black}
    .fil1 {fill:black}
   ]]>
  </style>
 </defs>
 <g id="Layer_x0020_1">
  <metadata id="CorelCorpID_0Corel-Layer"/>
  <g id="_194320205680">
   <path class="fil0" d="M12782 19711l0 44095 57954 0 0 -44095 -57954 0zm54174 6299l-2520 0 0 3780 2520 0 0 30237 -50395 0 0 -30237 2520 0 0 -3780 -2520 0 0 -2519 50395 0 0 2519 0 0z"/>
   <rect class="fil0" x="39239" y="44908" width="5040" height="3780"/>
   <rect class="fil0" x="44278" y="41129" width="5040" height="3780"/>
   <rect class="fil0" x="34199" y="41129" width="5040" height="3780"/>
   <rect class="fil0" x="29160" y="37349" width="5040" height="3780"/>
   <rect class="fil0" x="49318" y="37349" width="5040" height="3780"/>
   <rect class="fil0" x="24120" y="33570" width="5040" height="3780"/>
   <rect class="fil0" x="54357" y="33570" width="5040" height="3780"/>
   <rect class="fil0" x="19081" y="29790" width="5040" height="3780"/>
   <rect class="fil0" x="59397" y="29790" width="5040" height="3780"/>
   <path class="fil1" d="M5447 10893l5446 0 0 -5446 -5446 0 0 5446zm67177 0l5446 0 0 -5446 -5446 0 0 5446zm-67177 67177l5446 0 0 -5446 -5446 0 0 5446zm67177 0l5446 0 0 -5446 -5446 0 0 5446zm-72624 -5446l5447 0 0 -61730 -5447 0 0 61730zm78071 0l5446 0 0 -61730 -5446 0 0 61730zm-67177 -67177l61730 0 0 -5447 -61730 0 0 5447zm0 78070l61730 0 0 -5446 -61730 0 0 5446z"/>
  </g>
 </g>
</svg>
