<?xml version="1.0" encoding="UTF-8"?>
<!DOCTYPE svg PUBLIC "-//W3C//DTD SVG 1.1//EN" "http://www.w3.org/Graphics/SVG/1.1/DTD/svg11.dtd">
<!-- Creator: CorelDRAW X7 -->
<svg xmlns="http://www.w3.org/2000/svg" xml:space="preserve" width="2528px" height="2550px" version="1.1" style="shape-rendering:geometricPrecision; text-rendering:geometricPrecision; image-rendering:optimizeQuality; fill-rule:evenodd; clip-rule:evenodd"
viewBox="0 0 39579 39916"
 xmlns:xlink="http://www.w3.org/1999/xlink">
 <defs>
  <style type="text/css">
   <![CDATA[
    .fil0 {fill:#FEFEFE}
   ]]>
  </style>
 </defs>
 <g id="Layer_x0020_1">
  <metadata id="CorelCorpID_0Corel-Layer"/>
  <path class="fil0" d="M32301 25369c-2311,0 -4350,1101 -5682,2787l-12352 -6317c162,-603 278,-1226 278,-1882 0,-714 -138,-1386 -331,-2040l12298 -6288c1325,1763 3416,2914 5790,2914 4023,0 7277,-3253 7277,-7272 0,-4015 -3254,-7271 -7277,-7271 -4013,0 -7270,3256 -7270,7271 0,657 116,1282 279,1887l-12350 6317c-1334,-1687 -3376,-2792 -5690,-2792 -4019,0 -7271,3257 -7271,7274 0,4017 3252,7273 7271,7273 2378,0 4467,-1156 5797,-2920l12292 6288c-192,652 -332,1330 -332,2046 0,4017 3257,7272 7271,7272 4022,0 7276,-3255 7276,-7272 2,-4021 -3252,-7275 -7274,-7275z"/>
 </g>
</svg>
