<?xml version="1.0" encoding="UTF-8"?>
<!DOCTYPE svg PUBLIC "-//W3C//DTD SVG 1.1//EN" "http://www.w3.org/Graphics/SVG/1.1/DTD/svg11.dtd">
<!-- Creator: CorelDRAW X7 -->
<svg xmlns="http://www.w3.org/2000/svg" xml:space="preserve" width="7750px" height="7750px" version="1.1" style="shape-rendering:geometricPrecision; text-rendering:geometricPrecision; image-rendering:optimizeQuality; fill-rule:evenodd; clip-rule:evenodd"
viewBox="0 0 213297 213297"
 xmlns:xlink="http://www.w3.org/1999/xlink">
 <defs>
  <style type="text/css">
   <![CDATA[
    .fil0 {fill:black}
   ]]>
  </style>
 </defs>
 <g id="Layer_x0020_1">
  <metadata id="CorelCorpID_0Corel-Layer"/>
  <path class="fil0" d="M13913 27821l13908 0 0 -13908 -13908 0 0 13908zm171563 0l13913 0 0 -13908 -13913 0 0 13908zm-171563 171568l13908 0 0 -13913 -13908 0 0 13913zm171563 0l13913 0 0 -13913 -13913 0 0 13913zm-185476 -13913l13913 0 0 -157655 -13913 0 0 157655zm199389 0l13908 0 0 -157655 -13908 0 0 157655zm-171568 -171563l157655 0 0 -13913 -157655 0 0 13913zm0 199384l157655 0 0 -13908 -157655 0 0 13908z"/>
  <path class="fil0" d="M170575 64023c302,-907 453,-1889 453,-2872 0,-4912 -3930,-8993 -8842,-9069 -76,0 -151,0 -227,0 -151,0 -378,0 -529,0 -1360,76 -2645,454 -3779,1058 -378,151 -680,378 -982,529 -151,76 -302,151 -454,227 -2343,907 -4761,1814 -7255,2721 -4157,-3023 -9069,-5291 -14889,-6576 -680,-151 -1360,-377 -2040,-377l-6424 -1c-756,0 -1588,303 -2343,454 -5064,1360 -10354,3250 -15191,7255 -6575,5517 -10581,12546 -11866,20633 -13226,-2796 -24184,-9221 -33178,-20028 -1738,-2041 -4232,-3023 -6953,-3023l0 0c-2645,0 -5215,1058 -6953,3099 -4988,5970 -6878,13830 -5290,22371 453,2342 1133,4685 2040,7028 -1209,1361 -1965,3023 -2192,4837 -1058,8616 2041,16703 8692,23429 -303,1285 -378,2569 -76,3854 1134,5895 4157,10959 8767,14889 -2796,605 -5819,982 -8994,982 -907,0 -1813,0 -2720,-75 -227,0 -454,0 -681,0 -3929,0 -7482,2569 -8615,6348 -1285,4006 378,8389 4005,10505 303,152 605,378 907,529 756,454 1663,983 2570,1512 11639,6197 24033,9371 36730,9371 4686,0 9447,-453 14209,-1284 15493,-2721 29324,-9825 40056,-20331 10732,-10505 18214,-24411 21539,-40056 756,-3627 1058,-7179 1285,-10580 75,-1285 151,-2495 302,-3704 3930,-3476 7331,-7180 10279,-11412 1058,-1511 1738,-3325 1738,-5290 -1,-2796 -1210,-5290 -3099,-6953zm-16249 17988c-756,680 -1361,1965 -1512,3023 -605,4988 -605,10127 -1663,14964 -6121,28417 -26527,48445 -54339,53433 -4233,756 -8465,1134 -12622,1134 -11261,0 -22068,-2797 -32422,-8314 -1059,-529 -2041,-1209 -3099,-1814 1133,76 2267,151 3401,151 13528,0 25847,-5743 30457,-10429 -11865,-1814 -19725,-7936 -21313,-16174 3099,-151 6198,-377 9372,-528 -12622,-6047 -18970,-14511 -17836,-24034 3023,756 6121,1512 9144,2267 -9976,-10656 -12545,-23958 -5819,-31893 12772,15191 29173,23278 49200,24638 -75,-605 -151,-982 -151,-1360 -982,-9070 1663,-16854 8843,-22825 3401,-2872 7482,-4005 11714,-5517 2116,0 4308,0 6424,0 5442,1512 10354,3628 14511,7482 227,152 605,378 982,378 227,0 529,0 681,-75 3779,-1360 7557,-2721 11336,-4157 680,-302 1360,-680 2419,-1209 -2116,5593 -5517,9523 -9977,12622 76,151 152,378 303,528 4005,-1133 8086,-2267 12319,-3476 -3022,4307 -6423,7935 -10353,11185z"/>
 </g>
</svg>
