<svg xmlns="http://www.w3.org/2000/svg" width="431" height="636" shape-rendering="geometricPrecision" text-rendering="geometricPrecision" image-rendering="optimizeQuality" fill-rule="evenodd" clip-rule="evenodd" viewBox="0 0 43102 63601"><path id="arcadeScreenPlaceholder" fill="#CCC" d="M8154 13913h26794v17490H8154z"/><path fill="#F8B11F" stroke="#F8B11F" stroke-width="281.3" d="M14819 62979h13276l1362-19533-15974-13z"/><path fill="#BE2D52" stroke="#E93761" stroke-width="281.3" d="M5811 34616l-3090 8808 37521 30-2957-8843-12802-2-5926 1c-10595-1-535-10-12746 6z"/><path fill="#EB3862" stroke="#E93761" stroke-width="281.3" d="M2721 43424l1742 19555h10356l-1336-19546z"/><path fill="#F5B11E" stroke="#F5B11E" stroke-width="281.3" d="M13090 11327l16827-3 278-8731-17431-3z"/><path fill="#E93761" stroke="#E93761" stroke-width="281.3" d="M13090 11327l-326-8737-12613 1 594 8737z"/><path fill="#EB3862" stroke="#E93761" stroke-width="281.3" d="M30195 2593l-278 8731 12290 26 742-8761z"/><path fill="#AA2A55" stroke="#C22C52" stroke-width="281.3" d="M4289 12618l34350-67 3568-1201-12290-26-16827 3-12345 1z"/><path fill="#C22C52" stroke="#C22C52" stroke-width="281.3" d="M30195 2593l12754-4-5244-2444-12794 1z"/><path fill="#C5851C" stroke="#C5851C" stroke-width="281.3" d="M12764 2590l17431 3-5284-2447-6152-1z"/><path fill="#C22C52" stroke="#C22C52" stroke-width="281.3" d="M151 2591l12613-1 5995-2445-9806-4z"/><path fill="#C32D53" d="M38479 62979H4463l-487 617 34776 5z"/><path fill="#EA3A65" stroke="#E93761" stroke-width="281.3" d="M29457 43446l-1362 19533h10384l1763-19525z"/><path fill="none" d="M24573 29954l-6197-6 30 919-12 587 160 3119 5929 36"/><path fill="#C22C52" stroke="#E93761" stroke-width="281.3" d="M37285 34611l1354-22060-1299 3-1277 22057z"/><path fill="#C32C54" stroke="#E93761" stroke-width="281.3" d="M5811 34616l1420-7-1385-21994-1557 3z"/><path fill="#F8B11F" d="M16495 6616l782-103-19-779-612-143c-56 133-78-21-138 402-24 167-12 445-13 623z"/><path fill="#BE2D52" d="M4031 44161c139 0 254 114 254 253v821c0 139-115 253-254 253-140 0-254-114-254-254v-820c0-139 114-253 254-253zM1396 3412c140 0 254 114 254 254v820c0 139-114 253-254 253s-254-114-254-253v-820c0-140 114-254 254-254zM5260 60828c140 0 254 113 254 253v820c0 140-114 254-254 254s-254-114-254-254v-820c0-140 114-253 254-253zM38983 44161c140 0 254 114 254 253v821c0 139-114 253-254 253a255 255 0 0 1-254-254v-820c0-139 115-253 254-253zM41794 3412c140 0 254 114 254 254v820c0 139-114 253-254 253s-254-114-254-253v-820c0-140 114-254 254-254zM37813 60828c140 0 253 113 253 253v820c0 140-113 254-253 254s-254-114-254-254v-820c0-140 114-253 254-253z"/><path fill="#DBD82F" fill-rule="nonzero" d="M13571 39821c0 576-1175 1043-2624 1043s-2624-467-2624-1043v-679h5248v679z"/><path fill="#FF7" fill-rule="nonzero" d="M13571 39142c0 576-1175 1043-2624 1043s-2624-467-2624-1043 1175-1043 2624-1043 2624 467 2624 1043z"/><path fill="#EB3862" fill-rule="nonzero" d="M11389 39195h-885v-4165h885z"/><path fill="#BFBF59" fill-rule="nonzero" d="M26175 37250c0 429-876 777-1955 777s-1954-348-1954-777v-505h3909v505z"/><path fill="#FF7" fill-rule="nonzero" d="M26175 36745c0 428-876 776-1955 776s-1954-348-1954-776c0-429 875-778 1954-778s1955 349 1955 778z"/><path fill="#BFBF59" fill-rule="nonzero" d="M25779 36599c0 343-698 621-1559 621s-1559-278-1559-621v-433h3118v433z"/><path fill="#FF7" fill-rule="nonzero" d="M25779 36166c0 343-698 620-1559 620s-1559-277-1559-620 698-620 1559-620 1559 277 1559 620z"/><path fill="#0C80D8" fill-rule="nonzero" d="M31438 37250c0 429-875 777-1955 777-1079 0-1954-348-1954-777v-505h3909v505z"/><path fill="#0F97FF" fill-rule="nonzero" d="M31438 36745c0 428-875 776-1955 776-1079 0-1954-348-1954-776 0-429 875-778 1954-778 1080 0 1955 349 1955 778z"/><path fill="#0C80D8" fill-rule="nonzero" d="M31043 36599c0 343-698 621-1560 621-861 0-1559-278-1559-621v-433h3119v433z"/><path fill="#0F97FF" fill-rule="nonzero" d="M31043 36166c0 343-698 620-1560 620-861 0-1559-277-1559-620s698-620 1559-620c862 0 1560 277 1560 620z"/><path fill="#0C80D8" fill-rule="nonzero" d="M28999 40596c0 429-875 776-1954 776-1080 0-1954-347-1954-776v-506h3908v506z"/><path fill="#0F97FF" fill-rule="nonzero" d="M28999 40090c0 429-875 776-1954 776-1080 0-1954-347-1954-776s874-778 1954-778c1079 0 1954 349 1954 778z"/><path fill="#0C80D8" fill-rule="nonzero" d="M28604 39945c0 343-698 620-1559 620s-1559-277-1559-620v-433h3118v433z"/><path fill="#0F97FF" fill-rule="nonzero" d="M28604 39512c0 342-698 619-1559 619s-1559-277-1559-619c0-343 698-621 1559-621s1559 278 1559 621z"/><path fill="#BFBF59" fill-rule="nonzero" d="M34263 40596c0 429-875 776-1954 776-1080 0-1955-347-1955-776v-506h3909v506z"/><path fill="#FF7" fill-rule="nonzero" d="M34263 40090c0 429-875 776-1954 776-1080 0-1955-347-1955-776s875-778 1955-778c1079 0 1954 349 1954 778z"/><path fill="#BFBF59" fill-rule="nonzero" d="M33868 39945c0 343-698 620-1559 620-862 0-1560-277-1560-620v-433h3119v433z"/><path fill="#FF7" fill-rule="nonzero" d="M33868 39512c0 342-698 619-1559 619-862 0-1560-277-1560-619 0-343 698-621 1560-621 861 0 1559 278 1559 621z"/><path fill="#333" fill-rule="nonzero" d="M24556 45755h-6172c-376 0-681 306-681 682v7056c0 376 305 681 681 681h6172c376 0 681-305 681-681v-7056c0-376-305-682-681-682z"/><path fill="#B5B5B5" fill-rule="nonzero" d="M18837 46627c0 146-118 264-263 264-146 0-265-118-265-264s119-264 265-264c145 0 263 118 263 264zM24102 46627c0 146 119 264 265 264s263-118 263-264-117-264-263-264-265 118-265 264zM18837 53303c0-146-118-264-263-264-146 0-265 118-265 264s119 264 265 264c145 0 263-118 263-264zM24102 53303c0-146 119-264 265-264s263 118 263 264-117 264-263 264-265-118-265-264zM23403 52332h-3866v-4734h3866z"/><path id="coin-slot" fill="#333" fill-rule="nonzero" d="M21340 51340h-603v-2750h603z"/><path fill="#EB3862" stroke="#E93761" stroke-width="281.3" d="M24546 31567l-61 3042 11579 2 1277-22057-12409 24-5 1038 10272-6-882 17960zM18057 13620l-22-1029-12187 24c1038 17386 1158 18945 1385 21994 5178 1 5416 0 11325 1l-117-3046-9688-2-849-17936 10153-6z"/><path fill="#F8B11F" stroke="#F8B11F" stroke-width="281.3" d="M24927 13616l5-1038-6897 13 22 1029z"/><path fill="#F5B223" stroke="#F8B11F" stroke-width="281.3" d="M18441 31564l117 3046 5927-1 61-3042z"/><path fill="#FF7" fill-rule="nonzero" d="M12970 34067c0 1118-905 2023-2023 2023-1117 0-2023-905-2023-2023 0-1117 906-2023 2023-2023 1118 0 2023 906 2023 2023z"/><path fill="#352236" d="M7724 13627l27742-17-897 18254-25982-8-863-18229zm1129 742l25483-16-824 16768-23867-8-792-16744z"/></svg>
