<?xml version="1.0" encoding="UTF-8"?>
<!DOCTYPE svg PUBLIC "-//W3C//DTD SVG 1.1//EN" "http://www.w3.org/Graphics/SVG/1.1/DTD/svg11.dtd">
<!-- Creator: CorelDRAW X8 -->
<svg xmlns="http://www.w3.org/2000/svg" xml:space="preserve" width="117.63mm" height="168.264mm" version="1.1" style="shape-rendering:geometricPrecision; text-rendering:geometricPrecision; image-rendering:optimizeQuality; fill-rule:evenodd; clip-rule:evenodd"
viewBox="0 0 11763 16826"
 xmlns:xlink="http://www.w3.org/1999/xlink">
 <defs>
  <style type="text/css">
   <![CDATA[
    .str3 {stroke:#C22C52;stroke-width:74.4177}
    .str4 {stroke:#C5851C;stroke-width:74.4177}
    .str1 {stroke:#E93761;stroke-width:74.4177}
    .str2 {stroke:#F5B11E;stroke-width:74.4177}
    .str0 {stroke:#F8B11F;stroke-width:74.4177}
    .fil11 {fill:none}
    .fil22 {fill:#352236}
    .fil6 {fill:#AA2A55}
    .fil2 {fill:#BE2D52}
    .fil7 {fill:#C22C52}
    .fil12 {fill:#C32C54}
    .fil9 {fill:#C32D53}
    .fil8 {fill:#C5851C}
    .fil0 {fill:#CCCCCC}
    .fil5 {fill:#E93761}
    .fil10 {fill:#EA3A65}
    .fil3 {fill:#EB3862}
    .fil4 {fill:#F5B11E}
    .fil21 {fill:#F5B223}
    .fil1 {fill:#F8B11F}
    .fil17 {fill:#0C80D8;fill-rule:nonzero}
    .fil18 {fill:#0F97FF;fill-rule:nonzero}
    .fil19 {fill:#333333;fill-rule:nonzero}
    .fil20 {fill:#B5B5B5;fill-rule:nonzero}
    .fil16 {fill:#BFBF59;fill-rule:nonzero}
    .fil13 {fill:#DBD82F;fill-rule:nonzero}
    .fil15 {fill:#EB3862;fill-rule:nonzero}
    .fil14 {fill:#FFFF77;fill-rule:nonzero}
   ]]>
  </style>
 </defs>
 <g id="Layer_x0020_1">
  <metadata id="CorelCorpID_0Corel-Layer"/>
  <polygon id="arcadeScreenPlaceholder" class="fil0" points="2390,3680 9478,3680 9478,8307 2390,8307 "/>
  <g id="_1988550464496">
   <polygon class="fil1 str0" points="4153,16662 7665,16662 8026,11493 3800,11490 "/>
   <path class="fil2 str1" d="M1770 9158l-817 2330 9926 7 -782 -2339 -3387 0 -1568 0c-2803,0 -142,-2 -3372,2l0 0z"/>
   <polygon class="fil3 str1" points="953,11488 1413,16662 4153,16662 3800,11490 "/>
   <polygon class="fil4 str2" points="3696,2996 8147,2995 8220,686 3609,685 "/>
   <polygon class="fil5 str1" points="3696,2996 3609,685 273,685 430,2997 "/>
   <polygon class="fil3 str1" points="8220,686 8147,2995 11399,3002 11595,685 "/>
   <polygon class="fil6 str3" points="1367,3338 10454,3320 11399,3002 8147,2995 3696,2996 430,2997 "/>
   <polygon class="fil7 str3" points="8220,686 11595,685 10207,38 6823,38 "/>
   <polygon class="fil8 str4" points="3609,685 8220,686 6823,38 5196,38 "/>
   <polygon class="fil7 str3" points="273,685 3609,685 5196,38 2601,37 "/>
   <polygon class="fil9" points="10413,16662 1413,16662 1284,16825 10485,16826 "/>
   <polygon class="fil10 str1" points="8026,11493 7665,16662 10413,16662 10879,11495 "/>
   <polyline class="fil11" points="6733,7924 5094,7922 5102,8165 5098,8321 5141,9146 6710,9156 "/>
   <polygon class="fil7 str1" points="10097,9156 10454,3320 10111,3321 9773,9156 "/>
   <polygon class="fil12 str1" points="1770,9158 2146,9156 1779,3337 1367,3338 "/>
   <path class="fil1" d="M4597 1750l207 -27 -6 -207 -162 -37c-15,35 -20,-5 -36,106 -6,45 -3,118 -3,165l0 0 0 0z"/>
   <path class="fil2" d="M1299 11683c37,0 67,30 67,67l0 217c0,37 -30,66 -67,66 -37,0 -68,-29 -68,-66l0 -217c0,-37 31,-67 68,-67zm-697 -10781c37,0 67,30 67,68l0 217c0,36 -30,67 -67,67 -37,0 -67,-31 -67,-67l0 -217c0,-38 30,-68 67,-68zm1022 15190c37,0 68,30 68,67l0 217c0,37 -31,67 -68,67 -37,0 -67,-30 -67,-67l0 -217c0,-37 30,-67 67,-67zm8922 -4409c37,0 67,30 67,67l0 217c0,37 -30,66 -67,66 -37,0 -67,-29 -67,-66l0 -217c0,-37 30,-67 67,-67l0 0zm744 -10781c36,0 67,30 67,68l0 217c0,36 -31,67 -67,67 -38,0 -68,-31 -68,-67l0 -217c0,-38 30,-68 68,-68zm-1053 15190c36,0 66,30 66,67l0 217c0,37 -30,67 -66,67 -38,0 -68,-30 -68,-67l0 -217c0,-37 30,-67 68,-67z"/>
   <path class="fil13" d="M3857 10534c0,153 -310,276 -694,276 -383,0 -694,-123 -694,-276l0 -179 1388 0 0 179 0 0z"/>
   <path class="fil14" d="M3857 10355c0,152 -310,276 -694,276 -383,0 -694,-124 -694,-276 0,-152 311,-276 694,-276 384,0 694,124 694,276z"/>
   <polygon class="fil15" points="3281,10369 3046,10369 3046,9267 3281,9267 "/>
   <path class="fil16" d="M8094 9872c0,114 -231,206 -517,206 -286,0 -517,-92 -517,-206l0 -133 1034 0 0 133 0 0z"/>
   <path class="fil14" d="M8094 9739c0,113 -231,205 -517,205 -286,0 -517,-92 -517,-205 0,-114 231,-206 517,-206 286,0 517,92 517,206z"/>
   <path class="fil16" d="M7989 9700c0,91 -184,164 -412,164 -228,0 -413,-73 -413,-164l0 -114 825 0 0 114z"/>
   <path class="fil14" d="M7989 9586c0,91 -184,164 -412,164 -228,0 -413,-73 -413,-164 0,-91 185,-165 413,-165 228,0 412,74 412,165z"/>
   <path class="fil17" d="M9486 9872c0,114 -231,206 -517,206 -285,0 -516,-92 -516,-206l0 -133 1033 0 0 133 0 0z"/>
   <path class="fil18" d="M9486 9739c0,113 -231,205 -517,205 -285,0 -516,-92 -516,-205 0,-114 231,-206 516,-206 286,0 517,92 517,206z"/>
   <path class="fil17" d="M9382 9700c0,91 -184,164 -412,164 -229,0 -413,-73 -413,-164l0 -114 825 0 0 114z"/>
   <path class="fil18" d="M9382 9586c0,91 -184,164 -412,164 -229,0 -413,-73 -413,-164 0,-91 184,-165 413,-165 228,0 412,74 412,165z"/>
   <path class="fil17" d="M8841 10757c0,114 -231,206 -517,206 -285,0 -517,-92 -517,-206l0 -133 1034 0 0 133 0 0z"/>
   <path class="fil18" d="M8841 10624c0,113 -231,205 -517,205 -285,0 -517,-92 -517,-205 0,-114 232,-206 517,-206 286,0 517,92 517,206z"/>
   <path class="fil17" d="M8736 10586c0,90 -184,163 -412,163 -227,0 -413,-73 -413,-163l0 -115 825 0 0 115z"/>
   <path class="fil18" d="M8736 10471c0,91 -184,164 -412,164 -227,0 -413,-73 -413,-164 0,-91 186,-165 413,-165 228,0 412,74 412,165z"/>
   <path class="fil16" d="M10233 10757c0,114 -231,206 -516,206 -286,0 -517,-92 -517,-206l0 -133 1033 0 0 133 0 0z"/>
   <path class="fil14" d="M10233 10624c0,113 -231,205 -516,205 -286,0 -517,-92 -517,-205 0,-114 231,-206 517,-206 285,0 516,92 516,206z"/>
   <path class="fil16" d="M10129 10586c0,90 -184,163 -412,163 -229,0 -413,-73 -413,-163l0 -115 825 0 0 115z"/>
   <path class="fil14" d="M10129 10471c0,91 -184,164 -412,164 -229,0 -413,-73 -413,-164 0,-91 184,-165 413,-165 228,0 412,74 412,165z"/>
   <path class="fil19" d="M6729 12104l-1633 0c-99,0 -180,82 -180,181l0 1867c0,99 81,179 180,179l1633 0c100,0 180,-80 180,-179l0 -1867c0,-99 -80,-181 -180,-181z"/>
   <path class="fil20" d="M5216 12336c0,38 -31,69 -70,69 -38,0 -70,-31 -70,-69 0,-40 32,-70 70,-70 39,0 70,30 70,70zm1393 0c0,38 31,69 70,69 38,0 70,-31 70,-69 0,-40 -32,-70 -70,-70 -39,0 -70,30 -70,70zm-1393 1765c0,-38 -31,-70 -70,-70 -38,0 -70,32 -70,70 0,39 32,70 70,70 39,0 70,-31 70,-70zm1393 0c0,-38 31,-70 70,-70 38,0 70,32 70,70 0,39 -32,70 -70,70 -39,0 -70,-31 -70,-70zm-185 -256l-1022 0 0 -1253 1022 0 0 1253z"/>
   <polygon id="coin-slot" class="fil19" points="5878,13582 5719,13582 5719,12855 5878,12855 "/>
   <path class="fil3 str1" d="M6726 8351l-16 805 3063 0 338 -5835 -3282 6 -2 275 2717 -2 -233 4752 -2585 -1 0 0zm-1717 -4748l-5 -273 -3224 7c275,4599 306,5012 366,5819 1370,0 1433,0 2996,0l-30 -806 -2564 0 -225 -4746 2686 -1 0 0 0 0z"/>
   <polygon class="fil1 str0" points="6827,3602 6829,3327 5004,3330 5009,3603 "/>
   <polygon class="fil21 str0" points="5112,8350 5142,9156 6710,9156 6726,8351 "/>
   <path class="fil14" d="M3698 9012c0,296 -239,535 -535,535 -295,0 -535,-239 -535,-535 0,-295 240,-535 535,-535 296,0 535,240 535,535z"/>
   <path class="fil22" d="M2276 3605l7339 -5 -237 4829 -6873 -2 -229 -4822 0 0zm299 196l6741 -4 -218 4436 -6314 -3 -209 -4429 0 0 0 0z"/>
  </g>
 </g>
</svg>
