<?xml version="1.0" encoding="UTF-8" standalone="no"?>
<svg
   xmlns:dc="http://purl.org/dc/elements/1.1/"
   xmlns:cc="http://creativecommons.org/ns#"
   xmlns:rdf="http://www.w3.org/1999/02/22-rdf-syntax-ns#"
   xmlns:svg="http://www.w3.org/2000/svg"
   xmlns="http://www.w3.org/2000/svg"
   xml:space="preserve"
   style="enable-background:new 0 0 512 512;"
   viewBox="0 0 512 512"
   y="0px"
   x="0px"
   id="Layer_1"
   version="1.1"><metadata
     id="metadata71"><rdf:RDF><cc:Work
         rdf:about=""><dc:format>image/svg+xml</dc:format><dc:type
           rdf:resource="http://purl.org/dc/dcmitype/StillImage" /><dc:title></dc:title></cc:Work></rdf:RDF></metadata><defs
     id="defs69" /><rect
     style="fill:#e6e6e6;fill-opacity:1"
     id="rect3"
     height="356.174"
     width="33.391"
     y="77.913"
     x="478.609" /><rect
     style="fill:#e6e6e6;fill-opacity:1"
     id="rect5"
     height="267.13"
     width="33.391"
     y="122.435"
     x="411.826" /><rect
     style="fill:#e6e6e6;fill-opacity:1"
     id="rect7"
     height="155.826"
     width="33.391"
     y="178.087"
     x="345.043" /><polygon
     id="polygon9"
     points="278.261,33.391 278.261,0 211.478,0 211.478,33.391 178.087,33.391 178.087,66.783   144.696,66.783 144.696,100.174 111.304,100.174 111.304,133.565 33.391,133.565 33.391,166.957 0,166.957 0,345.043   33.391,345.043 33.391,378.435 111.304,378.435 111.304,411.826 144.696,411.826 144.696,445.217 178.087,445.217 178.087,478.609   211.478,478.609 211.478,512 278.261,512 278.261,478.609 311.652,478.609 311.652,33.391 "
     style="fill:#e6e6e6;fill-opacity:1" /><polygon
     id="polygon11"
     points="278.261,33.391 278.261,0 211.478,0 211.478,33.391 178.087,33.391 178.087,66.783   144.696,66.783 144.696,100.174 111.304,100.174 111.304,133.565 33.391,133.565 33.391,166.957 0,166.957 0,200.348   111.304,200.348 111.304,166.957 144.696,166.957 144.696,133.565 178.087,133.565 178.087,100.174 211.478,100.174 211.478,66.783   311.652,66.783 311.652,33.391 "
     style="fill:#ffffff;fill-opacity:1" /><rect
     style="fill:#e6e6e6;fill-opacity:1"
     id="rect13"
     height="178.087"
     width="33.391"
     y="166.957" /><rect
     style="fill:#e6e6e6;fill-opacity:1"
     id="rect15"
     height="445.217"
     width="33.391"
     y="33.391"
     x="278.261" /><rect
     style="fill:#e6e6e6;fill-opacity:1"
     id="rect17"
     height="33.391"
     width="77.913"
     y="133.565"
     x="33.391" /><rect
     style="fill:#e6e6e6;fill-opacity:1"
     id="rect19"
     height="33.391"
     width="77.913"
     y="345.043"
     x="33.391" /><rect
     style="fill:#e6e6e6;fill-opacity:1"
     id="rect21"
     height="33.391"
     width="33.391"
     y="100.174"
     x="111.304" /><rect
     style="fill:#e6e6e6;fill-opacity:1"
     id="rect23"
     height="33.391"
     width="33.391"
     y="66.783"
     x="144.696" /><rect
     style="fill:#e6e6e6;fill-opacity:1"
     id="rect25"
     height="33.391"
     width="33.391"
     y="33.391"
     x="178.087" /><rect
     style="fill:#e6e6e6;fill-opacity:1"
     id="rect27"
     height="33.391"
     width="66.783"
     x="211.478" /><rect
     style="fill:#e6e6e6;fill-opacity:1"
     id="rect29"
     height="33.391"
     width="33.391"
     y="378.435"
     x="111.304" /><rect
     style="fill:#e6e6e6;fill-opacity:1"
     id="rect31"
     height="33.391"
     width="33.391"
     y="411.826"
     x="144.696" /><rect
     style="fill:#e6e6e6;fill-opacity:1"
     id="rect33"
     height="33.391"
     width="33.391"
     y="445.217"
     x="178.087" /><rect
     style="fill:#e6e6e6;fill-opacity:1"
     id="rect35"
     height="33.391"
     width="66.783"
     y="478.609"
     x="211.478" /><g
     id="g37" /><g
     id="g39" /><g
     id="g41" /><g
     id="g43" /><g
     id="g45" /><g
     id="g47" /><g
     id="g49" /><g
     id="g51" /><g
     id="g53" /><g
     id="g55" /><g
     id="g57" /><g
     id="g59" /><g
     id="g61" /><g
     id="g63" /><g
     id="g65" /></svg>