<?xml version="1.0" encoding="UTF-8"?>
<!DOCTYPE svg PUBLIC "-//W3C//DTD SVG 1.1//EN" "http://www.w3.org/Graphics/SVG/1.1/DTD/svg11.dtd">
<!-- Creator: CorelDRAW X8 -->
<svg xmlns="http://www.w3.org/2000/svg" xml:space="preserve" width="361.244mm" height="147.813mm" version="1.1" style="shape-rendering:geometricPrecision; text-rendering:geometricPrecision; image-rendering:optimizeQuality; fill-rule:evenodd; clip-rule:evenodd"
viewBox="0 0 75524 30903"
 xmlns:xlink="http://www.w3.org/1999/xlink">
 <defs>
  <style type="text/css">
   <![CDATA[
    .fil0 {fill:#7E7E7E}
    .fil3 {fill:#7F7F7F}
    .fil2 {fill:gray}
    .fil5 {fill:gray}
    .fil6 {fill:#818181}
    .fil7 {fill:#848484}
    .fil11 {fill:#989898}
    .fil20 {fill:#9A9A9A}
    .fil19 {fill:#9B9B9B}
    .fil14 {fill:#9C9C9C}
    .fil8 {fill:#9D9D9D}
    .fil9 {fill:#9E9E9E}
    .fil10 {fill:#A1A1A1}
    .fil12 {fill:#A3A3A3}
    .fil13 {fill:#A4A4A4}
    .fil16 {fill:darkgray}
    .fil15 {fill:#AAAAAA}
    .fil17 {fill:#B0B0B0}
    .fil18 {fill:#B2B2B2}
    .fil4 {fill:#C3C3C3}
    .fil1 {fill:#C5C5C5}
   ]]>
  </style>
 </defs>
 <g id="Layer_x0020_1">
  <metadata id="CorelCorpID_0Corel-Layer"/>
  <g id="_1830879672816">
   <path class="fil0" d="M295 30460l0 74 -74 0 0 74 -73 0 0 74 -74 0 0 73 -74 0 0 148 2729 0 0 -2803 -74 0 0 74 -74 0 0 74 -73 0 0 74 -74 0 0 2138 -2139 0zm75008 443l-74 0 0 -74 74 0 0 74zm-2729 0l-74 0 0 -74 74 0 0 74z"/>
   <polygon class="fil0" points="2581,30903 2581,30829 2655,30829 2655,30903 "/>
   <polygon class="fil1" points="75524,30903 75524,0 0,0 0,74 75377,74 75377,30903 "/>
   <path class="fil2" d="M47055 2581l148 0 0 148 -74 0 0 -74 -74 0 0 -74zm5605 -2138l0 2138 -2138 0 0 -2138 2138 0zm-4941 0l2139 0 0 2138 -2139 0 0 -2138zm-664 2138l-2139 0 0 -2138 2139 0 0 2138zm6048 -2360l74 0 0 74 74 0 0 74 -148 0 0 -148zm-443 222l0 -148 148 0 0 74 -74 0 0 74 -74 0zm-10694 -295l0 73 74 0 0 74 74 0 0 74 73 0 0 74 2066 0 0 2065 73 0 0 73 74 0 0 74 74 0 0 74 74 0 0 74 147 0 0 73 10916 0 0 -147 73 0 0 74 148 0 0 -74 74 0 0 -74 73 0 0 -74 74 0 0 -2138 -74 0 0 -74 -73 0 0 -74 -74 0 0 -74 -148 0 0 74 -73 0 0 74 -74 0 0 74 -74 0 0 2138 -2139 0 0 -2138 2065 0 0 -74 74 0 0 -74 74 0 0 -74 74 0 0 -73 -8187 0 0 -74 -74 0 0 74 -5384 0z"/>
   <path class="fil2" d="M14235 2581l0 74 -74 0 0 74 -74 0 0 -148 148 0zm-3467 0l148 0 0 74 73 0 0 148 -73 0 0 -74 -74 0 0 -74 -74 0 0 -74zm3467 0l0 -2138 2138 0 0 2138 -2138 0zm-2803 -2138l2139 0 0 2138 -2139 0 0 -2138zm-664 2138l-2139 0 0 -2138 2139 0 0 2138zm-5089 -2433l0 73 74 0 0 74 74 0 0 74 73 0 0 74 2065 0 0 2138 -2065 0 0 74 -147 0 0 -74 74 0 0 -2138 -74 0 0 -74 -74 0 0 -74 -74 0 0 -74 -147 0 0 74 -74 0 0 74 -74 0 0 74 -73 0 0 2138 73 0 0 74 74 0 0 74 74 0 0 74 147 0 0 -74 74 0 0 147 10916 0 0 -73 147 0 0 -74 74 0 0 -74 74 0 0 -74 73 0 0 -73 74 0 0 -2065 2065 0 0 -74 74 0 0 -74 74 0 0 -74 74 0 0 -73 -5384 0 0 -74 -74 0 0 74 -8187 0z"/>
   <path class="fil2" d="M67264 2581l0 74 -74 0 0 74 -74 0 0 -148 148 0zm-3467 0l148 0 0 74 74 0 0 148 -74 0 0 -74 -74 0 0 -74 -74 0 0 -74zm3467 0l0 -2138 2139 0 0 2138 -2139 0zm-2803 -2138l2139 0 0 2138 -2139 0 0 -2138zm-664 2138l-2138 0 0 -2138 2138 0 0 2138zm-2138 -2138l-74 0 0 -74 -74 0 0 -74 148 0 0 148zm-591 -148l74 0 0 -74 74 0 0 148 -148 0 0 -74zm-2360 -147l0 73 74 0 0 74 74 0 0 74 74 0 0 74 2065 0 0 2138 -2139 0 0 -2138 -74 0 0 -74 -74 0 0 -74 -73 0 0 -74 -148 0 0 74 -74 0 0 74 -73 0 0 74 -74 0 0 2138 74 0 0 74 73 0 0 74 74 0 0 74 148 0 0 -74 73 0 0 147 10916 0 0 -73 147 0 0 -74 74 0 0 -74 74 0 0 -74 74 0 0 -73 73 0 0 -2065 2066 0 0 -74 73 0 0 -74 74 0 0 -74 74 0 0 -73 -5384 0 0 -74 -74 0 0 74 -8187 0z"/>
   <path class="fil2" d="M75229 11211l-73 0 0 -74 -74 0 0 -74 -74 0 0 -74 -74 0 0 -73 -2065 0 0 73 -74 0 0 -2212 2213 0 0 2139 74 0 0 73 74 0 0 74 73 0 0 148zm-2655 -2656l148 0 0 148 -74 0 0 -74 -74 0 0 -74zm221 -2581l2213 0 0 2213 -2213 0 0 -2213zm74 -2729l2065 0 0 -74 74 0 0 2213 -2213 0 0 -2213 74 0 0 74zm0 -2802l2065 0 0 2138 -2065 0 0 74 -74 0 0 74 -73 0 0 74 -74 0 0 73 -74 0 0 74 -74 0 0 13792 74 0 0 -74 74 0 0 -73 74 0 0 -74 73 0 0 -2139 -73 0 0 -74 -74 0 0 -73 -74 0 0 -222 74 0 0 -73 74 0 0 -74 73 0 0 -74 74 0 0 -2213 2065 0 0 -73 74 0 0 -74 74 0 0 -74 74 0 0 -74 73 0 0 -73 74 0 0 -11063 -2655 0 0 73 74 0 0 74 73 0 0 74 74 0 0 74z"/>
   <polygon class="fil2" points="25445,443 27510,443 27510,2508 27584,2508 27584,2581 27658,2581 27658,2655 27732,2655 27732,2729 27805,2729 27805,2803 27953,2803 27953,2876 33337,2876 33337,2803 33484,2803 33484,2729 33558,2729 33558,2655 33632,2655 33632,2581 33706,2581 33706,2508 33779,2508 33779,443 35845,443 35845,369 35918,369 35918,295 36066,295 36066,369 35992,369 35992,443 35918,443 35918,2581 33779,2581 33779,2655 33706,2655 33706,2729 33632,2729 33632,2803 33558,2803 33558,2876 38868,2876 38868,2729 38942,2729 38942,2803 39090,2803 39090,2729 39163,2729 39163,2655 39237,2655 39237,2581 39311,2581 39311,443 39237,443 39237,369 39163,369 39163,295 39090,295 39090,221 38942,221 38942,295 38868,295 38868,369 38795,369 38795,443 38721,443 38721,2581 38795,2581 38795,2655 38647,2655 38647,2581 36582,2581 36582,443 38647,443 38647,369 38721,369 38721,295 38795,295 38795,221 38868,221 38868,148 30682,148 30682,221 30755,221 30755,295 30829,295 30829,369 30903,369 30903,443 33116,443 33116,2581 30903,2581 30903,2655 30829,2655 30829,2729 30755,2729 30755,2803 30534,2803 30534,2729 30460,2729 30460,2655 30387,2655 30387,2581 28174,2581 28174,443 30387,443 30387,369 30460,369 30460,295 30534,295 30534,221 30608,221 30608,148 25224,148 25224,295 25371,295 25371,369 25445,369 "/>
   <path class="fil3" d="M72795 19914l2213 0 0 2212 -2213 0 0 -2212zm0 -2803l2213 0 0 2213 -2213 0 0 -2213zm-295 -221l0 5458 74 0 0 73 74 0 0 74 74 0 0 74 73 0 0 74 74 0 0 73 2065 0 0 -73 148 0 0 73 -74 0 0 2139 74 0 0 74 74 0 0 74 73 0 0 73 74 0 0 -10915 -74 0 0 74 -73 0 0 73 -74 0 0 74 -74 0 0 2139 74 0 0 74 -148 0 0 -74 -2065 0 0 74 -74 0 0 73 -73 0 0 74 -74 0 0 74 -74 0 0 74 -74 0z"/>
   <path class="fil3" d="M72795 28248l74 0 0 74 2065 0 0 -74 74 0 0 -74 74 0 0 -74 74 0 0 -73 73 0 0 147 -73 0 0 74 -74 0 0 74 -74 0 0 2138 -2139 0 0 74 -147 0 0 -74 73 0 0 -2212zm2434 2655l-2655 0 0 -74 -74 0 0 -8334 74 0 0 74 74 0 0 74 74 0 0 73 73 0 0 2213 -147 0 0 74 -74 0 0 221 74 0 0 74 74 0 0 73 73 0 0 74 74 0 0 2213 2065 0 0 74 74 0 0 73 74 0 0 74 74 0 0 74 73 0 0 74 74 0 0 2802 -74 0 0 74zm-2434 -2655l-147 0 0 -74 -74 0 0 -147 74 0 0 73 74 0 0 74 73 0 0 74z"/>
   <path class="fil2" d="M295 22053l0 -2066 -74 0 0 -73 2213 0 0 2212 -2213 0 0 -73 74 0zm2213 -5016l0 74 -74 0 0 2213 -2213 0 0 73 -73 0 0 148 -148 0 0 2876 74 0 0 74 74 0 0 74 73 0 0 74 74 0 0 73 2139 0 0 2139 74 0 0 74 73 0 0 74 74 0 0 73 74 0 0 -8113 -74 0 0 74 -147 0z"/>
   <path class="fil2" d="M295 8113l0 -2065 -74 0 0 -74 2213 0 0 2213 -2213 0 0 -74 74 0zm-295 -2434l0 2803 74 0 0 73 74 0 0 74 73 0 0 74 74 0 0 74 2139 0 0 2139 74 0 0 73 73 0 0 74 74 0 0 74 74 0 0 -8113 -74 0 0 74 -74 0 0 73 -73 0 0 74 -74 0 0 2139 -2139 0 0 74 -74 0 0 74 -73 0 0 73 -74 0 0 74 -74 0z"/>
   <polygon class="fil4" points="64461,2581 66600,2581 66600,443 64461,443 "/>
   <polygon class="fil4" points="30977,443 30977,2581 33116,2581 33116,443 "/>
   <polygon class="fil4" points="11432,2581 13571,2581 13571,443 11432,443 "/>
   <polygon class="fil4" points="30313,2581 30313,443 28174,443 28174,2581 "/>
   <polygon class="fil4" points="47719,2581 49858,2581 49858,443 47719,443 "/>
   <polygon class="fil4" points="2360,27658 2360,25519 295,25519 295,27658 "/>
   <polygon class="fil4" points="74934,13718 74934,11579 72869,11579 72869,13718 "/>
   <polygon class="fil4" points="74934,27658 74934,25519 72869,25519 72869,27658 "/>
   <polygon class="fil4" points="2360,13718 2360,11579 295,11579 295,13718 "/>
   <polygon class="fil4" points="2360,2581 2360,443 295,443 295,2581 "/>
   <polygon class="fil4" points="58930,443 58930,2581 60995,2581 60995,443 "/>
   <polygon class="fil4" points="72869,443 72869,2581 74934,2581 74934,443 "/>
   <polygon class="fil4" points="21905,2581 21905,443 19840,443 19840,2581 "/>
   <polygon class="fil4" points="41450,2581 41450,443 39385,443 39385,2581 "/>
   <polygon class="fil4" points="5900,443 5900,2581 7965,2581 7965,443 "/>
   <polygon class="fil4" points="55389,2581 55389,443 53324,443 53324,2581 "/>
   <polygon class="fil4" points="24708,2581 24708,443 22643,443 22643,2581 "/>
   <polygon class="fil4" points="5163,2581 5163,443 3098,443 3098,2581 "/>
   <polygon class="fil4" points="58192,2581 58192,443 56127,443 56127,2581 "/>
   <polygon class="fil4" points="38647,2581 38647,443 36582,443 36582,2581 "/>
   <polygon class="fil4" points="295,6048 295,8113 2360,8113 2360,6048 "/>
   <polygon class="fil4" points="72869,19250 74934,19250 74934,17185 72869,17185 "/>
   <polygon class="fil4" points="2360,10916 2360,8850 295,8850 295,10916 "/>
   <polygon class="fil4" points="74934,10916 74934,8850 72869,8850 72869,10916 "/>
   <polygon class="fil4" points="74934,24855 74934,22790 72869,22790 72869,24855 "/>
   <polygon class="fil4" points="2360,24855 2360,22790 295,22790 295,24855 "/>
   <polygon class="fil4" points="72869,22053 74934,22053 74934,19987 72869,19987 "/>
   <polygon class="fil4" points="295,19987 295,22053 2360,22053 2360,19987 "/>
   <polygon class="fil4" points="2360,17185 295,17185 295,19250 2360,19250 "/>
   <polygon class="fil4" points="72869,8113 74934,8113 74934,6048 72869,6048 "/>
   <polygon class="fil4" points="2360,3245 295,3245 295,5310 2360,5310 "/>
   <polygon class="fil4" points="74934,3245 72869,3245 72869,5310 74934,5310 "/>
   <polygon class="fil4" points="16300,443 14235,443 14235,2508 16300,2508 "/>
   <polygon class="fil4" points="2360,28322 295,28322 295,30387 2360,30387 "/>
   <polygon class="fil4" points="52587,443 50522,443 50522,2508 52587,2508 "/>
   <polygon class="fil4" points="27510,2508 27510,443 25445,443 25445,2508 "/>
   <polygon class="fil4" points="74934,28322 72869,28322 72869,30387 74934,30387 "/>
   <polygon class="fil4" points="2360,14382 295,14382 295,16447 2360,16447 "/>
   <polygon class="fil4" points="74934,14382 72869,14382 72869,16447 74934,16447 "/>
   <polygon class="fil4" points="35845,443 33779,443 33779,2508 35845,2508 "/>
   <polygon class="fil4" points="47055,2508 47055,443 44990,443 44990,2508 "/>
   <polygon class="fil4" points="69329,443 67264,443 67264,2508 69329,2508 "/>
   <polygon class="fil4" points="72132,443 70066,443 70066,2508 72132,2508 "/>
   <polygon class="fil4" points="44253,2508 44253,443 42187,443 42187,2508 "/>
   <polygon class="fil4" points="10768,2508 10768,443 8703,443 8703,2508 "/>
   <polygon class="fil4" points="19102,443 17037,443 17037,2508 19102,2508 "/>
   <polygon class="fil4" points="63797,2508 63797,443 61732,443 61732,2508 "/>
   <polygon class="fil5" points="30313,443 30313,2581 30387,2581 30387,2655 30460,2655 30460,2729 30534,2729 30534,2803 30755,2803 30755,2729 30829,2729 30829,2655 30903,2655 30903,2581 30977,2581 30977,443 30903,443 30903,369 30829,369 30829,295 30755,295 30755,221 30682,221 30682,148 47350,148 47350,74 13940,74 13940,148 30608,148 30608,221 30534,221 30534,295 30460,295 30460,369 30387,369 30387,443 "/>
   <polygon class="fil6" points="295,19250 295,17185 2360,17185 2360,17111 2508,17111 2508,16963 2581,16963 2581,16890 2655,16890 2655,16742 2729,16742 2729,14161 2655,14161 2655,14235 2581,14235 2581,14308 2508,14308 2508,14382 2434,14382 2434,16521 295,16521 295,14308 221,14308 221,14235 148,14235 148,14161 74,14161 74,14087 0,14087 0,19545 148,19545 148,19397 221,19397 221,19250 "/>
   <polygon class="fil2" points="2360,11579 2360,11506 2508,11506 2508,11579 2434,11579 2434,13718 2508,13718 2508,13792 2581,13792 2581,13866 2655,13866 2655,13940 2729,13940 2729,11358 2655,11358 2655,11432 2581,11432 2581,11284 2655,11284 2655,11211 2581,11211 2581,11137 2508,11137 2508,11063 2434,11063 2434,10989 2360,10989 2360,10916 295,10916 295,8850 221,8850 221,8777 148,8777 148,8703 74,8703 74,8629 0,8629 0,14013 74,14013 74,13940 148,13940 148,13866 221,13866 221,13792 295,13792 295,11579 "/>
   <polygon class="fil2" points="295,5310 295,3245 2360,3245 2360,3171 2434,3171 2434,3098 2508,3098 2508,3024 2581,3024 2581,2950 2655,2950 2655,2729 2581,2729 2581,2655 2508,2655 2508,2581 295,2581 295,443 2360,443 2360,369 2434,369 2434,295 2508,295 2508,221 2581,221 2581,148 0,148 0,5532 74,5532 74,5458 148,5458 148,5384 221,5384 221,5310 "/>
   <polygon class="fil5" points="75377,30903 75377,74 66969,74 66969,148 75303,148 75303,30903 "/>
   <polygon class="fil6" points="2360,28322 2360,28248 2434,28248 2434,28174 2508,28174 2508,28100 2581,28100 2581,28027 2655,28027 2655,27953 2581,27953 2581,27805 2434,27805 2434,27732 2360,27732 2360,27658 295,27658 295,25445 221,25445 221,25371 148,25371 148,25298 74,25298 74,25224 0,25224 0,30755 74,30755 74,30682 148,30682 148,30608 221,30608 221,30534 295,30534 295,28322 "/>
   <polygon class="fil2" points="295,25519 2360,25519 2360,25445 2434,25445 2434,25371 2508,25371 2508,25298 2581,25298 2581,25224 2655,25224 2655,25150 2581,25150 2581,25076 2508,25076 2508,25003 2434,25003 2434,24929 2360,24929 2360,24855 295,24855 295,22643 221,22643 221,22569 148,22569 148,22495 74,22495 74,22421 0,22421 0,25224 74,25224 74,25298 148,25298 148,25371 221,25371 221,25445 295,25445 "/>
   <polygon class="fil5" points="56127,443 58192,443 58192,369 58266,369 58266,295 58340,295 58340,221 58413,221 58413,148 66895,148 66895,74 47424,74 47424,148 55906,148 55906,221 55979,221 55979,295 56053,295 56053,369 56127,369 "/>
   <polygon class="fil3" points="16816,2876 19324,2876 19324,2729 19397,2729 19397,2803 19545,2803 19545,2729 19619,2729 19619,2655 19692,2655 19692,2581 19766,2581 19766,443 19692,443 19692,369 19619,369 19619,295 19545,295 19545,221 19397,221 19397,295 19324,295 19324,369 19250,369 19250,443 19176,443 19176,2581 17037,2581 17037,2655 16963,2655 16963,2729 16890,2729 16890,2803 16816,2803 "/>
   <polygon class="fil3" points="41966,2876 44474,2876 44474,2803 44400,2803 44400,2729 44326,2729 44326,2655 44253,2655 44253,2581 42114,2581 42114,443 42040,443 42040,369 41966,369 41966,295 41892,295 41892,221 41745,221 41745,295 41671,295 41671,369 41597,369 41597,443 41524,443 41524,2581 41597,2581 41597,2655 41671,2655 41671,2729 41745,2729 41745,2803 41892,2803 41892,2729 41966,2729 "/>
   <polygon class="fil3" points="69845,2876 72353,2876 72353,2729 72427,2729 72427,2803 72574,2803 72574,2729 72648,2729 72648,2655 72722,2655 72722,2581 72795,2581 72795,443 72722,443 72722,369 72648,369 72648,295 72574,295 72574,221 72427,221 72427,295 72353,295 72353,369 72279,369 72279,443 72205,443 72205,2581 70066,2581 70066,2655 69993,2655 69993,2729 69919,2729 69919,2803 69845,2803 "/>
   <polygon class="fil3" points="22421,2876 24929,2876 24929,2803 24855,2803 24855,2729 24781,2729 24781,2655 24708,2655 24708,2581 22643,2581 22643,2655 22495,2655 22495,2581 22569,2581 22569,443 22495,443 22495,369 22421,369 22421,295 22348,295 22348,221 22200,221 22200,295 22126,295 22126,369 22052,369 22052,443 21979,443 21979,2581 22052,2581 22052,2655 22126,2655 22126,2729 22200,2729 22200,2803 22348,2803 22348,2729 22421,2729 "/>
   <polygon class="fil5" points="3098,443 5163,443 5163,369 5237,369 5237,295 5310,295 5310,221 5384,221 5384,148 13866,148 13866,74 0,74 0,148 2876,148 2876,221 2950,221 2950,295 3024,295 3024,369 3098,369 "/>
   <polygon class="fil3" points="72574,14087 72648,14087 72648,14161 72722,14161 72722,14235 72795,14235 72795,14308 72869,14308 72869,14382 74934,14382 74934,14308 75008,14308 75008,14235 75082,14235 75082,14161 75156,14161 75156,14087 75229,14087 75229,14013 75156,14013 75156,13940 75082,13940 75082,13866 75008,13866 75008,13792 74934,13792 74934,13718 72869,13718 72869,13792 72795,13792 72795,13866 72722,13866 72722,13940 72648,13940 72648,14013 72574,14013 "/>
   <polygon class="fil3" points="72795,24929 72795,25003 72722,25003 72722,25076 72648,25076 72648,25150 72574,25150 72574,25224 72648,25224 72648,25298 72722,25298 72722,25371 72795,25371 72795,25445 72869,25445 72869,25519 74934,25519 74934,25445 75008,25445 75008,25371 75082,25371 75082,25298 75156,25298 75156,25224 75229,25224 75229,25150 75156,25150 75156,25076 75082,25076 75082,25003 75008,25003 75008,24929 74934,24929 74934,24855 72869,24855 72869,24929 "/>
   <polygon class="fil3" points="0,14013 0,14087 74,14087 74,14161 148,14161 148,14235 221,14235 221,14308 295,14308 295,14382 2360,14382 2360,14308 2434,14308 2434,14235 2508,14235 2508,14161 2581,14161 2581,14087 2655,14087 2655,14013 2581,14013 2581,13940 2508,13940 2508,13866 2434,13866 2434,13792 2360,13792 2360,13718 295,13718 295,13792 221,13792 221,13866 148,13866 148,13940 74,13940 74,14013 "/>
   <polygon class="fil3" points="2434,2581 2508,2581 2508,2655 2581,2655 2581,2729 2655,2729 2655,2803 2803,2803 2803,2729 2876,2729 2876,2655 2950,2655 2950,2581 3024,2581 3024,443 2950,443 2950,369 2876,369 2876,295 2803,295 2803,221 2655,221 2655,295 2581,295 2581,369 2508,369 2508,443 2434,443 "/>
   <polygon class="fil3" points="25371,2581 25371,443 25298,443 25298,369 25224,369 25224,295 25150,295 25150,221 25003,221 25003,295 24929,295 24929,369 24855,369 24855,443 24781,443 24781,2581 24855,2581 24855,2655 24929,2655 24929,2729 25003,2729 25003,2803 25150,2803 25150,2729 25224,2729 25224,2655 25298,2655 25298,2581 "/>
   <polygon class="fil7" points="24929,2876 27732,2876 27732,2803 27658,2803 27658,2729 27584,2729 27584,2655 27510,2655 27510,2581 25298,2581 25298,2655 25224,2655 25224,2729 25150,2729 25150,2803 25003,2803 25003,2729 24929,2729 24929,2655 24855,2655 24855,2581 24781,2581 24781,443 24855,443 24855,369 24929,369 24929,295 25003,295 25003,221 25150,221 25150,295 25224,295 25224,148 24929,148 24929,221 24855,221 24855,295 24781,295 24781,369 24708,369 24708,2655 24781,2655 24781,2729 24855,2729 24855,2803 24929,2803 "/>
   <polygon class="fil8" points="72574,14087 72574,14235 72648,14235 72648,14308 72722,14308 72722,14382 72795,14382 72795,16521 72722,16521 72722,16595 72648,16595 72648,16668 72574,16668 72574,16742 72500,16742 72500,16890 72574,16890 72574,16816 72648,16816 72648,16742 72722,16742 72722,16668 72795,16668 72795,16595 72869,16595 72869,16521 74934,16521 74934,16595 75082,16595 75082,16521 75008,16521 75008,14382 75082,14382 75082,14308 75156,14308 75156,14235 75229,14235 75229,14161 75303,14161 75303,13940 75229,13940 75229,13866 75156,13866 75156,13792 75082,13792 75082,13718 75008,13718 75008,11579 75082,11579 75082,11506 75156,11506 75156,11432 75229,11432 75229,11358 75303,11358 75303,11211 75229,11211 75229,11284 75156,11284 75156,11358 75082,11358 75082,11432 75008,11432 75008,11506 74934,11506 74934,13792 75008,13792 75008,13866 75082,13866 75082,13940 75156,13940 75156,14013 75229,14013 75229,14087 75156,14087 75156,14161 75082,14161 75082,14235 75008,14235 75008,14308 74934,14308 74934,16447 72869,16447 72869,14308 72795,14308 72795,14235 72722,14235 72722,14161 72648,14161 72648,14087 "/>
   <polygon class="fil9" points="2360,2581 2434,2581 2434,443 2508,443 2508,369 2581,369 2581,295 2655,295 2655,221 2803,221 2803,295 2876,295 2876,369 2950,369 2950,443 3024,443 3024,2581 2950,2581 2950,2655 2876,2655 2876,2729 2803,2729 2803,2803 2655,2803 2655,2950 2581,2950 2581,3024 2508,3024 2508,3098 2434,3098 2434,3171 2360,3171 2360,5310 221,5310 221,5384 148,5384 148,5458 74,5458 74,5532 0,5532 0,5679 74,5679 74,5605 148,5605 148,5532 221,5532 221,5458 295,5458 295,5384 2434,5384 2434,3245 2508,3245 2508,3171 2581,3171 2581,3098 2655,3098 2655,3024 2729,3024 2729,2876 2876,2876 2876,2803 2950,2803 2950,2729 3024,2729 3024,2655 3098,2655 3098,369 3024,369 3024,295 2950,295 2950,221 2876,221 2876,148 2581,148 2581,221 2508,221 2508,295 2434,295 2434,369 2360,369 "/>
   <polygon class="fil8" points="72795,24929 72869,24929 72869,22790 74934,22790 74934,24929 75008,24929 75008,25003 75082,25003 75082,25076 75156,25076 75156,25150 75229,25150 75229,25224 75156,25224 75156,25298 75082,25298 75082,25371 75008,25371 75008,25445 74934,25445 74934,27732 75008,27732 75008,27805 75082,27805 75082,27879 75156,27879 75156,27953 75229,27953 75229,28027 75303,28027 75303,27879 75229,27879 75229,27805 75156,27805 75156,27732 75082,27732 75082,27658 75008,27658 75008,25519 75082,25519 75082,25445 75156,25445 75156,25371 75229,25371 75229,25298 75303,25298 75303,25076 75229,25076 75229,25003 75156,25003 75156,24929 75082,24929 75082,24855 75008,24855 75008,22716 75082,22716 75082,22643 74934,22643 74934,22716 72869,22716 72869,22643 72795,22643 72795,22569 72722,22569 72722,22495 72648,22495 72648,22421 72574,22421 72574,22348 72500,22348 72500,22495 72574,22495 72574,22569 72648,22569 72648,22643 72722,22643 72722,22716 72795,22716 "/>
   <polygon class="fil3" points="2581,27805 2655,27805 2655,27879 2729,27879 2729,25298 2655,25298 2655,25371 2581,25371 2581,25445 2508,25445 2508,25519 2434,25519 2434,27658 2508,27658 2508,27732 2581,27732 "/>
   <polygon class="fil0" points="75303,13940 75303,11358 75229,11358 75229,11432 75156,11432 75156,11506 75082,11506 75082,11579 75008,11579 75008,13718 75082,13718 75082,13792 75156,13792 75156,13866 75229,13866 75229,13940 "/>
   <polygon class="fil0" points="75303,27879 75303,25298 75229,25298 75229,25371 75156,25371 75156,25445 75082,25445 75082,25519 75008,25519 75008,27658 75082,27658 75082,27732 75156,27732 75156,27805 75229,27805 75229,27879 "/>
   <polygon class="fil10" points="69624,2876 69845,2876 69845,2803 69919,2803 69919,2729 69993,2729 69993,2655 70066,2655 70066,2581 72205,2581 72205,443 72279,443 72279,369 72353,369 72353,295 72427,295 72427,221 72574,221 72574,295 72648,295 72648,369 72722,369 72722,443 72795,443 72795,2581 72722,2581 72722,2655 72648,2655 72648,2729 72574,2729 72574,2803 72427,2803 72427,2729 72353,2729 72353,2876 72500,2876 72500,2950 72574,2950 72574,2876 72648,2876 72648,2803 72722,2803 72722,2729 72795,2729 72795,2655 72869,2655 72869,369 72795,369 72795,295 72722,295 72722,221 72648,221 72648,148 72353,148 72353,221 72279,221 72279,295 72205,295 72205,369 72132,369 72132,2508 69993,2508 69993,2581 69919,2581 69919,2655 69845,2655 69845,2729 69771,2729 69771,2803 69624,2803 "/>
   <polygon class="fil3" points="19840,443 21905,443 21905,369 21979,369 21979,295 22052,295 22052,221 22126,221 22126,148 19619,148 19619,221 19692,221 19692,295 19766,295 19766,369 19840,369 "/>
   <polygon class="fil3" points="39385,443 41450,443 41450,369 41524,369 41524,295 41597,295 41597,221 41671,221 41671,148 39163,148 39163,221 39237,221 39237,295 39311,295 39311,369 39385,369 "/>
   <polygon class="fil0" points="19619,2876 22126,2876 22126,2803 22052,2803 22052,2729 21979,2729 21979,2655 21905,2655 21905,2581 19840,2581 19840,2655 19766,2655 19766,2729 19692,2729 19692,2803 19619,2803 "/>
   <polygon class="fil0" points="39163,2876 41671,2876 41671,2803 41597,2803 41597,2729 41524,2729 41524,2655 41450,2655 41450,2581 39385,2581 39385,2655 39311,2655 39311,2729 39237,2729 39237,2803 39163,2803 "/>
   <polygon class="fil3" points="22643,443 24708,443 24708,369 24781,369 24781,295 24855,295 24855,221 24929,221 24929,148 22421,148 22421,221 22495,221 22495,295 22569,295 22569,369 22643,369 "/>
   <polygon class="fil0" points="55906,2876 58413,2876 58413,2803 58340,2803 58340,2729 58266,2729 58266,2655 58192,2655 58192,2581 56127,2581 56127,2655 56053,2655 56053,2729 55979,2729 55979,2803 55906,2803 "/>
   <polygon class="fil0" points="2876,2876 5384,2876 5384,2803 5310,2803 5310,2729 5237,2729 5237,2655 5163,2655 5163,2581 3098,2581 3098,2655 3024,2655 3024,2729 2950,2729 2950,2803 2876,2803 "/>
   <polygon class="fil10" points="41671,2876 41966,2876 41966,2729 41892,2729 41892,2803 41745,2803 41745,2729 41671,2729 41671,2655 41597,2655 41597,2581 41524,2581 41524,443 41597,443 41597,369 41671,369 41671,295 41745,295 41745,221 41892,221 41892,295 41966,295 41966,369 42040,369 42040,443 42114,443 42114,2581 44253,2581 44253,2655 44326,2655 44326,2729 44400,2729 44400,2803 44474,2803 44474,2876 44695,2876 44695,2803 44548,2803 44548,2729 44474,2729 44474,2655 44400,2655 44400,2581 44326,2581 44326,2508 42187,2508 42187,369 42114,369 42114,295 42040,295 42040,221 41966,221 41966,148 41671,148 41671,221 41597,221 41597,295 41524,295 41524,369 41450,369 41450,2655 41524,2655 41524,2729 41597,2729 41597,2803 41671,2803 "/>
   <polygon class="fil10" points="16595,2876 16816,2876 16816,2803 16890,2803 16890,2729 16963,2729 16963,2655 17037,2655 17037,2581 19176,2581 19176,443 19250,443 19250,369 19324,369 19324,295 19397,295 19397,221 19545,221 19545,295 19619,295 19619,369 19692,369 19692,443 19766,443 19766,2581 19692,2581 19692,2655 19619,2655 19619,2729 19545,2729 19545,2803 19397,2803 19397,2729 19324,2729 19324,2876 19619,2876 19619,2803 19692,2803 19692,2729 19766,2729 19766,2655 19840,2655 19840,369 19766,369 19766,295 19692,295 19692,221 19619,221 19619,148 19324,148 19324,221 19250,221 19250,295 19176,295 19176,369 19102,369 19102,2508 16963,2508 16963,2581 16890,2581 16890,2655 16816,2655 16816,2729 16742,2729 16742,2803 16595,2803 "/>
   <path class="fil11" d="M72869 17185l2065 0 0 2065 -2065 0 0 -2065zm-74 2139l2213 0 0 -2213 -2213 0 0 2213z"/>
   <path class="fil11" d="M72869 19987l2065 0 0 2066 -2065 0 0 -2066zm-74 2139l2213 0 0 -2212 -2213 0 0 2212z"/>
   <path class="fil11" d="M72869 6048l2065 0 0 2065 -2065 0 0 -2065zm-74 2139l2213 0 0 -2213 -2213 0 0 2213z"/>
   <polygon class="fil12" points="2581,27805 2581,27732 2508,27732 2508,27658 2434,27658 2434,25519 2508,25519 2508,25445 2581,25445 2581,25371 2655,25371 2655,25298 2729,25298 2729,25076 2655,25076 2655,25003 2581,25003 2581,24929 2508,24929 2508,24855 2434,24855 2434,22716 295,22716 295,22790 2360,22790 2360,24929 2434,24929 2434,25003 2508,25003 2508,25076 2581,25076 2581,25150 2655,25150 2655,25224 2581,25224 2581,25298 2508,25298 2508,25371 2434,25371 2434,25445 2360,25445 2360,27732 2434,27732 2434,27805 "/>
   <polygon class="fil13" points="295,16447 295,16521 2434,16521 2434,14382 2508,14382 2508,14308 2581,14308 2581,14235 2655,14235 2655,14161 2729,14161 2729,13940 2655,13940 2655,13866 2581,13866 2581,13792 2508,13792 2508,13718 2434,13718 2434,11579 2508,11579 2508,11506 2360,11506 2360,13792 2434,13792 2434,13866 2508,13866 2508,13940 2581,13940 2581,14013 2655,14013 2655,14087 2581,14087 2581,14161 2508,14161 2508,14235 2434,14235 2434,14308 2360,14308 2360,16447 "/>
   <polygon class="fil8" points="72795,28248 72795,30460 72722,30460 72722,30534 72869,30534 72869,30460 75008,30460 75008,28322 75082,28322 75082,28248 75156,28248 75156,28174 75229,28174 75229,28027 75156,28027 75156,28100 75082,28100 75082,28174 75008,28174 75008,28248 74934,28248 74934,30387 72869,30387 72869,28248 "/>
   <polygon class="fil8" points="75229,11211 75229,11063 75156,11063 75156,10989 75082,10989 75082,10916 75008,10916 75008,8777 72795,8777 72795,10989 72869,10989 72869,8850 74934,8850 74934,10989 75008,10989 75008,11063 75082,11063 75082,11137 75156,11137 75156,11211 "/>
   <polygon class="fil14" points="72795,5384 75008,5384 75008,3171 74934,3171 74934,5310 72869,5310 72869,3171 72795,3171 "/>
   <polygon class="fil14" points="221,6048 2360,6048 2360,8113 221,8113 221,8187 2434,8187 2434,5974 221,5974 "/>
   <polygon class="fil14" points="221,19987 2360,19987 2360,22053 221,22053 221,22126 2434,22126 2434,19914 221,19914 "/>
   <polygon class="fil14" points="5384,2876 5679,2876 5679,2729 5605,2729 5605,2803 5458,2803 5458,2729 5384,2729 5384,2655 5310,2655 5310,2581 5237,2581 5237,443 5310,443 5310,369 5384,369 5384,295 5458,295 5458,221 5605,221 5605,295 5679,295 5679,369 5753,369 5753,443 5827,443 5827,2581 5753,2581 5753,2655 5900,2655 5900,369 5827,369 5827,295 5753,295 5753,221 5679,221 5679,148 5384,148 5384,221 5310,221 5310,295 5237,295 5237,369 5163,369 5163,2655 5237,2655 5237,2729 5310,2729 5310,2803 5384,2803 "/>
   <polygon class="fil14" points="22126,2876 22421,2876 22421,2729 22348,2729 22348,2803 22200,2803 22200,2729 22126,2729 22126,2655 22052,2655 22052,2581 21979,2581 21979,443 22052,443 22052,369 22126,369 22126,295 22200,295 22200,221 22348,221 22348,295 22421,295 22421,369 22495,369 22495,443 22569,443 22569,2581 22495,2581 22495,2655 22643,2655 22643,369 22569,369 22569,295 22495,295 22495,221 22421,221 22421,148 22126,148 22126,221 22052,221 22052,295 21979,295 21979,369 21905,369 21905,2655 21979,2655 21979,2729 22052,2729 22052,2803 22126,2803 "/>
   <polygon class="fil14" points="38868,2876 39163,2876 39163,2803 39237,2803 39237,2729 39311,2729 39311,2655 39385,2655 39385,369 39311,369 39311,295 39237,295 39237,221 39163,221 39163,148 38868,148 38868,221 38795,221 38795,295 38721,295 38721,369 38647,369 38647,2655 38795,2655 38795,2581 38721,2581 38721,443 38795,443 38795,369 38868,369 38868,295 38942,295 38942,221 39090,221 39090,295 39163,295 39163,369 39237,369 39237,443 39311,443 39311,2581 39237,2581 39237,2655 39163,2655 39163,2729 39090,2729 39090,2803 38942,2803 38942,2729 38868,2729 "/>
   <polygon class="fil14" points="55389,2581 55463,2581 55463,443 55537,443 55537,369 55611,369 55611,295 55684,295 55684,221 55832,221 55832,295 55906,295 55906,369 55979,369 55979,443 56053,443 56053,2581 55979,2581 55979,2655 55906,2655 55906,2729 55832,2729 55832,2803 55684,2803 55684,2729 55611,2729 55611,2876 55906,2876 55906,2803 55979,2803 55979,2729 56053,2729 56053,2655 56127,2655 56127,369 56053,369 56053,295 55979,295 55979,221 55906,221 55906,148 55611,148 55611,221 55537,221 55537,295 55463,295 55463,369 55389,369 "/>
   <polygon class="fil14" points="58413,2876 58708,2876 58708,2729 58635,2729 58635,2803 58487,2803 58487,2729 58413,2729 58413,2655 58340,2655 58340,2581 58266,2581 58266,443 58340,443 58340,369 58413,369 58413,295 58487,295 58487,221 58635,221 58635,295 58708,295 58708,369 58782,369 58782,443 58856,443 58856,2581 58930,2581 58930,369 58856,369 58856,295 58782,295 58782,221 58708,221 58708,148 58413,148 58413,221 58340,221 58340,295 58266,295 58266,369 58192,369 58192,2655 58266,2655 58266,2729 58340,2729 58340,2803 58413,2803 "/>
   <polygon class="fil12" points="2729,11358 2729,11137 2655,11137 2655,11063 2581,11063 2581,10989 2508,10989 2508,10916 2434,10916 2434,8777 295,8777 295,8703 221,8703 221,8629 148,8629 148,8555 74,8555 74,8482 0,8482 0,8629 74,8629 74,8703 148,8703 148,8777 221,8777 221,8850 2360,8850 2360,10989 2434,10989 2434,11063 2508,11063 2508,11137 2581,11137 2581,11211 2655,11211 2655,11284 2581,11284 2581,11432 2655,11432 2655,11358 "/>
   <polygon class="fil15" points="33337,2876 33558,2876 33558,2803 33632,2803 33632,2729 33706,2729 33706,2655 33779,2655 33779,2581 35918,2581 35918,443 35992,443 35992,369 36066,369 36066,295 35918,295 35918,369 35845,369 35845,2508 33706,2508 33706,2581 33632,2581 33632,2655 33558,2655 33558,2729 33484,2729 33484,2803 33337,2803 "/>
   <polygon class="fil16" points="25371,2581 27510,2581 27510,2655 27584,2655 27584,2729 27658,2729 27658,2803 27732,2803 27732,2876 27953,2876 27953,2803 27805,2803 27805,2729 27732,2729 27732,2655 27658,2655 27658,2581 27584,2581 27584,2508 25445,2508 25445,369 25371,369 25371,295 25224,295 25224,369 25298,369 25298,443 25371,443 "/>
   <polygon class="fil13" points="295,30387 295,30460 2434,30460 2434,28322 2508,28322 2508,28248 2581,28248 2581,28174 2655,28174 2655,28100 2729,28100 2729,27879 2655,27879 2655,27805 2581,27805 2581,27953 2655,27953 2655,28027 2581,28027 2581,28100 2508,28100 2508,28174 2434,28174 2434,28248 2360,28248 2360,30387 "/>
   <polygon class="fil10" points="221,19324 2434,19324 2434,17111 2360,17111 2360,19250 221,19250 "/>
   <polygon class="fil17" points="50522,2508 50522,2581 52660,2581 52660,443 52587,443 52587,2508 "/>
   <polygon class="fil18" points="14235,2508 14235,2581 16373,2581 16373,443 16300,443 16300,2508 "/>
   <polygon class="fil18" points="47055,2581 47055,2508 44990,2508 44990,443 44916,443 44916,2581 "/>
   <polygon class="fil17" points="63797,2581 63797,2508 61732,2508 61732,443 61659,443 61659,2581 "/>
   <polygon class="fil17" points="10768,2581 10768,2508 8703,2508 8703,443 8629,443 8629,2581 "/>
   <polygon class="fil18" points="67264,2508 67264,2581 69403,2581 69403,443 69329,443 69329,2508 "/>
   <polygon class="fil8" points="2508,17037 2655,17037 2655,16963 2729,16963 2729,16742 2655,16742 2655,16890 2581,16890 2581,16963 2508,16963 "/>
   <polygon class="fil19" points="63797,2581 63797,2655 63871,2655 63871,2729 63945,2729 63945,2803 64019,2803 64019,2655 63945,2655 63945,2581 "/>
   <polygon class="fil20" points="10768,2581 10768,2655 10842,2655 10842,2729 10916,2729 10916,2803 10989,2803 10989,2655 10916,2655 10916,2581 "/>
   <polygon class="fil19" points="72795,28248 72795,28174 72722,28174 72722,28100 72648,28100 72648,28027 72574,28027 72574,28174 72648,28174 72648,28248 "/>
   <polygon class="fil19" points="72574,25150 72648,25150 72648,25076 72722,25076 72722,25003 72795,25003 72795,24929 72648,24929 72648,25003 72574,25003 "/>
   <polygon class="fil14" points="14235,2581 14087,2581 14087,2729 14161,2729 14161,2655 14235,2655 "/>
   <polygon class="fil14" points="2655,30903 2655,30829 2581,30829 2581,30903 "/>
   <polygon class="fil14" points="47055,2581 47055,2655 47129,2655 47129,2729 47203,2729 47203,2581 "/>
   <polygon class="fil14" points="52660,443 52734,443 52734,369 52808,369 52808,295 52660,295 "/>
   <polygon class="fil14" points="61659,443 61659,295 61511,295 61511,369 61585,369 61585,443 "/>
   <polygon class="fil14" points="67264,2581 67116,2581 67116,2729 67190,2729 67190,2655 67264,2655 "/>
   <polygon class="fil19" points="61142,295 61068,295 61068,369 61216,369 61216,221 61142,221 "/>
   <polygon class="fil14" points="53103,369 53251,369 53251,295 53177,295 53177,221 53103,221 "/>
   <polygon class="fil14" points="72574,8629 72648,8629 72648,8703 72722,8703 72722,8555 72574,8555 "/>
  </g>
 </g>
</svg>
