<?xml version="1.0" encoding="UTF-8"?>
<!DOCTYPE svg PUBLIC "-//W3C//DTD SVG 1.1//EN" "http://www.w3.org/Graphics/SVG/1.1/DTD/svg11.dtd">
<!-- Creator: CorelDRAW X7 -->
<svg xmlns="http://www.w3.org/2000/svg" xml:space="preserve" width="1421px" height="1421px" version="1.1" style="shape-rendering:geometricPrecision; text-rendering:geometricPrecision; image-rendering:optimizeQuality; fill-rule:evenodd; clip-rule:evenodd"
viewBox="0 0 194673 194673"
 xmlns:xlink="http://www.w3.org/1999/xlink">
 <defs>
  <style type="text/css">
   <![CDATA[
    .fil5 {fill:none}
    .fil11 {fill:#7C4D24}
    .fil15 {fill:#72492D;fill-opacity:0.149020}
    .fil14 {fill:url(#id1)}
    .fil13 {fill:url(#id2)}
    .fil12 {fill:url(#id3)}
    .fil0 {fill:url(#id4)}
    .fil2 {fill:url(#id5);fill-rule:nonzero}
    .fil1 {fill:url(#id6);fill-rule:nonzero}
    .fil6 {fill:url(#id7);fill-rule:nonzero}
    .fil4 {fill:url(#id8);fill-rule:nonzero}
    .fil3 {fill:url(#id9);fill-rule:nonzero}
    .fil7 {fill:url(#id10);fill-rule:nonzero}
    .fil8 {fill:url(#id11);fill-rule:nonzero}
    .fil9 {fill:url(#id12);fill-rule:nonzero}
    .fil17 {fill:url(#id13);fill-rule:nonzero}
    .fil10 {fill:url(#id14);fill-rule:nonzero}
    .fil16 {fill:url(#id15);fill-rule:nonzero}
   ]]>
  </style>
   <clipPath id="id0">
    <path d="M97336 0c53758,0 97337,43579 97337,97336 0,53758 -43579,97337 -97337,97337 -53757,0 -97336,-43579 -97336,-97337 0,-53757 43579,-97336 97336,-97336z"/>
   </clipPath>
  <linearGradient id="id1" gradientUnits="userSpaceOnUse" x1="168471" y1="111787" x2="88129.2" y2="85833.7">
   <stop offset="0" style="stop-opacity:1; stop-color:#DF8A0A"/>
   <stop offset="0.0117647" style="stop-opacity:1; stop-color:#DF8A0A"/>
   <stop offset="0.180392" style="stop-opacity:1; stop-color:#FFD138"/>
   <stop offset="0.411765" style="stop-opacity:1; stop-color:#F7E880"/>
   <stop offset="0.419608" style="stop-opacity:1; stop-color:#F7E880"/>
   <stop offset="0.490196" style="stop-opacity:1; stop-color:#F7E880"/>
   <stop offset="0.658824" style="stop-opacity:1; stop-color:#F6C321"/>
   <stop offset="1" style="stop-opacity:1; stop-color:#DB8005"/>
  </linearGradient>
  <linearGradient id="id2" gradientUnits="userSpaceOnUse" xlink:href="#id1" x1="119507" y1="128989" x2="99204.7" y2="122431">
  </linearGradient>
  <linearGradient id="id3" gradientUnits="userSpaceOnUse" xlink:href="#id1" x1="117839" y1="105656" x2="26526.3" y2="76158.2">
  </linearGradient>
  <radialGradient id="id4" gradientUnits="userSpaceOnUse" gradientTransform="matrix(1 -0 -0 1 0 0)" cx="97336.3" cy="97336.3" r="97336.3" fx="97336.3" fy="97336.3">
   <stop offset="0" style="stop-opacity:1; stop-color:#B05C16"/>
   <stop offset="1" style="stop-opacity:1; stop-color:#A94504"/>
  </radialGradient>
  <linearGradient id="id5" gradientUnits="userSpaceOnUse" x1="145181" y1="98555.3" x2="145181" y2="-1551.91">
   <stop offset="0" style="stop-opacity:1; stop-color:#DF8A0A"/>
   <stop offset="0.0117647" style="stop-opacity:1; stop-color:#DF8A0A"/>
   <stop offset="0.180392" style="stop-opacity:1; stop-color:#FFD138"/>
   <stop offset="0.490196" style="stop-opacity:1; stop-color:#F7E880"/>
   <stop offset="0.658824" style="stop-opacity:1; stop-color:#F6C321"/>
   <stop offset="1" style="stop-opacity:1; stop-color:#DB8005"/>
  </linearGradient>
  <linearGradient id="id6" gradientUnits="userSpaceOnUse" x1="44109.6" y1="98555.5" x2="44109.6" y2="-1552.07">
   <stop offset="0" style="stop-opacity:1; stop-color:#DF8A0A"/>
   <stop offset="0.0117647" style="stop-opacity:1; stop-color:#DF8A0A"/>
   <stop offset="0.180392" style="stop-opacity:1; stop-color:#FFD138"/>
   <stop offset="0.658824" style="stop-opacity:1; stop-color:#F6C321"/>
   <stop offset="1" style="stop-opacity:1; stop-color:#DB8005"/>
  </linearGradient>
  <linearGradient id="id7" gradientUnits="userSpaceOnUse" x1="9687.04" y1="23789" x2="184988" y2="170883">
   <stop offset="0" style="stop-opacity:1; stop-color:#DF8000"/>
   <stop offset="0.180392" style="stop-opacity:1; stop-color:#FFD138"/>
   <stop offset="0.439216" style="stop-opacity:1; stop-color:#F7E8D6"/>
   <stop offset="0.439216" style="stop-opacity:1; stop-color:#F7E8D6"/>
   <stop offset="0.54902" style="stop-opacity:1; stop-color:#F7E8D6"/>
   <stop offset="0.811765" style="stop-opacity:1; stop-color:#F6C321"/>
   <stop offset="1" style="stop-opacity:1; stop-color:#A16200"/>
  </linearGradient>
  <linearGradient id="id8" gradientUnits="userSpaceOnUse" xlink:href="#id5" x1="-9909.39" y1="194899" x2="98127.6" y2="104248">
  </linearGradient>
  <linearGradient id="id9" gradientUnits="userSpaceOnUse" x1="123235" y1="209868" x2="167126" y2="89279">
   <stop offset="0" style="stop-opacity:1; stop-color:#DF8A0A"/>
   <stop offset="0.0117647" style="stop-opacity:1; stop-color:#DF8A0A"/>
   <stop offset="0.180392" style="stop-opacity:1; stop-color:#FFD138"/>
   <stop offset="0.419608" style="stop-opacity:1; stop-color:#F7E880"/>
   <stop offset="0.490196" style="stop-opacity:1; stop-color:#F7E880"/>
   <stop offset="0.658824" style="stop-opacity:1; stop-color:#F6C321"/>
   <stop offset="1" style="stop-opacity:1; stop-color:#DB8005"/>
  </linearGradient>
  <linearGradient id="id10" gradientUnits="userSpaceOnUse" x1="11308.4" y1="169521" x2="183364" y2="25151.3">
   <stop offset="0" style="stop-opacity:1; stop-color:#DF8A0A"/>
   <stop offset="0.0117647" style="stop-opacity:1; stop-color:#DF8A0A"/>
   <stop offset="0.180392" style="stop-opacity:1; stop-color:#FFD138"/>
   <stop offset="0.368627" style="stop-opacity:1; stop-color:#F7E8BC"/>
   <stop offset="0.380392" style="stop-opacity:1; stop-color:#F7E8BC"/>
   <stop offset="0.388235" style="stop-opacity:1; stop-color:#F7E8BC"/>
   <stop offset="0.419608" style="stop-opacity:1; stop-color:#F7E880"/>
   <stop offset="0.490196" style="stop-opacity:1; stop-color:#F7E880"/>
   <stop offset="0.658824" style="stop-opacity:1; stop-color:#F6C321"/>
   <stop offset="1" style="stop-opacity:1; stop-color:#DB8005"/>
  </linearGradient>
  <radialGradient id="id11" gradientUnits="userSpaceOnUse" gradientTransform="matrix(0.999993 -0 -0 0.999993 0 0)" cx="36576.9" cy="24281.4" r="9489.13" fx="36576.9" fy="24281.4">
   <stop offset="0" style="stop-opacity:1; stop-color:white"/>
   <stop offset="0.25098" style="stop-opacity:1; stop-color:white"/>
   <stop offset="1" style="stop-opacity:0; stop-color:white"/>
  </radialGradient>
  <radialGradient id="id12" gradientUnits="userSpaceOnUse" gradientTransform="matrix(0.999974 -0 -0 0.999966 4 6)" xlink:href="#id11" cx="159751" cy="167445" r="9413.88" fx="159751" fy="167445">
  </radialGradient>
  <radialGradient id="id13" gradientUnits="userSpaceOnUse" gradientTransform="matrix(1.02736 -0 -0 0.101308 -4018 99311)" xlink:href="#id11" cx="146888" cy="110506" r="6109.08" fx="146888" fy="110506">
  </radialGradient>
  <radialGradient id="id14" gradientUnits="userSpaceOnUse" gradientTransform="matrix(1.0006 -0 -0 0.166896 -71 103395)" xlink:href="#id11" cx="117447" cy="124108" r="3709.53" fx="117447" fy="124108">
  </radialGradient>
  <radialGradient id="id15" gradientUnits="userSpaceOnUse" gradientTransform="matrix(1.0005 -0 -0 0.123488 -15 55521)" xlink:href="#id11" cx="30878.4" cy="63343.5" r="5012.71" fx="30878.4" fy="63343.5">
  </radialGradient>
 </defs>
 <g id="Layer_x0020_1">
  <metadata id="CorelCorpID_0Corel-Layer"/>
  <path class="fil0" d="M97336 0c53758,0 97337,43579 97337,97336 0,53758 -43579,97337 -97337,97337 -53757,0 -97336,-43579 -97336,-97337 0,-53757 43579,-97336 97336,-97336z"/>
  <g style="clip-path:url(#id0)">
   <g id="_169594344800">
    <path id="1" class="fil1" d="M76282 10160c21177,17769 23939,49339 6171,70514 -17770,21177 -49340,23939 -70516,6170 -21177,-17769 -23939,-49340 -6170,-70516 17768,-21176 49339,-23937 70515,-6168z"/>
    <path class="fil2" d="M177353 10160c21177,17769 23939,49339 6171,70514 -17769,21177 -49340,23939 -70517,6170 -21176,-17769 -23938,-49340 -6169,-70517 17768,-21175 49339,-23936 70515,-6167z"/>
    <path class="fil3" d="M188527 124548c13822,23940 5619,54551 -18320,68372 -23940,13822 -54551,5620 -68373,-18320 -13822,-23940 -5620,-54552 18321,-68374 23938,-13821 54550,-5618 68372,18322z"/>
    <path class="fil4" d="M94161 149574c0,27644 -22409,50052 -50051,50052 -27644,0 -50053,-22408 -50053,-50052 0,-27644 22409,-50053 50053,-50053 27642,0 50051,22409 50051,50053z"/>
   </g>
  </g>
  <path class="fil5" d="M97336 0c53758,0 97337,43579 97337,97336 0,53758 -43579,97337 -97337,97337 -53757,0 -97336,-43579 -97336,-97337 0,-53757 43579,-97336 97336,-97336z"/>
  <path class="fil6" d="M178553 97336c0,44855 -36361,81216 -81215,81216 -44859,0 -81216,-36361 -81216,-81216 0,-44857 36357,-81216 81216,-81216 44854,0 81215,36359 81215,81216z"/>
  <path class="fil7" d="M177048 97336c0,44026 -35688,79713 -79710,79713 -44025,0 -79713,-35687 -79713,-79713 0,-44024 35688,-79713 79713,-79713 44022,0 79710,35689 79710,79713z"/>
  <path class="fil8" d="M60250 24281c0,13076 -10598,23675 -23677,23675 -13071,0 -23670,-10599 -23670,-23675 0,-13073 10599,-23673 23670,-23673 13079,0 23677,10600 23677,23673z"/>
  <path class="fil9" d="M178553 167444c0,10383 -8417,18803 -18805,18803 -10383,0 -18799,-8420 -18799,-18803 0,-10381 8416,-18801 18799,-18801 10388,0 18805,8420 18805,18801z"/>
  <path class="fil10" d="M117397 131517c-684,-4 -1216,-3326 -1187,-7417 29,-4091 605,-7404 1287,-7400 682,5 1216,3327 1187,7417 -29,4091 -606,7407 -1287,7400z"/>
  <g id="_169594346592">
   <g>
    <path class="fil11" d="M31666 63502l56666 41364c0,0 4388,3134 9377,1217 568,-218 1492,-623 2009,-936 1186,-715 1640,-1748 2604,-2298 1113,-635 1827,-380 2669,536 1035,1125 2570,2355 4595,2816 0,0 3069,288 4430,342 1521,1533 -4738,5776 -7582,4818 0,0 -3980,-1354 -8074,880 0,0 -1504,790 -2383,1792l-3676 5207c-527,747 -1191,599 -2051,333l-41787 -16543c-1055,-418 -1202,-2007 -1547,-3082l38543 17153c762,339 1018,-574 113,-988l-42008 -19204c0,0 -1741,-1890 -2526,-4216l43926 21455c1230,601 1509,-781 272,-1420l-46454 -23984c0,0 -3695,-3166 -4499,-7932l50711 28977c1978,1130 2291,-384 745,-1324l-52684 -32028c0,0 -1851,-8885 -1389,-12935z"/>
    <path class="fil11" d="M103310 131836l-97 -95 -2384 -2338c-296,-290 -188,-170 28,-480l2542 -3643c0,0 -1884,-1548 -331,-3841 53,-78 110,-157 171,-237 203,-265 178,-200 516,-200l15061 0c919,0 856,-174 411,775 -387,822 -1129,2210 -2331,3721 -217,271 -209,244 -523,390l-12658 5875 -246 107c-124,53 -63,61 -159,-34z"/>
    <path class="fil11" d="M163786 71613l-45669 33591c0,0 -2956,10290 -17369,8770 -151,-15 -146,35 -258,148l-7286 7317c-163,164 -230,281 -47,461l5143 5045c641,713 1234,-290 1599,-847 129,-198 70,-129 -47,-393 -330,-744 -1100,-2991 -67,-6014 222,-649 131,-531 807,-531l19635 0 26795 -8062c0,0 1226,-1638 1512,-3036l-26648 8945c-1642,551 -1576,-477 -206,-976l30208 -11012c0,0 1999,-1908 2527,-4216l-32146 13254c-1952,804 -1799,-743 -398,-1380l34799 -15822c0,0 3883,-3496 4499,-7933l-39374 20962c-1942,1035 -2308,-417 -488,-1474l41090 -23863c0,0 1677,-5779 1389,-12934z"/>
   </g>
   <g>
    <path class="fil12" d="M30927 62764l56667 41363c0,0 4387,3135 9376,1217 568,-218 1492,-623 2009,-936 1186,-715 1640,-1747 2605,-2298 1112,-635 1826,-380 2668,536 1035,1125 2570,2355 4595,2816 0,0 3069,289 4431,342 1520,1533 -4739,5776 -7583,4818 0,0 -3980,-1354 -8074,880 0,0 -1503,790 -2383,1792l-3676 5207c-527,747 -1191,599 -2051,334l-41787 -16543c-1055,-418 -1202,-2008 -1547,-3083l38543 17153c762,339 1018,-574 113,-988l-42008 -19204c0,0 -1741,-1890 -2526,-4216l43926 21455c1230,601 1509,-781 273,-1419l-46455 -23984c0,0 -3695,-3167 -4499,-7933l50711 28977c1978,1130 2291,-384 745,-1324l-52683 -32028c0,0 -1852,-8885 -1390,-12934z"/>
    <path class="fil13" d="M102571 131097l-97 -95 -2383 -2338c-296,-290 -189,-170 27,-480l2543 -3643c0,0 -1885,-1548 -332,-3841 53,-78 110,-157 171,-237 203,-265 178,-200 516,-200l15061 0c919,0 856,-174 411,775 -386,822 -1129,2210 -2331,3721 -216,271 -209,244 -523,390l-12658 5875 -246 107c-124,53 -63,61 -159,-34z"/>
    <path class="fil14" d="M163653 71021l-45669 33591c0,0 -2957,10290 -17369,8771 -151,-16 -146,35 -258,147l-7286 7317c-163,164 -230,282 -47,461l5143 5045c641,714 1234,-289 1599,-847 129,-198 70,-129 -47,-392 -330,-745 -1101,-2992 -67,-6014 222,-650 130,-532 807,-532l19635 0 26794 -8062c0,0 1227,-1638 1513,-3036l-26648 8945c-1642,551 -1576,-477 -206,-976l30208 -11012c0,0 1999,-1908 2526,-4216l-32145 13254c-1952,805 -1799,-743 -398,-1380l34799 -15822c0,0 3883,-3496 4499,-7933l-39374 20963c-1942,1034 -2308,-418 -488,-1475l41090 -23863c0,0 1677,-5779 1389,-12934z"/>
   </g>
   <g>
    <path class="fil15" d="M30927 62764l56667 41363c0,0 4387,3135 9376,1217 568,-218 1492,-623 2009,-936 1186,-715 1640,-1747 2605,-2298 1112,-635 1826,-380 2668,536 1035,1125 2570,2355 4595,2816 0,0 3069,289 4431,342 1520,1533 -4739,5776 -7583,4818 0,0 -3980,-1354 -8074,880 0,0 -1503,790 -2383,1792l-3676 5207c-527,747 -1191,599 -2051,334l-41787 -16543c-1055,-418 -1202,-2008 -1547,-3083l38543 17153c762,339 1018,-574 113,-988l-42008 -19204c0,0 -1741,-1890 -2526,-4216l43926 21455c1230,601 1509,-781 273,-1419l-46455 -23984c0,0 -3695,-3167 -4499,-7933l50711 28977c1978,1130 2291,-384 745,-1324l-52683 -32028c0,0 -1852,-8885 -1390,-12934z"/>
    <path class="fil15" d="M102571 131097l-97 -95 -2383 -2338c-296,-290 -189,-170 27,-480l2543 -3643c0,0 -1885,-1548 -332,-3841 53,-78 110,-157 171,-237 203,-265 178,-200 516,-200l15061 0c919,0 856,-174 411,775 -386,822 -1129,2210 -2331,3721 -216,271 -209,244 -523,390l-12658 5875 -246 107c-124,53 -63,61 -159,-34z"/>
    <path class="fil15" d="M163047 70874l-45669 33591c0,0 -2956,10290 -17369,8770 -150,-15 -146,35 -258,148l-7285 7317c-163,164 -231,282 -48,461l5144 5045c640,714 1233,-290 1598,-847 129,-198 70,-129 -47,-392 -330,-745 -1100,-2992 -67,-6015 222,-649 131,-531 807,-531l19635 0 26795 -8062c0,0 1226,-1638 1512,-3036l-26648 8945c-1641,551 -1576,-477 -206,-976l30208 -11012c0,0 1999,-1908 2527,-4215l-32146 13253c-1951,804 -1799,-743 -398,-1380l34799 -15822c0,0 3883,-3496 4499,-7933l-39373 20963c-1943,1034 -2308,-418 -489,-1475l41090 -23863c0,0 1678,-5779 1389,-12934z"/>
   </g>
  </g>
  <path class="fil16" d="M30811 73355c-685,-4 -1205,-4490 -1170,-10021 42,-5527 627,-10007 1307,-10002 685,4 1207,4493 1167,10020 -39,5529 -623,10010 -1304,10003z"/>
  <path class="fil17" d="M159087 113389c-158,665 -5747,-87 -12484,-1681 -6737,-1592 -12071,-3421 -11912,-4086 158,-664 5747,88 12481,1680 6737,1595 12072,3424 11915,4087z"/>
 </g>
</svg>
