<?xml version="1.0" encoding="UTF-8"?>
<!DOCTYPE svg PUBLIC "-//W3C//DTD SVG 1.1//EN" "http://www.w3.org/Graphics/SVG/1.1/DTD/svg11.dtd">
<!-- Creator: CorelDRAW X8 -->
<svg xmlns="http://www.w3.org/2000/svg" xml:space="preserve" width="260.842mm" height="30.455mm" version="1.1" style="shape-rendering:geometricPrecision; text-rendering:geometricPrecision; image-rendering:optimizeQuality; fill-rule:evenodd; clip-rule:evenodd"
viewBox="0 0 25431 2969"
 xmlns:xlink="http://www.w3.org/1999/xlink">
 <defs>
  <style type="text/css">
   <![CDATA[
    .fil1 {fill:url(#id0)}
    .fil0 {fill:url(#id1)}
    .fil2 {fill:url(#id2);fill-rule:nonzero}
   ]]>
  </style>
  <linearGradient id="id0" gradientUnits="userSpaceOnUse" x1="19451.8" y1="3330.16" x2="20277.9" y2="-360.964">
   <stop offset="0" style="stop-opacity:1; stop-color:#921E1E"/>
   <stop offset="0.160784" style="stop-opacity:1; stop-color:#C4856A"/>
   <stop offset="0.501961" style="stop-opacity:1; stop-color:#D7C302"/>
   <stop offset="1" style="stop-opacity:1; stop-color:#F7ECB6"/>
  </linearGradient>
  <linearGradient id="id1" gradientUnits="userSpaceOnUse" xlink:href="#id0" x1="6695.22" y1="3004.11" x2="7231.13" y2="-360.945">
  </linearGradient>
  <linearGradient id="id2" gradientUnits="objectBoundingBox" x1="50%" y1="100%" x2="50%" y2="6.03489e-05%">
   <stop offset="0" style="stop-opacity:1; stop-color:#14157F"/>
   <stop offset="0.501961" style="stop-opacity:1; stop-color:#4BBBFD"/>
   <stop offset="1" style="stop-opacity:1; stop-color:#14157F"/>
  </linearGradient>
 </defs>
 <g id="Layer_x0020_1">
  <metadata id="CorelCorpID_0Corel-Layer"/>
  <g id="_1844709799120">
   <path class="fil0" d="M9717 2032l0 0zm-8273 -2032l104 0c140,3 280,19 415,46 68,14 128,30 191,47 30,8 167,58 186,53 15,-4 67,-68 70,-82 40,3 185,70 232,89 41,16 75,31 116,47 38,15 79,27 112,45 -18,34 -35,70 -52,104 -17,34 -37,71 -52,105 -22,49 -90,168 -100,210 42,-11 227,-230 637,-290 62,-9 219,-26 282,-17 101,14 156,9 275,33 86,18 161,46 234,75 69,27 139,66 199,110 31,23 56,40 86,65 26,21 52,51 81,70l0 -314c401,0 803,1 1205,0 175,-1 393,34 528,78 77,25 148,54 212,90 122,71 104,76 174,123l0 -291 1671 0c0,-20 17,-86 23,-99l483 0 0 99c369,0 738,0 1107,0 275,0 488,-3 716,111 104,52 95,65 163,110 -3,-101 -21,-146 24,-267 32,-86 84,-159 154,-218 42,-35 84,-63 136,-86 139,-61 350,-62 491,10 63,32 124,76 168,129 92,114 150,240 150,444 24,-16 43,-37 69,-54 76,-50 153,-92 240,-127 141,-56 343,-87 518,-87 112,0 224,6 334,28 164,31 240,60 388,94 5,-20 35,-58 47,-75l465 192 -71 155c-7,15 -13,24 -20,39 -7,16 -10,25 -17,41 -30,61 -167,344 -177,388 21,13 44,35 63,53 282,283 237,793 -77,1039 -24,18 -41,33 -66,50 -119,81 -243,141 -397,174 -243,52 -300,39 -524,40 -104,1 -216,-14 -316,-28 -100,-14 -192,-34 -285,-58 -31,-8 -57,-18 -86,-24 -22,14 -45,43 -59,64l-448 -175c3,-33 153,-348 177,-394l46 -99c16,-37 28,-60 43,-97 8,-18 15,-29 23,-47 9,-18 12,-30 22,-48 16,-33 28,-64 44,-95 -11,-16 -22,-25 -35,-41 -31,-41 -60,-86 -81,-134 -24,-53 -53,-158 -53,-233 -13,9 -15,13 -27,25 -131,127 -295,214 -463,282 -49,20 -100,35 -152,52 -57,19 -110,20 -137,61 -52,80 -121,145 -199,197 18,34 40,63 60,97 20,33 39,61 60,92 31,45 42,38 99,52 36,9 92,20 119,33 0,114 0,229 0,343 0,90 15,143 -23,147 -42,4 -123,-1 -169,-1l-2044 0 0 93 -489 0c0,-36 -16,-57 -17,-93l-1671 0 0 -291c-16,4 -175,159 -458,229 -185,46 -390,62 -619,62 -67,0 -1011,6 -1030,-1 -17,-6 -13,-7 -13,-33l1 -292c-23,15 -94,89 -159,133 -30,20 -56,37 -88,57 -301,178 -739,210 -1072,115 -78,-22 -142,-48 -211,-80 -20,-9 -30,-17 -48,-27 -16,-9 -27,-15 -44,-26 -30,-18 -56,-37 -84,-56 -45,24 -209,97 -245,105 -21,-14 -43,-39 -64,-52 -62,14 -116,48 -177,68 -63,21 -117,37 -184,54 -179,45 -351,63 -536,68 -235,5 -504,-41 -716,-119 -238,-88 -407,-218 -569,-399 -18,-20 -37,-47 -52,-69 -18,-26 -33,-48 -48,-74 -92,-153 -158,-358 -163,-542l0 -81c6,-309 80,-577 281,-803 84,-95 177,-182 285,-250 75,-48 155,-91 237,-124 200,-79 420,-117 641,-122zm8273 2032l-7 -11 7 11zm-1345 -641l349 0 0 158 -349 0 0 -158zm-2829 257l0 -350c52,0 163,8 218,20 122,27 119,66 119,178 0,88 -43,111 -114,130 -57,16 -153,22 -223,22zm-1980 23l-46 0c-109,0 -198,-74 -198,-181l0 -46c0,-244 442,-260 442,11 0,93 -22,162 -114,200 -23,10 -54,16 -84,16zm-1729 -542c27,7 53,20 79,32 36,15 218,95 241,97l0 11c-20,5 -228,127 -256,146 6,12 17,67 17,87 -45,4 -114,64 -378,64 -147,0 -328,-33 -411,-142 -51,-67 -54,-187 -18,-258 75,-150 297,-182 453,-187l199 21c45,9 76,22 115,30 -9,36 -38,64 -41,99zm832 -465l0 0z"/>
   <path class="fil1" d="M24092 1648l0 -332c0,-22 18,-19 37,-16 59,10 192,-2 266,50 39,28 34,99 34,146 0,88 -43,111 -114,130 -57,16 -153,22 -223,22zm-5962 -280l0 0zm0 0c-50,-1 -125,-49 -309,-17 -35,6 -65,15 -99,23 88,-166 300,-129 375,-54 11,11 29,33 33,48zm-3639 -506c0,117 22,239 62,322 81,168 112,158 154,219 -6,23 -16,35 -25,57 -90,209 -193,410 -282,620 -20,45 -97,186 -101,231 54,13 265,117 328,144 36,16 77,40 114,48 19,-28 47,-49 64,-81 23,5 39,12 62,20 254,74 538,126 806,125 27,0 55,0 82,0l75 0c26,0 55,1 82,1 109,0 265,-25 371,-54 84,-23 173,-53 248,-90 95,-48 178,-95 255,-164 19,-16 29,-22 47,-40 22,-22 72,-65 80,-95 55,37 173,235 485,359 165,66 340,90 530,98 56,2 137,-10 196,-15 -7,13 -10,18 -17,30l58 93c21,32 41,61 63,94 42,63 82,123 123,185 72,-38 135,-83 206,-125l560 -349c19,-12 37,-23 55,-32 -30,-57 -141,-184 -184,-241 -69,-93 -79,-58 -19,-148 11,-17 34,-56 46,-65 14,61 79,164 115,211 96,129 233,218 382,275 307,118 828,120 1129,-7 77,-33 146,-73 214,-118 0,33 0,66 0,99 0,26 -11,81 17,81l1089 0 0 -355 273 0c0,33 -6,44 -6,81 1,30 2,64 1,94l-6 180 1776 0c201,0 406,-6 572,-39 235,-48 458,-136 611,-309l97 -129c94,-139 152,-338 152,-548 0,-218 -17,-394 -105,-570 -60,-120 -69,-119 -141,-209 -31,-39 -71,-74 -111,-104 -246,-183 -554,-246 -883,-246l-1182 0 0 483c34,3 62,23 99,23l-10 738 -30 -75c-13,-33 -25,-60 -39,-95 -27,-66 -52,-128 -80,-193 -14,-33 -26,-65 -38,-96 -24,-58 -118,-258 -118,-296l0 -489 -1368 0 0 477c0,43 -166,454 -196,538 -8,24 -14,55 -31,74l0 -583c24,0 99,-13 99,-40l0 -449c0,-13 -4,-17 -17,-17l-1171 0 0 489c29,7 71,21 99,23 0,120 11,619 -8,719 -5,23 -5,28 -23,36 -45,22 -142,18 -194,6 -29,-7 -29,-8 -36,-34 -24,-86 -12,-615 -12,-733 31,0 69,-16 99,-23l0 -483 -1188 0 0 314c-27,-18 -56,-51 -84,-73 -31,-24 -58,-45 -90,-67 -135,-95 -289,-153 -454,-186 -216,-44 -472,-36 -682,24 -167,47 -307,121 -442,227 -23,18 -37,33 -60,51 -21,18 -40,38 -57,59 -15,20 -33,38 -51,60 -18,22 -31,39 -47,64l-82 144c-17,-11 -8,-12 -29,-17 11,-50 209,-450 249,-549 23,-57 69,-128 82,-185 -80,-19 -419,-205 -471,-210 -18,33 -35,61 -53,94 -276,-65 -485,-146 -786,-146 -300,0 -495,20 -760,131 -139,57 -271,152 -365,269 -61,75 -105,146 -136,243 -20,62 -37,140 -37,219z"/>
   <path class="fil2" d="M2165 1001c3,-5 5,-10 7,-15 2,-5 2,-12 2,-19 0,-56 -63,-108 -191,-157 -129,-49 -270,-74 -425,-74 -217,0 -391,50 -521,150 -131,99 -196,230 -196,393 0,164 62,293 186,388 124,95 295,142 511,142 124,0 230,-11 317,-33 87,-22 178,-58 270,-110 26,-14 42,-25 49,-36 8,-9 12,-22 12,-37 0,-8 -1,-17 -3,-26 -2,-11 -4,-21 -7,-32l46 -27 386 630 -51 22c-17,-16 -32,-29 -44,-36 -12,-9 -22,-13 -29,-13 -12,0 -42,11 -91,34 -268,128 -550,193 -847,193 -399,0 -716,-95 -951,-286 -235,-191 -352,-446 -352,-764 0,-308 115,-561 344,-754 230,-194 533,-291 910,-291 198,0 396,29 594,86 198,58 298,88 300,88 18,-1 34,-7 48,-16 13,-8 29,-24 49,-47l46 19 -320 649 -49 -21z"/>
   <path id="1" class="fil2" d="M3535 601c290,0 526,83 711,247 185,164 277,371 277,622 0,249 -92,456 -278,621 -185,164 -421,247 -710,247 -282,0 -516,-83 -702,-249 -185,-165 -278,-371 -278,-619 0,-249 92,-456 276,-621 185,-165 420,-248 704,-248zm-463 865c0,133 44,241 130,325 87,84 199,126 337,126 139,0 250,-42 337,-126 87,-84 130,-192 130,-325 0,-131 -43,-240 -130,-324 -87,-85 -198,-128 -337,-128 -137,0 -249,42 -336,126 -87,85 -131,193 -131,326z"/>
   <path id="2" class="fil2" d="M5573 1057l-273 0 0 833 273 0c190,0 329,-34 419,-102 89,-69 133,-174 133,-317 0,-144 -43,-248 -131,-315 -88,-66 -229,-99 -421,-99zm-867 1246l0 -54c39,-9 65,-20 77,-34 13,-14 19,-40 19,-77l0 -1328c0,-37 -6,-63 -19,-77 -12,-15 -38,-27 -77,-39l0 -54 893 0c355,0 617,68 786,203 169,136 254,345 254,627 0,283 -85,492 -254,628 -169,137 -431,205 -786,205l-893 0z"/>
   <path id="3" class="fil2" d="M7419 1053l0 235 535 0c38,0 64,-6 77,-17 14,-11 27,-37 40,-79l54 0 0 555 -54 0c-13,-41 -26,-68 -40,-81 -15,-13 -40,-19 -77,-19l-535 0 0 243 929 0c38,0 63,-6 77,-19 14,-12 26,-38 36,-77l54 0 0 605 -54 0c-10,-40 -22,-66 -36,-78 -14,-12 -39,-18 -77,-18l-1527 0 0 -54c41,-10 68,-23 81,-37 13,-14 19,-39 19,-74l0 -1329c0,-37 -7,-62 -20,-77 -14,-15 -40,-28 -80,-38l0 -54 1527 0c38,0 63,-6 77,-18 14,-12 26,-38 36,-78l54 0 0 605 -54 0c-10,-40 -23,-65 -37,-78 -14,-12 -40,-18 -76,-18l-929 0z"/>
   <path id="4" class="fil2" d="M9465 1003l0 328 374 0c134,0 231,-14 290,-40 59,-27 88,-68 88,-126 0,-61 -27,-103 -81,-126 -54,-24 -156,-36 -309,-36l-362 0zm598 -363c212,0 377,47 493,140 117,94 175,225 175,393 0,127 -37,234 -111,322 -73,86 -181,149 -322,187l214 339c51,83 93,139 124,169 32,29 69,49 110,59l0 54 -725 0 0 -54c19,-4 34,-11 45,-21 11,-10 16,-21 16,-36 0,-21 -14,-54 -40,-99 -5,-9 -8,-15 -9,-18l-236 -386 -332 0 0 449c0,35 6,60 19,74 13,14 40,27 81,37l0 54 -698 0 0 -54c40,-9 66,-20 78,-34 12,-14 18,-39 18,-77l0 -1328c0,-38 -6,-63 -18,-77 -12,-15 -38,-28 -78,-39l0 -54 1196 0z"/>
   <path id="5" class="fil2" d="M10952 1165c124,-50 217,-99 279,-148 61,-49 92,-98 92,-145 0,-40 -34,-64 -101,-74 -18,-2 -32,-5 -43,-8 -60,-12 -108,-43 -145,-91 -37,-48 -55,-105 -55,-170 0,-81 30,-148 90,-203 59,-56 133,-83 221,-83 98,0 177,34 238,101 61,68 92,156 92,266 0,147 -59,280 -176,398 -118,119 -281,211 -492,276l0 -119z"/>
   <path id="6" class="fil2" d="M13343 1158c1,-4 2,-9 4,-16 2,-13 4,-23 4,-28 0,-44 -65,-86 -194,-125 -129,-40 -270,-60 -424,-60 -123,0 -223,18 -301,52 -77,35 -115,78 -115,129 0,78 145,124 435,138 50,2 89,4 117,5 273,14 471,62 594,142 123,80 185,202 185,364 0,171 -81,310 -243,417 -161,108 -373,162 -637,162 -304,0 -579,-43 -826,-130 -31,-10 -49,-16 -54,-16 -8,0 -16,4 -25,10 -10,6 -24,19 -41,39l-49 -19 236 -513 49 18c0,2 -1,4 -2,6 -4,12 -6,20 -6,25 0,63 74,121 220,175 146,54 313,81 502,81 130,0 231,-18 305,-54 74,-36 112,-85 112,-146 0,-119 -164,-185 -490,-196 -16,0 -27,-1 -35,-2 -265,-9 -462,-53 -592,-132 -130,-79 -195,-194 -195,-345 0,-158 76,-287 229,-386 153,-98 354,-148 603,-148 154,0 317,25 492,74 174,48 268,74 281,74 16,0 29,-4 39,-11 11,-7 21,-18 32,-33l45 18 -208 449 -47 -18z"/>
   <path id="7" class="fil2" d="M16479 903c2,-9 4,-19 7,-29 3,-11 5,-18 5,-22 0,-55 -75,-106 -226,-153 -151,-47 -318,-71 -503,-71 -151,0 -273,20 -364,61 -92,40 -138,92 -138,156 1,94 177,150 527,167 57,3 100,5 130,6 327,17 562,75 708,172 144,96 217,243 217,439 0,205 -96,372 -288,502 -192,130 -445,195 -757,195 -362,0 -692,-54 -990,-162 -34,-12 -54,-19 -60,-19 -10,0 -20,4 -30,11 -10,8 -25,25 -47,51l-50 -22 282 -619 50 24c-3,4 -5,9 -7,15 -2,5 -4,12 -5,20 0,77 87,148 262,215 175,67 373,100 595,100 154,0 277,-22 367,-67 89,-46 134,-107 134,-184 0,-140 -187,-218 -561,-231 -28,-1 -50,-3 -65,-4 -314,-11 -549,-64 -704,-159 -155,-95 -233,-233 -233,-416 0,-188 91,-341 272,-460 182,-117 422,-176 719,-176 186,0 380,28 585,84 204,57 312,85 324,85 26,0 46,-4 57,-11 13,-6 24,-19 36,-38l49 22 -248 541 -50 -23z"/>
   <path id="8" class="fil2" d="M18287 2289c-70,16 -133,28 -191,36 -57,9 -111,13 -163,13 -289,0 -527,-83 -712,-247 -185,-164 -278,-371 -278,-621 0,-249 92,-457 277,-622 185,-164 420,-247 705,-247 289,0 525,83 710,249 184,166 276,375 276,628 0,133 -31,258 -93,375 -62,117 -153,221 -273,311l123 170c14,18 25,31 32,36 7,4 16,7 26,7 8,0 17,-1 27,-3 10,-3 22,-7 35,-12l27 34 -391 243 -22 -34c13,-19 23,-33 27,-42 4,-9 8,-16 9,-24 0,-8 -8,-25 -25,-53l-3 -6 -123 -191zm-261 -380c-47,-81 -93,-139 -140,-173 -47,-34 -107,-54 -182,-62l14 -38c45,-19 84,-32 117,-39 33,-8 64,-12 94,-12 68,0 128,14 181,43 52,28 109,77 169,146 37,-39 66,-86 87,-142 21,-55 32,-111 32,-169 0,-127 -45,-233 -134,-319 -90,-87 -202,-130 -339,-130 -136,0 -247,43 -334,128 -87,84 -130,194 -130,328 0,134 41,242 125,326 84,83 192,125 325,125 13,0 30,-1 49,-3 20,-2 42,-5 66,-9z"/>
   <path id="9" class="fil2" d="M19692 1520c0,144 29,247 87,308 59,62 154,93 286,93 139,0 238,-30 297,-89 60,-59 90,-161 90,-305l0 -718c0,-37 -7,-62 -20,-77 -13,-15 -40,-28 -81,-38l0 -54 699 0 0 52c-39,10 -64,23 -77,37 -13,15 -20,41 -20,80l0 816c0,235 -74,412 -223,533 -149,120 -371,180 -665,180 -295,0 -515,-60 -659,-180 -144,-121 -216,-305 -216,-553l0 -796c0,-37 -7,-62 -20,-77 -14,-15 -40,-28 -80,-38l0 -54 698 0 0 52c-38,10 -64,23 -76,38 -14,15 -20,41 -20,79l0 711z"/>
   <path id="10" class="fil2" d="M21810 1674l545 0 -283 -694 -262 694zm737 -1034l0 54c-22,3 -36,8 -44,15 -8,8 -13,21 -14,40 0,17 2,36 8,57 6,21 14,44 24,69l516 1262 2 4c21,55 53,90 94,108l0 54 -660 0 2 -54c24,-5 42,-14 54,-28 12,-13 18,-31 18,-54 0,-7 -2,-18 -6,-33 -3,-14 -8,-29 -13,-44l-59 -142 -762 0 -55 142c-1,5 -3,11 -6,19 -6,22 -9,37 -9,47 0,24 6,43 19,59 12,15 33,26 62,34l0 54 -618 0 0 -54c33,-15 61,-40 85,-75 25,-34 57,-103 95,-203l411 -1096c11,-28 18,-51 23,-70 5,-18 8,-34 8,-45 0,-23 -4,-39 -13,-49 -8,-10 -22,-16 -42,-19l0 -52 880 0z"/>
   <path id="11" class="fil2" d="M24123 1057l-274 0 0 833 274 0c189,0 329,-34 418,-102 90,-69 134,-174 134,-317 0,-144 -44,-248 -132,-315 -88,-66 -228,-99 -420,-99zm-868 1246l0 -54c40,-9 66,-20 78,-34 12,-14 19,-40 19,-77l0 -1328c0,-37 -7,-63 -19,-77 -12,-15 -38,-27 -78,-39l0 -54 894 0c354,0 617,68 786,203 169,136 253,345 253,627 0,283 -84,492 -253,628 -169,137 -432,205 -786,205l-894 0z"/>
  </g>
 </g>
</svg>
