<?xml version="1.0" encoding="UTF-8"?>
<!DOCTYPE svg PUBLIC "-//W3C//DTD SVG 1.1//EN" "http://www.w3.org/Graphics/SVG/1.1/DTD/svg11.dtd">
<!-- Creator: CorelDRAW X8 -->
<svg xmlns="http://www.w3.org/2000/svg" xml:space="preserve" width="162.288mm" height="67.176mm" version="1.1" style="shape-rendering:geometricPrecision; text-rendering:geometricPrecision; image-rendering:optimizeQuality; fill-rule:evenodd; clip-rule:evenodd"
viewBox="0 0 16229 6718"
 xmlns:xlink="http://www.w3.org/1999/xlink">
 <defs>
  <style type="text/css">
   <![CDATA[
    .fil1 {fill:#FD9E01}
    .fil0 {fill:#C86A0A;fill-rule:nonzero}
   ]]>
  </style>
 </defs>
 <g id="Layer_x0020_1">
  <metadata id="CorelCorpID_0Corel-Layer"/>
  <path class="fil0" d="M0 0l1829 0c67,0 135,9 202,27 68,19 129,50 183,93 55,44 99,100 133,169 34,68 51,153 51,255l0 1841c0,169 -54,304 -160,407 -107,102 -262,154 -464,154l-1774 0 0 -2946zm1180 1159c0,205 31,353 93,444 61,92 137,137 227,137 90,0 166,-45 228,-137 62,-91 92,-239 92,-444 0,-205 -30,-354 -92,-447 -62,-93 -138,-139 -228,-139 -90,0 -166,46 -227,139 -62,93 -93,242 -93,447z"/>
  <polygon id="1" class="fil0" points="4543,2444 4543,2946 2625,2946 2625,2444 3123,2444 3123,1091 2625,1091 2625,590 4543,590 4543,1091 4067,1091 4067,2444 "/>
  <path id="2" class="fil0" d="M6203 2946l0 -852 -514 0 0 852 -944 0 0 -1922c0,-81 13,-150 40,-204 27,-55 62,-99 105,-133 44,-34 93,-58 148,-74 55,-15 109,-23 162,-23l1007 0c54,0 108,8 162,23 55,16 104,40 148,74 44,34 79,78 105,133 27,54 40,123 40,204l0 1922 -459 0zm0 -1429c0,-166 -25,-285 -76,-358 -50,-73 -111,-110 -181,-110 -73,0 -134,37 -183,110 -50,73 -74,192 -74,358l0 55 514 0 0 -55z"/>
  <path id="3" class="fil0" d="M7809 1517c0,163 24,281 73,354 49,73 111,110 184,110 61,0 115,-29 162,-85 46,-56 75,-147 86,-274l468 0 0 1324 -708 0 0 -203c0,20 -11,41 -32,64 -21,22 -47,44 -80,65 -32,21 -67,38 -105,53 -38,14 -74,21 -107,21l-388 0c-160,0 -283,-41 -369,-123 -86,-81 -128,-189 -128,-324l0 -1475c0,-81 13,-150 40,-204 26,-55 61,-99 105,-133 44,-34 93,-58 147,-74 55,-15 109,-23 163,-23l1007 0c53,0 107,8 162,23 55,16 104,40 148,74 43,34 78,78 105,133 27,54 40,123 40,204l0 388 -468 0c-11,-127 -40,-219 -86,-276 -47,-58 -101,-87 -162,-87 -73,0 -135,37 -184,110 -49,73 -73,192 -73,358z"/>
  <path id="4" class="fil0" d="M8984 1024c0,-81 14,-150 40,-204 27,-55 62,-99 106,-133 43,-34 92,-58 147,-74 55,-15 109,-23 162,-23l1008 0c53,0 107,8 162,23 55,16 104,40 147,74 44,34 79,78 106,133 26,54 40,123 40,204l0 1475c0,135 -43,243 -127,324 -84,82 -208,123 -371,123l-922 0c-161,0 -284,-41 -369,-123 -86,-81 -129,-189 -129,-324l0 -1475zm944 493c0,163 25,281 74,354 49,73 110,110 183,110 70,0 131,-37 181,-110 51,-73 76,-191 76,-354 0,-166 -25,-285 -76,-358 -50,-73 -111,-110 -181,-110 -73,0 -134,37 -183,110 -49,73 -74,192 -74,358z"/>
  <path id="5" class="fil0" d="M12048 2946l-944 0 0 -2356 944 0 0 442c53,0 107,10 160,28 53,18 103,44 150,78 46,34 87,73 124,118 36,45 63,94 80,147l0 -813 459 0 0 2356 -459 0 0 -308c0,-157 -20,-280 -61,-367 -41,-87 -89,-151 -143,-193 -55,-43 -111,-68 -169,-76 -58,-9 -105,-13 -141,-13l0 957z"/>
  <path class="fil0" d="M7148 6718l0 -1062 -641 0 0 1062 -1180 0 0 -2402c0,-102 17,-186 51,-255 33,-69 78,-125 133,-169 54,-43 115,-74 183,-93 67,-18 135,-27 202,-27l1260 0c68,0 135,9 202,27 68,19 129,50 184,93 54,44 99,100 132,169 34,69 51,153 51,255l0 2402 -577 0zm0 -1787c0,-205 -31,-354 -93,-447 -62,-93 -138,-139 -228,-139 -89,0 -165,46 -227,139 -62,93 -93,242 -93,447l0 67 641 0 0 -67z"/>
  <polygon id="1" class="fil0" points="8896,5753 9870,5753 9870,6718 7953,6718 7953,4362 8896,4362 "/>
  <polygon id="2" class="fil0" points="11016,5753 11990,5753 11990,6718 10072,6718 10072,4362 11016,4362 "/>
  <polygon id="3" class="fil0" points="14109,6258 14109,6718 12192,6718 12192,4362 14109,4362 14109,4821 13136,4821 13136,5310 14109,5310 14109,5765 13136,5765 13136,6258 "/>
  <polygon id="4" class="fil0" points="14809,6718 14809,5445 14316,4362 14956,4362 15272,5116 15588,4362 16229,4362 15753,5411 15753,6718 "/>
  <rect class="fil1" y="3290" width="16229" height="139"/>
 </g>
</svg>
