<?xml version="1.0" encoding="UTF-8"?>
<!DOCTYPE svg PUBLIC "-//W3C//DTD SVG 1.1//EN" "http://www.w3.org/Graphics/SVG/1.1/DTD/svg11.dtd">
<!-- Creator: CorelDRAW X8 -->
<svg xmlns="http://www.w3.org/2000/svg" xml:space="preserve" width="222.225mm" height="33.5019mm" version="1.1" style="shape-rendering:geometricPrecision; text-rendering:geometricPrecision; image-rendering:optimizeQuality; fill-rule:evenodd; clip-rule:evenodd"
viewBox="0 0 19985 3013"
 xmlns:xlink="http://www.w3.org/1999/xlink">
 <defs>
  <style type="text/css">
   <![CDATA[
    .fil0 {fill:#FEB703}
   ]]>
  </style>
 </defs>
 <g id="Layer_x0020_1">
  <metadata id="CorelCorpID_0Corel-Layer"/>
  <g id="_1710592902336">
   <path class="fil0" d="M7335 4764l-77 2 82 -134 -5 132zm-1852 -1184c-16,-16 -38,-51 -52,-70 -18,-25 -34,-48 -51,-72 -23,-32 -74,-111 -103,-138 0,-1 -2,-2 -3,-2 0,-1 -1,-2 -2,-3 -56,53 -125,141 -180,200l-290 329c-8,9 -16,15 -24,25l-136 153c-13,16 -72,89 -93,99 -9,-32 -11,-164 -13,-206 -11,-207 -9,-457 -27,-651 -22,4 -208,131 -230,146 -44,29 -200,138 -233,150 -7,115 5,271 9,390l37 746c4,49 -84,236 -107,291 -79,186 -156,371 -233,558 -23,54 -222,522 -232,564l449 -14c23,-34 252,-612 279,-673 91,-208 170,-422 259,-630 9,-22 13,-21 27,-37l223 -254c42,-53 95,-102 138,-157 60,-76 130,-149 195,-223 85,-96 259,-299 338,-381l-925 2332 455 -15c159,-398 309,-806 470,-1205 12,-29 21,-55 33,-85 10,-26 16,-49 29,-74 1,-1 3,-5 4,-6l5 -7c54,364 108,726 170,1089 8,45 24,187 45,210 33,37 223,256 244,266l114 -312c24,12 237,233 275,270 35,-39 380,-590 428,-663 46,-72 103,-153 143,-225l384 -6c-4,140 -51,752 -39,865 71,-33 151,-88 219,-128 49,-29 181,-115 224,-129l-78 240c46,-12 419,-202 493,-240 62,-32 43,-42 73,-128l164 -509c20,-62 113,-368 133,-402 25,92 87,625 114,677 29,-26 385,-492 437,-559 19,-25 37,-54 60,-75l-277 929 373 224 760 -2532c-33,-18 -102,-74 -129,-83 -65,52 -204,163 -264,221 -49,47 -511,648 -596,756 -17,21 -41,48 -53,70 -5,-6 -4,-3 -8,-14 -10,-32 -17,-115 -22,-150l-69 -516c-22,-176 -17,-138 -101,-287 -15,-28 -114,-233 -136,-254l-837 2531c-11,-68 3,-228 6,-304 17,-499 44,-997 76,-1495 6,-90 44,-541 41,-587l-248 132c-91,48 -79,31 -136,120 -16,24 -34,52 -50,78 -164,265 -334,525 -500,787 -67,105 -130,210 -199,313 -69,104 -131,210 -201,314 -60,88 -371,590 -406,623 8,-38 37,-104 51,-142l367 -994c21,-56 416,-1106 418,-1137l-422 -12 -508 1347c-25,-44 -111,-771 -125,-886l-39 -340c-6,-53 0,-64 -27,-100 -64,-85 -154,-236 -196,-291 -10,-12 -1,-2 -9,-10 -45,60 -112,326 -153,368z"/>
   <path class="fil0" d="M2221 5562c11,-42 147,-335 177,-402l353 -792c38,-88 152,-327 176,-394 63,-1 128,1 191,2 68,1 106,13 138,52 62,74 59,216 41,320 -52,301 -241,669 -437,900 -80,95 -199,206 -309,262 -115,57 -190,50 -330,52zm-715 589l0 3c51,5 132,-3 187,-5 172,-6 393,-8 555,-19 544,-40 973,-615 1222,-1073 150,-278 373,-806 334,-1193 -11,-116 -44,-206 -97,-287 -130,-198 -365,-180 -579,-187 -122,-4 -248,-11 -369,-11 -18,20 -67,142 -81,174l-234 518c-51,109 -920,2056 -938,2080z"/>
   <path class="fil0" d="M19552 4281c96,1 197,10 211,101 9,57 -10,86 -55,100 -36,11 -100,14 -141,9l-15 -210zm1939 826l0 -102c-15,-35 -5,-87 -58,-192 -22,-45 -75,-108 -112,-139 -185,-154 -387,-151 -522,-235 -86,-53 -56,-134 9,-139 110,-10 267,114 359,145l113 -366c-177,-113 -478,-252 -725,-132 -325,159 -355,674 77,855 119,50 372,88 405,191 13,38 10,71 -13,91 -106,93 -320,-53 -417,-114 -26,-16 -50,-34 -75,-47 -27,33 -79,250 -105,311 -21,-26 -368,-441 -381,-479 27,-28 40,-35 66,-66 18,-23 35,-51 49,-84 87,-200 6,-466 -141,-581 -107,-83 -219,-130 -392,-141 -168,-11 -350,-13 -519,-16l82 1684 436 -12c10,-43 -35,-541 -35,-648 68,0 41,-11 115,89l413 541c21,27 51,69 73,89 30,-14 269,-185 303,-209 33,-22 31,-10 87,16 227,105 494,144 712,6 178,-112 170,-261 196,-316z"/>
   <path class="fil0" d="M10672 4111c169,-28 258,104 282,247 27,159 -1,325 -51,463 -78,217 -275,508 -521,554 -181,34 -272,-85 -293,-241 -52,-384 240,-966 583,-1023zm733 388c11,-151 -4,-320 -47,-456 -84,-261 -287,-454 -575,-447 -554,13 -1060,749 -1148,1397 -21,156 -16,316 26,460 44,152 109,239 196,316 207,185 546,137 779,3 224,-129 374,-296 512,-510 127,-196 235,-477 257,-763z"/>
   <path class="fil0" d="M16767 3567c-39,20 -355,287 -363,300l-359 521c-18,27 -70,107 -89,125 -42,-65 -223,-467 -258,-543 -87,-192 -25,-90 -161,-237l-182 -191c-11,-10 -3,-5 -17,-12l-281 2305 464 -206 90 -811c14,14 56,107 69,133l205 398c18,-14 82,-114 94,-133 32,-46 256,-381 272,-393l-65 777 427 167 154 -2200z"/>
   <path class="fil0" d="M14306 4180c154,-28 259,72 306,168 179,361 -67,873 -399,930 -321,55 -412,-283 -348,-568 54,-243 213,-489 441,-530zm798 481c35,-381 -147,-786 -485,-914 -125,-47 -274,-54 -409,-18 -242,65 -427,245 -537,401 -133,186 -223,394 -260,674 -37,284 32,576 182,737 184,196 425,258 698,187 252,-66 438,-235 554,-386 138,-180 230,-393 257,-681z"/>
   <path class="fil0" d="M12665 4955c76,-1 189,-11 226,52 27,47 5,126 -16,168 -51,102 -140,135 -284,131l74 -351zm167 -797c47,3 97,10 114,47 18,44 7,264 -181,278l67 -325zm390 494c5,-15 40,-54 53,-75 195,-291 205,-815 -272,-887 -68,-10 -415,-21 -490,-19 -7,57 -213,964 -234,1061 -38,176 -77,352 -115,528 -24,110 -105,455 -115,534 104,-2 209,-7 313,-11 216,-7 363,8 559,-81 66,-30 152,-87 190,-129 60,-66 91,-90 139,-180 111,-206 157,-577 -28,-741z"/>
   <path class="fil0" d="M17267 4922c13,-8 34,-6 50,-6 16,1 32,0 48,1 31,2 61,6 88,17 52,20 83,53 75,125 -14,124 -170,144 -273,132l12 -269zm30 -678c95,-1 148,34 140,133 -8,91 -57,112 -150,118l10 -251zm483 388c70,-114 108,-207 89,-378 -33,-278 -251,-416 -513,-438 -138,-11 -316,-15 -457,-15l-102 1830c188,-4 388,-9 574,-20 351,-21 610,-230 597,-581 -3,-92 -22,-168 -57,-240 -16,-32 -38,-66 -58,-89 -9,-10 -27,-27 -37,-37 -7,-7 -12,-9 -19,-15 -13,-10 -11,-7 -17,-17z"/>
   <path class="fil0" d="M18043 5587l1124 -37 -139 -401 -549 13 -3 -250 528 -5 -8 -405 -523 -2 -2 -237 491 9 143 -404 -1057 -33c-7,510 -8,1024 -7,1534 1,65 -5,156 2,218z"/>
   <path class="fil0" d="M12224 4742l-783 6 -15 30c-5,12 -8,21 -13,32 -7,20 -15,39 -23,60 -23,60 -137,341 -144,373l796 -13 182 -488z"/>
  </g>
 </g>
</svg>
