<?xml version="1.0" encoding="UTF-8"?>
<!DOCTYPE svg PUBLIC "-//W3C//DTD SVG 1.1//EN" "http://www.w3.org/Graphics/SVG/1.1/DTD/svg11.dtd">
<!-- Creator: CorelDRAW X8 -->
<svg xmlns="http://www.w3.org/2000/svg" xml:space="preserve" width="222.694mm" height="43.5025mm" version="1.1" style="shape-rendering:geometricPrecision; text-rendering:geometricPrecision; image-rendering:optimizeQuality; fill-rule:evenodd; clip-rule:evenodd"
viewBox="0 0 25624 5006"
 xmlns:xlink="http://www.w3.org/1999/xlink">
 <defs>
  <style type="text/css">
   <![CDATA[
    .fil13 {fill:#096AB4}
    .fil14 {fill:#0D64AC}
    .fil11 {fill:#1162A9}
    .fil12 {fill:#165BA2}
    .fil15 {fill:#17599C}
    .fil10 {fill:#1A559A}
    .fil7 {fill:#1B5195}
    .fil6 {fill:#1F4E8E}
    .fil5 {fill:#254887}
    .fil0 {fill:#292778}
    .fil4 {fill:#2A417E}
    .fil2 {fill:#2F3A76}
    .fil3 {fill:#313872}
    .fil8 {fill:#558FCA}
    .fil20 {fill:#DF3111}
    .fil18 {fill:#E25413}
    .fil23 {fill:#EA8E13}
    .fil19 {fill:#F46B09}
    .fil16 {fill:#F88709}
    .fil17 {fill:#FCBB04}
    .fil21 {fill:#FDAB04}
    .fil22 {fill:#FDD70B}
    .fil9 {fill:#FDFFFF}
    .fil1 {fill:#FE9E03}
   ]]>
  </style>
 </defs>
 <g id="Layer_x0020_1">
  <metadata id="CorelCorpID_0Corel-Layer"/>
  <g id="_2818451107168">
   <path class="fil0" d="M7513 3136l-99 3 104 -171 -5 168zm-2370 -1515c-21,-20 -48,-65 -66,-90 -24,-32 -44,-61 -66,-91 -29,-41 -94,-142 -132,-177 0,-1 -2,-2 -3,-3 -1,-1 -2,-2 -4,-3 -71,67 -159,180 -229,255l-371 421c-11,13 -20,20 -31,32l-175 197c-16,20 -92,113 -118,126 -12,-41 -15,-210 -17,-263 -13,-265 -11,-585 -34,-833 -28,4 -266,167 -294,186 -56,37 -256,176 -299,193 -9,147 6,346 11,498l49 955c4,62 -108,301 -138,372 -101,238 -199,475 -298,714 -29,69 -284,668 -297,722l575 -19c29,-43 322,-782 356,-861 117,-266 218,-539 332,-806 12,-28 17,-26 35,-47l285 -325c54,-68 121,-131 176,-200 78,-98 167,-192 250,-285 109,-124 331,-383 433,-489l-1184 2984 582 -19c203,-509 396,-1031 601,-1541 15,-38 27,-71 43,-109 13,-33 20,-64 37,-95 1,-2 4,-7 5,-9l6 -8c69,465 138,929 218,1393 10,58 30,240 57,269 42,47 286,327 312,341l147 -399c30,15 303,298 351,344 46,-49 486,-754 547,-848 60,-92 133,-195 184,-287l491 -8c-5,179 -65,962 -49,1107 90,-42 192,-113 280,-165 62,-36 231,-146 286,-164l-99 306c58,-14 536,-258 630,-306 79,-41 56,-53 93,-164l210 -651c26,-80 145,-471 171,-514 31,117 111,799 145,866 37,-33 492,-630 560,-716 24,-31 47,-68 76,-95l-354 1188 477 286 972 -3239c-42,-23 -130,-95 -164,-106 -83,66 -262,209 -339,283 -62,60 -653,829 -762,967 -21,27 -52,62 -68,89 -6,-8 -5,-3 -10,-17 -13,-42 -22,-147 -29,-192l-88 -660c-28,-226 -22,-177 -129,-368 -19,-36 -145,-298 -174,-324l-1071 3237c-14,-86 4,-291 8,-388 22,-639 57,-1276 98,-1913 7,-115 56,-693 52,-751l-318 169c-117,62 -100,40 -174,153 -21,31 -43,67 -63,100 -210,340 -427,672 -640,1007 -86,135 -167,269 -254,400 -89,133 -169,269 -258,402 -76,113 -475,755 -519,797 10,-49 47,-133 65,-182l470 -1271c27,-72 532,-1415 534,-1454l-539 -16 -651 1723c-31,-56 -142,-986 -160,-1133l-49 -435c-8,-69 -1,-82 -35,-128 -82,-109 -197,-303 -251,-372 -12,-16 -1,-4 -12,-13 -57,76 -143,416 -195,470z"/>
   <path class="fil0" d="M969 4158c15,-54 189,-430 227,-515l451 -1014c49,-112 194,-418 225,-504 81,-1 164,2 246,3 86,1 134,17 175,66 80,95 76,276 53,410 -67,385 -308,856 -559,1152 -102,120 -255,263 -396,334 -146,74 -243,65 -422,68zm-915 752l0 5c66,6 169,-4 239,-6 221,-8 504,-11 711,-26 696,-50 1244,-786 1563,-1372 192,-355 477,-1031 428,-1526 -15,-149 -57,-263 -125,-367 -166,-254 -466,-231 -740,-239 -157,-5 -317,-15 -472,-15 -23,26 -86,181 -104,223l-300 662c-64,140 -1176,2631 -1200,2661z"/>
   <path class="fil0" d="M23144 2519c123,1 251,12 270,129 11,72 -14,109 -71,127 -46,14 -128,19 -180,12l-19 -268zm2480 1056l0 -130c-19,-46 -7,-112 -74,-246 -29,-58 -96,-139 -143,-178 -236,-197 -495,-193 -668,-300 -110,-68 -71,-172 12,-179 140,-12 341,146 458,186l145 -469c-226,-144 -611,-322 -927,-168 -416,203 -455,863 99,1094 151,64 475,112 518,244 16,48 13,92 -17,117 -135,119 -410,-68 -534,-146 -33,-21 -63,-44 -95,-60 -35,42 -102,320 -135,398 -27,-33 -471,-565 -487,-614 34,-35 51,-43 84,-84 23,-29 45,-65 63,-107 111,-256 7,-596 -181,-743 -137,-107 -280,-166 -502,-181 -215,-14 -447,-16 -664,-20l106 2154 557 -16c13,-54 -44,-691 -45,-828 88,0 53,-14 148,113l528 692c27,35 65,90 94,114 38,-17 344,-236 387,-266 43,-29 40,-13 111,20 292,134 632,184 911,8 228,-144 218,-335 251,-405z"/>
   <path class="fil0" d="M11782 2301c216,-37 330,133 361,315 35,204 -1,416 -65,593 -101,278 -353,650 -667,709 -232,43 -348,-109 -375,-309 -66,-491 308,-1235 746,-1308zm937 497c15,-195 -4,-410 -60,-584 -107,-335 -367,-581 -735,-572 -709,16 -1356,958 -1469,1788 -27,198 -20,403 34,588 56,194 139,306 250,404 265,237 699,175 996,4 287,-165 480,-379 656,-652 162,-251 301,-611 328,-976z"/>
   <path class="fil0" d="M19580 1605c-50,25 -454,367 -465,383l-458 667c-23,34 -90,137 -114,160 -54,-83 -285,-597 -330,-695 -112,-246 -33,-114 -207,-302l-232 -246c-15,-13 -4,-6 -22,-14l-360 2949 594 -265 115 -1036c18,18 71,137 88,170l263 509c22,-18 105,-147 120,-170 41,-59 328,-488 347,-503l-82 994 547 214 196 -2815z"/>
   <path class="fil0" d="M16431 2389c198,-36 332,92 393,214 227,463 -86,1118 -512,1191 -410,71 -526,-362 -445,-727 70,-311 272,-625 564,-678zm1021 616c46,-488 -188,-1006 -621,-1170 -159,-60 -349,-70 -522,-23 -309,84 -547,314 -688,512 -170,239 -285,505 -332,864 -47,362 40,736 233,942 235,251 543,330 893,239 322,-84 560,-300 708,-493 177,-230 294,-503 329,-871z"/>
   <path class="fil0" d="M14332 3380c97,-1 241,-13 289,67 35,60 7,162 -20,215 -65,130 -179,173 -364,168l95 -450zm214 -1019c60,4 124,12 145,60 24,56 9,337 -232,356l87 -416zm499 633c6,-20 50,-71 68,-96 249,-373 262,-1044 -349,-1135 -87,-13 -531,-28 -626,-25 -9,73 -273,1233 -300,1357 -48,226 -99,451 -147,676 -30,140 -134,582 -148,683 134,-3 268,-9 402,-14 276,-9 463,10 714,-104 85,-39 195,-111 243,-165 77,-85 116,-114 179,-230 141,-263 200,-738 -36,-947z"/>
   <path class="fil0" d="M20220 3339c17,-11 43,-8 64,-8 21,0 41,0 62,2 39,2 77,7 111,20 68,27 107,69 97,161 -18,159 -217,184 -350,168l16 -343zm39 -869c121,-1 189,44 178,171 -10,116 -73,144 -192,151l14 -322zm617 497c90,-146 139,-265 114,-484 -42,-355 -321,-531 -656,-559 -177,-15 -404,-20 -585,-19l-130 2341c241,-6 495,-12 734,-26 450,-27 780,-294 764,-744 -4,-117 -28,-215 -73,-306 -21,-42 -49,-84 -75,-114 -11,-14 -33,-35 -47,-48 -9,-8 -15,-11 -25,-19 -16,-13 -13,-9 -21,-22z"/>
   <path class="fil0" d="M21212 4189l1438 -48 -177 -512 -702 17 -5 -321 677 -6 -11 -518 -669 -2 -3 -303 629 11 183 -518 -1352 -41c-9,652 -10,1309 -9,1962 0,84 -7,200 1,279z"/>
   <path class="fil0" d="M13767 3107l-1001 9 -19 39c-6,15 -11,26 -16,40 -10,26 -20,50 -30,77 -29,77 -175,437 -185,477l1019 -16 232 -626z"/>
  </g>
  <g id="_2818451111872">
   <path class="fil1" d="M7459 2969l-99 3 104 -172 -5 169zm-2370 -1515c-21,-20 -48,-65 -66,-90 -24,-32 -44,-61 -66,-92 -29,-40 -94,-141 -132,-176 0,-1 -2,-3 -3,-3 -1,-1 -2,-2 -4,-3 -71,67 -159,179 -229,255l-371 421c-11,12 -20,20 -31,32l-175 197c-16,20 -92,113 -118,126 -12,-41 -15,-210 -17,-264 -13,-264 -11,-584 -34,-833 -28,5 -266,168 -294,187 -56,37 -256,176 -299,192 -9,147 6,347 11,499l48 955c5,62 -107,301 -137,372 -101,238 -199,474 -298,714 -29,69 -284,668 -297,721l575 -18c29,-43 322,-782 356,-861 117,-266 218,-539 332,-806 12,-28 17,-27 35,-47l285 -325c54,-68 121,-131 176,-201 78,-97 167,-191 250,-285 109,-123 331,-383 433,-488l-1184 2984 582 -19c203,-510 396,-1031 601,-1542 15,-37 27,-70 43,-108 13,-34 20,-64 37,-95 1,-2 4,-7 5,-9l6 -8c69,465 138,929 218,1393 10,58 30,239 57,269 42,47 286,327 312,340l147 -398c30,15 303,298 351,344 46,-49 486,-754 547,-848 60,-92 133,-195 184,-287l491 -8c-5,178 -65,962 -49,1106 90,-41 192,-112 280,-164 62,-36 231,-146 286,-164l-99 306c58,-14 536,-258 630,-306 79,-41 56,-54 93,-164l210 -652c26,-79 145,-470 171,-514 31,118 111,799 145,867 37,-33 492,-630 560,-716 24,-32 47,-69 76,-95l-354 1188 477 286 972 -3239c-42,-23 -130,-95 -164,-106 -83,66 -262,208 -339,283 -62,60 -653,829 -762,967 -21,26 -52,62 -68,89 -6,-8 -5,-3 -10,-17 -13,-42 -22,-148 -29,-192l-88 -660c-28,-226 -22,-178 -129,-368 -20,-36 -145,-298 -174,-324l-1071 3237c-14,-86 4,-291 8,-389 22,-638 56,-1275 98,-1912 7,-115 56,-693 52,-751l-318 169c-117,61 -100,40 -174,153 -21,31 -43,67 -63,100 -210,339 -427,672 -640,1007 -86,135 -167,269 -254,400 -89,133 -169,269 -258,402 -76,113 -475,754 -519,797 10,-49 46,-133 65,-182l470 -1271c27,-72 532,-1415 534,-1455l-539 -15 -651 1723c-31,-56 -142,-986 -160,-1133l-49 -436c-8,-68 -1,-81 -35,-127 -82,-109 -197,-303 -251,-372 -12,-16 -1,-4 -12,-13 -57,76 -143,416 -195,470z"/>
   <path class="fil1" d="M915 3990c15,-53 188,-429 227,-514l451 -1014c49,-113 194,-419 225,-504 81,-2 164,2 245,3 87,1 135,17 176,66 80,95 76,276 53,410 -67,385 -308,856 -559,1152 -102,120 -255,263 -396,334 -146,74 -243,64 -422,67zm-915 753l0 5c66,5 169,-4 239,-6 221,-8 504,-11 711,-26 696,-50 1244,-786 1563,-1372 192,-355 477,-1031 428,-1526 -15,-149 -57,-264 -125,-367 -166,-255 -466,-231 -740,-240 -157,-4 -317,-14 -472,-14 -23,26 -86,181 -104,222l-300 663c-64,140 -1176,2631 -1200,2661z"/>
   <path class="fil1" d="M23090 2351c123,2 251,13 270,130 11,72 -14,109 -71,127 -46,14 -128,18 -180,12l-19 -269zm2480 1057l0 -130c-19,-46 -7,-112 -74,-246 -29,-58 -96,-139 -143,-178 -236,-197 -495,-193 -668,-300 -110,-68 -71,-172 12,-179 140,-12 341,146 458,186l145 -469c-226,-144 -611,-322 -927,-168 -416,203 -455,862 99,1094 151,63 475,112 518,243 16,49 13,92 -17,118 -135,118 -410,-68 -534,-146 -33,-21 -63,-44 -95,-60 -35,41 -102,319 -135,398 -27,-34 -471,-565 -487,-614 34,-36 51,-44 84,-84 23,-29 45,-65 63,-107 111,-256 7,-596 -181,-743 -137,-107 -280,-166 -502,-181 -215,-14 -447,-16 -664,-21l106 2155 557 -16c13,-54 -44,-691 -45,-828 88,0 53,-15 148,113l528 692c27,35 65,89 94,114 38,-17 344,-236 387,-266 43,-30 40,-13 111,20 292,134 632,184 911,8 228,-145 218,-335 251,-405z"/>
   <path class="fil1" d="M11728 2133c216,-36 330,133 361,316 35,204 -1,416 -65,593 -101,278 -353,650 -667,709 -232,43 -348,-109 -375,-309 -66,-491 308,-1235 746,-1309zm937 497c15,-194 -4,-409 -60,-583 -107,-335 -367,-581 -735,-573 -709,17 -1356,959 -1469,1788 -27,199 -20,404 34,589 56,194 139,306 250,404 265,237 699,175 996,4 287,-165 480,-379 656,-652 162,-252 301,-612 328,-977z"/>
   <path class="fil1" d="M19526 1438c-50,25 -454,367 -465,383l-458 667c-24,34 -90,136 -114,159 -54,-82 -285,-596 -330,-694 -112,-246 -33,-114 -207,-302l-232 -246c-15,-13 -5,-6 -22,-15l-360 2950 594 -265 115 -1036c18,18 71,136 88,170l263 509c22,-18 105,-147 120,-170 41,-60 328,-488 347,-503l-82 994 547 214 196 -2815z"/>
   <path class="fil1" d="M16377 2222c198,-36 332,92 393,214 227,463 -86,1118 -512,1191 -410,71 -526,-362 -445,-727 69,-311 272,-625 564,-678zm1021 616c46,-489 -188,-1007 -621,-1170 -159,-61 -349,-70 -522,-23 -309,84 -547,314 -688,512 -170,239 -285,505 -332,864 -47,362 40,736 233,942 235,251 543,330 893,239 322,-84 560,-300 708,-493 177,-230 294,-504 329,-871z"/>
   <path class="fil1" d="M14278 3213c97,-1 241,-13 289,67 35,60 7,162 -20,215 -65,130 -179,173 -364,168l95 -450zm214 -1019c60,4 124,12 145,60 24,55 9,337 -232,356l87 -416zm499 632c6,-19 50,-70 68,-96 249,-372 262,-1043 -349,-1135 -87,-13 -531,-27 -626,-24 -9,73 -273,1232 -300,1356 -48,227 -99,451 -147,677 -30,140 -134,582 -148,683 134,-3 268,-9 401,-14 277,-9 464,10 715,-104 85,-39 195,-111 243,-165 77,-85 116,-115 179,-231 141,-262 200,-737 -36,-947z"/>
   <path class="fil1" d="M20166 3172c16,-11 43,-8 64,-8 21,0 41,0 62,1 39,3 77,8 111,21 68,27 107,69 97,161 -18,159 -217,184 -350,168l16 -343zm39 -869c121,-1 189,44 178,171 -10,116 -73,144 -192,150l14 -321zm617 497c90,-146 139,-265 114,-484 -42,-355 -321,-531 -656,-559 -177,-15 -404,-20 -585,-19l-130 2340c241,-5 495,-11 734,-25 450,-27 780,-294 764,-744 -4,-117 -28,-215 -73,-307 -21,-41 -49,-84 -75,-114 -11,-13 -33,-34 -47,-47 -9,-8 -15,-11 -25,-19 -16,-13 -13,-9 -21,-22z"/>
   <path class="fil1" d="M21158 4022l1438 -48 -177 -512 -702 17 -5 -321 677 -6 -11 -518 -669 -2 -3 -304 629 11 183 -517 -1352 -41c-9,652 -10,1309 -9,1962 0,84 -7,200 1,279z"/>
   <path class="fil1" d="M13713 2940l-1001 9 -19 38c-6,16 -11,26 -17,41 -9,26 -19,50 -29,77 -29,77 -175,436 -185,477l1019 -17 232 -625z"/>
  </g>
  <g id="_2818451115232">
   <g>
    <path class="fil2" d="M10502 2745c-51,47 -90,172 -80,249l17 559 152 4 2 144 132 15 11 135c59,1 170,-1 222,7 85,14 72,43 77,144l130 3c22,42 13,3 19,71 21,0 53,-2 72,0l181 42c5,1 10,3 15,4 54,16 25,22 101,30 147,17 587,24 683,-27l86 -38c50,-10 128,-10 181,-11 55,-83 -17,-42 92,-73 85,-24 48,-12 94,-73 68,-1 177,-8 201,-77l62 0c-14,54 -34,86 67,119 -68,105 -77,51 -98,145 124,-45 363,-348 434,-453 224,-335 338,-1015 221,-1443 -38,-139 -221,-491 -343,-517l-124 48c15,162 107,210 117,336 6,80 -13,44 22,129 1,5 4,9 6,13 27,70 29,595 -9,674 0,0 -19,31 -21,34 -54,92 -72,192 -72,302 -64,17 -59,32 -105,80 -151,157 11,41 -163,209 -3,3 -7,7 -9,9 -3,3 -7,7 -10,9l-22 15c-3,2 -8,5 -12,7l-112 56c-46,28 -19,4 -47,45 -117,174 -87,67 -240,134 -114,49 -20,-10 -78,86l-132 21c-147,50 -679,-20 -855,-20 -80,-90 22,-73 -118,-102 -134,-28 -53,9 -150,-57 -100,-68 -128,-88 -220,-189 -58,-64 -174,-156 -202,-207l-34 -59c-3,-3 -7,-6 -10,-9 -114,-116 3,-82 -122,-175 0,-112 -4,-256 -9,-348z"/>
    <path class="fil3" d="M11034 4613c23,-61 -10,-19 48,-24 0,0 55,10 58,11 40,10 76,23 119,30 98,18 212,20 313,19 234,-2 363,-32 558,-89 184,-54 753,-333 791,-443 21,-94 30,-40 98,-145 -101,-33 -81,-65 -67,-119l-62 0c-24,69 -133,76 -201,77 -46,61 -9,49 -94,73 -109,31 -37,-10 -92,73 -53,1 -131,1 -181,11l-86 38c-96,51 -536,44 -683,27 -76,-8 -47,-14 -101,-30 -5,-1 -10,-3 -15,-4l-181 -42c-19,-2 -51,0 -72,0 -6,-68 3,-29 -19,-71l-130 -3c-5,-101 8,-130 -77,-144 -52,-8 -163,-6 -222,-7l-11 -135 -132 -15 -2 -144 -152 -4 -17 -559c-3,5 -6,11 -8,15 -2,4 -6,10 -8,14l-46 220c-11,95 -11,201 -8,296 16,461 276,933 682,1074z"/>
    <path class="fil4" d="M11919 1422c75,7 163,-16 249,-14 213,6 134,-8 213,36 29,17 -13,0 35,19 103,41 62,-3 163,101l100 66c122,46 32,43 121,123 67,61 78,26 130,224 71,272 163,-72 146,726l-20 107c-45,96 -54,34 -85,136l-95 280c-24,47 -89,63 -131,109 -62,67 -41,100 -141,155 -6,4 -48,26 -50,27l-51 73c-253,10 -314,113 -317,114 -264,4 -522,7 -763,-23 -62,-94 17,-63 -126,-126 -77,-34 -115,-34 -187,-76 -8,-5 -25,-15 -34,-22 -24,-19 -19,-16 -34,-39 -48,-81 32,-19 -55,-76l-172 -101c-11,-194 -57,-98 -78,-167 -4,-57 -1,-116 -5,-169 -6,-85 -23,-75 -70,-110l-15 -342c-4,3 -10,3 -12,11 0,0 -126,159 -133,281 5,92 9,236 9,348 125,93 8,59 122,175 3,3 7,6 10,9l34 59c28,51 144,143 202,207 92,101 120,121 220,189 97,66 16,29 150,57 140,29 38,12 118,102 176,0 708,70 855,20l132 -21c58,-96 -36,-37 78,-86 153,-67 123,40 240,-134 28,-41 1,-17 47,-45l112 -56c4,-2 9,-5 12,-7l22 -15c3,-2 7,-6 10,-9 2,-2 6,-6 9,-9 174,-168 12,-52 163,-209 46,-48 41,-63 105,-80 0,-110 18,-210 72,-302 2,-3 21,-34 21,-34 38,-79 36,-604 9,-674 -2,-4 -5,-8 -6,-13 -35,-85 -16,-49 -22,-129 -10,-126 -102,-174 -117,-336l124 -48 -270 -201c-111,-145 -777,-171 -972,-115 -10,3 -20,7 -29,10 -30,13 -27,12 -43,24z"/>
    <path class="fil5" d="M11763 1476c62,0 370,-7 416,8 79,27 6,11 61,46l57 22c5,1 10,2 15,3 47,16 27,-5 74,53 2,3 5,8 7,11l17 21c20,23 35,34 59,52l275 209c38,36 29,88 31,157 65,-7 41,-16 69,4 21,264 49,27 49,435 0,413 -40,266 -47,438 -70,45 -68,7 -105,98 -32,80 -10,81 -71,134 -171,149 -17,63 -132,145l-45 31c-92,64 -79,27 -146,77 -153,114 -71,25 -173,89 -102,64 -10,39 -286,47l-340 -34c-127,-28 -71,19 -145,-55l-64 -49c-49,-26 -59,-15 -91,-59 -21,-30 -5,-14 -19,-37 -59,-99 -105,-42 -179,-117l-73 -132c-38,-82 -26,-66 -31,-167 -74,-34 -62,6 -91,-104 -9,-37 -5,-43 -12,-79 -15,-76 -3,-10 -21,-72 -14,-49 -17,-111 -18,-174 -2,-104 -16,-109 62,-127 -15,-96 -32,-44 -48,-149 -52,35 -59,51 -99,113 -32,48 -65,83 -72,139l15 342c47,35 64,25 70,110 4,53 1,112 5,169 21,69 67,-27 78,167l172 101c87,57 7,-5 55,76 15,23 10,20 34,39 9,7 26,17 34,22 72,42 110,42 187,76 143,63 64,32 126,126 241,30 499,27 763,23 3,-1 64,-104 317,-114l51 -73c2,-1 44,-23 50,-27 100,-55 79,-88 141,-155 42,-46 107,-62 131,-109l95 -280c31,-102 40,-40 85,-136l20 -107c17,-798 -75,-454 -146,-726 -52,-198 -63,-163 -130,-224 -89,-80 1,-77 -121,-123l-100 -66c-101,-104 -60,-60 -163,-101 -48,-19 -6,-2 -35,-19 -79,-44 0,-30 -213,-36 -86,-2 -174,21 -249,14 -39,-4 -21,-11 -77,5 -1,0 -40,17 -41,18 -40,24 -11,2 -38,31z"/>
    <path class="fil6" d="M11243 1776c29,8 45,12 68,27l34 -72 129 1c-11,-82 -19,-39 -33,-73 57,-7 100,-38 177,-42 61,-3 44,11 68,7 61,-9 -6,-22 53,-41l319 23c194,49 65,2 214,80l134 90c23,17 29,18 55,37 21,15 150,154 161,175 54,103 -29,36 94,220 56,83 36,546 21,598l-117 217c-114,117 -41,71 -99,126l-233 177c-114,61 -410,125 -522,105l-246 -66c-59,-15 -169,-76 -227,-106 -108,-57 -76,-93 -140,-176 -34,-44 -60,-49 -89,-80 -69,-74 -8,12 0,-93 -103,-70 -88,-29 -106,-266 -7,-89 -9,-303 0,-390 11,-104 14,-37 57,-127 34,-68 10,-67 67,-120 56,-52 161,-149 161,-231zm0 0c-95,13 -318,258 -390,356 -40,54 -24,11 -35,69 16,105 33,53 48,149 -78,18 -64,23 -62,127 1,63 4,125 18,174 18,62 6,-4 21,72 7,36 3,42 12,79 29,110 17,70 91,104 5,101 -7,85 31,167l73 132c74,75 120,18 179,117 14,23 -2,7 19,37 32,44 42,33 91,59l64 49c74,74 18,27 145,55l340 34c276,-8 184,17 286,-47 102,-64 20,25 173,-89 67,-50 54,-13 146,-77l45 -31c115,-82 -39,4 132,-145 61,-53 39,-54 71,-134 37,-91 35,-53 105,-98 7,-172 47,-25 47,-438 0,-408 -28,-171 -49,-435 -28,-20 -4,-11 -69,-4 -2,-69 7,-121 -31,-157l-275 -209c-24,-18 -39,-29 -59,-52l-17 -21c-2,-3 -5,-8 -7,-11 -47,-58 -27,-37 -74,-53 -5,-1 -10,-2 -15,-3l-57 -22c-55,-35 18,-19 -61,-46 -46,-15 -354,-8 -416,-8 -89,-15 -384,161 -473,236l-47 64z"/>
    <path class="fil7" d="M11683 1788c85,-85 313,-44 404,30l39 -44c3,-11 12,-10 17,-16 39,35 -4,5 58,17 47,10 8,-18 58,19l173 137c56,38 201,322 203,326 36,105 53,353 6,466 -2,4 -4,8 -6,12 -2,4 -5,9 -6,13 -2,4 -4,9 -6,13 -2,4 -4,8 -6,13 -87,209 -18,106 -160,289 -70,91 -83,107 -182,141 -215,74 -77,83 -237,104 -170,21 -185,99 -423,-31 -3,-2 -8,-5 -11,-7 -98,-48 -113,12 -251,-106 -198,-168 -295,-330 -296,-592 -1,-230 28,-299 103,-448 23,-47 20,-95 40,-133 32,-63 -5,-8 44,-46 60,-45 79,-53 113,-133l99 30c46,-120 137,-158 227,-54zm-440 -12c0,82 -105,179 -161,231 -57,53 -33,52 -67,120 -43,90 -46,23 -57,127 -9,87 -7,301 0,390 18,237 3,196 106,266 -8,105 -69,19 0,93 29,31 55,36 89,80 64,83 32,119 140,176 58,30 168,91 227,106l246 66c112,20 408,-44 522,-105l233 -177c58,-55 -15,-9 99,-126l117 -217c15,-52 35,-515 -21,-598 -123,-184 -40,-117 -94,-220 -11,-21 -140,-160 -161,-175 -26,-19 -32,-20 -55,-37l-134 -90c-149,-78 -20,-31 -214,-80l-319 -23c-59,19 8,32 -53,41 -24,4 -7,-10 -68,-7 -77,4 -120,35 -177,42 14,34 22,-9 33,73l-129 -1 -34 72c-23,-15 -39,-19 -68,-27z"/>
    <path class="fil8" d="M13233 1704c122,26 305,378 343,517 117,428 3,1108 -221,1443 -71,105 -310,408 -434,453 -38,110 -607,389 -791,443 -195,57 -324,87 -558,89 -101,1 -215,-1 -313,-19 -43,-7 -79,-20 -119,-30 -3,-1 -58,-11 -58,-11 -58,5 -25,-37 -48,24 76,9 229,73 337,92 768,133 1625,-325 2051,-898 335,-451 527,-1394 51,-1964 -79,-94 -338,-320 -510,-340l270 201z"/>
    <path class="fil9" d="M11683 1788c-188,54 -430,270 -370,526 60,100 81,81 144,153 87,0 129,19 245,7l237 -102 127 -124c2,-2 7,-5 8,-7 2,-2 8,-6 9,-7 2,-1 6,-4 9,-6 18,-56 38,-90 56,-156 10,-111 -10,-186 -61,-254 -91,-74 -319,-115 -404,-30z"/>
    <path class="fil10" d="M12087 1818c51,68 71,143 61,254l1 5 25 -175c1,-7 5,-25 6,-31l6 -26c74,45 34,11 31,98 19,-55 60,-29 151,37 53,37 20,1 62,68 19,30 33,62 50,99 47,103 135,229 109,441l-66 248c-34,58 -13,-7 -94,127 -42,71 -135,169 -210,197 -209,78 -467,117 -690,28 -65,-26 -13,-1 -41,-30 -166,-176 -176,-42 -317,-448 -32,-92 -58,-191 -19,-316l45 -155c35,-119 -21,-63 71,-101l0 148c16,48 -3,23 45,28 -60,-256 182,-472 370,-526 -90,-104 -181,-66 -227,54l-99 -30c-34,80 -53,88 -113,133 -49,38 -12,-17 -44,46 -20,38 -17,86 -40,133 -75,149 -104,218 -103,448 1,262 98,424 296,592 138,118 153,58 251,106 3,2 8,5 11,7 238,130 253,52 423,31 160,-21 22,-30 237,-104 99,-34 112,-50 182,-141 142,-183 73,-80 160,-289 2,-5 4,-9 6,-13 2,-4 4,-9 6,-13 1,-4 4,-9 6,-13 2,-4 4,-8 6,-12 47,-113 30,-361 -6,-466 -2,-4 -147,-288 -203,-326l-173 -137c-50,-37 -11,-9 -58,-19 -62,-12 -19,18 -58,-17 -5,6 -14,5 -17,16l-39 44z"/>
    <path class="fil11" d="M12149 2077l-1 -5c-18,66 -38,100 -56,156 44,-16 75,-25 131,-29 20,31 35,66 47,88 99,168 65,375 -61,527 -158,190 -108,152 -414,164 -194,7 -136,-10 -202,-109 -306,-48 -117,-208 -245,-428 88,40 37,31 109,26 -63,-72 -84,-53 -144,-153 -48,-5 -29,20 -45,-28 -62,-23 12,20 -31,-13 36,35 28,-26 21,71 -5,65 -101,298 79,498 65,72 91,163 203,221l77 33c270,108 565,45 714,-209 43,-74 43,-36 89,-133 65,-137 86,-139 68,-351 -11,-117 -111,-95 -133,-316 -70,-25 -93,-60 -147,-96 1,1 41,-8 5,42 -34,48 16,26 -64,44z"/>
    <path class="fil12" d="M12149 2077c80,-18 30,4 64,-44 36,-50 -4,-41 -5,-42 54,36 77,71 147,96 22,221 122,199 133,316 18,212 -3,214 -68,351 -46,97 -46,59 -89,133 -149,254 -444,317 -714,209l-77 -33c-112,-58 -138,-149 -203,-221 -180,-200 -84,-433 -79,-498 7,-97 15,-36 -21,-71 43,33 -31,-10 31,13l0 -148c-92,38 -36,-18 -71,101l-45 155c-39,125 -13,224 19,316 141,406 151,272 317,448 28,29 -24,4 41,30 223,89 481,50 690,-28 75,-28 168,-126 210,-197 81,-134 60,-69 94,-127l66 -248c26,-212 -62,-338 -109,-441 -17,-37 -31,-69 -50,-99 -42,-67 -9,-31 -62,-68 -91,-66 -132,-92 -151,-37 3,-87 43,-53 -31,-98l-6 26c-1,6 -5,24 -6,31l-25 175z"/>
    <path class="fil13" d="M11939 2372l-237 102c-2,1 -31,14 -47,21l-111 39c-3,164 -16,149 54,215l19 19c35,43 -19,4 37,57 38,37 225,75 307,62 105,-15 150,-113 208,-184 74,-92 44,-113 44,-345 -164,0 -119,-29 -274,14z"/>
    <path class="fil14" d="M11939 2372c155,-43 110,-14 274,-14 0,232 30,253 -44,345 -58,71 -103,169 -208,184 -82,13 -269,-25 -307,-62 -56,-53 -2,-14 -37,-57l-19 -19c-70,-66 -57,-51 -54,-215l111 -39c16,-7 45,-20 47,-21 -116,12 -158,-7 -245,-7 -72,5 -21,14 -109,-26 128,220 -61,380 245,428 66,99 8,116 202,109 306,-12 256,26 414,-164 126,-152 160,-359 61,-527 -12,-22 -27,-57 -47,-88 -56,4 -87,13 -131,29 -3,2 -7,5 -9,6 -1,1 -7,5 -9,7 -1,2 -6,5 -8,7l-127 124z"/>
    <path class="fil15" d="M13012 1321l168 -316 -99 -38c-40,-11 -75,-18 -121,-25 -147,-20 -393,-26 -497,82 -47,48 -105,110 -117,157 288,22 430,65 666,140z"/>
    <path class="fil16" d="M13483 649c75,7 77,19 84,97 8,90 -4,172 -54,249 -45,69 1,33 -77,58 25,52 7,30 49,67 89,-38 72,-92 149,-169l-14 -55c-34,-46 -11,-27 -5,-44 17,-48 15,2 36,-67 0,-43 -7,-103 -26,-155 -36,-98 -1,-51 -72,-85 -24,-94 -3,-126 -67,-168 -48,-33 -91,-42 -152,-57l-103 146 44 51c58,-6 35,-17 103,-26 50,56 12,44 38,70 28,28 19,-1 75,37l-8 51z"/>
    <path class="fil17" d="M12878 635l-92 3c-18,25 -38,105 -37,180l202 27c69,-127 151,-262 238,-336 -18,-48 -37,-85 -70,-97 -97,-4 -178,81 -203,142 -1,4 -8,27 -10,32l-28 49z"/>
    <path class="fil15" d="M13146 1383c4,3 11,1 13,7 8,21 7,4 64,33 39,20 53,29 82,48 44,29 90,71 134,83 36,-291 49,-340 -138,-490 -6,72 -32,115 -59,180 -5,13 -30,77 -32,80 -43,78 3,35 -64,59z"/>
    <path class="fil9" d="M13005 858l176 51c37,-131 118,-201 220,-254l-81 -20 38 -92 -92 48c-104,-16 77,55 -22,-10 -50,-34 -5,-70 -125,75 -44,54 -94,120 -114,202z"/>
    <path class="fil9" d="M13012 1321l134 62c67,-24 21,19 64,-59 2,-3 27,-67 32,-80 27,-65 53,-108 59,-180l-121 -59 -168 316z"/>
    <path class="fil18" d="M13334 320c61,15 104,24 152,57 64,42 43,74 67,168l14 -3 -3 -542c-50,35 -193,245 -230,320z"/>
    <path class="fil19" d="M12598 867l353 -22 -202 -27c-1,-75 19,-155 37,-180l-150 -57 -40 17c-11,95 -48,165 2,269z"/>
    <path class="fil20" d="M12598 867c-50,-104 -13,-174 -2,-269l40 -17 -49 -31c-15,-7 -50,-19 -68,-26 -52,-19 -77,-29 -136,-41 12,91 95,309 138,392l77 -8z"/>
    <path class="fil21" d="M13431 694c3,4 57,-4 11,171 -16,61 -7,31 -27,67 -36,66 -17,-28 -39,82 36,45 6,24 60,39 78,-25 32,11 77,-58 50,-77 62,-159 54,-249 -7,-78 -9,-90 -84,-97 -34,21 -35,26 -52,45z"/>
    <path class="fil22" d="M13376 1014c22,-110 3,-16 39,-82 20,-36 11,-6 27,-67 46,-175 -8,-167 -11,-171 -100,30 -190,134 -212,245l157 75z"/>
    <path class="fil23" d="M12878 635l28 -49c2,-5 9,-28 10,-32 25,-61 106,-146 203,-142 -27,-67 -120,-212 -179,-236l-62 459z"/>
    <path class="fil19" d="M13567 542l-14 3c71,34 36,-13 72,85 19,52 26,112 26,155 37,-23 8,0 45,-37 10,-10 22,-25 35,-39 39,-45 47,-45 63,-96 4,-96 18,-115 -78,-117l-149 46z"/>
    <path class="fil18" d="M13607 1139c81,-22 252,-103 305,-148l-183 -70 -16 29c-98,243 -41,54 -106,189z"/>
    <path class="fil19" d="M13485 1120l37 59 85 -40c65,-135 8,54 106,-189l16 -29 -109 -25 14 55c-77,77 -60,131 -149,169z"/>
    <path class="fil20" d="M13716 496c96,2 82,21 78,117 36,-21 31,-12 68,-53l150 -202c-56,13 -93,32 -147,56l-117 52c-30,21 -11,6 -32,30z"/>
   </g>
   <g>
    <path class="fil2" d="M10502 2745c-51,47 -90,172 -80,249l17 559 152 4 2 144 132 15 11 135c59,1 170,-1 222,7 85,14 72,43 77,144l130 3c22,42 13,3 19,71 21,0 53,-2 72,0l181 42c5,1 10,3 15,4 54,16 25,22 101,30 147,17 587,24 683,-27l86 -38c50,-10 128,-10 181,-11 55,-83 -17,-42 92,-73 85,-24 48,-12 94,-73 68,-1 177,-8 201,-77l62 0c-14,54 -34,86 67,119 -68,105 -77,51 -98,145 124,-45 363,-348 434,-453 224,-335 338,-1015 221,-1443 -38,-139 -221,-491 -343,-517l-124 48c15,162 107,210 117,336 6,80 -13,44 22,129 1,5 4,9 6,13 27,70 29,595 -9,674 0,0 -19,31 -21,34 -54,92 -72,192 -72,302 -64,17 -59,32 -105,80 -151,157 11,41 -163,209 -3,3 -7,7 -9,9 -3,3 -7,7 -10,9l-22 15c-3,2 -8,5 -12,7l-112 56c-46,28 -19,4 -47,45 -117,174 -87,67 -240,134 -114,49 -20,-10 -78,86l-132 21c-147,50 -679,-20 -855,-20 -80,-90 22,-73 -118,-102 -134,-28 -53,9 -150,-57 -100,-68 -128,-88 -220,-189 -58,-64 -174,-156 -202,-207l-34 -59c-3,-3 -7,-6 -10,-9 -114,-116 3,-82 -122,-175 0,-112 -4,-256 -9,-348z"/>
    <path class="fil3" d="M11034 4613c23,-61 -10,-19 48,-24 0,0 55,10 58,11 40,10 76,23 119,30 98,18 212,20 313,19 234,-2 363,-32 558,-89 184,-54 753,-333 791,-443 21,-94 30,-40 98,-145 -101,-33 -81,-65 -67,-119l-62 0c-24,69 -133,76 -201,77 -46,61 -9,49 -94,73 -109,31 -37,-10 -92,73 -53,1 -131,1 -181,11l-86 38c-96,51 -536,44 -683,27 -76,-8 -47,-14 -101,-30 -5,-1 -10,-3 -15,-4l-181 -42c-19,-2 -51,0 -72,0 -6,-68 3,-29 -19,-71l-130 -3c-5,-101 8,-130 -77,-144 -52,-8 -163,-6 -222,-7l-11 -135 -132 -15 -2 -144 -152 -4 -17 -559c-3,5 -6,11 -8,15 -2,4 -6,10 -8,14l-46 220c-11,95 -11,201 -8,296 16,461 276,933 682,1074z"/>
    <path class="fil4" d="M11919 1422c75,7 163,-16 249,-14 213,6 134,-8 213,36 29,17 -13,0 35,19 103,41 62,-3 163,101l100 66c122,46 32,43 121,123 67,61 78,26 130,224 71,272 163,-72 146,726l-20 107c-45,96 -54,34 -85,136l-95 280c-24,47 -89,63 -131,109 -62,67 -41,100 -141,155 -6,4 -48,26 -50,27l-51 73c-253,10 -314,113 -317,114 -264,4 -522,7 -763,-23 -62,-94 17,-63 -126,-126 -77,-34 -115,-34 -187,-76 -8,-5 -25,-15 -34,-22 -24,-19 -19,-16 -34,-39 -48,-81 32,-19 -55,-76l-172 -101c-11,-194 -57,-98 -78,-167 -4,-57 -1,-116 -5,-169 -6,-85 -23,-75 -70,-110l-15 -342c-4,3 -10,3 -12,11 0,0 -126,159 -133,281 5,92 9,236 9,348 125,93 8,59 122,175 3,3 7,6 10,9l34 59c28,51 144,143 202,207 92,101 120,121 220,189 97,66 16,29 150,57 140,29 38,12 118,102 176,0 708,70 855,20l132 -21c58,-96 -36,-37 78,-86 153,-67 123,40 240,-134 28,-41 1,-17 47,-45l112 -56c4,-2 9,-5 12,-7l22 -15c3,-2 7,-6 10,-9 2,-2 6,-6 9,-9 174,-168 12,-52 163,-209 46,-48 41,-63 105,-80 0,-110 18,-210 72,-302 2,-3 21,-34 21,-34 38,-79 36,-604 9,-674 -2,-4 -5,-8 -6,-13 -35,-85 -16,-49 -22,-129 -10,-126 -102,-174 -117,-336l124 -48 -270 -201c-111,-145 -777,-171 -972,-115 -10,3 -20,7 -29,10 -30,13 -27,12 -43,24z"/>
    <path class="fil5" d="M11763 1476c62,0 370,-7 416,8 79,27 6,11 61,46l57 22c5,1 10,2 15,3 47,16 27,-5 74,53 2,3 5,8 7,11l17 21c20,23 35,34 59,52l275 209c38,36 29,88 31,157 65,-7 41,-16 69,4 21,264 49,27 49,435 0,413 -40,266 -47,438 -70,45 -68,7 -105,98 -32,80 -10,81 -71,134 -171,149 -17,63 -132,145l-45 31c-92,64 -79,27 -146,77 -153,114 -71,25 -173,89 -102,64 -10,39 -286,47l-340 -34c-127,-28 -71,19 -145,-55l-64 -49c-49,-26 -59,-15 -91,-59 -21,-30 -5,-14 -19,-37 -59,-99 -105,-42 -179,-117l-73 -132c-38,-82 -26,-66 -31,-167 -74,-34 -62,6 -91,-104 -9,-37 -5,-43 -12,-79 -15,-76 -3,-10 -21,-72 -14,-49 -17,-111 -18,-174 -2,-104 -16,-109 62,-127 -15,-96 -32,-44 -48,-149 -52,35 -59,51 -99,113 -32,48 -65,83 -72,139l15 342c47,35 64,25 70,110 4,53 1,112 5,169 21,69 67,-27 78,167l172 101c87,57 7,-5 55,76 15,23 10,20 34,39 9,7 26,17 34,22 72,42 110,42 187,76 143,63 64,32 126,126 241,30 499,27 763,23 3,-1 64,-104 317,-114l51 -73c2,-1 44,-23 50,-27 100,-55 79,-88 141,-155 42,-46 107,-62 131,-109l95 -280c31,-102 40,-40 85,-136l20 -107c17,-798 -75,-454 -146,-726 -52,-198 -63,-163 -130,-224 -89,-80 1,-77 -121,-123l-100 -66c-101,-104 -60,-60 -163,-101 -48,-19 -6,-2 -35,-19 -79,-44 0,-30 -213,-36 -86,-2 -174,21 -249,14 -39,-4 -21,-11 -77,5 -1,0 -40,17 -41,18 -40,24 -11,2 -38,31z"/>
    <path class="fil6" d="M11243 1776c29,8 45,12 68,27l34 -72 129 1c-11,-82 -19,-39 -33,-73 57,-7 100,-38 177,-42 61,-3 44,11 68,7 61,-9 -6,-22 53,-41l319 23c194,49 65,2 214,80l134 90c23,17 29,18 55,37 21,15 150,154 161,175 54,103 -29,36 94,220 56,83 36,546 21,598l-117 217c-114,117 -41,71 -99,126l-233 177c-114,61 -410,125 -522,105l-246 -66c-59,-15 -169,-76 -227,-106 -108,-57 -76,-93 -140,-176 -34,-44 -60,-49 -89,-80 -69,-74 -8,12 0,-93 -103,-70 -88,-29 -106,-266 -7,-89 -9,-303 0,-390 11,-104 14,-37 57,-127 34,-68 10,-67 67,-120 56,-52 161,-149 161,-231zm0 0c-95,13 -318,258 -390,356 -40,54 -24,11 -35,69 16,105 33,53 48,149 -78,18 -64,23 -62,127 1,63 4,125 18,174 18,62 6,-4 21,72 7,36 3,42 12,79 29,110 17,70 91,104 5,101 -7,85 31,167l73 132c74,75 120,18 179,117 14,23 -2,7 19,37 32,44 42,33 91,59l64 49c74,74 18,27 145,55l340 34c276,-8 184,17 286,-47 102,-64 20,25 173,-89 67,-50 54,-13 146,-77l45 -31c115,-82 -39,4 132,-145 61,-53 39,-54 71,-134 37,-91 35,-53 105,-98 7,-172 47,-25 47,-438 0,-408 -28,-171 -49,-435 -28,-20 -4,-11 -69,-4 -2,-69 7,-121 -31,-157l-275 -209c-24,-18 -39,-29 -59,-52l-17 -21c-2,-3 -5,-8 -7,-11 -47,-58 -27,-37 -74,-53 -5,-1 -10,-2 -15,-3l-57 -22c-55,-35 18,-19 -61,-46 -46,-15 -354,-8 -416,-8 -89,-15 -384,161 -473,236l-47 64z"/>
    <path class="fil7" d="M11683 1788c85,-85 313,-44 404,30l39 -44c3,-11 12,-10 17,-16 39,35 -4,5 58,17 47,10 8,-18 58,19l173 137c56,38 201,322 203,326 36,105 53,353 6,466 -2,4 -4,8 -6,12 -2,4 -5,9 -6,13 -2,4 -4,9 -6,13 -2,4 -4,8 -6,13 -87,209 -18,106 -160,289 -70,91 -83,107 -182,141 -215,74 -77,83 -237,104 -170,21 -185,99 -423,-31 -3,-2 -8,-5 -11,-7 -98,-48 -113,12 -251,-106 -198,-168 -295,-330 -296,-592 -1,-230 28,-299 103,-448 23,-47 20,-95 40,-133 32,-63 -5,-8 44,-46 60,-45 79,-53 113,-133l99 30c46,-120 137,-158 227,-54zm-440 -12c0,82 -105,179 -161,231 -57,53 -33,52 -67,120 -43,90 -46,23 -57,127 -9,87 -7,301 0,390 18,237 3,196 106,266 -8,105 -69,19 0,93 29,31 55,36 89,80 64,83 32,119 140,176 58,30 168,91 227,106l246 66c112,20 408,-44 522,-105l233 -177c58,-55 -15,-9 99,-126l117 -217c15,-52 35,-515 -21,-598 -123,-184 -40,-117 -94,-220 -11,-21 -140,-160 -161,-175 -26,-19 -32,-20 -55,-37l-134 -90c-149,-78 -20,-31 -214,-80l-319 -23c-59,19 8,32 -53,41 -24,4 -7,-10 -68,-7 -77,4 -120,35 -177,42 14,34 22,-9 33,73l-129 -1 -34 72c-23,-15 -39,-19 -68,-27z"/>
    <path class="fil8" d="M13233 1704c122,26 305,378 343,517 117,428 3,1108 -221,1443 -71,105 -310,408 -434,453 -38,110 -607,389 -791,443 -195,57 -324,87 -558,89 -101,1 -215,-1 -313,-19 -43,-7 -79,-20 -119,-30 -3,-1 -58,-11 -58,-11 -58,5 -25,-37 -48,24 76,9 229,73 337,92 768,133 1625,-325 2051,-898 335,-451 527,-1394 51,-1964 -79,-94 -338,-320 -510,-340l270 201z"/>
    <path class="fil9" d="M11683 1788c-188,54 -430,270 -370,526 60,100 81,81 144,153 87,0 129,19 245,7l237 -102 127 -124c2,-2 7,-5 8,-7 2,-2 8,-6 9,-7 2,-1 6,-4 9,-6 18,-56 38,-90 56,-156 10,-111 -10,-186 -61,-254 -91,-74 -319,-115 -404,-30z"/>
    <path class="fil10" d="M12087 1818c51,68 71,143 61,254l1 5 25 -175c1,-7 5,-25 6,-31l6 -26c74,45 34,11 31,98 19,-55 60,-29 151,37 53,37 20,1 62,68 19,30 33,62 50,99 47,103 135,229 109,441l-66 248c-34,58 -13,-7 -94,127 -42,71 -135,169 -210,197 -209,78 -467,117 -690,28 -65,-26 -13,-1 -41,-30 -166,-176 -176,-42 -317,-448 -32,-92 -58,-191 -19,-316l45 -155c35,-119 -21,-63 71,-101l0 148c16,48 -3,23 45,28 -60,-256 182,-472 370,-526 -90,-104 -181,-66 -227,54l-99 -30c-34,80 -53,88 -113,133 -49,38 -12,-17 -44,46 -20,38 -17,86 -40,133 -75,149 -104,218 -103,448 1,262 98,424 296,592 138,118 153,58 251,106 3,2 8,5 11,7 238,130 253,52 423,31 160,-21 22,-30 237,-104 99,-34 112,-50 182,-141 142,-183 73,-80 160,-289 2,-5 4,-9 6,-13 2,-4 4,-9 6,-13 1,-4 4,-9 6,-13 2,-4 4,-8 6,-12 47,-113 30,-361 -6,-466 -2,-4 -147,-288 -203,-326l-173 -137c-50,-37 -11,-9 -58,-19 -62,-12 -19,18 -58,-17 -5,6 -14,5 -17,16l-39 44z"/>
    <path class="fil11" d="M12149 2077l-1 -5c-18,66 -38,100 -56,156 44,-16 75,-25 131,-29 20,31 35,66 47,88 99,168 65,375 -61,527 -158,190 -108,152 -414,164 -194,7 -136,-10 -202,-109 -306,-48 -117,-208 -245,-428 88,40 37,31 109,26 -63,-72 -84,-53 -144,-153 -48,-5 -29,20 -45,-28 -62,-23 12,20 -31,-13 36,35 28,-26 21,71 -5,65 -101,298 79,498 65,72 91,163 203,221l77 33c270,108 565,45 714,-209 43,-74 43,-36 89,-133 65,-137 86,-139 68,-351 -11,-117 -111,-95 -133,-316 -70,-25 -93,-60 -147,-96 1,1 41,-8 5,42 -34,48 16,26 -64,44z"/>
    <path class="fil12" d="M12149 2077c80,-18 30,4 64,-44 36,-50 -4,-41 -5,-42 54,36 77,71 147,96 22,221 122,199 133,316 18,212 -3,214 -68,351 -46,97 -46,59 -89,133 -149,254 -444,317 -714,209l-77 -33c-112,-58 -138,-149 -203,-221 -180,-200 -84,-433 -79,-498 7,-97 15,-36 -21,-71 43,33 -31,-10 31,13l0 -148c-92,38 -36,-18 -71,101l-45 155c-39,125 -13,224 19,316 141,406 151,272 317,448 28,29 -24,4 41,30 223,89 481,50 690,-28 75,-28 168,-126 210,-197 81,-134 60,-69 94,-127l66 -248c26,-212 -62,-338 -109,-441 -17,-37 -31,-69 -50,-99 -42,-67 -9,-31 -62,-68 -91,-66 -132,-92 -151,-37 3,-87 43,-53 -31,-98l-6 26c-1,6 -5,24 -6,31l-25 175z"/>
    <path class="fil13" d="M11939 2372l-237 102c-2,1 -31,14 -47,21l-111 39c-3,164 -16,149 54,215l19 19c35,43 -19,4 37,57 38,37 225,75 307,62 105,-15 150,-113 208,-184 74,-92 44,-113 44,-345 -164,0 -119,-29 -274,14z"/>
    <path class="fil14" d="M11939 2372c155,-43 110,-14 274,-14 0,232 30,253 -44,345 -58,71 -103,169 -208,184 -82,13 -269,-25 -307,-62 -56,-53 -2,-14 -37,-57l-19 -19c-70,-66 -57,-51 -54,-215l111 -39c16,-7 45,-20 47,-21 -116,12 -158,-7 -245,-7 -72,5 -21,14 -109,-26 128,220 -61,380 245,428 66,99 8,116 202,109 306,-12 256,26 414,-164 126,-152 160,-359 61,-527 -12,-22 -27,-57 -47,-88 -56,4 -87,13 -131,29 -3,2 -7,5 -9,6 -1,1 -7,5 -9,7 -1,2 -6,5 -8,7l-127 124z"/>
    <path class="fil15" d="M13012 1321l168 -316 -99 -38c-40,-11 -75,-18 -121,-25 -147,-20 -393,-26 -497,82 -47,48 -105,110 -117,157 288,22 430,65 666,140z"/>
    <path class="fil16" d="M13483 649c75,7 77,19 84,97 8,90 -4,172 -54,249 -45,69 1,33 -77,58 25,52 7,30 49,67 89,-38 72,-92 149,-169l-14 -55c-34,-46 -11,-27 -5,-44 17,-48 15,2 36,-67 0,-43 -7,-103 -26,-155 -36,-98 -1,-51 -72,-85 -24,-94 -3,-126 -67,-168 -48,-33 -91,-42 -152,-57l-103 146 44 51c58,-6 35,-17 103,-26 50,56 12,44 38,70 28,28 19,-1 75,37l-8 51z"/>
    <path class="fil17" d="M12878 635l-92 3c-18,25 -38,105 -37,180l202 27c69,-127 151,-262 238,-336 -18,-48 -37,-85 -70,-97 -97,-4 -178,81 -203,142 -1,4 -8,27 -10,32l-28 49z"/>
    <path class="fil15" d="M13146 1383c4,3 11,1 13,7 8,21 7,4 64,33 39,20 53,29 82,48 44,29 90,71 134,83 36,-291 49,-340 -138,-490 -6,72 -32,115 -59,180 -5,13 -30,77 -32,80 -43,78 3,35 -64,59z"/>
    <path class="fil9" d="M13005 858l176 51c37,-131 118,-201 220,-254l-81 -20 38 -92 -92 48c-104,-16 77,55 -22,-10 -50,-34 -5,-70 -125,75 -44,54 -94,120 -114,202z"/>
    <path class="fil9" d="M13012 1321l134 62c67,-24 21,19 64,-59 2,-3 27,-67 32,-80 27,-65 53,-108 59,-180l-121 -59 -168 316z"/>
    <path class="fil18" d="M13334 320c61,15 104,24 152,57 64,42 43,74 67,168l14 -3 -3 -542c-50,35 -193,245 -230,320z"/>
    <path class="fil19" d="M12598 867l353 -22 -202 -27c-1,-75 19,-155 37,-180l-150 -57 -40 17c-11,95 -48,165 2,269z"/>
    <path class="fil20" d="M12598 867c-50,-104 -13,-174 -2,-269l40 -17 -49 -31c-15,-7 -50,-19 -68,-26 -52,-19 -77,-29 -136,-41 12,91 95,309 138,392l77 -8z"/>
    <path class="fil21" d="M13431 694c3,4 57,-4 11,171 -16,61 -7,31 -27,67 -36,66 -17,-28 -39,82 36,45 6,24 60,39 78,-25 32,11 77,-58 50,-77 62,-159 54,-249 -7,-78 -9,-90 -84,-97 -34,21 -35,26 -52,45z"/>
    <path class="fil22" d="M13376 1014c22,-110 3,-16 39,-82 20,-36 11,-6 27,-67 46,-175 -8,-167 -11,-171 -100,30 -190,134 -212,245l157 75z"/>
    <path class="fil23" d="M12878 635l28 -49c2,-5 9,-28 10,-32 25,-61 106,-146 203,-142 -27,-67 -120,-212 -179,-236l-62 459z"/>
    <path class="fil19" d="M13567 542l-14 3c71,34 36,-13 72,85 19,52 26,112 26,155 37,-23 8,0 45,-37 10,-10 22,-25 35,-39 39,-45 47,-45 63,-96 4,-96 18,-115 -78,-117l-149 46z"/>
    <path class="fil18" d="M13607 1139c81,-22 252,-103 305,-148l-183 -70 -16 29c-98,243 -41,54 -106,189z"/>
    <path class="fil19" d="M13485 1120l37 59 85 -40c65,-135 8,54 106,-189l16 -29 -109 -25 14 55c-77,77 -60,131 -149,169z"/>
    <path class="fil20" d="M13716 496c96,2 82,21 78,117 36,-21 31,-12 68,-53l150 -202c-56,13 -93,32 -147,56l-117 52c-30,21 -11,6 -32,30z"/>
   </g>
   <g>
    <path class="fil2" d="M10502 2745c-51,47 -90,172 -80,249l17 559 152 4 2 144 132 15 11 135c59,1 170,-1 222,7 85,14 72,43 77,144l130 3c22,42 13,3 19,71 21,0 53,-2 72,0l181 42c5,1 10,3 15,4 54,16 25,22 101,30 147,17 587,24 683,-27l86 -38c50,-10 128,-10 181,-11 55,-83 -17,-42 92,-73 85,-24 48,-12 94,-73 68,-1 177,-8 201,-77l62 0c-14,54 -34,86 67,119 -68,105 -77,51 -98,145 124,-45 363,-348 434,-453 224,-335 338,-1015 221,-1443 -38,-139 -221,-491 -343,-517l-124 48c15,162 107,210 117,336 6,80 -13,44 22,129 1,5 4,9 6,13 27,70 29,595 -9,674 0,0 -19,31 -21,34 -54,92 -72,192 -72,302 -64,17 -59,32 -105,80 -151,157 11,41 -163,209 -3,3 -7,7 -9,9 -3,3 -7,7 -10,9l-22 15c-3,2 -8,5 -12,7l-112 56c-46,28 -19,4 -47,45 -117,174 -87,67 -240,134 -114,49 -20,-10 -78,86l-132 21c-147,50 -679,-20 -855,-20 -80,-90 22,-73 -118,-102 -134,-28 -53,9 -150,-57 -100,-68 -128,-88 -220,-189 -58,-64 -174,-156 -202,-207l-34 -59c-3,-3 -7,-6 -10,-9 -114,-116 3,-82 -122,-175 0,-112 -4,-256 -9,-348z"/>
    <path class="fil3" d="M11034 4613c23,-61 -10,-19 48,-24 0,0 55,10 58,11 40,10 76,23 119,30 98,18 212,20 313,19 234,-2 363,-32 558,-89 184,-54 753,-333 791,-443 21,-94 30,-40 98,-145 -101,-33 -81,-65 -67,-119l-62 0c-24,69 -133,76 -201,77 -46,61 -9,49 -94,73 -109,31 -37,-10 -92,73 -53,1 -131,1 -181,11l-86 38c-96,51 -536,44 -683,27 -76,-8 -47,-14 -101,-30 -5,-1 -10,-3 -15,-4l-181 -42c-19,-2 -51,0 -72,0 -6,-68 3,-29 -19,-71l-130 -3c-5,-101 8,-130 -77,-144 -52,-8 -163,-6 -222,-7l-11 -135 -132 -15 -2 -144 -152 -4 -17 -559c-3,5 -6,11 -8,15 -2,4 -6,10 -8,14l-46 220c-11,95 -11,201 -8,296 16,461 276,933 682,1074z"/>
    <path class="fil4" d="M11919 1422c75,7 163,-16 249,-14 213,6 134,-8 213,36 29,17 -13,0 35,19 103,41 62,-3 163,101l100 66c122,46 32,43 121,123 67,61 78,26 130,224 71,272 163,-72 146,726l-20 107c-45,96 -54,34 -85,136l-95 280c-24,47 -89,63 -131,109 -62,67 -41,100 -141,155 -6,4 -48,26 -50,27l-51 73c-253,10 -314,113 -317,114 -264,4 -522,7 -763,-23 -62,-94 17,-63 -126,-126 -77,-34 -115,-34 -187,-76 -8,-5 -25,-15 -34,-22 -24,-19 -19,-16 -34,-39 -48,-81 32,-19 -55,-76l-172 -101c-11,-194 -57,-98 -78,-167 -4,-57 -1,-116 -5,-169 -6,-85 -23,-75 -70,-110l-15 -342c-4,3 -10,3 -12,11 0,0 -126,159 -133,281 5,92 9,236 9,348 125,93 8,59 122,175 3,3 7,6 10,9l34 59c28,51 144,143 202,207 92,101 120,121 220,189 97,66 16,29 150,57 140,29 38,12 118,102 176,0 708,70 855,20l132 -21c58,-96 -36,-37 78,-86 153,-67 123,40 240,-134 28,-41 1,-17 47,-45l112 -56c4,-2 9,-5 12,-7l22 -15c3,-2 7,-6 10,-9 2,-2 6,-6 9,-9 174,-168 12,-52 163,-209 46,-48 41,-63 105,-80 0,-110 18,-210 72,-302 2,-3 21,-34 21,-34 38,-79 36,-604 9,-674 -2,-4 -5,-8 -6,-13 -35,-85 -16,-49 -22,-129 -10,-126 -102,-174 -117,-336l124 -48 -270 -201c-111,-145 -777,-171 -972,-115 -10,3 -20,7 -29,10 -30,13 -27,12 -43,24z"/>
    <path class="fil5" d="M11763 1476c62,0 370,-7 416,8 79,27 6,11 61,46l57 22c5,1 10,2 15,3 47,16 27,-5 74,53 2,3 5,8 7,11l17 21c20,23 35,34 59,52l275 209c38,36 29,88 31,157 65,-7 41,-16 69,4 21,264 49,27 49,435 0,413 -40,266 -47,438 -70,45 -68,7 -105,98 -32,80 -10,81 -71,134 -171,149 -17,63 -132,145l-45 31c-92,64 -79,27 -146,77 -153,114 -71,25 -173,89 -102,64 -10,39 -286,47l-340 -34c-127,-28 -71,19 -145,-55l-64 -49c-49,-26 -59,-15 -91,-59 -21,-30 -5,-14 -19,-37 -59,-99 -105,-42 -179,-117l-73 -132c-38,-82 -26,-66 -31,-167 -74,-34 -62,6 -91,-104 -9,-37 -5,-43 -12,-79 -15,-76 -3,-10 -21,-72 -14,-49 -17,-111 -18,-174 -2,-104 -16,-109 62,-127 -15,-96 -32,-44 -48,-149 -52,35 -59,51 -99,113 -32,48 -65,83 -72,139l15 342c47,35 64,25 70,110 4,53 1,112 5,169 21,69 67,-27 78,167l172 101c87,57 7,-5 55,76 15,23 10,20 34,39 9,7 26,17 34,22 72,42 110,42 187,76 143,63 64,32 126,126 241,30 499,27 763,23 3,-1 64,-104 317,-114l51 -73c2,-1 44,-23 50,-27 100,-55 79,-88 141,-155 42,-46 107,-62 131,-109l95 -280c31,-102 40,-40 85,-136l20 -107c17,-798 -75,-454 -146,-726 -52,-198 -63,-163 -130,-224 -89,-80 1,-77 -121,-123l-100 -66c-101,-104 -60,-60 -163,-101 -48,-19 -6,-2 -35,-19 -79,-44 0,-30 -213,-36 -86,-2 -174,21 -249,14 -39,-4 -21,-11 -77,5 -1,0 -40,17 -41,18 -40,24 -11,2 -38,31z"/>
    <path class="fil6" d="M11243 1776c29,8 45,12 68,27l34 -72 129 1c-11,-82 -19,-39 -33,-73 57,-7 100,-38 177,-42 61,-3 44,11 68,7 61,-9 -6,-22 53,-41l319 23c194,49 65,2 214,80l134 90c23,17 29,18 55,37 21,15 150,154 161,175 54,103 -29,36 94,220 56,83 36,546 21,598l-117 217c-114,117 -41,71 -99,126l-233 177c-114,61 -410,125 -522,105l-246 -66c-59,-15 -169,-76 -227,-106 -108,-57 -76,-93 -140,-176 -34,-44 -60,-49 -89,-80 -69,-74 -8,12 0,-93 -103,-70 -88,-29 -106,-266 -7,-89 -9,-303 0,-390 11,-104 14,-37 57,-127 34,-68 10,-67 67,-120 56,-52 161,-149 161,-231zm0 0c-95,13 -318,258 -390,356 -40,54 -24,11 -35,69 16,105 33,53 48,149 -78,18 -64,23 -62,127 1,63 4,125 18,174 18,62 6,-4 21,72 7,36 3,42 12,79 29,110 17,70 91,104 5,101 -7,85 31,167l73 132c74,75 120,18 179,117 14,23 -2,7 19,37 32,44 42,33 91,59l64 49c74,74 18,27 145,55l340 34c276,-8 184,17 286,-47 102,-64 20,25 173,-89 67,-50 54,-13 146,-77l45 -31c115,-82 -39,4 132,-145 61,-53 39,-54 71,-134 37,-91 35,-53 105,-98 7,-172 47,-25 47,-438 0,-408 -28,-171 -49,-435 -28,-20 -4,-11 -69,-4 -2,-69 7,-121 -31,-157l-275 -209c-24,-18 -39,-29 -59,-52l-17 -21c-2,-3 -5,-8 -7,-11 -47,-58 -27,-37 -74,-53 -5,-1 -10,-2 -15,-3l-57 -22c-55,-35 18,-19 -61,-46 -46,-15 -354,-8 -416,-8 -89,-15 -384,161 -473,236l-47 64z"/>
    <path class="fil7" d="M11683 1788c85,-85 313,-44 404,30l39 -44c3,-11 12,-10 17,-16 39,35 -4,5 58,17 47,10 8,-18 58,19l173 137c56,38 201,322 203,326 36,105 53,353 6,466 -2,4 -4,8 -6,12 -2,4 -5,9 -6,13 -2,4 -4,9 -6,13 -2,4 -4,8 -6,13 -87,209 -18,106 -160,289 -70,91 -83,107 -182,141 -215,74 -77,83 -237,104 -170,21 -185,99 -423,-31 -3,-2 -8,-5 -11,-7 -98,-48 -113,12 -251,-106 -198,-168 -295,-330 -296,-592 -1,-230 28,-299 103,-448 23,-47 20,-95 40,-133 32,-63 -5,-8 44,-46 60,-45 79,-53 113,-133l99 30c46,-120 137,-158 227,-54zm-440 -12c0,82 -105,179 -161,231 -57,53 -33,52 -67,120 -43,90 -46,23 -57,127 -9,87 -7,301 0,390 18,237 3,196 106,266 -8,105 -69,19 0,93 29,31 55,36 89,80 64,83 32,119 140,176 58,30 168,91 227,106l246 66c112,20 408,-44 522,-105l233 -177c58,-55 -15,-9 99,-126l117 -217c15,-52 35,-515 -21,-598 -123,-184 -40,-117 -94,-220 -11,-21 -140,-160 -161,-175 -26,-19 -32,-20 -55,-37l-134 -90c-149,-78 -20,-31 -214,-80l-319 -23c-59,19 8,32 -53,41 -24,4 -7,-10 -68,-7 -77,4 -120,35 -177,42 14,34 22,-9 33,73l-129 -1 -34 72c-23,-15 -39,-19 -68,-27z"/>
    <path class="fil8" d="M13233 1704c122,26 305,378 343,517 117,428 3,1108 -221,1443 -71,105 -310,408 -434,453 -38,110 -607,389 -791,443 -195,57 -324,87 -558,89 -101,1 -215,-1 -313,-19 -43,-7 -79,-20 -119,-30 -3,-1 -58,-11 -58,-11 -58,5 -25,-37 -48,24 76,9 229,73 337,92 768,133 1625,-325 2051,-898 335,-451 527,-1394 51,-1964 -79,-94 -338,-320 -510,-340l270 201z"/>
    <path class="fil9" d="M11683 1788c-188,54 -430,270 -370,526 60,100 81,81 144,153 87,0 129,19 245,7l237 -102 127 -124c2,-2 7,-5 8,-7 2,-2 8,-6 9,-7 2,-1 6,-4 9,-6 18,-56 38,-90 56,-156 10,-111 -10,-186 -61,-254 -91,-74 -319,-115 -404,-30z"/>
    <path class="fil10" d="M12087 1818c51,68 71,143 61,254l1 5 25 -175c1,-7 5,-25 6,-31l6 -26c74,45 34,11 31,98 19,-55 60,-29 151,37 53,37 20,1 62,68 19,30 33,62 50,99 47,103 135,229 109,441l-66 248c-34,58 -13,-7 -94,127 -42,71 -135,169 -210,197 -209,78 -467,117 -690,28 -65,-26 -13,-1 -41,-30 -166,-176 -176,-42 -317,-448 -32,-92 -58,-191 -19,-316l45 -155c35,-119 -21,-63 71,-101l0 148c16,48 -3,23 45,28 -60,-256 182,-472 370,-526 -90,-104 -181,-66 -227,54l-99 -30c-34,80 -53,88 -113,133 -49,38 -12,-17 -44,46 -20,38 -17,86 -40,133 -75,149 -104,218 -103,448 1,262 98,424 296,592 138,118 153,58 251,106 3,2 8,5 11,7 238,130 253,52 423,31 160,-21 22,-30 237,-104 99,-34 112,-50 182,-141 142,-183 73,-80 160,-289 2,-5 4,-9 6,-13 2,-4 4,-9 6,-13 1,-4 4,-9 6,-13 2,-4 4,-8 6,-12 47,-113 30,-361 -6,-466 -2,-4 -147,-288 -203,-326l-173 -137c-50,-37 -11,-9 -58,-19 -62,-12 -19,18 -58,-17 -5,6 -14,5 -17,16l-39 44z"/>
    <path class="fil11" d="M12149 2077l-1 -5c-18,66 -38,100 -56,156 44,-16 75,-25 131,-29 20,31 35,66 47,88 99,168 65,375 -61,527 -158,190 -108,152 -414,164 -194,7 -136,-10 -202,-109 -306,-48 -117,-208 -245,-428 88,40 37,31 109,26 -63,-72 -84,-53 -144,-153 -48,-5 -29,20 -45,-28 -62,-23 12,20 -31,-13 36,35 28,-26 21,71 -5,65 -101,298 79,498 65,72 91,163 203,221l77 33c270,108 565,45 714,-209 43,-74 43,-36 89,-133 65,-137 86,-139 68,-351 -11,-117 -111,-95 -133,-316 -70,-25 -93,-60 -147,-96 1,1 41,-8 5,42 -34,48 16,26 -64,44z"/>
    <path class="fil12" d="M12149 2077c80,-18 30,4 64,-44 36,-50 -4,-41 -5,-42 54,36 77,71 147,96 22,221 122,199 133,316 18,212 -3,214 -68,351 -46,97 -46,59 -89,133 -149,254 -444,317 -714,209l-77 -33c-112,-58 -138,-149 -203,-221 -180,-200 -84,-433 -79,-498 7,-97 15,-36 -21,-71 43,33 -31,-10 31,13l0 -148c-92,38 -36,-18 -71,101l-45 155c-39,125 -13,224 19,316 141,406 151,272 317,448 28,29 -24,4 41,30 223,89 481,50 690,-28 75,-28 168,-126 210,-197 81,-134 60,-69 94,-127l66 -248c26,-212 -62,-338 -109,-441 -17,-37 -31,-69 -50,-99 -42,-67 -9,-31 -62,-68 -91,-66 -132,-92 -151,-37 3,-87 43,-53 -31,-98l-6 26c-1,6 -5,24 -6,31l-25 175z"/>
    <path class="fil13" d="M11939 2372l-237 102c-2,1 -31,14 -47,21l-111 39c-3,164 -16,149 54,215l19 19c35,43 -19,4 37,57 38,37 225,75 307,62 105,-15 150,-113 208,-184 74,-92 44,-113 44,-345 -164,0 -119,-29 -274,14z"/>
    <path class="fil14" d="M11939 2372c155,-43 110,-14 274,-14 0,232 30,253 -44,345 -58,71 -103,169 -208,184 -82,13 -269,-25 -307,-62 -56,-53 -2,-14 -37,-57l-19 -19c-70,-66 -57,-51 -54,-215l111 -39c16,-7 45,-20 47,-21 -116,12 -158,-7 -245,-7 -72,5 -21,14 -109,-26 128,220 -61,380 245,428 66,99 8,116 202,109 306,-12 256,26 414,-164 126,-152 160,-359 61,-527 -12,-22 -27,-57 -47,-88 -56,4 -87,13 -131,29 -3,2 -7,5 -9,6 -1,1 -7,5 -9,7 -1,2 -6,5 -8,7l-127 124z"/>
    <path class="fil15" d="M13012 1321l168 -316 -99 -38c-40,-11 -75,-18 -121,-25 -147,-20 -393,-26 -497,82 -47,48 -105,110 -117,157 288,22 430,65 666,140z"/>
    <path class="fil16" d="M13483 649c75,7 77,19 84,97 8,90 -4,172 -54,249 -45,69 1,33 -77,58 25,52 7,30 49,67 89,-38 72,-92 149,-169l-14 -55c-34,-46 -11,-27 -5,-44 17,-48 15,2 36,-67 0,-43 -7,-103 -26,-155 -36,-98 -1,-51 -72,-85 -24,-94 -3,-126 -67,-168 -48,-33 -91,-42 -152,-57l-103 146 44 51c58,-6 35,-17 103,-26 50,56 12,44 38,70 28,28 19,-1 75,37l-8 51z"/>
    <path class="fil17" d="M12878 635l-92 3c-18,25 -38,105 -37,180l202 27c69,-127 151,-262 238,-336 -18,-48 -37,-85 -70,-97 -97,-4 -178,81 -203,142 -1,4 -8,27 -10,32l-28 49z"/>
    <path class="fil15" d="M13146 1383c4,3 11,1 13,7 8,21 7,4 64,33 39,20 53,29 82,48 44,29 90,71 134,83 36,-291 49,-340 -138,-490 -6,72 -32,115 -59,180 -5,13 -30,77 -32,80 -43,78 3,35 -64,59z"/>
    <path class="fil9" d="M13005 858l176 51c37,-131 118,-201 220,-254l-81 -20 38 -92 -92 48c-104,-16 77,55 -22,-10 -50,-34 -5,-70 -125,75 -44,54 -94,120 -114,202z"/>
    <path class="fil9" d="M13012 1321l134 62c67,-24 21,19 64,-59 2,-3 27,-67 32,-80 27,-65 53,-108 59,-180l-121 -59 -168 316z"/>
    <path class="fil18" d="M13334 320c61,15 104,24 152,57 64,42 43,74 67,168l14 -3 -3 -542c-50,35 -193,245 -230,320z"/>
    <path class="fil19" d="M12598 867l353 -22 -202 -27c-1,-75 19,-155 37,-180l-150 -57 -40 17c-11,95 -48,165 2,269z"/>
    <path class="fil20" d="M12598 867c-50,-104 -13,-174 -2,-269l40 -17 -49 -31c-15,-7 -50,-19 -68,-26 -52,-19 -77,-29 -136,-41 12,91 95,309 138,392l77 -8z"/>
    <path class="fil21" d="M13431 694c3,4 57,-4 11,171 -16,61 -7,31 -27,67 -36,66 -17,-28 -39,82 36,45 6,24 60,39 78,-25 32,11 77,-58 50,-77 62,-159 54,-249 -7,-78 -9,-90 -84,-97 -34,21 -35,26 -52,45z"/>
    <path class="fil22" d="M13376 1014c22,-110 3,-16 39,-82 20,-36 11,-6 27,-67 46,-175 -8,-167 -11,-171 -100,30 -190,134 -212,245l157 75z"/>
    <path class="fil23" d="M12878 635l28 -49c2,-5 9,-28 10,-32 25,-61 106,-146 203,-142 -27,-67 -120,-212 -179,-236l-62 459z"/>
    <path class="fil19" d="M13567 542l-14 3c71,34 36,-13 72,85 19,52 26,112 26,155 37,-23 8,0 45,-37 10,-10 22,-25 35,-39 39,-45 47,-45 63,-96 4,-96 18,-115 -78,-117l-149 46z"/>
    <path class="fil18" d="M13607 1139c81,-22 252,-103 305,-148l-183 -70 -16 29c-98,243 -41,54 -106,189z"/>
    <path class="fil19" d="M13485 1120l37 59 85 -40c65,-135 8,54 106,-189l16 -29 -109 -25 14 55c-77,77 -60,131 -149,169z"/>
    <path class="fil20" d="M13716 496c96,2 82,21 78,117 36,-21 31,-12 68,-53l150 -202c-56,13 -93,32 -147,56l-117 52c-30,21 -11,6 -32,30z"/>
   </g>
   <g>
    <path class="fil2" d="M10502 2745c-51,47 -90,172 -80,249l17 559 152 4 2 144 132 15 11 135c59,1 170,-1 222,7 85,14 72,43 77,144l130 3c22,42 13,3 19,71 21,0 53,-2 72,0l181 42c5,1 10,3 15,4 54,16 25,22 101,30 147,17 587,24 683,-27l86 -38c50,-10 128,-10 181,-11 55,-83 -17,-42 92,-73 85,-24 48,-12 94,-73 68,-1 177,-8 201,-77l62 0c-14,54 -34,86 67,119 -68,105 -77,51 -98,145 124,-45 363,-348 434,-453 224,-335 338,-1015 221,-1443 -38,-139 -221,-491 -343,-517l-124 48c15,162 107,210 117,336 6,80 -13,44 22,129 1,5 4,9 6,13 27,70 29,595 -9,674 0,0 -19,31 -21,34 -54,92 -72,192 -72,302 -64,17 -59,32 -105,80 -151,157 11,41 -163,209 -3,3 -7,7 -9,9 -3,3 -7,7 -10,9l-22 15c-3,2 -8,5 -12,7l-112 56c-46,28 -19,4 -47,45 -117,174 -87,67 -240,134 -114,49 -20,-10 -78,86l-132 21c-147,50 -679,-20 -855,-20 -80,-90 22,-73 -118,-102 -134,-28 -53,9 -150,-57 -100,-68 -128,-88 -220,-189 -58,-64 -174,-156 -202,-207l-34 -59c-3,-3 -7,-6 -10,-9 -114,-116 3,-82 -122,-175 0,-112 -4,-256 -9,-348z"/>
    <path class="fil3" d="M11034 4613c23,-61 -10,-19 48,-24 0,0 55,10 58,11 40,10 76,23 119,30 98,18 212,20 313,19 234,-2 363,-32 558,-89 184,-54 753,-333 791,-443 21,-94 30,-40 98,-145 -101,-33 -81,-65 -67,-119l-62 0c-24,69 -133,76 -201,77 -46,61 -9,49 -94,73 -109,31 -37,-10 -92,73 -53,1 -131,1 -181,11l-86 38c-96,51 -536,44 -683,27 -76,-8 -47,-14 -101,-30 -5,-1 -10,-3 -15,-4l-181 -42c-19,-2 -51,0 -72,0 -6,-68 3,-29 -19,-71l-130 -3c-5,-101 8,-130 -77,-144 -52,-8 -163,-6 -222,-7l-11 -135 -132 -15 -2 -144 -152 -4 -17 -559c-3,5 -6,11 -8,15 -2,4 -6,10 -8,14l-46 220c-11,95 -11,201 -8,296 16,461 276,933 682,1074z"/>
    <path class="fil4" d="M11919 1422c75,7 163,-16 249,-14 213,6 134,-8 213,36 29,17 -13,0 35,19 103,41 62,-3 163,101l100 66c122,46 32,43 121,123 67,61 78,26 130,224 71,272 163,-72 146,726l-20 107c-45,96 -54,34 -85,136l-95 280c-24,47 -89,63 -131,109 -62,67 -41,100 -141,155 -6,4 -48,26 -50,27l-51 73c-253,10 -314,113 -317,114 -264,4 -522,7 -763,-23 -62,-94 17,-63 -126,-126 -77,-34 -115,-34 -187,-76 -8,-5 -25,-15 -34,-22 -24,-19 -19,-16 -34,-39 -48,-81 32,-19 -55,-76l-172 -101c-11,-194 -57,-98 -78,-167 -4,-57 -1,-116 -5,-169 -6,-85 -23,-75 -70,-110l-15 -342c-4,3 -10,3 -12,11 0,0 -126,159 -133,281 5,92 9,236 9,348 125,93 8,59 122,175 3,3 7,6 10,9l34 59c28,51 144,143 202,207 92,101 120,121 220,189 97,66 16,29 150,57 140,29 38,12 118,102 176,0 708,70 855,20l132 -21c58,-96 -36,-37 78,-86 153,-67 123,40 240,-134 28,-41 1,-17 47,-45l112 -56c4,-2 9,-5 12,-7l22 -15c3,-2 7,-6 10,-9 2,-2 6,-6 9,-9 174,-168 12,-52 163,-209 46,-48 41,-63 105,-80 0,-110 18,-210 72,-302 2,-3 21,-34 21,-34 38,-79 36,-604 9,-674 -2,-4 -5,-8 -6,-13 -35,-85 -16,-49 -22,-129 -10,-126 -102,-174 -117,-336l124 -48 -270 -201c-111,-145 -777,-171 -972,-115 -10,3 -20,7 -29,10 -30,13 -27,12 -43,24z"/>
    <path class="fil5" d="M11763 1476c62,0 370,-7 416,8 79,27 6,11 61,46l57 22c5,1 10,2 15,3 47,16 27,-5 74,53 2,3 5,8 7,11l17 21c20,23 35,34 59,52l275 209c38,36 29,88 31,157 65,-7 41,-16 69,4 21,264 49,27 49,435 0,413 -40,266 -47,438 -70,45 -68,7 -105,98 -32,80 -10,81 -71,134 -171,149 -17,63 -132,145l-45 31c-92,64 -79,27 -146,77 -153,114 -71,25 -173,89 -102,64 -10,39 -286,47l-340 -34c-127,-28 -71,19 -145,-55l-64 -49c-49,-26 -59,-15 -91,-59 -21,-30 -5,-14 -19,-37 -59,-99 -105,-42 -179,-117l-73 -132c-38,-82 -26,-66 -31,-167 -74,-34 -62,6 -91,-104 -9,-37 -5,-43 -12,-79 -15,-76 -3,-10 -21,-72 -14,-49 -17,-111 -18,-174 -2,-104 -16,-109 62,-127 -15,-96 -32,-44 -48,-149 -52,35 -59,51 -99,113 -32,48 -65,83 -72,139l15 342c47,35 64,25 70,110 4,53 1,112 5,169 21,69 67,-27 78,167l172 101c87,57 7,-5 55,76 15,23 10,20 34,39 9,7 26,17 34,22 72,42 110,42 187,76 143,63 64,32 126,126 241,30 499,27 763,23 3,-1 64,-104 317,-114l51 -73c2,-1 44,-23 50,-27 100,-55 79,-88 141,-155 42,-46 107,-62 131,-109l95 -280c31,-102 40,-40 85,-136l20 -107c17,-798 -75,-454 -146,-726 -52,-198 -63,-163 -130,-224 -89,-80 1,-77 -121,-123l-100 -66c-101,-104 -60,-60 -163,-101 -48,-19 -6,-2 -35,-19 -79,-44 0,-30 -213,-36 -86,-2 -174,21 -249,14 -39,-4 -21,-11 -77,5 -1,0 -40,17 -41,18 -40,24 -11,2 -38,31z"/>
    <path class="fil6" d="M11243 1776c29,8 45,12 68,27l34 -72 129 1c-11,-82 -19,-39 -33,-73 57,-7 100,-38 177,-42 61,-3 44,11 68,7 61,-9 -6,-22 53,-41l319 23c194,49 65,2 214,80l134 90c23,17 29,18 55,37 21,15 150,154 161,175 54,103 -29,36 94,220 56,83 36,546 21,598l-117 217c-114,117 -41,71 -99,126l-233 177c-114,61 -410,125 -522,105l-246 -66c-59,-15 -169,-76 -227,-106 -108,-57 -76,-93 -140,-176 -34,-44 -60,-49 -89,-80 -69,-74 -8,12 0,-93 -103,-70 -88,-29 -106,-266 -7,-89 -9,-303 0,-390 11,-104 14,-37 57,-127 34,-68 10,-67 67,-120 56,-52 161,-149 161,-231zm0 0c-95,13 -318,258 -390,356 -40,54 -24,11 -35,69 16,105 33,53 48,149 -78,18 -64,23 -62,127 1,63 4,125 18,174 18,62 6,-4 21,72 7,36 3,42 12,79 29,110 17,70 91,104 5,101 -7,85 31,167l73 132c74,75 120,18 179,117 14,23 -2,7 19,37 32,44 42,33 91,59l64 49c74,74 18,27 145,55l340 34c276,-8 184,17 286,-47 102,-64 20,25 173,-89 67,-50 54,-13 146,-77l45 -31c115,-82 -39,4 132,-145 61,-53 39,-54 71,-134 37,-91 35,-53 105,-98 7,-172 47,-25 47,-438 0,-408 -28,-171 -49,-435 -28,-20 -4,-11 -69,-4 -2,-69 7,-121 -31,-157l-275 -209c-24,-18 -39,-29 -59,-52l-17 -21c-2,-3 -5,-8 -7,-11 -47,-58 -27,-37 -74,-53 -5,-1 -10,-2 -15,-3l-57 -22c-55,-35 18,-19 -61,-46 -46,-15 -354,-8 -416,-8 -89,-15 -384,161 -473,236l-47 64z"/>
    <path class="fil7" d="M11683 1788c85,-85 313,-44 404,30l39 -44c3,-11 12,-10 17,-16 39,35 -4,5 58,17 47,10 8,-18 58,19l173 137c56,38 201,322 203,326 36,105 53,353 6,466 -2,4 -4,8 -6,12 -2,4 -5,9 -6,13 -2,4 -4,9 -6,13 -2,4 -4,8 -6,13 -87,209 -18,106 -160,289 -70,91 -83,107 -182,141 -215,74 -77,83 -237,104 -170,21 -185,99 -423,-31 -3,-2 -8,-5 -11,-7 -98,-48 -113,12 -251,-106 -198,-168 -295,-330 -296,-592 -1,-230 28,-299 103,-448 23,-47 20,-95 40,-133 32,-63 -5,-8 44,-46 60,-45 79,-53 113,-133l99 30c46,-120 137,-158 227,-54zm-440 -12c0,82 -105,179 -161,231 -57,53 -33,52 -67,120 -43,90 -46,23 -57,127 -9,87 -7,301 0,390 18,237 3,196 106,266 -8,105 -69,19 0,93 29,31 55,36 89,80 64,83 32,119 140,176 58,30 168,91 227,106l246 66c112,20 408,-44 522,-105l233 -177c58,-55 -15,-9 99,-126l117 -217c15,-52 35,-515 -21,-598 -123,-184 -40,-117 -94,-220 -11,-21 -140,-160 -161,-175 -26,-19 -32,-20 -55,-37l-134 -90c-149,-78 -20,-31 -214,-80l-319 -23c-59,19 8,32 -53,41 -24,4 -7,-10 -68,-7 -77,4 -120,35 -177,42 14,34 22,-9 33,73l-129 -1 -34 72c-23,-15 -39,-19 -68,-27z"/>
    <path class="fil8" d="M13233 1704c122,26 305,378 343,517 117,428 3,1108 -221,1443 -71,105 -310,408 -434,453 -38,110 -607,389 -791,443 -195,57 -324,87 -558,89 -101,1 -215,-1 -313,-19 -43,-7 -79,-20 -119,-30 -3,-1 -58,-11 -58,-11 -58,5 -25,-37 -48,24 76,9 229,73 337,92 768,133 1625,-325 2051,-898 335,-451 527,-1394 51,-1964 -79,-94 -338,-320 -510,-340l270 201z"/>
    <path class="fil9" d="M11683 1788c-188,54 -430,270 -370,526 60,100 81,81 144,153 87,0 129,19 245,7l237 -102 127 -124c2,-2 7,-5 8,-7 2,-2 8,-6 9,-7 2,-1 6,-4 9,-6 18,-56 38,-90 56,-156 10,-111 -10,-186 -61,-254 -91,-74 -319,-115 -404,-30z"/>
    <path class="fil10" d="M12087 1818c51,68 71,143 61,254l1 5 25 -175c1,-7 5,-25 6,-31l6 -26c74,45 34,11 31,98 19,-55 60,-29 151,37 53,37 20,1 62,68 19,30 33,62 50,99 47,103 135,229 109,441l-66 248c-34,58 -13,-7 -94,127 -42,71 -135,169 -210,197 -209,78 -467,117 -690,28 -65,-26 -13,-1 -41,-30 -166,-176 -176,-42 -317,-448 -32,-92 -58,-191 -19,-316l45 -155c35,-119 -21,-63 71,-101l0 148c16,48 -3,23 45,28 -60,-256 182,-472 370,-526 -90,-104 -181,-66 -227,54l-99 -30c-34,80 -53,88 -113,133 -49,38 -12,-17 -44,46 -20,38 -17,86 -40,133 -75,149 -104,218 -103,448 1,262 98,424 296,592 138,118 153,58 251,106 3,2 8,5 11,7 238,130 253,52 423,31 160,-21 22,-30 237,-104 99,-34 112,-50 182,-141 142,-183 73,-80 160,-289 2,-5 4,-9 6,-13 2,-4 4,-9 6,-13 1,-4 4,-9 6,-13 2,-4 4,-8 6,-12 47,-113 30,-361 -6,-466 -2,-4 -147,-288 -203,-326l-173 -137c-50,-37 -11,-9 -58,-19 -62,-12 -19,18 -58,-17 -5,6 -14,5 -17,16l-39 44z"/>
    <path class="fil11" d="M12149 2077l-1 -5c-18,66 -38,100 -56,156 44,-16 75,-25 131,-29 20,31 35,66 47,88 99,168 65,375 -61,527 -158,190 -108,152 -414,164 -194,7 -136,-10 -202,-109 -306,-48 -117,-208 -245,-428 88,40 37,31 109,26 -63,-72 -84,-53 -144,-153 -48,-5 -29,20 -45,-28 -62,-23 12,20 -31,-13 36,35 28,-26 21,71 -5,65 -101,298 79,498 65,72 91,163 203,221l77 33c270,108 565,45 714,-209 43,-74 43,-36 89,-133 65,-137 86,-139 68,-351 -11,-117 -111,-95 -133,-316 -70,-25 -93,-60 -147,-96 1,1 41,-8 5,42 -34,48 16,26 -64,44z"/>
    <path class="fil12" d="M12149 2077c80,-18 30,4 64,-44 36,-50 -4,-41 -5,-42 54,36 77,71 147,96 22,221 122,199 133,316 18,212 -3,214 -68,351 -46,97 -46,59 -89,133 -149,254 -444,317 -714,209l-77 -33c-112,-58 -138,-149 -203,-221 -180,-200 -84,-433 -79,-498 7,-97 15,-36 -21,-71 43,33 -31,-10 31,13l0 -148c-92,38 -36,-18 -71,101l-45 155c-39,125 -13,224 19,316 141,406 151,272 317,448 28,29 -24,4 41,30 223,89 481,50 690,-28 75,-28 168,-126 210,-197 81,-134 60,-69 94,-127l66 -248c26,-212 -62,-338 -109,-441 -17,-37 -31,-69 -50,-99 -42,-67 -9,-31 -62,-68 -91,-66 -132,-92 -151,-37 3,-87 43,-53 -31,-98l-6 26c-1,6 -5,24 -6,31l-25 175z"/>
    <path class="fil13" d="M11939 2372l-237 102c-2,1 -31,14 -47,21l-111 39c-3,164 -16,149 54,215l19 19c35,43 -19,4 37,57 38,37 225,75 307,62 105,-15 150,-113 208,-184 74,-92 44,-113 44,-345 -164,0 -119,-29 -274,14z"/>
    <path class="fil14" d="M11939 2372c155,-43 110,-14 274,-14 0,232 30,253 -44,345 -58,71 -103,169 -208,184 -82,13 -269,-25 -307,-62 -56,-53 -2,-14 -37,-57l-19 -19c-70,-66 -57,-51 -54,-215l111 -39c16,-7 45,-20 47,-21 -116,12 -158,-7 -245,-7 -72,5 -21,14 -109,-26 128,220 -61,380 245,428 66,99 8,116 202,109 306,-12 256,26 414,-164 126,-152 160,-359 61,-527 -12,-22 -27,-57 -47,-88 -56,4 -87,13 -131,29 -3,2 -7,5 -9,6 -1,1 -7,5 -9,7 -1,2 -6,5 -8,7l-127 124z"/>
    <path class="fil15" d="M13012 1321l168 -316 -99 -38c-40,-11 -75,-18 -121,-25 -147,-20 -393,-26 -497,82 -47,48 -105,110 -117,157 288,22 430,65 666,140z"/>
    <path class="fil16" d="M13483 649c75,7 77,19 84,97 8,90 -4,172 -54,249 -45,69 1,33 -77,58 25,52 7,30 49,67 89,-38 72,-92 149,-169l-14 -55c-34,-46 -11,-27 -5,-44 17,-48 15,2 36,-67 0,-43 -7,-103 -26,-155 -36,-98 -1,-51 -72,-85 -24,-94 -3,-126 -67,-168 -48,-33 -91,-42 -152,-57l-103 146 44 51c58,-6 35,-17 103,-26 50,56 12,44 38,70 28,28 19,-1 75,37l-8 51z"/>
    <path class="fil17" d="M12878 635l-92 3c-18,25 -38,105 -37,180l202 27c69,-127 151,-262 238,-336 -18,-48 -37,-85 -70,-97 -97,-4 -178,81 -203,142 -1,4 -8,27 -10,32l-28 49z"/>
    <path class="fil15" d="M13146 1383c4,3 11,1 13,7 8,21 7,4 64,33 39,20 53,29 82,48 44,29 90,71 134,83 36,-291 49,-340 -138,-490 -6,72 -32,115 -59,180 -5,13 -30,77 -32,80 -43,78 3,35 -64,59z"/>
    <path class="fil9" d="M13005 858l176 51c37,-131 118,-201 220,-254l-81 -20 38 -92 -92 48c-104,-16 77,55 -22,-10 -50,-34 -5,-70 -125,75 -44,54 -94,120 -114,202z"/>
    <path class="fil9" d="M13012 1321l134 62c67,-24 21,19 64,-59 2,-3 27,-67 32,-80 27,-65 53,-108 59,-180l-121 -59 -168 316z"/>
    <path class="fil18" d="M13334 320c61,15 104,24 152,57 64,42 43,74 67,168l14 -3 -3 -542c-50,35 -193,245 -230,320z"/>
    <path class="fil19" d="M12598 867l353 -22 -202 -27c-1,-75 19,-155 37,-180l-150 -57 -40 17c-11,95 -48,165 2,269z"/>
    <path class="fil20" d="M12598 867c-50,-104 -13,-174 -2,-269l40 -17 -49 -31c-15,-7 -50,-19 -68,-26 -52,-19 -77,-29 -136,-41 12,91 95,309 138,392l77 -8z"/>
    <path class="fil21" d="M13431 694c3,4 57,-4 11,171 -16,61 -7,31 -27,67 -36,66 -17,-28 -39,82 36,45 6,24 60,39 78,-25 32,11 77,-58 50,-77 62,-159 54,-249 -7,-78 -9,-90 -84,-97 -34,21 -35,26 -52,45z"/>
    <path class="fil22" d="M13376 1014c22,-110 3,-16 39,-82 20,-36 11,-6 27,-67 46,-175 -8,-167 -11,-171 -100,30 -190,134 -212,245l157 75z"/>
    <path class="fil23" d="M12878 635l28 -49c2,-5 9,-28 10,-32 25,-61 106,-146 203,-142 -27,-67 -120,-212 -179,-236l-62 459z"/>
    <path class="fil19" d="M13567 542l-14 3c71,34 36,-13 72,85 19,52 26,112 26,155 37,-23 8,0 45,-37 10,-10 22,-25 35,-39 39,-45 47,-45 63,-96 4,-96 18,-115 -78,-117l-149 46z"/>
    <path class="fil18" d="M13607 1139c81,-22 252,-103 305,-148l-183 -70 -16 29c-98,243 -41,54 -106,189z"/>
    <path class="fil19" d="M13485 1120l37 59 85 -40c65,-135 8,54 106,-189l16 -29 -109 -25 14 55c-77,77 -60,131 -149,169z"/>
    <path class="fil20" d="M13716 496c96,2 82,21 78,117 36,-21 31,-12 68,-53l150 -202c-56,13 -93,32 -147,56l-117 52c-30,21 -11,6 -32,30z"/>
   </g>
  </g>
 </g>
</svg>
