<?xml version="1.0" encoding="UTF-8"?>
<!DOCTYPE svg PUBLIC "-//W3C//DTD SVG 1.1//EN" "http://www.w3.org/Graphics/SVG/1.1/DTD/svg11.dtd">
<!-- Creator: CorelDRAW X8 -->
<svg xmlns="http://www.w3.org/2000/svg" xml:space="preserve" width="181.426mm" height="30.6593mm" version="1.1" style="shape-rendering:geometricPrecision; text-rendering:geometricPrecision; image-rendering:optimizeQuality; fill-rule:evenodd; clip-rule:evenodd"
viewBox="0 0 31782 5371"
 xmlns:xlink="http://www.w3.org/1999/xlink">
 <defs>
  <style type="text/css">
   <![CDATA[
    .fil0 {fill:black;fill-rule:nonzero}
    .fil1 {fill:url(#id0);fill-rule:nonzero}
   ]]>
  </style>
  <linearGradient id="id0" gradientUnits="objectBoundingBox" x1="50%" y1="9.14298e-05%" x2="50%" y2="100%">
   <stop offset="0" style="stop-opacity:1; stop-color:#DC0000"/>
   <stop offset="1" style="stop-opacity:1; stop-color:#990000"/>
  </linearGradient>
 </defs>
 <g id="Layer_x0020_1">
  <metadata id="CorelCorpID_0Corel-Layer"/>
  <path class="fil0" d="M2971 716l865 1571 0 -2098 -3510 0 572 426 0 4222 -572 438 2295 0 -566 -438 0 -1832 439 0 515 770 0 -2035 -515 769 -439 0 0 -1793 916 0zm-1501 -101l159 1335 -159 248 -146 -248 146 -1335zm0 2340l-159 -229 159 -236 166 236 -166 229zm7 1888l-153 -1348 153 -248 152 248 -152 1348z"/>
  <path id="1" class="fil0" d="M5413 5275l1710 0 -432 -394 -859 -3440 -1373 0 451 394 -896 3046 -477 394 1443 0 -419 -330 229 -852 756 0 191 865 -324 317zm-503 -1640l287 -1081 248 1081 -535 0z"/>
  <path id="2" class="fil0" d="M9374 3298c433,-121 668,-407 668,-878 0,-623 -528,-979 -1558,-979l-1520 0 452 394 0 3046 -452 394 1558 0c1208,0 1685,-356 1685,-1055 0,-541 -400,-846 -833,-922zm-890 -1437c483,0 712,210 712,623 0,426 -280,649 -693,649l-133 0 0 -1272 114 0zm13 2995l-127 0 0 -1348 146 0c559,0 865,248 865,674 0,483 -287,674 -884,674z"/>
  <path id="3" class="fil0" d="M14569 716l865 1571 0 -2098 -3510 0 572 426 0 4222 -572 438 2295 0 -565 -438 0 -1832 438 0 515 770 0 -2035 -515 769 -438 0 0 -1793 915 0zm-1500 -101l159 1335 -159 248 -147 -248 147 -1335zm0 2340l-159 -229 159 -236 165 236 -165 229zm6 1888l-153 -1348 153 -248 153 248 -153 1348z"/>
  <path id="4" class="fil0" d="M17011 5275l1710 0 -432 -394 -858 -3440 -1374 0 452 394 -897 3046 -477 394 1444 0 -420 -330 229 -852 756 0 191 865 -324 317zm-502 -1640l286 -1081 248 1081 -534 0z"/>
  <polygon id="5" class="fil0" points="18562,5275 19008,4881 19008,1835 18562,1441 20152,1441 20724,3196 21246,1441 22696,1441 22250,1835 22250,4881 22696,5275 20922,5275 21373,4881 21373,2770 20553,5371 19643,2738 19643,4881 20095,5275 "/>
  <polygon id="6" class="fil0" points="24323,1835 24775,1441 22931,1441 23370,1835 23370,4881 22931,5275 24775,5275 24323,4881 "/>
  <polygon id="7" class="fil0" points="24947,5275 25398,4881 25398,1835 24947,1441 26085,1441 27261,3075 27261,1835 26816,1441 28355,1441 27897,1835 27897,5371 25989,2777 25989,4881 26441,5275 "/>
  <path id="8" class="fil0" d="M30072 5275l1710 0 -432 -394 -859 -3440 -1373 0 451 394 -896 3046 -477 394 1443 0 -419 -330 228 -852 757 0 191 865 -324 317zm-503 -1640l286 -1081 248 1081 -534 0z"/>
  <path class="fil1" d="M2645 528l865 1570 0 -2098 -3510 0 572 426 0 4222 -572 439 2295 0 -565 -439 0 -1831 438 0 515 769 0 -2034 -515 769 -438 0 0 -1793 915 0zm-1500 -102l159 1335 -159 248 -147 -248 147 -1335zm0 2340l-159 -229 159 -235 165 235 -165 229zm6 1889l-153 -1349 153 -247 153 247 -153 1349z"/>
  <path id="1" class="fil1" d="M5087 5087l1710 0 -432 -394 -858 -3440 -1374 0 452 394 -897 3046 -477 394 1444 0 -420 -331 229 -852 756 0 191 865 -324 318zm-502 -1641l286 -1081 248 1081 -534 0z"/>
  <path id="2" class="fil1" d="M9048 3109c433,-120 668,-407 668,-877 0,-623 -528,-979 -1558,-979l-1520 0 452 394 0 3046 -452 394 1558 0c1208,0 1685,-356 1685,-1056 0,-540 -400,-845 -833,-922zm-890 -1437c483,0 712,210 712,623 0,426 -279,649 -693,649l-133 0 0 -1272 114 0zm13 2995l-127 0 0 -1348 146 0c559,0 865,248 865,674 0,483 -286,674 -884,674z"/>
  <path id="3" class="fil1" d="M14243 528l865 1570 0 -2098 -3510 0 572 426 0 4222 -572 439 2296 0 -566 -439 0 -1831 438 0 515 769 0 -2034 -515 769 -438 0 0 -1793 915 0zm-1500 -102l159 1335 -159 248 -147 -248 147 -1335zm0 2340l-159 -229 159 -235 165 235 -165 229zm6 1889l-153 -1349 153 -247 153 247 -153 1349z"/>
  <path id="4" class="fil1" d="M16685 5087l1711 0 -433 -394 -858 -3440 -1374 0 452 394 -897 3046 -477 394 1444 0 -420 -331 229 -852 757 0 190 865 -324 318zm-502 -1641l286 -1081 248 1081 -534 0z"/>
  <polygon id="5" class="fil1" points="18237,5087 18682,4693 18682,1647 18237,1253 19826,1253 20399,3008 20920,1253 22370,1253 21925,1647 21925,4693 22370,5087 20596,5087 21047,4693 21047,2582 20227,5182 19318,2550 19318,4693 19769,5087 "/>
  <polygon id="6" class="fil1" points="23997,1647 24449,1253 22605,1253 23044,1647 23044,4693 22605,5087 24449,5087 23997,4693 "/>
  <polygon id="7" class="fil1" points="24621,5087 25072,4693 25072,1647 24621,1253 25759,1253 26935,2887 26935,1647 26490,1253 28029,1253 27571,1647 27571,5182 25663,2588 25663,4693 26115,5087 "/>
  <path id="8" class="fil1" d="M29746 5087l1710 0 -432 -394 -859 -3440 -1373 0 451 394 -896 3046 -477 394 1443 0 -419 -331 229 -852 756 0 191 865 -324 318zm-503 -1641l286 -1081 248 1081 -534 0z"/>
 </g>
</svg>
