<?xml version="1.0" encoding="UTF-8"?>
<!DOCTYPE svg PUBLIC "-//W3C//DTD SVG 1.1//EN" "http://www.w3.org/Graphics/SVG/1.1/DTD/svg11.dtd">
<!-- Creator: CorelDRAW X8 -->
<svg xmlns="http://www.w3.org/2000/svg" xml:space="preserve" width="201.23mm" height="30.5049mm" version="1.1" style="shape-rendering:geometricPrecision; text-rendering:geometricPrecision; image-rendering:optimizeQuality; fill-rule:evenodd; clip-rule:evenodd"
viewBox="0 0 20291 3076"
 xmlns:xlink="http://www.w3.org/1999/xlink">
 <defs>
  <style type="text/css">
   <![CDATA[
    .fil0 {fill:black}
    .fil1 {fill:url(#id0);fill-rule:nonzero}
   ]]>
  </style>
  <linearGradient id="id0" gradientUnits="userSpaceOnUse" x1="10061.5" y1="92.9817" x2="10061.5" y2="3075.93">
   <stop offset="0" style="stop-opacity:1; stop-color:#DC0000"/>
   <stop offset="1" style="stop-opacity:1; stop-color:#990000"/>
  </linearGradient>
 </defs>
 <g id="Layer_x0020_1">
  <metadata id="CorelCorpID_0Corel-Layer"/>
  <g id="_1844709808112">
   <polygon class="fil0" points="2020,1301 2188,1208 2188,0 2020,93 "/>
   <polygon class="fil0" points="2020,93 2188,0 168,0 0,93 "/>
   <polygon class="fil0" points="1321,3021 1489,2928 1163,2675 996,2768 "/>
   <polygon class="fil0" points="996,2768 1163,2675 1163,1621 996,1714 "/>
   <polygon class="fil0" points="1545,2157 1712,2064 1712,893 1545,986 "/>
   <polygon class="fil0" points="1248,1429 1416,1336 1163,1336 996,1429 "/>
   <polygon class="fil0" points="996,1429 1163,1336 1163,304 996,397 "/>
   <polygon class="fil0" points="659,1250 827,1157 742,1014 575,1107 "/>
   <polygon class="fil0" points="575,1107 742,1014 827,245 659,338 "/>
   <polygon class="fil0" points="659,1685 827,1592 735,1460 567,1553 "/>
   <polygon class="fil0" points="567,1553 735,1460 827,1325 659,1418 "/>
   <polygon class="fil0" points="662,2772 830,2679 742,1903 575,1996 "/>
   <polygon class="fil0" points="575,1996 742,1903 830,1760 662,1853 "/>
   <polygon class="fil0" points="3913,3021 4080,2928 3832,2701 3664,2794 "/>
   <polygon class="fil0" points="3664,2794 3832,2701 3337,721 3170,814 "/>
   <polygon class="fil0" points="3170,814 3337,721 2547,721 2379,814 "/>
   <polygon class="fil0" points="2679,3021 2847,2928 2605,2738 2438,2831 "/>
   <polygon class="fil0" points="2438,2831 2605,2738 2737,2247 2569,2340 "/>
   <polygon class="fil0" points="2639,2077 2807,1984 2971,1362 2804,1455 "/>
   <polygon class="fil0" points="2946,2077 3114,1984 2807,1984 2639,2077 "/>
   <polygon class="fil0" points="5401,2904 5569,2811 5601,2794 5631,2775 5660,2756 5686,2735 5710,2713 5732,2690 5752,2665 5771,2640 5787,2613 5802,2585 5815,2556 5826,2526 5835,2495 5842,2462 5848,2428 5852,2394 5855,2358 5856,2320 5855,2292 5853,2264 5850,2237 5845,2210 5839,2185 5833,2160 5825,2136 5816,2112 5806,2090 5794,2068 5782,2048 5769,2027 5756,2008 5741,1990 5725,1972 5709,1955 5692,1939 5674,1923 5656,1909 5637,1895 5618,1882 5598,1870 5577,1858 5556,1847 5535,1838 5513,1828 5491,1820 5468,1812 5445,1806 5422,1800 5399,1794 5376,1790 5208,1883 5232,1887 5255,1893 5278,1899 5300,1905 5323,1913 5345,1921 5367,1931 5388,1940 5409,1951 5430,1963 5450,1975 5469,1988 5488,2002 5507,2016 5524,2032 5541,2048 5558,2065 5573,2083 5588,2101 5602,2120 5615,2140 5627,2161 5638,2183 5648,2205 5657,2229 5665,2253 5672,2278 5677,2303 5682,2330 5685,2357 5687,2385 5688,2413 5687,2451 5684,2487 5680,2521 5675,2555 5667,2588 5658,2619 5647,2649 5634,2678 5619,2706 5603,2733 5584,2758 5564,2783 5542,2806 5518,2828 5492,2849 5464,2868 5433,2887 "/>
   <polygon class="fil0" points="5336,1834 5504,1741 5523,1730 5541,1720 5559,1708 5576,1696 5592,1684 5607,1671 5622,1657 5636,1643 5649,1628 5662,1613 5673,1597 5684,1580 5695,1563 5704,1545 5713,1527 5721,1508 5729,1488 5735,1468 5741,1447 5746,1426 5751,1404 5754,1381 5757,1358 5759,1334 5760,1310 5760,1285 5760,1252 5757,1219 5752,1188 5746,1157 5738,1128 5728,1099 5717,1072 5704,1045 5689,1020 5672,995 5653,971 5633,949 5611,927 5587,906 5562,887 5534,868 5505,851 5475,834 5442,819 5408,805 5372,792 5334,780 5295,769 5254,759 5211,750 5167,742 5120,736 5072,731 5023,726 4971,723 4918,722 4864,721 3989,721 3821,814 4696,814 4751,815 4804,816 4855,819 4905,824 4953,829 4999,835 5043,843 5086,852 5127,862 5167,872 5204,885 5240,898 5274,912 5307,927 5338,944 5367,961 5394,980 5419,999 5443,1020 5465,1042 5485,1064 5504,1088 5521,1113 5536,1138 5549,1165 5561,1192 5570,1221 5578,1250 5585,1281 5589,1312 5592,1344 5593,1378 5592,1403 5591,1427 5589,1451 5586,1474 5583,1497 5578,1519 5573,1540 5568,1561 5561,1581 5554,1601 5545,1620 5537,1638 5527,1656 5517,1673 5506,1690 5494,1706 5481,1721 5468,1736 5454,1750 5439,1764 5424,1777 5408,1789 5391,1801 5373,1813 5355,1823 "/>
   <polygon class="fil0" points="4922,1743 5089,1650 5073,1657 5055,1664 5037,1671 5019,1676 5000,1681 4980,1685 4960,1689 4939,1691 4918,1693 4897,1694 4875,1695 4798,1695 4630,1788 4707,1788 4729,1787 4751,1786 4772,1784 4792,1782 4812,1778 4832,1774 4851,1769 4870,1764 4887,1757 4905,1750 "/>
   <polygon class="fil0" points="4630,1788 4798,1695 4798,963 4630,1056 "/>
   <polygon class="fil0" points="4703,2779 4871,2686 4798,2686 4630,2779 "/>
   <polygon class="fil0" points="4630,2779 4798,2686 4798,1911 4630,2004 "/>
   <polygon class="fil0" points="5035,2721 5202,2628 5183,2637 5163,2645 5141,2653 5119,2659 5096,2665 5071,2670 5046,2675 5019,2678 4992,2681 4963,2684 4933,2685 4903,2686 4871,2686 4703,2779 4735,2779 4766,2778 4795,2777 4824,2774 4851,2771 4878,2767 4903,2763 4928,2758 4951,2752 4974,2746 4995,2738 5015,2730 "/>
   <polygon class="fil0" points="8696,1301 8864,1208 8864,0 8696,93 "/>
   <polygon class="fil0" points="8696,93 8864,0 6844,0 6676,93 "/>
   <polygon class="fil0" points="7997,3021 8165,2928 7839,2675 7671,2768 "/>
   <polygon class="fil0" points="7671,2768 7839,2675 7839,1621 7671,1714 "/>
   <polygon class="fil0" points="8220,2157 8388,2064 8388,893 8220,986 "/>
   <polygon class="fil0" points="7924,1429 8092,1336 7839,1336 7671,1429 "/>
   <polygon class="fil0" points="7671,1429 7839,1336 7839,304 7671,397 "/>
   <polygon class="fil0" points="7335,1250 7503,1157 7418,1014 7251,1107 "/>
   <polygon class="fil0" points="7251,1107 7418,1014 7503,245 7335,338 "/>
   <polygon class="fil0" points="7335,1685 7503,1592 7411,1460 7243,1553 "/>
   <polygon class="fil0" points="7243,1553 7411,1460 7503,1325 7335,1418 "/>
   <polygon class="fil0" points="7338,2772 7506,2679 7418,1903 7251,1996 "/>
   <polygon class="fil0" points="7251,1996 7418,1903 7506,1760 7338,1853 "/>
   <polygon class="fil0" points="10589,3021 10756,2928 10507,2701 10340,2794 "/>
   <polygon class="fil0" points="10340,2794 10507,2701 10013,721 9846,814 "/>
   <polygon class="fil0" points="9846,814 10013,721 9223,721 9055,814 "/>
   <polygon class="fil0" points="9355,3021 9523,2928 9281,2738 9114,2831 "/>
   <polygon class="fil0" points="9114,2831 9281,2738 9413,2247 9245,2340 "/>
   <polygon class="fil0" points="9315,2077 9483,1984 9647,1362 9480,1455 "/>
   <polygon class="fil0" points="9622,2077 9790,1984 9483,1984 9315,2077 "/>
   <polygon class="fil0" points="10497,814 10665,721 11580,721 11412,814 "/>
   <polygon class="fil0" points="11412,814 11580,721 11909,1731 11741,1824 "/>
   <polygon class="fil0" points="12042,814 12209,721 13044,721 12876,814 "/>
   <polygon class="fil0" points="12876,814 13044,721 12788,948 12620,1041 "/>
   <polygon class="fil0" points="12620,1041 12788,948 12788,2701 12620,2794 "/>
   <polygon class="fil0" points="12620,2794 12788,2701 13044,2928 12876,3021 "/>
   <polygon class="fil0" points="12115,1579 12283,1486 11810,2983 11643,3076 "/>
   <polygon class="fil0" points="11119,1561 11287,1468 11287,2701 11119,2794 "/>
   <polygon class="fil0" points="11119,2794 11287,2701 11547,2928 11379,3021 "/>
   <polygon class="fil0" points="13813,1041 13981,948 14241,721 14073,814 "/>
   <polygon class="fil0" points="14073,814 14241,721 13179,721 13012,814 "/>
   <polygon class="fil0" points="14073,3021 14241,2928 13981,2701 13813,2794 "/>
   <polygon class="fil0" points="13813,2794 13981,2701 13981,948 13813,1041 "/>
   <polygon class="fil0" points="14172,814 14340,721 14995,721 14827,814 "/>
   <polygon class="fil0" points="14827,814 14995,721 15672,1662 15504,1755 "/>
   <polygon class="fil0" points="15248,814 15416,721 16301,721 16134,814 "/>
   <polygon class="fil0" points="16134,814 16301,721 16038,948 15870,1041 "/>
   <polygon class="fil0" points="15870,1041 16038,948 16038,2983 15870,3076 "/>
   <polygon class="fil0" points="14772,1583 14940,1490 14940,2701 14772,2794 "/>
   <polygon class="fil0" points="14772,2794 14940,2701 15200,2928 15032,3021 "/>
   <polygon class="fil0" points="18106,3021 18274,2928 18025,2701 17857,2794 "/>
   <polygon class="fil0" points="17857,2794 18025,2701 17531,721 17363,814 "/>
   <polygon class="fil0" points="17363,814 17531,721 16741,721 16573,814 "/>
   <polygon class="fil0" points="16873,3021 17041,2928 16799,2738 16631,2831 "/>
   <polygon class="fil0" points="16631,2831 16799,2738 16931,2247 16763,2340 "/>
   <polygon class="fil0" points="16833,2077 17000,1984 17165,1362 16997,1455 "/>
   <polygon class="fil0" points="17140,2077 17308,1984 17000,1984 16833,2077 "/>
   <polygon class="fil0" points="20123,3021 20291,2928 20013,2701 19845,2794 "/>
   <polygon class="fil0" points="19845,2794 20013,2701 19511,1892 19343,1985 "/>
   <polygon class="fil0" points="19713,1846 19880,1753 19901,1738 19921,1722 19940,1704 19958,1686 19975,1666 19991,1645 20006,1622 20020,1599 20032,1574 20043,1547 20053,1519 20062,1490 20069,1459 20075,1426 20079,1392 20081,1355 20082,1318 20081,1283 20078,1249 20073,1216 20067,1184 20058,1153 20047,1123 20035,1093 20020,1065 20004,1038 19985,1012 19965,987 19943,963 19919,940 19893,918 19865,898 19835,878 19803,859 19770,842 19735,826 19697,810 19658,796 19617,783 19574,772 19529,761 19483,752 19434,744 19384,737 19332,731 19278,727 19222,724 19164,722 19105,721 18183,721 18015,814 18937,814 18997,815 19054,817 19110,820 19164,824 19216,830 19267,837 19315,845 19362,854 19406,865 19449,876 19490,889 19529,903 19567,919 19602,935 19636,952 19667,971 19697,991 19725,1011 19751,1033 19775,1056 19797,1080 19817,1105 19836,1131 19852,1158 19867,1186 19879,1216 19890,1246 19899,1277 19906,1309 19910,1342 19913,1376 19914,1411 19914,1448 19911,1485 19907,1519 19901,1552 19894,1583 19886,1612 19876,1640 19864,1667 19852,1692 19838,1715 19823,1738 19807,1759 19790,1779 19772,1797 19753,1815 19733,1831 "/>
   <polygon class="fil0" points="19084,3021 19251,2928 18988,2701 18820,2794 "/>
   <polygon class="fil0" points="18820,2794 18988,2701 18988,1962 18820,2055 "/>
   <polygon class="fil0" points="19280,1672 19448,1579 19433,1590 19416,1600 19398,1609 19378,1618 19357,1626 19335,1633 19312,1640 19286,1646 19260,1651 19232,1656 19202,1660 19171,1663 19138,1666 19103,1668 19066,1669 19028,1669 18988,1669 18820,1762 18860,1762 18899,1762 18935,1761 18970,1759 19003,1756 19034,1753 19064,1749 19092,1744 19119,1739 19144,1733 19167,1726 19190,1719 19210,1711 19230,1702 19248,1693 19265,1683 "/>
   <polygon class="fil0" points="18820,1762 18988,1669 18988,948 18820,1041 "/>
  </g>
  <path class="fil1" d="M1523 397l497 904 0 -1208 -2020 0 329 245 0 2430 -329 253 1321 0 -325 -253 0 -1054 252 0 297 443 0 -1171 -297 443 -252 0 0 -1032 527 0zm-864 -59l91 769 -91 143 -84 -143 84 -769zm0 1347l-92 -132 92 -135 95 135 -95 132zm3 1087l-87 -776 87 -143 88 143 -88 776zm2266 249l985 0 -249 -227 -494 -1980 -791 0 260 227 -516 1753 -275 227 831 0 -241 -190 131 -491 436 0 110 498 -187 183zm-289 -944l165 -622 142 622 -307 0zm2569 -194c249,-70 385,-234 385,-505 0,-359 -304,-564 -897,-564l-875 0 260 227 0 1753 -260 227 897 0c695,0 970,-205 970,-608 0,-311 -231,-486 -480,-530zm-512 -827c278,0 410,120 410,358 0,245 -161,374 -399,374l-77 0 0 -732 66 0zm7 1723l-73 0 0 -775 84 0c322,0 498,142 498,387 0,279 -165,388 -509,388zm3496 -2382l497 904 0 -1208 -2020 0 329 245 0 2430 -329 253 1321 0 -326 -253 0 -1054 253 0 296 443 0 -1171 -296 443 -253 0 0 -1032 528 0zm-864 -59l91 769 -91 143 -84 -143 84 -769zm0 1347l-92 -132 92 -135 95 135 -95 132zm3 1087l-87 -776 87 -143 88 143 -88 776zm2266 249l985 0 -249 -227 -494 -1980 -791 0 260 227 -516 1753 -275 227 831 0 -241 -190 131 -491 436 0 110 498 -187 183zm-289 -944l165 -622 142 622 -307 0zm1182 944l256 -227 0 -1753 -256 -227 915 0 329 1010 301 -1010 834 0 -256 227 0 1753 256 227 -1021 0 260 -227 0 -1215 -472 1497 -524 -1515 0 1233 260 227 -882 0zm3316 -1980l260 -227 -1061 0 252 227 0 1753 -252 227 1061 0 -260 -227 0 -1753zm359 1980l260 -227 0 -1753 -260 -227 655 0 677 941 0 -714 -256 -227 886 0 -264 227 0 2035 -1098 -1493 0 1211 260 227 -860 0zm2950 0l984 0 -249 -227 -494 -1980 -790 0 260 227 -516 1753 -275 227 831 0 -242 -190 132 -491 436 0 109 498 -186 183zm-289 -944l164 -622 143 622 -307 0zm2573 944l717 0 -278 -227 -502 -809c279,-58 571,-161 571,-574 0,-377 -333,-597 -977,-597l-922 0 256 227 0 1753 -256 227 1069 0 -264 -227 0 -739 586 966zm-19 -1603c0,220 -109,344 -527,344l-40 0 0 -721 40 0c396,0 527,135 527,377z"/>
 </g>
</svg>
