<?xml version="1.0" encoding="UTF-8"?>
<!DOCTYPE svg PUBLIC "-//W3C//DTD SVG 1.1//EN" "http://www.w3.org/Graphics/SVG/1.1/DTD/svg11.dtd">
<!-- Creator: CorelDRAW X8 -->
<svg xmlns="http://www.w3.org/2000/svg" xml:space="preserve" width="261.853mm" height="26.1425mm" version="1.1" style="shape-rendering:geometricPrecision; text-rendering:geometricPrecision; image-rendering:optimizeQuality; fill-rule:evenodd; clip-rule:evenodd"
viewBox="0 0 26185 2614"
 xmlns:xlink="http://www.w3.org/1999/xlink">
 <defs>
  <style type="text/css">
   <![CDATA[
    .fil1 {fill:black}
    .fil5 {fill:#020202}
    .fil4 {fill:#525252}
    .fil2 {fill:#818181}
    .fil3 {fill:#9B9B9B}
    .fil6 {fill:#A0A0A0}
    .fil7 {fill:#FAD905}
    .fil0 {fill:white}
   ]]>
  </style>
 </defs>
 <g id="Layer_x0020_1">
  <metadata id="CorelCorpID_0Corel-Layer"/>
  <g id="_2495094341552">
   <g>
    <path class="fil0" d="M7112 1761c64,-1 52,3 85,36 69,70 426,427 431,442 -128,1 -265,-5 -393,-10 -19,-1 -112,-1 -126,-13 2,-24 15,-20 80,-22 49,-2 281,1 313,-8 18,-6 6,-1 12,-5l-302 -313c-33,-35 -65,-73 -100,-107zm217 -467c20,-28 296,-80 418,-283 86,-141 19,-168 89,-162 -11,142 -100,261 -174,326 -43,37 -95,62 -158,90l-175 75 0 -46zm-395 -626c72,-19 132,32 143,90 15,76 -27,136 -87,149 -166,37 -201,-200 -56,-239zm-1078 -577l0 2257 2057 1c-23,-36 -723,-730 -749,-756 -16,-15 -30,-27 -34,-57 -14,-112 128,24 479,-182 216,-127 360,-305 360,-582 0,-136 -97,-302 -173,-395 -361,-442 -1237,-249 -1757,-274 -58,-2 -128,-13 -183,-12z"/>
    <path class="fil0" d="M13512 2131c14,-29 8,-123 9,-163l14 -416c1,-52 -6,-62 12,-70 15,11 8,60 8,80l5 259c1,72 16,284 4,342l-565 7 2 -28 511 -11zm-2053 -1913c-14,13 -6,500 -6,529l0 1616 2330 0c0,-706 6,-1432 0,-2139l-4 -29c-59,65 -212,210 -284,281l-215 212c-21,21 -47,51 -69,72l-500 493c-37,36 -48,59 -81,60 -70,2 -60,-9 -96,-44 -25,-25 -46,-46 -71,-71 -225,-224 -488,-499 -712,-707l-109 -104c-35,-31 -160,-159 -183,-169z"/>
    <path class="fil0" d="M2329 2160c80,-22 480,2 587,-11 10,-193 11,-426 15,-627l2 -71c3,-15 -2,-10 10,-16 14,6 6,-2 11,12 1,3 2,19 2,24l11 721 -639 0 1 -32zm50 -684c-18,-7 -187,-189 -222,-227 -24,-28 -49,-51 -73,-79 -61,-69 -159,-166 -216,-234 -59,-69 -162,-175 -213,-238l-323 -362c-17,-17 -22,-23 -36,-40 -12,-14 -24,-24 -36,-39 -12,-14 -19,-28 -40,-39l0 2165 1916 0 0 -2284 -748 -1 -9 1378z"/>
    <path class="fil0" d="M17788 2160c62,-18 480,-4 586,-11 6,-93 7,-683 21,-713 22,1 18,-2 19,24l5 341c2,130 5,260 6,390l-638 1 1 -32zm-1109 223l1916 0 -1 -2285 -748 3 -9 1376c-27,-16 -115,-119 -151,-152 -49,-45 -98,-111 -147,-158l-146 -157c-46,-55 -94,-102 -142,-157l-355 -400c-26,-28 -50,-51 -73,-79 -23,-27 -124,-145 -145,-156l1 2165z"/>
    <path class="fil0" d="M3549 202c67,-13 530,1 629,6l-1 29c-91,6 -536,-2 -576,12 -20,65 -3,244 -12,333 -7,71 -8,68 -41,65l1 -445zm949 1443c15,-8 48,-5 72,-5l231 0 0 -163 -454 -1c-10,-2 -7,-2 -12,-6 -27,-78 -21,-230 -21,-323 0,-46 -9,-74 28,-93l1325 0 1 -960 -2229 0 -1 2280 897 0 0 -711c50,-9 109,-22 163,-18z"/>
    <path class="fil0" d="M23453 1497c29,4 647,250 697,268 -5,96 -123,184 -200,226 -24,13 -28,8 -46,-4 9,-14 32,-28 48,-41 40,-30 125,-101 137,-150 -89,-66 -495,-192 -636,-264l0 -35zm929 185c-38,-8 -213,-80 -266,-100 -163,-62 -481,-196 -641,-271 -29,-13 -103,-42 -124,-58l744 -456c43,-28 211,-134 248,-150 -20,-74 -152,-211 -210,-263 -74,-65 -180,-135 -290,-181 -264,-112 -512,-123 -799,-31 -439,140 -792,542 -757,1132 24,414 237,679 543,870 346,214 766,209 1110,19 52,-29 101,-59 142,-91 117,-89 281,-256 300,-420z"/>
    <path class="fil0" d="M10104 1674l301 574 -501 11 0 -33 414 -12c5,-61 -201,-399 -244,-524l30 -16zm-730 -244c29,-10 70,-1 94,11 107,56 58,191 -11,216 -71,26 -129,-22 -149,-71 -14,-37 -7,-133 66,-156zm-1173 940c172,6 501,-1 690,-1l1711 -3c-2,-23 -540,-1041 -565,-1088 -96,-183 -189,-363 -285,-546 -50,-93 -95,-180 -144,-272 -20,-39 -129,-256 -144,-272l-316 541c-103,183 -209,364 -316,546l-473 819c-28,48 -147,246 -158,276z"/>
    <path class="fil0" d="M21921 1675c12,10 304,557 301,573l-497 11 0 -33 416 -13c-3,-79 -231,-439 -245,-525l25 -13zm-725 -247c30,-8 72,0 95,14 108,64 52,193 -14,216 -72,24 -131,-25 -148,-73 -25,-69 17,-143 67,-157zm-1174 941c120,6 581,0 709,0l1691 -3c-1,-20 -547,-1056 -567,-1092 -141,-257 -286,-555 -428,-819 -24,-45 -125,-247 -143,-269 -25,32 -55,94 -79,133l-553 957c-106,184 -209,361 -316,546 -23,41 -304,519 -314,547z"/>
    <path class="fil0" d="M15759 2259c0,-40 -6,-33 47,-34l368 -11c6,-67 -216,-414 -245,-525l30 -15 302 573 -502 12zm-530 -830c68,-20 138,32 152,74 21,68 -27,140 -72,155 -70,24 -130,-27 -146,-75 -23,-66 16,-139 66,-154zm-1174 940l2403 -3c-2,-19 -252,-488 -282,-545 -192,-359 -379,-730 -571,-1091l-214 -409c-23,-41 -47,-99 -72,-135l-1264 2183z"/>
    <path class="fil0" d="M25777 1523c49,32 75,149 68,230 -9,107 -74,242 -132,324 -15,22 -58,52 -83,68 -36,24 -169,88 -211,95 -28,4 -26,-27 -10,-38 5,-3 48,-13 59,-16 111,-36 188,-107 252,-205 45,-69 62,-125 86,-218 25,-99 -70,-166 -29,-240zm-624 -1259c12,-49 108,-63 166,-57 187,17 356,81 436,256 -7,17 -46,63 -62,83 -23,28 -49,56 -100,56 14,-68 111,-95 113,-149 1,-48 -97,-96 -140,-119 -129,-72 -245,-109 -413,-70zm314 697c32,-83 438,-461 449,-478l-83 -142c-88,-140 -236,-221 -410,-244 -416,-57 -699,218 -753,555 -24,150 4,247 64,358 100,188 302,326 412,463 -19,24 -44,48 -66,71l-346 359c-54,84 66,228 118,280 26,27 47,42 78,64 184,133 459,161 663,69 145,-65 218,-140 292,-271 142,-254 107,-514 -73,-736 -64,-79 -270,-285 -345,-348z"/>
    <path class="fil0" d="M19021 199c58,-1 312,0 353,16l1 27 -299 1c-12,67 -10,551 -10,656l-7 496c-3,108 9,134 -31,132l-7 -1328zm-120 2180l863 -1 0 -2297 -863 1 0 2297z"/>
    <path class="fil0" d="M186 199c65,-1 302,-1 351,15 6,12 4,9 4,26 -56,7 -143,2 -202,2 -121,0 -98,-23 -101,99 -4,154 -4,1129 -20,1187l-24 -2 -8 -1327zm-115 2180l856 0 0 -2293 -886 0 29 0 1 2293z"/>
    <path class="fil1" d="M4335 1470l470 1 2 171c-23,6 -273,6 -309,3 -54,-4 -113,9 -163,18l0 711 -897 0 1 -2280 2229 0 -1 960 -1325 0c-37,19 -28,47 -28,93 0,93 -6,245 21,323zm-977 -1456c18,49 -12,1756 1,1809l-3 611 1055 0 1 -664c-1,-50 1,-34 8,-39 123,-4 247,-13 369,-20 113,-6 92,16 92,-98 0,-65 1,-131 0,-196 -40,-13 -392,-15 -480,-25l6 -261 1332 -1 -13 -1120c-53,-6 -1097,-1 -1182,-1 -138,0 -1146,-10 -1186,5z"/>
    <path class="fil1" d="M5856 91c55,-1 125,10 183,12 520,25 1396,-168 1757,274 76,93 173,259 173,395 0,277 -144,455 -360,582 -351,206 -493,70 -479,182 4,30 18,42 34,57 26,26 726,720 749,756l-2057 -1 0 -2257zm-71 2345c34,-6 497,-1 578,-2 579,-3 1145,-16 1724,-26 -10,-21 -756,-757 -836,-845 60,-27 224,-56 318,-97 171,-73 350,-246 424,-417 41,-94 75,-240 45,-351 -63,-237 -185,-400 -338,-503 -200,-136 -373,-155 -648,-189 -423,-20 -842,16 -1268,0l1 2430z"/>
    <path class="fil1" d="M16678 218c21,11 122,129 145,156 23,28 47,51 73,79l355 400c48,55 96,102 142,157l146 157c49,47 98,113 147,158 36,33 124,136 151,152l9 -1376 748 -3 1 2285 -1916 0 -1 -2165zm-59 2236l2039 0 0 -2440 -870 -1 -27 1281c-15,-8 -59,-59 -72,-74 -23,-29 -45,-52 -71,-80 -24,-26 -48,-58 -72,-81l-141 -158c-22,-26 -49,-59 -71,-81 -78,-79 -202,-232 -284,-319 -50,-54 -416,-471 -431,-478l0 2431z"/>
    <path class="fil1" d="M2388 98l748 1 0 2284 -1916 0 0 -2165c21,11 28,25 40,39 12,15 24,25 36,39 14,17 19,23 36,40l323 362c51,63 154,169 213,238 57,68 155,165 216,234 24,28 49,51 73,79 35,38 204,220 222,227l9 -1378zm-1227 2356l2039 0 0 -2439 -875 0c11,21 -20,1150 -22,1279 -14,-6 -58,-58 -74,-76l-215 -241c-21,-26 -47,-56 -71,-81l-497 -557c-23,-23 -47,-56 -71,-81l-214 -237 0 2433z"/>
    <path class="fil1" d="M11459 218c23,10 148,138 183,169l109 104c224,208 487,483 712,707 25,25 46,46 71,71 36,35 26,46 96,44 33,-1 44,-24 81,-60l500 -493c22,-21 48,-51 69,-72l215 -212c72,-71 225,-216 284,-281 6,-7 -9,-9 9,-5l1 2175c-31,10 -1813,4 -2046,4 -74,0 -227,8 -292,-2 -10,-39 -4,-1707 -4,-1884 0,-75 -7,-205 2,-274l10 9zm-75 2213c47,9 1162,3 1241,3 311,0 621,0 932,0 98,0 218,6 313,-1l-8 -2148 1 -275c-25,16 -59,55 -80,76l-193 192c-10,11 -25,25 -41,40 -86,79 -218,222 -306,312 -52,53 -102,102 -156,153 -49,47 -107,106 -157,152 -46,43 -297,289 -320,298 -22,-15 -55,-50 -76,-71l-383 -377c-49,-48 -104,-106 -152,-152 -52,-52 -101,-100 -153,-151l-152 -152c-53,-51 -102,-98 -154,-150l-157 -150 1 2401z"/>
    <path class="fil1" d="M24382 1682c-19,164 -183,331 -300,420 -41,32 -90,62 -142,91 -344,190 -764,195 -1110,-19 -306,-191 -519,-456 -543,-870 -35,-590 318,-992 757,-1132 287,-92 535,-81 799,31 110,46 216,116 290,181 58,52 190,189 210,263 -37,16 -205,122 -248,150l-744 456c21,16 95,45 124,58 160,75 478,209 641,271 53,20 228,92 266,100zm127 -43c-75,-34 -170,-62 -250,-94 -83,-34 -164,-64 -247,-97 -84,-33 -161,-67 -245,-100 -41,-17 -79,-33 -121,-51 -33,-15 -94,-45 -126,-53 12,-20 195,-124 229,-144 54,-33 678,-406 696,-424 -39,-107 -153,-245 -214,-303 -86,-83 -177,-153 -304,-218 -379,-195 -869,-152 -1220,101 -53,38 -97,75 -142,116 -243,227 -382,553 -353,951 24,333 157,545 319,719 384,410 1019,499 1512,173 110,-72 207,-154 278,-244 65,-81 153,-208 188,-332z"/>
    <path class="fil1" d="M8201 2370c11,-30 130,-228 158,-276l473 -819c107,-182 213,-363 316,-546l316 -541c15,16 124,233 144,272 49,92 94,179 144,272 96,183 189,363 285,546 25,47 563,1065 565,1088l-1711 3c-189,0 -518,7 -690,1zm-125 64c7,11 -5,12 30,12l2624 -8c-4,-24 -110,-221 -128,-255 -129,-245 -267,-528 -397,-762 -24,-55 -60,-118 -89,-172l-275 -525c-62,-117 -123,-231 -186,-346 -26,-48 -175,-329 -191,-347l-88 147c-30,52 -57,99 -87,151 -181,310 -1199,2097 -1213,2105z"/>
    <path class="fil1" d="M20022 2369c10,-28 291,-506 314,-547 107,-185 210,-362 316,-546l553 -957c24,-39 54,-101 79,-133 18,22 119,224 143,269 142,264 287,562 428,819 20,36 566,1072 567,1092l-1691 3c-128,0 -589,6 -709,0zm-127 76c166,7 456,0 628,-1l2027 -6c-5,-26 -59,-122 -75,-153l-867 -1661c-17,-33 -304,-569 -324,-595 -23,29 -682,1184 -694,1205 -215,378 -440,755 -651,1132 -13,22 -36,57 -44,79z"/>
    <path class="fil1" d="M15319 186c25,36 49,94 72,135l214 409c192,361 379,732 571,1091 30,57 280,526 282,545l-2403 3 1264 -2183zm-1388 2258l2654 -6c-5,-26 -58,-121 -74,-151 -27,-52 -51,-99 -78,-150l-789 -1511c-32,-63 -312,-584 -327,-596l-1386 2414z"/>
    <path class="fil1" d="M25467 961c75,63 281,269 345,348 180,222 215,482 73,736 -74,131 -147,206 -292,271 -204,92 -479,64 -663,-69 -31,-22 -52,-37 -78,-64 -52,-52 -172,-196 -118,-280l346 -359c22,-23 47,-47 66,-71 -110,-137 -312,-275 -412,-463 -60,-111 -88,-208 -64,-358 54,-337 337,-612 753,-555 174,23 322,104 410,244l83 142c-11,17 -417,395 -449,478zm-253 1479c265,21 433,-29 578,-169 17,-16 29,-28 46,-45 35,-34 94,-118 119,-164 99,-186 62,-217 88,-290l0 -106c-19,-41 -10,-103 -71,-229 -41,-83 -122,-198 -185,-262 -26,-26 -44,-54 -73,-79l-150 -147c11,-20 83,-88 105,-110l326 -330c-5,-111 -132,-247 -182,-297 -284,-281 -751,-271 -1014,20 -177,196 -265,444 -172,711 50,144 124,228 207,324l208 219c-15,24 -80,81 -104,106 -23,22 -312,303 -316,315 14,175 121,288 205,360 126,108 229,139 385,173z"/>
    <path class="fil1" d="M18901 82l863 -1 0 2297 -863 1 0 -2297zm-68 2369l1007 0 0 -2135c0,-64 9,-258 -2,-307l-994 0 -11 2442z"/>
    <path class="fil1" d="M927 2379l-856 0c-14,-20 -6,-257 -6,-279 0,-232 -8,-1986 3,-2019l861 -1c11,42 0,1953 3,2263 1,28 2,25 -5,36zm-927 -631l0 703 1006 0 0 -2441c-81,-7 -559,-1 -682,-1l-258 0c-38,0 -58,-12 -59,23 -3,113 0,231 0,345l-4 1033c0,56 6,307 -3,338z"/>
    <path class="fil1" d="M10936 1038c96,-23 175,44 191,117 21,93 -39,176 -115,192 -218,44 -270,-263 -76,-309zm4 373c132,20 235,-70 252,-181 21,-136 -71,-239 -188,-254 -125,-22 -232,77 -247,183 -18,134 72,237 183,252z"/>
    <path class="fil0" d="M11039 1284c-14,39 -98,55 -153,7 -39,-35 -49,-120 -4,-158l14 11c-2,21 -45,79 11,130 16,14 40,25 71,20 40,-5 35,-32 61,-10zm-103 -246c-194,46 -142,353 76,309 76,-16 136,-99 115,-192 -16,-73 -95,-140 -191,-117z"/>
    <path class="fil1" d="M194 1526l24 2c16,-58 16,-1033 20,-1187 3,-122 -20,-99 101,-99 59,0 146,5 202,-2 0,-17 2,-14 -4,-26 -49,-16 -286,-16 -351,-15l8 1327z"/>
    <path class="fil1" d="M19028 1527c40,2 28,-24 31,-132l7 -496c0,-105 -2,-589 10,-656l299 -1 -1 -27c-41,-16 -295,-17 -353,-16l7 1328z"/>
    <path class="fil1" d="M17787 2192l638 -1c-1,-130 -4,-260 -6,-390l-5 -341c-1,-26 3,-23 -19,-24 -14,30 -15,620 -21,713 -106,7 -524,-7 -586,11l-1 32z"/>
    <path class="fil1" d="M2328 2192l639 0 -11 -721c0,-5 -1,-21 -2,-24 -5,-14 3,-6 -11,-12 -12,6 -7,1 -10,16l-2 71c-4,201 -5,434 -15,627 -107,13 -507,-11 -587,11l-1 32z"/>
    <path class="fil1" d="M6934 668c-145,39 -110,276 56,239 60,-13 102,-73 87,-149 -11,-58 -71,-109 -143,-90z"/>
    <path class="fil1" d="M7112 1761c35,34 67,72 100,107l302 313c-6,4 6,-1 -12,5 -32,9 -264,6 -313,8 -65,2 -78,-2 -80,22 14,12 107,12 126,13 128,5 265,11 393,10 -5,-15 -362,-372 -431,-442 -33,-33 -21,-37 -85,-36z"/>
    <path class="fil1" d="M21896 1688c14,86 242,446 245,525l-416 13 0 33 497 -11c3,-16 -289,-563 -301,-573l-25 13z"/>
    <path class="fil1" d="M15929 1689c29,111 251,458 245,525l-368 11c-53,1 -47,-6 -47,34l502 -12 -302 -573 -30 15z"/>
    <path class="fil1" d="M21196 1428c-50,14 -92,88 -67,157 17,48 76,97 148,73 66,-23 122,-152 14,-216 -23,-14 -65,-22 -95,-14z"/>
    <path class="fil1" d="M15229 1429c-50,15 -89,88 -66,154 16,48 76,99 146,75 45,-15 93,-87 72,-155 -14,-42 -84,-94 -152,-74z"/>
    <path class="fil1" d="M10074 1690c43,125 249,463 244,524l-414 12 0 33 501 -11 -301 -574 -30 16z"/>
    <path class="fil1" d="M9374 1430c-73,23 -80,119 -66,156 20,49 78,97 149,71 69,-25 118,-160 11,-216 -24,-12 -65,-21 -94,-11z"/>
    <path class="fil1" d="M3548 647c33,3 34,6 41,-65 9,-89 -8,-268 12,-333 40,-14 485,-6 576,-12l1 -29c-99,-5 -562,-19 -629,-6l-1 445z"/>
    <path class="fil1" d="M23950 1991c77,-42 195,-130 200,-226 -50,-18 -668,-264 -697,-268l0 35c141,72 547,198 636,264 -12,49 -97,120 -137,150 -16,13 -39,27 -48,41 18,12 22,17 46,4z"/>
    <path class="fil1" d="M13512 2131l-511 11 -2 28 565 -7c12,-58 -3,-270 -4,-342l-5 -259c0,-20 7,-69 -8,-80 -18,8 -11,18 -12,70l-14 416c-1,40 5,134 -9,163z"/>
    <path class="fil2" d="M11459 218l-10 -9c-9,69 -2,199 -2,274 0,177 -6,1845 4,1884 65,10 218,2 292,2 233,0 2015,6 2046,-4l-1 -2175c-18,-4 -3,-2 -9,5l4 29c6,707 0,1433 0,2139l-2330 0 0 -1616c0,-29 -8,-516 6,-529z"/>
    <path class="fil1" d="M25419 2240c42,-7 175,-71 211,-95 25,-16 68,-46 83,-68 58,-82 123,-217 132,-324 7,-81 -19,-198 -68,-230 -41,74 54,141 29,240 -24,93 -41,149 -86,218 -64,98 -141,169 -252,205 -11,3 -54,13 -59,16 -16,11 -18,42 10,38z"/>
    <path class="fil1" d="M25153 264c168,-39 284,-2 413,70 43,23 141,71 140,119 -2,54 -99,81 -113,149 51,0 77,-28 100,-56 16,-20 55,-66 62,-83 -80,-175 -249,-239 -436,-256 -58,-6 -154,8 -166,57z"/>
    <path class="fil3" d="M71 2379l-1 -2293 -29 0 886 0 0 2293c7,-11 6,-8 5,-36 -3,-310 8,-2221 -3,-2263l-861 1c-11,33 -3,1787 -3,2019 0,22 -8,259 6,279z"/>
    <path class="fil1" d="M7329 1294l0 46 175 -75c63,-28 115,-53 158,-90 74,-65 163,-184 174,-326 -70,-6 -3,21 -89,162 -122,203 -398,255 -418,283z"/>
    <path class="fil4" d="M3359 1823c-10,23 -6,283 -6,307 0,80 -10,238 1,309l1062 1c13,-127 -14,-627 4,-709 -7,5 -9,-11 -8,39l-1 664 -1055 0 3 -611z"/>
    <path class="fil5" d="M11039 1284c-26,-22 -21,5 -61,10 -31,5 -55,-6 -71,-20 -56,-51 -13,-109 -11,-130l-14 -11c-45,38 -35,123 4,158 55,48 139,32 153,-7z"/>
    <path class="fil6" d="M4498 1645c36,3 286,3 309,-3l-2 -171 -470 -1c5,4 2,4 12,6l454 1 0 163 -231 0c-24,0 -57,-3 -72,5z"/>
   </g>
   <g>
    <path class="fil7" d="M7252 1921c64,-1 52,3 85,36 69,70 426,427 431,442 -128,1 -265,-5 -393,-10 -19,-1 -112,-1 -126,-13 2,-24 15,-20 80,-22 49,-2 281,1 313,-8 18,-6 6,-1 12,-5l-302 -313c-33,-35 -65,-73 -100,-107zm217 -467c20,-28 296,-80 418,-283 86,-141 19,-168 89,-162 -11,142 -100,261 -174,326 -43,37 -95,62 -158,90l-175 75 0 -46zm-395 -626c72,-19 132,32 143,90 15,76 -27,136 -87,149 -166,37 -201,-200 -56,-239zm-1078 -577l0 2257 2057 1c-23,-36 -723,-730 -749,-756 -16,-15 -30,-27 -34,-57 -14,-112 128,24 479,-182 216,-127 360,-305 360,-582 0,-136 -97,-302 -173,-395 -361,-442 -1237,-249 -1757,-274 -58,-2 -128,-13 -183,-12z"/>
    <path class="fil7" d="M13652 2291c14,-29 8,-123 9,-163l14 -416c1,-52 -6,-62 12,-70 15,11 8,60 8,80l5 259c1,72 16,284 4,342l-565 7 2 -28 511 -11zm-2053 -1913c-14,13 -6,500 -6,529l0 1616 2330 0c0,-706 6,-1432 0,-2139l-4 -29c-59,65 -212,210 -284,281l-215 212c-21,21 -47,51 -69,72l-500 493c-37,36 -48,59 -81,60 -70,2 -60,-9 -96,-44 -25,-25 -46,-46 -71,-71 -225,-224 -488,-499 -712,-707l-109 -104c-35,-31 -160,-159 -183,-169z"/>
    <path class="fil7" d="M2469 2320c80,-22 480,2 587,-11 10,-193 11,-426 15,-627l2 -71c3,-15 -2,-10 10,-16 14,6 6,-2 11,12 1,3 2,19 2,24l11 721 -639 0 1 -32zm50 -684c-18,-7 -187,-189 -222,-227 -24,-28 -49,-51 -73,-79 -61,-69 -159,-166 -216,-234 -59,-69 -162,-175 -213,-238l-323 -362c-17,-17 -22,-23 -36,-40 -12,-14 -24,-24 -36,-39 -12,-14 -19,-28 -40,-39l0 2165 1916 0 0 -2284 -748 -1 -9 1378z"/>
    <path class="fil7" d="M17928 2320c62,-18 480,-4 586,-11 6,-93 7,-683 21,-713 22,1 18,-2 19,24l5 341c2,130 5,260 6,390l-638 1 1 -32zm-1109 223l1916 0 -1 -2285 -748 3 -9 1376c-27,-16 -115,-119 -151,-152 -49,-45 -98,-111 -147,-158l-146 -157c-46,-55 -94,-102 -142,-157l-355 -400c-26,-28 -50,-51 -73,-79 -23,-27 -124,-145 -145,-156l1 2165z"/>
    <path class="fil7" d="M3689 362c67,-13 530,1 629,6l-1 29c-91,6 -536,-2 -576,12 -20,65 -3,244 -12,333 -7,71 -8,68 -41,65l1 -445zm949 1443c15,-8 48,-5 72,-5l231 0 0 -163 -454 -1c-10,-2 -7,-2 -12,-6 -27,-78 -21,-230 -21,-323 0,-46 -9,-74 28,-93l1325 0 1 -960 -2229 0 -1 2280 897 0 0 -711c50,-9 109,-22 163,-18z"/>
    <path class="fil7" d="M23593 1657c29,4 647,250 697,268 -5,96 -123,184 -200,226 -24,13 -28,8 -46,-4 9,-14 32,-28 48,-41 40,-30 125,-101 137,-150 -89,-66 -495,-192 -636,-264l0 -35zm929 185c-38,-8 -213,-80 -266,-100 -163,-62 -481,-196 -641,-271 -29,-13 -103,-42 -124,-58l744 -456c43,-28 211,-134 248,-150 -20,-74 -152,-211 -210,-263 -74,-65 -180,-135 -290,-181 -264,-112 -512,-123 -799,-31 -439,140 -792,542 -757,1132 24,414 237,679 543,870 346,214 766,209 1110,19 52,-29 101,-59 142,-91 117,-89 281,-256 300,-420z"/>
    <path class="fil7" d="M10244 1834l301 574 -501 11 0 -33 414 -12c5,-61 -201,-399 -244,-524l30 -16zm-730 -244c29,-10 70,-1 94,11 107,56 58,191 -11,216 -71,26 -129,-22 -149,-71 -14,-37 -7,-133 66,-156zm-1173 940c172,6 501,-1 690,-1l1711 -3c-2,-23 -540,-1041 -565,-1088 -96,-183 -189,-363 -285,-546 -50,-93 -95,-180 -144,-272 -20,-39 -129,-256 -144,-272l-316 541c-103,183 -209,364 -316,546l-473 819c-28,48 -147,246 -158,276z"/>
    <path class="fil7" d="M22061 1835c12,10 304,557 301,573l-497 11 0 -33 416 -13c-3,-79 -231,-439 -245,-525l25 -13zm-725 -247c30,-8 72,0 95,14 108,64 52,193 -14,216 -72,24 -131,-25 -148,-73 -25,-69 17,-143 67,-157zm-1174 941c120,6 581,0 709,0l1691 -3c-1,-20 -547,-1056 -567,-1092 -141,-257 -286,-555 -428,-819 -24,-45 -125,-247 -143,-269 -25,32 -55,94 -79,133l-553 957c-106,184 -209,361 -316,546 -23,41 -304,519 -314,547z"/>
    <path class="fil7" d="M15899 2419c0,-40 -6,-33 47,-34l368 -11c6,-67 -216,-414 -245,-525l30 -15 302 573 -502 12zm-530 -830c68,-20 138,32 152,74 21,68 -27,140 -72,155 -70,24 -130,-27 -146,-75 -23,-66 16,-139 66,-154zm-1174 940l2403 -3c-2,-19 -252,-488 -282,-545 -192,-359 -379,-730 -571,-1091l-214 -409c-23,-41 -47,-99 -72,-135l-1264 2183z"/>
    <path class="fil7" d="M25917 1683c49,32 75,149 68,230 -9,107 -74,242 -132,324 -15,22 -58,52 -83,68 -36,24 -169,88 -211,95 -28,4 -26,-27 -10,-38 5,-3 48,-13 59,-16 111,-36 188,-107 252,-205 45,-69 62,-125 86,-218 25,-99 -70,-166 -29,-240zm-624 -1259c12,-49 108,-63 166,-57 187,17 356,81 436,256 -7,17 -46,63 -62,83 -23,28 -49,56 -100,56 14,-68 111,-95 113,-149 1,-48 -97,-96 -140,-119 -129,-72 -245,-109 -413,-70zm314 697c32,-83 438,-461 449,-478l-83 -142c-88,-140 -236,-221 -410,-244 -416,-57 -699,218 -753,555 -24,150 4,247 64,358 100,188 302,326 412,463 -19,24 -44,48 -66,71l-346 359c-54,84 66,228 118,280 26,27 47,42 78,64 184,133 459,161 663,69 145,-65 218,-140 292,-271 142,-254 107,-514 -73,-736 -64,-79 -270,-285 -345,-348z"/>
    <path class="fil7" d="M19161 359c58,-1 312,0 353,16l1 27 -299 1c-12,67 -10,551 -10,656l-7 496c-3,108 9,134 -31,132l-7 -1328zm-120 2180l863 -1 0 -2297 -863 1 0 2297z"/>
    <path class="fil7" d="M326 359c65,-1 302,-1 351,15 6,12 4,9 4,26 -56,7 -143,2 -202,2 -121,0 -98,-23 -101,99 -4,154 -4,1129 -20,1187l-24 -2 -8 -1327zm-115 2180l856 0 0 -2293 -886 0 29 0 1 2293z"/>
    <path class="fil1" d="M4475 1630l470 1 2 171c-23,6 -273,6 -309,3 -54,-4 -113,9 -163,18l0 711 -897 0 1 -2280 2229 0 -1 960 -1325 0c-37,19 -28,47 -28,93 0,93 -6,245 21,323zm-977 -1456c18,49 -12,1756 1,1809l-3 611 1055 0 1 -664c-1,-50 1,-34 8,-39 123,-4 247,-13 369,-20 113,-6 92,16 92,-98 0,-65 1,-131 0,-196 -40,-13 -392,-15 -480,-25l6 -261 1332 -1 -13 -1120c-53,-6 -1097,-1 -1182,-1 -138,0 -1146,-10 -1186,5z"/>
    <path class="fil1" d="M5996 251c55,-1 125,10 183,12 520,25 1396,-168 1757,274 76,93 173,259 173,395 0,277 -144,455 -360,582 -351,206 -493,70 -479,182 4,30 18,42 34,57 26,26 726,720 749,756l-2057 -1 0 -2257zm-71 2345c34,-6 497,-1 578,-2 579,-3 1145,-16 1724,-26 -10,-21 -756,-757 -836,-845 60,-27 224,-56 318,-97 171,-73 350,-246 424,-417 41,-94 75,-240 45,-351 -63,-237 -185,-400 -338,-503 -200,-136 -373,-155 -648,-189 -423,-20 -842,16 -1268,0l1 2430z"/>
    <path class="fil1" d="M16818 378c21,11 122,129 145,156 23,28 47,51 73,79l355 400c48,55 96,102 142,157l146 157c49,47 98,113 147,158 36,33 124,136 151,152l9 -1376 748 -3 1 2285 -1916 0 -1 -2165zm-59 2236l2039 0 0 -2440 -870 -1 -27 1281c-15,-8 -59,-59 -72,-74 -23,-29 -45,-52 -71,-80 -24,-26 -48,-58 -72,-81l-141 -158c-22,-26 -49,-59 -71,-81 -78,-79 -202,-232 -284,-319 -50,-54 -416,-471 -431,-478l0 2431z"/>
    <path class="fil1" d="M2528 258l748 1 0 2284 -1916 0 0 -2165c21,11 28,25 40,39 12,15 24,25 36,39 14,17 19,23 36,40l323 362c51,63 154,169 213,238 57,68 155,165 216,234 24,28 49,51 73,79 35,38 204,220 222,227l9 -1378zm-1227 2356l2039 0 0 -2439 -875 0c11,21 -20,1150 -22,1279 -14,-6 -58,-58 -74,-76l-215 -241c-21,-26 -47,-56 -71,-81l-497 -557c-23,-23 -47,-56 -71,-81l-214 -237 0 2433z"/>
    <path class="fil1" d="M11599 378c23,10 148,138 183,169l109 104c224,208 487,483 712,707 25,25 46,46 71,71 36,35 26,46 96,44 33,-1 44,-24 81,-60l500 -493c22,-21 48,-51 69,-72l215 -212c72,-71 225,-216 284,-281 6,-7 -9,-9 9,-5l1 2175c-31,10 -1813,4 -2046,4 -74,0 -227,8 -292,-2 -10,-39 -4,-1707 -4,-1884 0,-75 -7,-205 2,-274l10 9zm-75 2213c47,9 1162,3 1241,3 311,0 621,0 932,0 98,0 218,6 313,-1l-8 -2148 1 -275c-25,16 -59,55 -80,76l-193 192c-10,11 -25,25 -41,40 -86,79 -218,222 -306,312 -52,53 -102,102 -156,153 -49,47 -107,106 -157,152 -46,43 -297,289 -320,298 -22,-15 -55,-50 -76,-71l-383 -377c-49,-48 -104,-106 -152,-152 -52,-52 -101,-100 -153,-151l-152 -152c-53,-51 -102,-98 -154,-150l-157 -150 1 2401z"/>
    <path class="fil1" d="M24522 1842c-19,164 -183,331 -300,420 -41,32 -90,62 -142,91 -344,190 -764,195 -1110,-19 -306,-191 -519,-456 -543,-870 -35,-590 318,-992 757,-1132 287,-92 535,-81 799,31 110,46 216,116 290,181 58,52 190,189 210,263 -37,16 -205,122 -248,150l-744 456c21,16 95,45 124,58 160,75 478,209 641,271 53,20 228,92 266,100zm127 -43c-75,-34 -170,-62 -250,-94 -83,-34 -164,-64 -247,-97 -84,-33 -161,-67 -245,-100 -41,-17 -79,-33 -121,-51 -33,-15 -94,-45 -126,-53 12,-20 195,-124 229,-144 54,-33 678,-406 696,-424 -39,-107 -153,-245 -214,-303 -86,-83 -177,-153 -304,-218 -379,-195 -869,-152 -1220,101 -53,38 -97,75 -142,116 -243,227 -382,553 -353,951 24,333 157,545 319,719 384,410 1019,499 1512,173 110,-72 207,-154 278,-244 65,-81 153,-208 188,-332z"/>
    <path class="fil1" d="M8341 2530c11,-30 130,-228 158,-276l473 -819c107,-182 213,-363 316,-546l316 -541c15,16 124,233 144,272 49,92 94,179 144,272 96,183 189,363 285,546 25,47 563,1065 565,1088l-1711 3c-189,0 -518,7 -690,1zm-125 64c7,11 -5,12 30,12l2624 -8c-4,-24 -110,-221 -128,-255 -129,-245 -267,-528 -397,-762 -24,-55 -60,-118 -89,-172l-275 -525c-62,-117 -123,-231 -186,-346 -26,-48 -175,-329 -191,-347l-88 147c-30,52 -57,99 -87,151 -181,310 -1199,2097 -1213,2105z"/>
    <path class="fil1" d="M20162 2529c10,-28 291,-506 314,-547 107,-185 210,-362 316,-546l553 -957c24,-39 54,-101 79,-133 18,22 119,224 143,269 142,264 287,562 428,819 20,36 566,1072 567,1092l-1691 3c-128,0 -589,6 -709,0zm-127 76c166,7 456,0 628,-1l2027 -6c-5,-26 -59,-122 -75,-153l-867 -1661c-17,-33 -304,-569 -324,-595 -23,29 -682,1184 -694,1205 -215,378 -440,755 -651,1132 -13,22 -36,57 -44,79z"/>
    <path class="fil1" d="M15459 346c25,36 49,94 72,135l214 409c192,361 379,732 571,1091 30,57 280,526 282,545l-2403 3 1264 -2183zm-1388 2258l2654 -6c-5,-26 -58,-121 -74,-151 -27,-52 -51,-99 -78,-150l-789 -1511c-32,-63 -312,-584 -327,-596l-1386 2414z"/>
    <path class="fil1" d="M25607 1121c75,63 281,269 345,348 180,222 215,482 73,736 -74,131 -147,206 -292,271 -204,92 -479,64 -663,-69 -31,-22 -52,-37 -78,-64 -52,-52 -172,-196 -118,-280l346 -359c22,-23 47,-47 66,-71 -110,-137 -312,-275 -412,-463 -60,-111 -88,-208 -64,-358 54,-337 337,-612 753,-555 174,23 322,104 410,244l83 142c-11,17 -417,395 -449,478zm-253 1479c265,21 433,-29 578,-169 17,-16 29,-28 46,-45 35,-34 94,-118 119,-164 99,-186 62,-217 88,-290l0 -106c-19,-41 -10,-103 -71,-229 -41,-83 -122,-198 -185,-262 -26,-26 -44,-54 -73,-79l-150 -147c11,-20 83,-88 105,-110l326 -330c-5,-111 -132,-247 -182,-297 -284,-281 -751,-271 -1014,20 -177,196 -265,444 -172,711 50,144 124,228 207,324l208 219c-15,24 -80,81 -104,106 -23,22 -312,303 -316,315 14,175 121,288 205,360 126,108 229,139 385,173z"/>
    <path class="fil1" d="M19041 242l863 -1 0 2297 -863 1 0 -2297zm-68 2369l1007 0 0 -2135c0,-64 9,-258 -2,-307l-994 0 -11 2442z"/>
    <path class="fil1" d="M1067 2539l-856 0c-14,-20 -6,-257 -6,-279 0,-232 -8,-1986 3,-2019l861 -1c11,42 0,1953 3,2263 1,28 2,25 -5,36zm-927 -631l0 703 1006 0 0 -2441c-81,-7 -559,-1 -682,-1l-258 0c-38,0 -58,-12 -59,23 -3,113 0,231 0,345l-4 1033c0,56 6,307 -3,338z"/>
    <path class="fil1" d="M11076 1198c96,-23 175,44 191,117 21,93 -39,176 -115,192 -218,44 -270,-263 -76,-309zm4 373c132,20 235,-70 252,-181 21,-136 -71,-239 -188,-254 -125,-22 -232,77 -247,183 -18,134 72,237 183,252z"/>
    <path class="fil7" d="M11179 1444c-14,39 -98,55 -153,7 -39,-35 -49,-120 -4,-158l14 11c-2,21 -45,79 11,130 16,14 40,25 71,20 40,-5 35,-32 61,-10zm-103 -246c-194,46 -142,353 76,309 76,-16 136,-99 115,-192 -16,-73 -95,-140 -191,-117z"/>
    <path class="fil1" d="M334 1686l24 2c16,-58 16,-1033 20,-1187 3,-122 -20,-99 101,-99 59,0 146,5 202,-2 0,-17 2,-14 -4,-26 -49,-16 -286,-16 -351,-15l8 1327z"/>
    <path class="fil1" d="M19168 1687c40,2 28,-24 31,-132l7 -496c0,-105 -2,-589 10,-656l299 -1 -1 -27c-41,-16 -295,-17 -353,-16l7 1328z"/>
    <path class="fil1" d="M17927 2352l638 -1c-1,-130 -4,-260 -6,-390l-5 -341c-1,-26 3,-23 -19,-24 -14,30 -15,620 -21,713 -106,7 -524,-7 -586,11l-1 32z"/>
    <path class="fil1" d="M2468 2352l639 0 -11 -721c0,-5 -1,-21 -2,-24 -5,-14 3,-6 -11,-12 -12,6 -7,1 -10,16l-2 71c-4,201 -5,434 -15,627 -107,13 -507,-11 -587,11l-1 32z"/>
    <path class="fil1" d="M7074 828c-145,39 -110,276 56,239 60,-13 102,-73 87,-149 -11,-58 -71,-109 -143,-90z"/>
    <path class="fil1" d="M7252 1921c35,34 67,72 100,107l302 313c-6,4 6,-1 -12,5 -32,9 -264,6 -313,8 -65,2 -78,-2 -80,22 14,12 107,12 126,13 128,5 265,11 393,10 -5,-15 -362,-372 -431,-442 -33,-33 -21,-37 -85,-36z"/>
    <path class="fil1" d="M22036 1848c14,86 242,446 245,525l-416 13 0 33 497 -11c3,-16 -289,-563 -301,-573l-25 13z"/>
    <path class="fil1" d="M16069 1849c29,111 251,458 245,525l-368 11c-53,1 -47,-6 -47,34l502 -12 -302 -573 -30 15z"/>
    <path class="fil1" d="M21336 1588c-50,14 -92,88 -67,157 17,48 76,97 148,73 66,-23 122,-152 14,-216 -23,-14 -65,-22 -95,-14z"/>
    <path class="fil1" d="M15369 1589c-50,15 -89,88 -66,154 16,48 76,99 146,75 45,-15 93,-87 72,-155 -14,-42 -84,-94 -152,-74z"/>
    <path class="fil1" d="M10214 1850c43,125 249,463 244,524l-414 12 0 33 501 -11 -301 -574 -30 16z"/>
    <path class="fil1" d="M9514 1590c-73,23 -80,119 -66,156 20,49 78,97 149,71 69,-25 118,-160 11,-216 -24,-12 -65,-21 -94,-11z"/>
    <path class="fil1" d="M3688 807c33,3 34,6 41,-65 9,-89 -8,-268 12,-333 40,-14 485,-6 576,-12l1 -29c-99,-5 -562,-19 -629,-6l-1 445z"/>
    <path class="fil1" d="M24090 2151c77,-42 195,-130 200,-226 -50,-18 -668,-264 -697,-268l0 35c141,72 547,198 636,264 -12,49 -97,120 -137,150 -16,13 -39,27 -48,41 18,12 22,17 46,4z"/>
    <path class="fil1" d="M13652 2291l-511 11 -2 28 565 -7c12,-58 -3,-270 -4,-342l-5 -259c0,-20 7,-69 -8,-80 -18,8 -11,18 -12,70l-14 416c-1,40 5,134 -9,163z"/>
    <path class="fil2" d="M11599 378l-10 -9c-9,69 -2,199 -2,274 0,177 -6,1845 4,1884 65,10 218,2 292,2 233,0 2015,6 2046,-4l-1 -2175c-18,-4 -3,-2 -9,5l4 29c6,707 0,1433 0,2139l-2330 0 0 -1616c0,-29 -8,-516 6,-529z"/>
    <path class="fil1" d="M25559 2400c42,-7 175,-71 211,-95 25,-16 68,-46 83,-68 58,-82 123,-217 132,-324 7,-81 -19,-198 -68,-230 -41,74 54,141 29,240 -24,93 -41,149 -86,218 -64,98 -141,169 -252,205 -11,3 -54,13 -59,16 -16,11 -18,42 10,38z"/>
    <path class="fil1" d="M25293 424c168,-39 284,-2 413,70 43,23 141,71 140,119 -2,54 -99,81 -113,149 51,0 77,-28 100,-56 16,-20 55,-66 62,-83 -80,-175 -249,-239 -436,-256 -58,-6 -154,8 -166,57z"/>
    <path class="fil3" d="M211 2539l-1 -2293 -29 0 886 0 0 2293c7,-11 6,-8 5,-36 -3,-310 8,-2221 -3,-2263l-861 1c-11,33 -3,1787 -3,2019 0,22 -8,259 6,279z"/>
    <path class="fil1" d="M7469 1454l0 46 175 -75c63,-28 115,-53 158,-90 74,-65 163,-184 174,-326 -70,-6 -3,21 -89,162 -122,203 -398,255 -418,283z"/>
    <path class="fil4" d="M3499 1983c-10,23 -6,283 -6,307 0,80 -10,238 1,309l1062 1c13,-127 -14,-627 4,-709 -7,5 -9,-11 -8,39l-1 664 -1055 0 3 -611z"/>
    <path class="fil5" d="M11179 1444c-26,-22 -21,5 -61,10 -31,5 -55,-6 -71,-20 -56,-51 -13,-109 -11,-130l-14 -11c-45,38 -35,123 4,158 55,48 139,32 153,-7z"/>
    <path class="fil6" d="M4638 1805c36,3 286,3 309,-3l-2 -171 -470 -1c5,4 2,4 12,6l454 1 0 163 -231 0c-24,0 -57,-3 -72,5z"/>
   </g>
  </g>
 </g>
</svg>
