<?xml version="1.0" encoding="UTF-8"?>
<!DOCTYPE svg PUBLIC "-//W3C//DTD SVG 1.1//EN" "http://www.w3.org/Graphics/SVG/1.1/DTD/svg11.dtd">
<!-- Creator: CorelDRAW X8 -->
<svg xmlns="http://www.w3.org/2000/svg" xml:space="preserve" width="144.1mm" height="27.0656mm" version="1.1" style="shape-rendering:geometricPrecision; text-rendering:geometricPrecision; image-rendering:optimizeQuality; fill-rule:evenodd; clip-rule:evenodd"
viewBox="0 0 14410 2707"
 xmlns:xlink="http://www.w3.org/1999/xlink">
 <defs>
  <style type="text/css">
   <![CDATA[
    .fil0 {fill:#5F3800}
    .fil1 {fill:#C28500;fill-rule:nonzero}
   ]]>
  </style>
 </defs>
 <g id="Layer_x0020_1">
  <metadata id="CorelCorpID_0Corel-Layer"/>
  <g id="_1745151010320">
   <g>
    <polygon class="fil0" points="226,93 305,73 334,68 349,65 364,63 378,60 392,58 406,55 420,53 434,51 447,49 460,47 473,45 486,43 499,42 511,40 523,39 535,37 546,36 558,34 569,33 580,32 590,31 601,30 611,29 621,28 631,28 641,27 650,26 659,26 668,26 677,25 685,25 693,25 702,25 717,25 731,26 745,27 758,29 769,31 780,34 790,37 799,40 807,44 815,49 821,54 826,59 831,65 834,71 837,78 839,86 853,148 867,209 880,268 894,327 907,384 921,440 934,495 947,549 960,601 972,652 985,703 997,751 1010,799 1022,846 1034,891 1046,935 1058,978 1069,1020 1081,1060 1092,1099 1103,1137 1114,1174 1125,1210 1136,1245 1147,1278 1157,1310 1167,1341 1178,1371 1188,1399 1198,1426 1207,1452 1217,1477 1222,1487 1226,1496 1231,1503 1235,1509 1240,1514 1245,1518 1250,1520 1255,1520 1259,1520 1181,1539 1176,1540 1171,1539 1166,1537 1161,1534 1157,1529 1152,1523 1147,1516 1143,1507 1138,1497 1129,1472 1119,1446 1109,1419 1099,1390 1089,1360 1078,1329 1068,1297 1057,1264 1046,1229 1035,1194 1024,1157 1013,1119 1002,1079 990,1039 979,997 967,954 955,910 943,865 931,819 919,771 906,722 894,672 881,621 868,568 855,514 842,460 829,403 815,346 802,288 788,228 774,167 760,105 758,98 756,91 752,84 748,79 742,73 736,68 729,64 720,60 711,56 701,53 691,50 679,48 666,47 653,45 638,45 623,44 615,44 606,45 598,45 589,45 580,45 571,46 562,46 552,47 542,48 532,49 522,50 512,50 501,52 490,53 479,54 467,55 456,57 444,58 432,60 420,61 407,63 395,65 382,67 368,69 355,71 341,73 328,75 314,77 299,80 285,82 270,85 255,87 "/>
    <polygon class="fil0" points="1806,79 1885,59 1899,56 1914,54 1929,51 1945,48 1962,46 1979,43 1997,40 2014,38 2032,36 2049,33 2067,32 2085,30 2102,28 2120,27 2137,26 2155,24 2172,24 2189,23 2207,22 2224,22 2242,21 2259,21 2276,22 2292,22 2306,23 2320,25 2333,27 2344,29 2354,32 2364,36 2372,39 2379,44 2385,48 2390,54 2393,59 2396,65 2398,72 2398,79 2398,80 2398,83 2397,88 2396,94 2394,102 2392,111 2390,122 2388,134 2386,140 2385,147 2384,154 2382,161 2381,168 2380,176 2378,184 2377,191 2376,199 2374,208 2373,216 2372,224 2370,233 2369,242 2368,251 2366,261 2365,270 2363,280 2362,290 2361,300 2359,310 2358,321 2356,332 2355,343 2353,355 2351,367 2350,379 2348,391 2346,403 2345,416 2343,429 2341,443 2339,458 2337,474 2335,489 2334,505 2332,521 2330,537 2328,554 2327,570 2325,587 2323,604 2322,620 2320,637 2319,655 2318,672 2316,689 2315,707 2314,725 2312,743 2311,761 2310,779 2309,797 2308,816 2307,834 2306,853 2305,872 2304,891 2304,910 2303,929 2302,949 2301,968 2301,988 2300,1008 2300,1028 2299,1048 2299,1068 2298,1088 2298,1108 2297,1128 2297,1148 2296,1168 2296,1188 2295,1208 2295,1228 2295,1248 2294,1268 2294,1288 2294,1308 2294,1328 2293,1348 2293,1368 2293,1388 2293,1408 2292,1428 2292,1448 2292,1468 2292,1488 2292,1508 2292,1528 2292,1548 2291,1568 2291,1588 2291,1609 2291,1629 2291,1649 2298,2023 2298,2039 2299,2055 2299,2070 2299,2085 2299,2100 2300,2114 2300,2129 2301,2143 2301,2156 2302,2169 2302,2182 2303,2195 2304,2208 2305,2220 2306,2232 2307,2243 2308,2255 2309,2266 2310,2276 2312,2287 2313,2297 2314,2307 2316,2316 2317,2325 2319,2334 2321,2343 2323,2351 2324,2360 2326,2367 2328,2375 2330,2382 2332,2389 2336,2402 2340,2415 2344,2427 2347,2438 2350,2448 2353,2458 2355,2467 2358,2475 2360,2482 2361,2489 2363,2495 2364,2500 2365,2505 2366,2509 2366,2512 2366,2514 2366,2518 2365,2522 2363,2527 2360,2531 2356,2536 2352,2541 2347,2546 2341,2551 2334,2557 2327,2562 2319,2567 2312,2572 2304,2577 2296,2582 2287,2586 2279,2591 2270,2595 2261,2599 2252,2602 2242,2606 2233,2609 2223,2612 2212,2616 2202,2618 2191,2621 2113,2641 2123,2638 2134,2635 2144,2632 2154,2629 2163,2625 2173,2622 2182,2618 2191,2614 2200,2610 2209,2606 2217,2601 2225,2597 2233,2592 2241,2587 2248,2582 2255,2576 2262,2571 2268,2566 2273,2561 2278,2556 2281,2551 2284,2546 2286,2542 2287,2538 2287,2533 2287,2531 2287,2528 2286,2524 2285,2520 2284,2514 2283,2508 2281,2502 2279,2494 2277,2486 2274,2477 2271,2468 2268,2457 2265,2446 2261,2434 2258,2422 2254,2409 2251,2402 2249,2394 2247,2387 2246,2379 2244,2371 2242,2363 2240,2354 2239,2345 2237,2336 2236,2326 2234,2316 2233,2306 2232,2296 2230,2285 2229,2274 2228,2263 2227,2251 2226,2239 2225,2227 2224,2215 2224,2202 2223,2189 2222,2176 2222,2162 2221,2148 2221,2134 2220,2119 2220,2105 2220,2090 2220,2074 2220,2059 2220,2043 2212,1668 2213,1648 2213,1628 2213,1608 2213,1588 2213,1568 2213,1548 2213,1528 2213,1508 2213,1488 2213,1468 2214,1448 2214,1428 2214,1407 2214,1387 2214,1367 2215,1347 2215,1327 2215,1307 2216,1287 2216,1267 2216,1247 2217,1227 2217,1207 2218,1187 2218,1167 2218,1147 2219,1127 2219,1107 2220,1087 2220,1068 2221,1048 2221,1028 2222,1008 2223,988 2223,968 2224,949 2225,930 2226,910 2226,891 2227,872 2228,854 2229,835 2230,817 2231,798 2232,780 2234,762 2235,744 2236,726 2237,709 2239,691 2240,674 2242,657 2243,640 2245,623 2246,606 2248,590 2250,573 2251,557 2253,541 2255,525 2257,509 2259,493 2260,477 2262,462 2264,449 2266,436 2268,423 2269,410 2271,398 2273,386 2274,374 2276,363 2277,352 2279,341 2280,330 2282,319 2283,309 2285,299 2286,289 2287,280 2289,271 2290,262 2291,253 2293,244 2294,235 2295,227 2297,219 2298,211 2299,203 2301,195 2302,188 2303,181 2305,174 2306,167 2308,160 2309,153 2311,141 2314,130 2315,121 2317,114 2318,107 2319,103 2319,100 2320,98 2319,91 2317,85 2315,79 2311,73 2306,68 2300,63 2293,59 2285,55 2276,52 2265,49 2254,46 2241,44 2228,43 2213,42 2197,41 2180,41 2163,41 2146,41 2128,42 2111,42 2093,43 2076,44 2058,45 2041,46 2023,48 2006,49 1988,51 1971,53 1953,55 1935,57 1918,60 1900,62 1883,65 1866,68 1850,70 1835,73 1820,76 "/>
    <polygon class="fil0" points="1768,665 1847,646 1847,646 1846,646 1846,647 1845,647 1845,647 1845,648 1845,648 1845,649 1844,649 1843,650 1841,651 1839,651 1837,652 1835,653 1833,654 1831,656 1829,658 1827,661 1825,665 1822,670 1819,676 1815,682 1812,690 1808,698 1804,707 1799,717 1795,727 1790,739 1785,751 1779,764 1776,771 1773,778 1770,786 1767,795 1763,805 1759,815 1755,826 1751,837 1747,849 1743,861 1738,874 1733,888 1729,902 1723,917 1718,933 1713,949 1707,966 1701,983 1695,1002 1689,1020 1683,1039 1677,1059 1670,1080 1663,1101 1656,1123 1649,1145 1642,1168 1634,1191 1627,1216 1619,1240 1611,1266 1603,1292 1594,1318 1586,1344 1578,1370 1570,1396 1562,1422 1554,1448 1546,1473 1538,1499 1530,1524 1522,1550 1515,1575 1507,1600 1499,1625 1492,1650 1484,1674 1477,1699 1469,1724 1462,1748 1455,1772 1447,1797 1440,1821 1433,1845 1426,1869 1419,1892 1411,1916 1404,1940 1398,1963 1391,1986 1384,2010 1377,2033 1370,2056 1363,2079 1357,2101 1350,2123 1344,2144 1338,2165 1332,2185 1327,2204 1321,2223 1316,2240 1311,2258 1306,2274 1301,2290 1297,2306 1292,2320 1288,2334 1284,2347 1280,2360 1277,2372 1274,2383 1270,2394 1267,2404 1264,2414 1262,2422 1259,2430 1257,2438 1255,2444 1253,2450 1251,2456 1250,2461 1249,2465 1247,2468 1246,2471 1246,2473 1241,2485 1235,2496 1228,2506 1222,2515 1214,2524 1206,2532 1198,2539 1189,2545 1179,2551 1169,2556 1158,2560 1147,2563 1068,2583 1079,2579 1090,2575 1100,2570 1110,2565 1119,2558 1127,2551 1135,2543 1143,2535 1150,2525 1156,2515 1162,2504 1167,2492 1168,2490 1169,2488 1170,2484 1171,2480 1173,2475 1174,2470 1176,2464 1178,2457 1181,2450 1183,2442 1186,2433 1188,2424 1192,2414 1195,2403 1198,2392 1202,2380 1205,2367 1209,2354 1214,2340 1218,2325 1222,2310 1227,2294 1232,2277 1237,2260 1242,2242 1248,2223 1254,2204 1259,2184 1265,2164 1272,2143 1278,2121 1285,2098 1291,2075 1298,2052 1305,2029 1312,2006 1319,1982 1326,1959 1333,1935 1340,1912 1347,1888 1354,1864 1361,1840 1368,1816 1376,1792 1383,1767 1391,1743 1398,1719 1405,1694 1413,1669 1421,1644 1428,1619 1436,1594 1444,1569 1451,1544 1459,1518 1467,1493 1475,1467 1483,1442 1491,1416 1499,1390 1507,1364 1516,1338 1524,1311 1532,1285 1540,1260 1548,1235 1555,1211 1563,1187 1570,1164 1577,1142 1584,1120 1591,1099 1598,1079 1604,1059 1610,1040 1617,1021 1623,1003 1628,985 1634,969 1639,952 1645,937 1650,922 1655,908 1659,894 1664,881 1668,868 1673,856 1677,845 1681,834 1684,824 1688,815 1691,806 1694,798 1698,790 1700,783 1706,770 1711,758 1716,747 1721,736 1725,726 1729,717 1733,709 1737,702 1740,695 1743,690 1746,685 1748,681 1751,677 1753,675 1754,673 1756,673 1758,672 1760,671 1762,670 1764,669 1765,669 1766,668 1766,668 1766,667 1766,667 1767,666 1767,666 1767,666 1768,666 "/>
    <polygon class="fil0" points="406,698 485,678 481,680 477,682 474,684 471,688 468,692 466,697 464,703 463,718 462,734 462,750 461,768 460,786 459,806 459,826 458,847 457,869 457,892 456,915 456,940 455,965 454,992 454,1019 453,1047 453,1076 453,1106 452,1136 452,1168 452,1200 451,1234 451,1268 451,1303 451,1339 450,1376 450,1413 450,1452 450,1491 450,1532 450,1573 450,1615 450,1657 450,1698 450,1738 451,1777 451,1815 452,1852 452,1888 453,1923 454,1957 455,1991 456,2023 457,2054 458,2084 459,2114 461,2142 462,2169 464,2196 466,2221 468,2245 469,2269 471,2291 474,2313 476,2333 478,2352 480,2371 483,2388 485,2405 488,2421 491,2435 494,2449 497,2461 500,2473 501,2475 501,2477 502,2479 503,2482 503,2485 503,2488 503,2491 503,2494 503,2504 502,2512 499,2521 496,2529 492,2537 487,2545 481,2552 474,2559 466,2566 457,2572 448,2578 437,2584 426,2589 413,2594 400,2599 386,2603 371,2607 357,2611 342,2615 264,2634 278,2631 292,2627 307,2623 321,2618 335,2614 347,2609 358,2603 369,2598 379,2592 387,2585 395,2579 402,2572 408,2564 413,2557 417,2549 421,2541 423,2532 424,2523 425,2514 425,2510 424,2507 424,2504 424,2501 423,2499 423,2496 422,2494 421,2492 418,2481 415,2468 412,2455 409,2440 407,2424 404,2408 402,2390 399,2372 397,2352 395,2332 393,2311 391,2288 389,2265 387,2240 385,2215 384,2189 382,2161 381,2133 379,2104 378,2074 377,2042 376,2010 375,1977 374,1943 374,1908 373,1872 372,1834 372,1796 372,1757 371,1717 371,1676 371,1634 371,1592 371,1551 371,1511 371,1471 371,1433 372,1395 372,1358 372,1322 372,1287 373,1253 373,1220 373,1187 373,1156 374,1125 374,1095 375,1066 375,1038 376,1011 376,985 377,959 377,935 378,911 379,888 379,866 380,845 381,825 381,806 382,787 383,770 384,753 385,737 385,722 387,717 390,712 392,707 395,704 399,701 402,699 "/>
    <polygon class="fil0" points="3506,509 3585,490 3575,493 3565,499 3554,507 3542,517 3530,529 3518,544 3505,560 3487,582 3470,604 3453,627 3437,649 3420,671 3404,693 3389,715 3373,737 3358,759 3344,781 3329,803 3315,825 3301,847 3288,869 3275,891 3262,914 3249,936 3237,958 3225,980 3214,1002 3202,1024 3191,1046 3180,1068 3170,1090 3160,1112 3150,1134 3141,1156 3131,1179 3123,1201 3114,1223 3106,1245 3098,1267 3019,1286 3027,1264 3035,1242 3044,1220 3053,1198 3062,1176 3071,1154 3081,1132 3091,1110 3102,1088 3112,1065 3123,1043 3135,1021 3146,999 3158,977 3171,955 3183,933 3196,911 3209,889 3223,867 3236,845 3251,823 3265,801 3280,778 3295,756 3310,734 3326,712 3342,690 3358,668 3374,646 3391,624 3408,602 3426,580 3439,563 3451,549 3463,536 3475,526 3486,518 3496,513 "/>
    <polygon class="fil0" points="3019,1286 3098,1267 3101,1267 3132,1267 3162,1267 3191,1267 3219,1267 3246,1267 3272,1267 3298,1267 3323,1267 3347,1267 3370,1267 3392,1267 3414,1267 3435,1267 3454,1267 3473,1267 3492,1267 3509,1267 3526,1267 3541,1267 3556,1268 3570,1268 3583,1268 3596,1268 3608,1268 3618,1268 3628,1268 3637,1268 3646,1268 3653,1268 3660,1268 3666,1269 3671,1269 3688,1269 3703,1269 3716,1269 3727,1268 3736,1267 3743,1266 3664,1286 3657,1287 3648,1288 3637,1288 3624,1288 3609,1288 3592,1288 3587,1288 3581,1288 3574,1288 3567,1288 3559,1288 3549,1287 3539,1287 3529,1287 3517,1287 3505,1287 3491,1287 3477,1287 3462,1287 3447,1287 3430,1287 3413,1287 3395,1287 3376,1287 3356,1287 3335,1287 3314,1287 3291,1286 3268,1286 3244,1286 3219,1286 3194,1286 3167,1286 3140,1286 3112,1286 3083,1286 3053,1286 3023,1286 "/>
    <polygon class="fil0" points="3108,2260 3187,2241 3265,2227 3274,2227 3281,2229 3287,2232 3292,2237 3296,2242 3299,2249 3301,2257 3301,2266 3301,2281 3300,2297 3299,2311 3298,2326 3296,2340 3294,2354 3292,2368 3289,2381 3285,2394 3282,2407 3278,2419 3273,2431 3268,2443 3263,2455 3257,2466 3251,2477 3245,2487 3238,2497 3232,2507 3225,2516 3218,2525 3210,2534 3203,2542 3195,2550 3187,2557 3179,2564 3171,2571 3162,2577 3154,2583 3145,2588 3136,2593 3126,2598 3111,2605 3097,2612 3082,2619 3068,2624 3054,2630 3040,2635 3027,2639 3014,2643 3001,2647 2922,2666 2935,2663 2948,2659 2962,2654 2975,2649 2989,2644 3003,2638 3018,2632 3032,2625 3048,2617 3057,2613 3066,2608 3075,2602 3083,2596 3092,2590 3100,2584 3108,2577 3116,2569 3124,2561 3131,2553 3139,2545 3146,2536 3153,2526 3160,2517 3166,2507 3172,2496 3178,2485 3184,2474 3189,2463 3194,2451 3199,2439 3203,2426 3207,2414 3210,2401 3213,2387 3215,2374 3218,2360 3219,2345 3221,2331 3222,2316 3222,2301 3222,2285 3222,2276 3220,2268 3217,2262 3213,2256 3208,2252 3202,2249 3195,2247 3187,2246 "/>
    <polygon class="fil0" points="2566,1289 2644,1270 2653,1268 2661,1267 2670,1267 2830,1267 2751,1286 2591,1286 2582,1287 2574,1288 "/>
    <polygon class="fil0" points="3740,23 3818,3 3828,1 3838,0 3847,0 3864,1 3881,4 3896,9 3910,16 3922,25 3934,36 3945,49 3954,64 3960,74 3966,86 3972,99 3978,114 3984,131 3990,148 3996,168 4003,189 4009,211 4015,236 4022,261 4028,289 4035,317 4042,348 4048,380 4055,413 4062,448 4069,485 4076,523 4083,562 4090,604 4097,646 4104,691 4111,737 4119,784 4126,833 4134,884 4141,936 4149,989 4156,1045 4164,1101 4172,1160 4175,1185 4177,1211 4180,1236 4184,1262 4187,1288 4190,1313 4194,1339 4197,1365 4201,1391 4205,1417 4209,1443 4213,1469 4217,1495 4221,1521 4226,1547 4230,1573 4235,1600 4240,1626 4245,1652 4250,1679 4255,1705 4260,1732 4266,1758 4271,1785 4277,1812 4283,1839 4289,1865 4295,1892 4301,1919 4307,1946 4313,1973 4320,2000 4327,2027 4333,2053 4340,2078 4346,2103 4352,2127 4359,2150 4365,2173 4372,2194 4378,2215 4384,2236 4390,2255 4397,2274 4403,2293 4409,2310 4415,2327 4421,2343 4427,2359 4433,2373 4439,2387 4445,2401 4451,2413 4457,2425 4463,2436 4469,2447 4475,2457 4480,2466 4486,2474 4492,2482 4498,2489 4503,2495 4509,2500 4514,2505 4519,2509 4524,2513 4528,2517 4531,2521 4533,2526 4535,2531 4536,2536 4536,2541 4535,2547 4534,2554 4531,2561 4526,2567 4521,2574 4515,2580 4507,2586 4498,2593 4488,2599 4477,2605 4464,2611 4451,2617 4436,2623 4420,2629 4403,2635 4384,2641 4366,2646 4347,2652 4330,2656 4313,2661 4234,2680 4251,2676 4269,2671 4287,2666 4305,2660 4324,2654 4341,2648 4357,2643 4372,2637 4385,2630 4398,2624 4409,2618 4419,2612 4428,2606 4436,2599 4442,2593 4448,2587 4452,2580 4455,2574 4456,2567 4457,2560 4457,2555 4456,2550 4454,2545 4452,2541 4449,2536 4445,2532 4441,2528 4436,2525 4430,2520 4424,2514 4419,2508 4413,2501 4407,2493 4402,2485 4396,2476 4390,2466 4384,2456 4378,2445 4372,2433 4367,2420 4361,2407 4355,2393 4349,2378 4342,2363 4336,2347 4330,2330 4324,2312 4318,2294 4312,2275 4305,2255 4299,2235 4293,2214 4286,2192 4280,2169 4274,2146 4267,2122 4261,2098 4254,2072 4248,2046 4241,2020 4235,1993 4228,1966 4222,1939 4216,1912 4210,1885 4204,1858 4198,1831 4192,1805 4187,1778 4181,1751 4176,1725 4171,1698 4166,1672 4161,1645 4156,1619 4152,1593 4147,1567 4143,1540 4138,1514 4134,1488 4130,1462 4126,1436 4122,1410 4118,1384 4115,1358 4111,1333 4108,1307 4105,1281 4102,1256 4099,1230 4096,1205 4093,1179 4085,1121 4078,1064 4070,1009 4062,955 4055,903 4047,853 4040,804 4033,756 4025,710 4018,666 4011,623 4004,582 3997,542 3990,504 3983,468 3976,433 3969,399 3963,367 3956,337 3950,308 3943,281 3937,255 3930,231 3924,208 3918,187 3911,168 3905,150 3899,134 3893,119 3887,106 3881,94 3875,84 3866,69 3855,56 3844,45 3831,36 3817,28 3802,23 3786,20 3768,19 3759,20 3750,21 "/>
    <polygon class="fil0" points="2948,1540 3026,1520 3021,1543 3016,1565 3012,1587 3008,1608 3004,1629 3000,1650 2997,1671 2994,1691 2992,1710 2990,1730 2988,1749 2986,1767 2985,1785 2984,1803 2984,1821 2984,1838 2984,1854 2984,1871 2984,1886 2984,1901 2984,1915 2985,1929 2985,1942 2986,1955 2986,1967 2987,1979 2988,1990 2989,2000 2989,2010 2990,2019 2991,2028 2992,2036 2994,2044 2995,2052 2997,2060 3000,2068 3002,2076 3005,2084 3008,2092 3012,2101 3016,2109 3020,2117 3024,2126 3029,2135 3034,2143 3040,2152 3045,2161 3051,2170 3058,2178 3064,2186 3071,2194 3079,2201 3086,2207 3094,2213 3102,2218 3110,2223 3119,2227 3128,2231 3137,2234 3146,2237 3156,2239 3166,2240 3176,2241 3187,2241 3108,2260 3098,2260 3087,2259 3077,2258 3068,2256 3058,2254 3049,2250 3040,2247 3031,2243 3023,2238 3015,2233 3007,2227 3000,2220 2993,2213 2986,2206 2979,2198 2973,2189 2966,2180 2961,2171 2955,2163 2950,2154 2945,2145 2941,2137 2937,2128 2933,2120 2929,2112 2926,2103 2923,2095 2921,2087 2918,2079 2917,2071 2915,2063 2914,2055 2913,2047 2912,2039 2911,2029 2910,2020 2909,2009 2908,1998 2908,1987 2907,1975 2906,1962 2906,1949 2906,1935 2905,1920 2905,1906 2905,1890 2905,1874 2905,1857 2905,1840 2905,1823 2906,1805 2907,1787 2909,1768 2911,1749 2913,1730 2915,1710 2918,1690 2922,1670 2925,1649 2929,1628 2933,1606 2938,1584 2942,1562 "/>
    <polygon class="fil0" points="5226,319 5304,299 5298,301 5291,303 5285,305 5278,307 5272,309 5266,311 5260,314 5249,320 5240,325 5232,332 5225,338 5220,345 5217,352 5215,360 5214,368 5135,387 5136,379 5138,372 5142,364 5147,358 5153,351 5161,345 5171,339 5181,333 5187,331 5193,328 5200,326 5206,324 5212,322 5219,320 "/>
    <polygon class="fil0" points="5135,387 5214,368 5211,378 5209,389 5206,401 5204,414 5202,429 5199,445 5197,462 5195,480 5193,499 5191,519 5190,541 5188,564 5186,587 5185,612 5183,639 5182,666 5180,694 5179,724 5178,755 5177,787 5176,820 5175,854 5174,890 5174,927 5173,964 5173,1003 5172,1043 5172,1085 5171,1127 5171,1171 5171,1216 5171,1261 5171,1307 5171,1352 5171,1395 5171,1437 5171,1478 5171,1517 5171,1556 5171,1593 5171,1628 5171,1663 5171,1696 5171,1727 5170,1758 5170,1787 5170,1815 5170,1842 5170,1867 5170,1891 5170,1914 5170,1936 5170,1956 5169,1975 5169,1993 5169,2009 5169,2024 5169,2038 5169,2051 5168,2062 5168,2072 5168,2081 5168,2089 5168,2095 5089,2114 5089,2108 5089,2100 5089,2092 5090,2082 5090,2070 5090,2058 5090,2044 5090,2029 5090,2012 5091,1994 5091,1975 5091,1955 5091,1934 5091,1911 5091,1887 5091,1861 5092,1835 5092,1807 5092,1777 5092,1747 5092,1715 5092,1682 5092,1648 5092,1612 5092,1575 5092,1537 5092,1497 5092,1457 5092,1415 5092,1371 5092,1327 5092,1281 5092,1235 5092,1190 5093,1147 5093,1104 5093,1063 5094,1023 5094,984 5095,946 5096,909 5096,874 5097,840 5098,806 5099,774 5100,744 5102,714 5103,685 5104,658 5106,632 5107,607 5109,583 5111,560 5113,539 5114,518 5116,499 5118,481 5121,464 5123,448 5125,434 5127,420 5130,408 5132,397 "/>
    <polygon class="fil0" points="5089,2114 5168,2095 5176,2108 5186,2120 5196,2131 5206,2142 5217,2151 5229,2160 5241,2168 5254,2175 5267,2181 5282,2187 5296,2191 5311,2195 5327,2198 5344,2200 5360,2201 5378,2202 5394,2202 5409,2201 5424,2199 5439,2197 5454,2195 5469,2192 5483,2188 5404,2208 5390,2211 5375,2214 5361,2217 5346,2219 5330,2220 5315,2221 5299,2221 5282,2221 5265,2220 5248,2217 5233,2215 5217,2211 5203,2206 5189,2201 5175,2194 5162,2187 5150,2179 5138,2171 5127,2161 5117,2151 5107,2139 5097,2127 "/>
    <polygon class="fil0" points="4801,121 4880,101 4901,97 4923,93 4945,89 4967,85 4990,81 5013,78 5036,75 5060,72 5084,69 5109,67 5133,64 5158,62 5184,60 5210,59 5236,57 5262,56 5289,55 5316,55 5343,54 5371,54 5399,54 5458,55 5515,58 5570,64 5623,72 5674,83 5723,96 5771,112 5816,129 5860,150 5902,172 5942,197 5980,224 6016,254 6051,286 6083,320 6114,357 6143,396 6170,437 6195,481 6218,527 6240,576 6259,627 6277,680 6293,736 6307,794 6319,855 6329,917 6337,982 6344,1050 6349,1120 6351,1192 6352,1267 6352,1296 6352,1326 6351,1355 6350,1384 6348,1413 6346,1442 6344,1471 6342,1499 6339,1527 6336,1555 6332,1583 6329,1611 6325,1639 6320,1666 6315,1694 6310,1721 6305,1748 6299,1775 6293,1801 6287,1828 6280,1854 6273,1881 6266,1907 6258,1933 6250,1958 6242,1984 6233,2009 6224,2035 6215,2060 6205,2085 6195,2109 6185,2134 6176,2153 6167,2171 6158,2189 6149,2206 6140,2224 6131,2241 6121,2257 6111,2274 6101,2290 6091,2305 6081,2321 6071,2336 6060,2350 6049,2365 6039,2379 6028,2393 6016,2406 6004,2419 5992,2432 5979,2445 5966,2457 5953,2469 5939,2481 5924,2493 5910,2504 5894,2515 5879,2525 5863,2536 5846,2546 5829,2556 5812,2565 5794,2575 5776,2584 5757,2592 5739,2600 5720,2607 5700,2613 5681,2619 5662,2625 5583,2644 5602,2639 5622,2633 5641,2626 5660,2619 5678,2611 5697,2603 5715,2594 5733,2585 5750,2575 5767,2565 5784,2555 5800,2545 5816,2534 5831,2523 5846,2512 5860,2501 5874,2489 5888,2477 5901,2464 5913,2452 5926,2439 5937,2426 5949,2412 5960,2398 5971,2384 5981,2370 5992,2355 6002,2340 6013,2325 6023,2309 6033,2293 6042,2277 6052,2260 6061,2243 6071,2226 6080,2208 6088,2190 6097,2172 6106,2153 6116,2129 6126,2104 6136,2079 6145,2054 6154,2029 6163,2003 6171,1978 6179,1952 6187,1926 6194,1900 6201,1874 6208,1847 6214,1821 6220,1794 6226,1767 6232,1740 6237,1713 6241,1686 6246,1658 6250,1631 6254,1603 6257,1575 6260,1547 6263,1518 6265,1490 6268,1461 6269,1433 6271,1404 6272,1375 6273,1345 6273,1316 6273,1286 6273,1212 6270,1139 6265,1069 6259,1002 6250,937 6240,874 6228,814 6214,755 6198,700 6180,646 6161,596 6139,547 6116,501 6091,457 6064,415 6035,376 6005,340 5972,305 5938,273 5901,244 5863,216 5823,191 5781,169 5738,149 5692,131 5644,116 5595,103 5544,92 5491,84 5436,78 5379,74 5321,73 5293,73 5265,73 5237,74 5210,75 5183,76 5157,77 5131,78 5105,80 5080,82 5054,84 5030,86 5005,89 4981,91 4958,94 4934,97 4911,101 4888,104 4866,108 4844,112 4822,116 "/>
    <polygon class="fil0" points="4992,2482 5071,2462 5063,2473 5054,2484 5045,2495 5036,2505 5027,2515 5018,2524 5008,2533 4998,2542 4988,2550 4977,2558 4966,2566 4956,2573 4944,2580 4933,2587 4921,2593 4910,2599 4898,2604 4885,2609 4873,2614 4860,2619 4847,2623 4834,2627 4755,2646 4768,2642 4781,2638 4794,2634 4807,2629 4819,2624 4831,2618 4843,2612 4854,2606 4866,2600 4877,2593 4888,2585 4898,2578 4909,2570 4919,2561 4929,2553 4939,2544 4948,2534 4958,2524 4967,2514 4975,2504 4984,2493 "/>
    <polygon class="fil0" points="7658,1044 7737,1024 7737,1074 7658,1094 "/>
    <polygon class="fil0" points="7658,1094 7737,1074 8368,1074 8290,1094 "/>
    <polygon class="fil0" points="8530,85 8609,66 8621,63 8633,61 8646,59 8658,57 8671,55 8683,54 8696,53 8709,52 8722,51 8735,50 8748,50 8761,50 8777,50 8792,51 8806,52 8819,53 8831,54 8841,56 8851,59 8860,62 8868,65 8874,68 8880,72 8885,76 8888,81 8891,85 8893,91 8893,96 8893,98 8893,100 8892,104 8891,108 8890,113 8889,120 8888,127 8886,136 8882,157 8878,179 8874,201 8870,224 8866,248 8862,272 8859,296 8855,321 8852,347 8848,373 8845,399 8842,426 8839,454 8836,482 8833,511 8831,540 8828,569 8825,599 8823,630 8821,661 8818,693 8816,725 8814,758 8812,791 8810,824 8809,858 8807,893 8805,928 8804,964 8803,1000 8801,1037 8800,1074 8800,1111 8799,1147 8798,1182 8798,1215 8797,1248 8797,1279 8796,1310 8796,1339 8795,1367 8795,1394 8794,1421 8794,1445 8793,1469 8793,1492 8793,1514 8792,1534 8792,1554 8792,1572 8791,1590 8791,1606 8791,1621 8791,1635 8790,1648 8790,1660 8790,1671 8790,1681 8790,1689 8790,1697 8790,1704 8790,1709 8790,1713 8790,1716 8790,1751 8790,1784 8790,1817 8791,1849 8791,1881 8792,1912 8793,1942 8794,1972 8795,2001 8796,2029 8797,2057 8799,2084 8800,2110 8802,2136 8804,2161 8806,2185 8808,2208 8810,2231 8812,2254 8815,2275 8817,2296 8820,2317 8823,2336 8826,2355 8829,2374 8832,2391 8835,2409 8839,2425 8842,2441 8846,2456 8850,2470 8854,2484 8856,2491 8858,2497 8860,2504 8862,2510 8863,2516 8864,2522 8864,2527 8864,2532 8864,2537 8863,2542 8860,2547 8857,2553 8853,2558 8848,2564 8843,2570 8836,2576 8828,2582 8819,2587 8810,2592 8802,2597 8793,2601 8784,2606 8774,2610 8765,2614 8755,2618 8746,2622 8736,2625 8726,2629 8716,2632 8705,2635 8627,2654 8637,2651 8647,2648 8657,2645 8667,2641 8677,2637 8686,2633 8696,2629 8705,2625 8714,2621 8723,2616 8732,2611 8740,2606 8749,2601 8757,2596 8764,2590 8770,2584 8775,2578 8779,2572 8782,2567 8784,2561 8785,2556 8786,2551 8786,2546 8785,2541 8784,2535 8783,2529 8782,2523 8780,2517 8777,2510 8775,2503 8771,2489 8767,2475 8764,2460 8760,2444 8756,2428 8753,2411 8750,2393 8747,2375 8744,2356 8741,2336 8738,2316 8736,2295 8733,2273 8731,2251 8729,2228 8727,2204 8725,2180 8723,2155 8721,2129 8720,2103 8718,2076 8717,2049 8716,2020 8715,1991 8714,1962 8713,1931 8712,1900 8712,1869 8711,1837 8711,1804 8711,1770 8711,1736 8711,1733 8711,1728 8711,1723 8711,1717 8711,1709 8711,1700 8711,1691 8711,1680 8712,1668 8712,1655 8712,1641 8712,1626 8713,1609 8713,1592 8713,1573 8713,1554 8714,1533 8714,1512 8715,1489 8715,1465 8715,1440 8716,1414 8716,1387 8717,1359 8717,1329 8718,1299 8718,1267 8719,1235 8720,1201 8720,1166 8721,1131 8721,1094 8723,1056 8724,1020 8725,983 8727,948 8728,913 8730,878 8732,844 8734,810 8735,777 8737,744 8740,712 8742,681 8744,649 8747,619 8749,589 8752,559 8755,530 8757,502 8760,474 8763,446 8766,419 8770,392 8773,366 8776,341 8780,316 8783,291 8787,267 8791,244 8795,221 8799,198 8803,177 8807,155 8809,147 8810,139 8811,133 8812,127 8813,123 8814,120 8814,117 8814,116 8814,110 8812,105 8810,100 8806,96 8801,91 8796,88 8789,84 8781,81 8772,78 8763,76 8752,74 8740,72 8727,71 8713,70 8698,70 8682,69 8669,70 8656,70 8643,70 8630,71 8617,72 8605,73 8592,75 8579,77 8567,78 8554,81 8542,83 "/>
    <polygon class="fil0" points="7658,1351 7737,1331 7737,1381 7737,1431 7737,1479 7738,1527 7738,1573 7739,1619 7739,1664 7740,1708 7741,1750 7742,1792 7743,1833 7744,1873 7745,1912 7746,1950 7748,1987 7749,2023 7751,2059 7753,2093 7754,2126 7756,2159 7758,2190 7760,2220 7763,2250 7765,2279 7767,2306 7770,2333 7772,2359 7775,2383 7778,2407 7781,2430 7784,2452 7787,2473 7786,2484 7784,2494 7781,2504 7777,2514 7771,2524 7764,2533 7755,2542 7746,2551 7735,2560 7723,2568 7709,2576 7694,2584 7678,2592 7661,2600 7643,2607 7623,2614 7602,2621 7582,2627 7563,2633 7544,2638 7465,2658 7484,2652 7504,2646 7524,2640 7544,2633 7564,2626 7582,2619 7600,2612 7616,2604 7630,2596 7644,2588 7656,2579 7667,2571 7677,2562 7685,2552 7692,2543 7698,2533 7702,2523 7705,2513 7707,2503 7708,2492 7705,2471 7702,2450 7699,2427 7696,2403 7694,2378 7691,2352 7689,2326 7686,2298 7684,2269 7682,2240 7680,2209 7678,2178 7676,2146 7674,2112 7672,2078 7671,2043 7669,2007 7668,1970 7666,1931 7665,1892 7664,1853 7663,1812 7662,1770 7661,1727 7660,1683 7660,1639 7659,1593 7659,1546 7658,1499 7658,1450 7658,1401 "/>
    <polygon class="fil0" points="7170,1101 7249,1082 7256,1080 7264,1079 7272,1078 7280,1078 7319,1078 7241,1097 7201,1097 7193,1097 7185,1098 7178,1099 "/>
    <polygon class="fil0" points="7370,108 7449,89 7466,85 7482,82 7499,79 7515,76 7531,73 7547,71 7562,69 7578,67 7593,65 7608,64 7623,63 7637,62 7652,61 7666,61 7680,61 7693,61 7706,61 7717,62 7728,64 7738,66 7747,68 7755,70 7763,73 7769,76 7775,80 7780,84 7783,89 7786,94 7789,99 7790,105 7790,111 7790,121 7788,145 7785,168 7783,192 7780,217 7778,241 7775,266 7773,291 7771,317 7769,343 7767,369 7765,395 7763,422 7761,449 7759,477 7757,505 7756,533 7754,561 7752,590 7751,619 7749,648 7748,678 7747,708 7745,738 7744,768 7743,799 7742,830 7741,862 7740,894 7739,926 7738,958 7738,991 7737,1024 7658,1044 7659,1011 7660,978 7660,945 7661,913 7662,881 7663,850 7664,819 7665,788 7667,757 7668,727 7669,697 7671,667 7672,638 7674,609 7675,580 7677,552 7678,524 7680,496 7682,469 7684,442 7686,415 7688,388 7690,362 7692,336 7694,311 7697,286 7699,261 7701,236 7704,212 7706,188 7709,164 7712,141 7712,130 7711,124 7710,118 7708,113 7705,108 7701,104 7696,100 7690,96 7684,93 7677,90 7668,87 7659,85 7649,83 7639,82 7627,81 7614,80 7601,80 7587,80 7573,81 7559,81 7544,82 7529,83 7514,85 7499,86 7484,88 7468,90 7452,93 7436,95 7420,98 7404,101 7387,105 "/>
    <polygon class="fil0" points="9545,1058 9624,1038 9649,1032 9675,1027 9701,1022 9728,1017 9755,1013 9783,1009 9812,1005 9841,1002 9871,999 9902,997 9933,995 9965,994 9997,993 10030,992 10064,992 10086,992 10109,993 10130,993 10151,994 10172,995 10192,997 10211,998 10229,1000 10247,1002 10265,1005 10282,1007 10298,1010 10313,1013 10328,1017 10342,1020 10356,1024 10392,1035 10402,1039 10411,1044 10418,1049 10424,1054 10429,1059 10432,1064 10434,1069 10435,1074 10434,1078 10433,1083 10431,1087 10428,1090 10425,1094 10421,1097 10416,1100 10410,1103 10398,1106 10386,1110 10374,1115 10362,1119 10350,1124 10338,1129 10327,1134 10315,1140 10304,1146 10292,1152 10281,1158 10269,1165 10258,1171 10247,1179 10235,1186 10224,1194 10203,1209 10185,1223 10170,1235 10157,1247 10147,1257 10140,1266 10136,1274 10135,1281 10056,1301 10057,1294 10062,1286 10069,1277 10078,1266 10091,1255 10106,1242 10124,1228 10145,1213 10156,1205 10168,1198 10179,1191 10190,1184 10202,1177 10213,1171 10225,1165 10236,1159 10248,1154 10260,1148 10271,1143 10283,1139 10295,1134 10307,1130 10319,1126 10331,1122 10337,1119 10342,1116 10346,1113 10350,1110 10352,1106 10354,1102 10355,1098 10356,1094 10355,1088 10353,1083 10350,1078 10345,1073 10339,1068 10332,1063 10323,1059 10313,1054 10277,1044 10264,1040 10249,1036 10234,1033 10219,1030 10203,1027 10186,1024 10169,1022 10151,1020 10132,1018 10113,1016 10093,1015 10073,1014 10052,1013 10030,1012 10008,1012 9985,1012 9951,1012 9918,1012 9886,1013 9854,1015 9823,1017 9792,1019 9762,1022 9733,1025 9704,1028 9676,1032 9649,1036 9622,1041 9596,1046 9570,1052 "/>
    <polygon class="fil0" points="10056,1301 10135,1281 10156,1306 10078,1326 "/>
    <polygon class="fil0" points="10078,1326 10156,1306 10170,1314 10184,1323 10197,1333 10210,1343 10223,1354 10235,1365 10246,1377 10258,1389 10268,1402 10279,1416 10289,1430 10298,1445 10308,1460 10317,1476 10325,1492 10333,1509 10341,1527 10348,1544 10354,1561 10361,1577 10367,1593 10372,1609 10377,1625 10382,1641 10386,1656 10389,1671 10393,1686 10395,1700 10398,1714 10400,1728 10401,1742 10403,1756 10410,1866 10409,1888 10409,1910 10408,1931 10407,1953 10405,1974 10403,1994 10400,2015 10397,2035 10394,2055 10390,2075 10386,2094 10382,2114 10377,2133 10372,2152 10367,2170 10361,2188 10354,2206 10348,2224 10340,2242 10333,2259 10325,2276 10317,2293 10308,2310 10299,2326 10290,2342 10280,2358 10270,2374 10259,2389 10248,2404 10237,2419 10225,2434 10213,2448 10201,2462 10188,2476 10175,2489 10162,2502 10149,2514 10135,2526 10121,2537 10106,2548 10092,2558 10077,2568 10062,2578 10046,2587 10030,2596 10014,2604 9998,2612 9981,2619 9965,2626 9947,2633 9930,2639 9912,2644 9834,2664 9851,2658 9869,2652 9886,2646 9903,2639 9919,2631 9936,2624 9952,2615 9967,2607 9983,2597 9998,2588 10013,2578 10028,2567 10042,2556 10056,2545 10070,2533 10083,2521 10097,2508 10110,2495 10122,2482 10135,2467 10147,2453 10158,2438 10170,2424 10181,2408 10191,2393 10201,2377 10211,2362 10220,2345 10229,2329 10238,2313 10246,2296 10254,2279 10262,2261 10269,2244 10275,2226 10282,2208 10288,2190 10293,2171 10298,2152 10303,2133 10308,2114 10312,2094 10315,2075 10319,2055 10321,2034 10324,2014 10326,1993 10328,1972 10329,1951 10330,1929 10331,1908 10331,1886 10324,1775 10323,1762 10321,1748 10319,1734 10317,1720 10314,1705 10311,1690 10307,1675 10303,1660 10298,1645 10293,1629 10288,1613 10282,1597 10276,1580 10269,1563 10262,1546 10254,1529 10246,1512 10238,1495 10229,1479 10220,1464 10210,1449 10200,1435 10190,1422 10179,1409 10168,1396 10156,1384 10144,1373 10131,1362 10119,1352 10105,1343 10092,1334 "/>
    <polygon class="fil0" points="9391,1401 9470,1381 9479,1379 9488,1377 9497,1376 9505,1375 9513,1374 9521,1374 9535,1374 9548,1375 9558,1377 9567,1380 9573,1384 9578,1388 9581,1393 9582,1399 9503,1418 9502,1412 9499,1407 9494,1403 9488,1400 9479,1397 9469,1395 9457,1394 9442,1393 9435,1394 9427,1394 9418,1395 9410,1397 9401,1399 "/>
    <polygon class="fil0" points="9503,1418 9582,1399 9560,1435 9551,1446 9541,1459 9532,1471 9524,1485 9516,1498 9508,1512 9500,1527 9493,1542 9486,1557 9480,1573 9473,1589 9468,1606 9462,1623 9457,1641 9452,1659 9448,1677 9444,1696 9440,1714 9436,1732 9433,1750 9430,1768 9427,1785 9425,1802 9423,1819 9421,1835 9419,1851 9417,1867 9416,1883 9415,1898 9415,1914 9414,1928 9414,1943 9414,1958 9414,1972 9415,1986 9416,2001 9417,2015 9418,2030 9420,2044 9421,2059 9423,2073 9425,2087 9428,2102 9430,2116 9433,2130 9436,2145 9439,2159 9443,2173 9446,2187 9450,2201 9454,2214 9457,2227 9461,2239 9465,2251 9469,2262 9473,2273 9477,2283 9481,2293 9485,2302 9489,2311 9494,2320 9498,2328 9502,2336 9507,2343 9516,2356 9525,2369 9535,2380 9545,2391 9556,2401 9566,2411 9577,2419 9589,2427 9597,2432 9606,2437 9615,2441 9623,2445 9632,2449 9641,2453 9650,2456 9658,2459 9667,2461 9676,2463 9685,2465 9695,2467 9704,2468 9713,2469 9722,2469 9732,2469 9741,2469 9750,2469 9760,2467 9769,2466 9778,2464 9787,2461 9709,2481 9699,2483 9690,2485 9681,2487 9672,2488 9662,2489 9653,2489 9644,2489 9634,2488 9625,2487 9616,2486 9607,2485 9598,2483 9589,2481 9580,2478 9571,2475 9562,2472 9553,2469 9544,2465 9536,2461 9527,2456 9519,2451 9510,2446 9499,2439 9488,2430 9477,2421 9466,2411 9456,2400 9447,2388 9437,2376 9428,2362 9424,2355 9419,2347 9415,2339 9411,2331 9406,2322 9402,2312 9398,2303 9394,2292 9390,2281 9386,2270 9382,2258 9379,2246 9375,2233 9371,2220 9367,2207 9364,2193 9360,2178 9357,2164 9354,2150 9351,2135 9349,2121 9346,2107 9344,2092 9342,2078 9341,2064 9339,2049 9338,2035 9337,2020 9336,2006 9336,1991 9335,1977 9335,1963 9335,1948 9336,1933 9336,1918 9337,1902 9339,1887 9340,1871 9342,1855 9344,1838 9346,1821 9348,1804 9351,1787 9354,1769 9358,1752 9361,1734 9365,1715 9369,1697 9374,1678 9378,1660 9383,1642 9389,1625 9395,1609 9401,1592 9407,1576 9414,1561 9421,1546 9429,1532 9437,1518 9445,1504 9454,1491 9463,1478 9472,1466 9482,1454 "/>
    <polygon class="fil0" points="11556,1018 11634,999 11651,994 11667,991 11684,987 11700,984 11715,981 11731,979 11746,977 11761,976 11776,975 11791,974 11805,974 11817,975 11828,977 11838,980 11845,985 11851,991 11855,998 11858,1007 11858,1017 11855,1041 11851,1066 11847,1091 11843,1117 11840,1143 11837,1169 11833,1196 11830,1223 11827,1250 11825,1278 11822,1307 11819,1336 11817,1365 11815,1395 11812,1425 11810,1455 11808,1486 11807,1517 11805,1549 11803,1581 11802,1614 11801,1646 11799,1680 11798,1714 11797,1748 11797,1782 11796,1817 11795,1853 11795,1888 11794,1925 11794,1961 11794,1998 11794,2026 11794,2052 11795,2078 11795,2103 11795,2128 11795,2152 11796,2176 11796,2199 11797,2222 11798,2243 11798,2265 11799,2285 11800,2306 11801,2325 11802,2344 11803,2362 11804,2380 11806,2397 11807,2414 11808,2430 11810,2445 11811,2460 11813,2474 11814,2488 11816,2501 11818,2514 11820,2526 11822,2537 11824,2548 11826,2558 11828,2567 11830,2576 11844,2623 11765,2642 11751,2596 11749,2587 11747,2577 11745,2567 11743,2556 11741,2545 11739,2533 11737,2521 11736,2508 11734,2494 11732,2480 11731,2465 11729,2449 11728,2433 11727,2417 11726,2400 11724,2382 11723,2363 11722,2345 11721,2325 11720,2305 11720,2284 11719,2263 11718,2241 11718,2219 11717,2196 11717,2172 11716,2148 11716,2123 11716,2097 11716,2072 11715,2045 11715,2018 11716,1981 11716,1944 11716,1908 11716,1872 11717,1837 11718,1802 11719,1767 11719,1733 11721,1699 11722,1666 11723,1633 11724,1600 11726,1568 11728,1537 11730,1505 11732,1475 11734,1444 11736,1414 11738,1384 11741,1355 11743,1326 11746,1298 11749,1270 11752,1242 11755,1215 11758,1188 11761,1162 11765,1136 11768,1111 11772,1085 11776,1061 11780,1036 11779,1026 11776,1018 11772,1010 11766,1004 11759,1000 11750,996 11739,994 11726,994 11712,994 11697,994 11682,995 11667,997 11652,999 11637,1001 11621,1004 11605,1007 11589,1010 11572,1014 "/>
    <polygon class="fil0" points="11765,2642 11844,2623 11843,2634 11839,2643 11833,2651 11825,2658 11814,2663 11735,2682 11746,2677 11754,2671 11761,2663 11764,2653 "/>
    <polygon class="fil0" points="11351,2518 11429,2499 11426,2500 11424,2502 11421,2504 11418,2506 11415,2509 11412,2512 11405,2521 11398,2530 11391,2538 11383,2547 11375,2554 11367,2562 11358,2569 11350,2576 11341,2583 11331,2589 11322,2596 11312,2601 11303,2607 11292,2612 11282,2617 11271,2622 11261,2626 11250,2631 11238,2634 11227,2638 11148,2657 11159,2654 11171,2650 11182,2646 11193,2641 11203,2637 11214,2632 11224,2626 11234,2621 11243,2615 11253,2609 11262,2602 11271,2596 11279,2589 11288,2581 11296,2574 11304,2566 11312,2558 11319,2549 11327,2541 11334,2532 11336,2528 11339,2525 11342,2523 11345,2521 11348,2519 "/>
    <polygon class="fil0" points="10549,1022 10628,1002 10636,1000 10644,999 10652,997 10660,995 10669,994 10678,993 10687,992 10697,991 10707,990 10717,990 10727,989 10738,989 10748,989 10759,988 10781,989 10801,990 10821,991 10841,993 10859,995 10877,999 10894,1002 10911,1006 10927,1011 10942,1016 10956,1022 10970,1029 10983,1036 10996,1043 11008,1051 11019,1060 11029,1069 11039,1079 11048,1089 11057,1100 11065,1111 11072,1123 11078,1136 11084,1149 11089,1163 11093,1177 11097,1192 11100,1207 11102,1223 11104,1239 11105,1256 11106,1274 11105,1280 11105,1286 11105,1293 11104,1300 11104,1307 11103,1315 11102,1324 11101,1333 11100,1342 11098,1352 11097,1362 11095,1373 11093,1384 11092,1396 11089,1408 11087,1420 11085,1433 11082,1447 11080,1460 11077,1475 11074,1489 11071,1505 11068,1520 11064,1536 11061,1553 11057,1570 11053,1587 11050,1605 11045,1623 11041,1642 11037,1661 11032,1681 11028,1700 11024,1720 11019,1739 11015,1757 11011,1776 11008,1793 11004,1811 11000,1828 10997,1845 10994,1861 10991,1877 10988,1893 10985,1908 10982,1924 10980,1938 10977,1952 10975,1966 10973,1980 10971,1993 10969,2006 10968,2018 10966,2031 10965,2042 10964,2054 10963,2065 10962,2076 10961,2086 10960,2096 10960,2105 10959,2115 10959,2124 10959,2132 10959,2149 10960,2165 10961,2180 10963,2195 10965,2210 10967,2224 10970,2237 10974,2250 10978,2263 10982,2275 10987,2287 10992,2298 10998,2308 11004,2319 11011,2328 11018,2337 11026,2346 11034,2354 11042,2362 11050,2369 11059,2375 11069,2381 11078,2386 11089,2391 11099,2395 11110,2399 11121,2402 11133,2404 11144,2406 11157,2408 11169,2408 11182,2409 11195,2408 11208,2408 11220,2406 11232,2404 11244,2401 11255,2398 11176,2418 11165,2421 11153,2424 11141,2426 11129,2427 11116,2428 11103,2428 11090,2428 11078,2427 11066,2426 11054,2424 11042,2421 11031,2418 11020,2415 11010,2410 11000,2406 10990,2400 10981,2394 10972,2388 10963,2381 10955,2374 10947,2365 10939,2357 10932,2348 10926,2338 10919,2328 10914,2317 10908,2306 10903,2295 10899,2282 10895,2270 10892,2257 10889,2243 10886,2229 10884,2215 10882,2200 10881,2184 10881,2168 10880,2152 10880,2143 10881,2134 10881,2125 10882,2115 10882,2105 10883,2095 10884,2084 10885,2073 10886,2062 10888,2050 10889,2038 10891,2025 10892,2013 10894,1999 10896,1986 10899,1972 10901,1958 10904,1943 10906,1928 10909,1913 10912,1897 10915,1881 10918,1864 10922,1848 10925,1830 10929,1813 10932,1795 10936,1777 10941,1758 10945,1739 10949,1720 10954,1700 10958,1681 10962,1661 10967,1643 10971,1624 10975,1607 10978,1589 10982,1572 10986,1556 10989,1540 10992,1524 10995,1509 10998,1494 11001,1480 11004,1466 11006,1453 11008,1440 11011,1427 11013,1415 11015,1404 11016,1392 11018,1382 11020,1371 11021,1362 11022,1352 11023,1343 11024,1335 11025,1327 11026,1319 11026,1312 11026,1305 11027,1299 11027,1293 11026,1276 11025,1259 11024,1242 11021,1227 11018,1211 11015,1196 11010,1182 11005,1169 10999,1155 10993,1143 10986,1131 10978,1119 10970,1109 10960,1098 10951,1089 10940,1079 10929,1071 10917,1063 10905,1055 10892,1048 10878,1042 10863,1036 10848,1031 10832,1026 10815,1022 10798,1018 10780,1015 10762,1012 10742,1010 10723,1009 10702,1008 10681,1008 10670,1008 10659,1008 10648,1009 10638,1009 10628,1010 10618,1010 10609,1011 10599,1012 10590,1014 10582,1015 10573,1016 10565,1018 10557,1020 "/>
    <polygon class="fil0" points="12509,1244 12587,1225 12578,1227 12569,1230 12560,1233 12551,1237 12542,1241 12534,1245 12526,1249 12516,1255 12507,1261 12498,1268 12490,1275 12483,1282 12476,1290 12470,1298 12464,1306 12459,1315 12455,1324 12452,1333 12449,1343 12447,1353 12445,1363 12444,1374 12444,1385 12444,1398 12445,1411 12447,1423 12450,1434 12453,1444 12458,1453 12463,1461 12469,1468 12475,1475 12481,1481 12486,1487 12491,1492 12496,1497 12500,1502 12504,1506 12508,1509 12512,1513 12516,1517 12522,1521 12528,1525 12534,1529 12541,1534 12549,1539 12558,1543 12566,1548 12574,1552 12582,1556 12588,1560 12594,1563 12599,1566 12604,1568 12608,1570 12612,1572 12617,1575 12624,1578 12631,1581 12640,1585 12649,1590 12660,1595 12672,1600 12684,1606 12695,1611 12705,1616 12713,1620 12721,1623 12727,1626 12732,1629 12736,1631 12760,1642 12782,1654 12804,1665 12825,1677 12845,1690 12865,1702 12884,1715 12902,1728 12919,1741 12936,1755 12952,1769 12967,1783 12981,1797 12995,1812 13008,1826 13020,1841 13031,1857 13042,1872 13052,1888 13061,1904 13070,1920 13078,1937 13085,1954 13091,1971 13096,1988 13101,2006 13105,2023 13109,2041 13111,2060 13113,2078 13114,2097 13115,2116 13114,2135 13114,2154 13113,2172 13111,2190 13109,2208 13106,2226 13103,2243 13100,2260 13096,2276 13092,2293 13087,2309 13081,2324 13076,2340 13070,2355 13063,2369 13056,2384 13048,2398 13041,2411 13033,2424 13025,2437 13017,2449 13009,2461 13001,2472 12993,2483 12984,2493 12976,2503 12967,2512 12958,2521 12949,2529 12940,2537 12931,2545 12922,2551 12912,2558 12903,2565 12893,2571 12883,2577 12872,2583 12862,2589 12851,2594 12840,2600 12829,2605 12817,2610 12805,2615 12793,2620 12781,2624 12769,2629 12756,2633 12743,2637 12727,2642 12648,2662 12665,2657 12677,2653 12690,2648 12702,2644 12715,2639 12727,2634 12738,2630 12750,2624 12761,2619 12772,2614 12783,2608 12793,2602 12804,2596 12814,2590 12824,2584 12834,2578 12843,2571 12852,2564 12862,2557 12871,2549 12880,2540 12888,2532 12897,2522 12906,2513 12914,2502 12922,2492 12931,2480 12939,2469 12946,2457 12954,2444 12962,2431 12970,2417 12977,2403 12984,2389 12991,2374 12997,2359 13003,2344 13008,2328 13013,2312 13017,2296 13021,2279 13025,2262 13028,2245 13030,2228 13032,2210 13034,2192 13035,2173 13036,2155 13036,2136 13035,2117 13034,2098 13032,2079 13030,2061 13027,2043 13023,2025 13018,2007 13012,1990 13006,1973 12999,1956 12991,1940 12983,1923 12973,1907 12963,1892 12953,1876 12941,1861 12929,1846 12916,1831 12902,1816 12888,1802 12873,1788 12857,1774 12840,1761 12823,1748 12805,1734 12786,1722 12767,1709 12746,1697 12725,1685 12703,1673 12681,1662 12658,1650 12653,1648 12648,1646 12642,1643 12634,1639 12626,1635 12616,1631 12605,1625 12593,1620 12581,1614 12571,1609 12561,1605 12552,1601 12545,1597 12538,1594 12533,1592 12529,1590 12525,1588 12521,1585 12515,1583 12509,1579 12503,1576 12496,1572 12488,1568 12479,1563 12471,1558 12463,1553 12455,1549 12449,1545 12443,1540 12438,1536 12433,1533 12429,1529 12425,1525 12421,1521 12417,1516 12412,1512 12407,1506 12402,1501 12396,1494 12390,1488 12384,1481 12379,1473 12375,1464 12371,1454 12368,1443 12366,1431 12365,1418 12365,1404 12365,1393 12366,1382 12368,1372 12370,1362 12373,1352 12376,1343 12381,1334 12385,1326 12391,1317 12397,1309 12404,1302 12411,1294 12419,1287 12428,1281 12437,1274 12447,1268 12455,1264 12463,1260 12472,1256 12481,1253 12490,1250 12499,1247 "/>
    <polygon class="fil0" points="12100,2025 12179,2006 12195,2002 12211,1999 12228,1997 12244,1995 12262,1995 12272,1995 12280,1997 12288,2000 12294,2005 12299,2010 12302,2017 12304,2025 12305,2034 12304,2036 12304,2039 12302,2044 12301,2050 12298,2057 12296,2067 12292,2077 12288,2089 12287,2096 12285,2103 12283,2110 12281,2117 12280,2124 12279,2132 12277,2140 12276,2148 12275,2156 12275,2165 12274,2173 12273,2182 12273,2191 12273,2200 12272,2210 12272,2220 12273,2229 12273,2239 12275,2248 12276,2258 12279,2267 12281,2276 12284,2285 12288,2294 12292,2302 12297,2311 12302,2319 12308,2327 12314,2335 12320,2343 12327,2351 12335,2359 12343,2366 12351,2373 12359,2379 12368,2385 12377,2391 12385,2396 12395,2400 12404,2404 12414,2408 12423,2411 12433,2414 12444,2416 12454,2417 12465,2419 12475,2419 12487,2419 12498,2419 12508,2419 12519,2418 12529,2418 12539,2417 12548,2415 12558,2414 12567,2412 12576,2410 12584,2408 12505,2427 12497,2429 12488,2431 12479,2433 12470,2435 12460,2436 12450,2437 12440,2438 12429,2438 12419,2439 12408,2439 12397,2439 12386,2438 12375,2437 12365,2435 12355,2433 12345,2430 12335,2427 12325,2424 12316,2420 12307,2415 12298,2410 12289,2405 12280,2399 12272,2392 12264,2386 12256,2378 12249,2371 12241,2363 12235,2355 12229,2347 12223,2339 12218,2330 12213,2322 12209,2313 12206,2304 12202,2295 12200,2286 12198,2277 12196,2268 12195,2258 12194,2249 12194,2239 12194,2229 12194,2220 12194,2211 12195,2202 12195,2193 12196,2184 12197,2176 12198,2167 12199,2159 12200,2151 12201,2144 12203,2136 12204,2129 12206,2122 12208,2115 12210,2109 12213,2097 12217,2086 12219,2077 12222,2069 12223,2063 12225,2058 12225,2055 12226,2054 12225,2044 12223,2036 12220,2030 12215,2024 12209,2020 12202,2017 12193,2015 12183,2014 12166,2015 12149,2016 12132,2018 12116,2021 "/>
    <polygon class="fil0" points="12361,1036 12440,1017 12454,1013 12469,1010 12483,1007 12498,1004 12513,1001 12528,999 12544,997 12559,995 12575,993 12592,992 12608,990 12624,990 12641,989 12658,989 12676,988 12691,989 12706,989 12722,990 12737,991 12753,992 12768,993 12784,995 12800,997 12816,999 12832,1002 12848,1005 12865,1008 12881,1011 12898,1014 12914,1018 12931,1022 12947,1027 12962,1032 12976,1037 12989,1042 13001,1048 13012,1054 13022,1061 13031,1068 13039,1075 13046,1083 13052,1091 13056,1099 13060,1108 13063,1117 13064,1127 13065,1137 13065,1147 13064,1156 13064,1166 13063,1176 13062,1186 13061,1195 13060,1204 13058,1214 13056,1223 13054,1232 13052,1241 13050,1250 13047,1259 13044,1268 13041,1276 13038,1285 13031,1301 13024,1314 13016,1326 13008,1336 13000,1343 12991,1348 12981,1351 12903,1371 12912,1368 12921,1362 12929,1355 12937,1345 12945,1334 12952,1320 12959,1304 12962,1296 12965,1287 12968,1278 12971,1269 12973,1261 12975,1252 12977,1242 12979,1233 12981,1224 12982,1215 12983,1205 12984,1195 12985,1186 12985,1176 12986,1166 12986,1156 12985,1146 12984,1137 12981,1128 12977,1119 12973,1110 12967,1102 12960,1095 12952,1087 12944,1080 12934,1074 12923,1068 12911,1062 12898,1056 12883,1051 12868,1046 12852,1042 12835,1038 12819,1034 12802,1030 12786,1027 12770,1024 12753,1021 12737,1019 12721,1016 12705,1014 12690,1013 12674,1011 12658,1010 12643,1009 12627,1008 12612,1008 12597,1008 12580,1008 12563,1008 12546,1009 12529,1010 12513,1011 12497,1012 12481,1014 12465,1016 12449,1018 12434,1020 12419,1023 12404,1026 12390,1029 12376,1033 "/>
    <polygon class="fil0" points="13518,1718 13596,1699 13600,1788 13600,1793 13602,1797 13604,1801 13607,1804 13611,1806 13616,1808 13622,1809 13628,1809 13643,1808 13657,1806 13670,1804 13684,1802 13697,1799 13710,1796 13723,1793 13736,1789 13657,1809 13644,1812 13631,1815 13618,1818 13605,1821 13591,1823 13578,1825 13564,1827 13550,1829 13543,1828 13537,1827 13532,1826 13528,1823 13525,1820 13523,1817 13522,1812 13521,1807 "/>
    <polygon class="fil0" points="13754,1207 13832,1187 13820,1192 13808,1197 13796,1203 13785,1209 13774,1217 13763,1225 13752,1234 13742,1244 13733,1254 13723,1265 13714,1278 13707,1287 13700,1298 13693,1308 13687,1318 13680,1329 13674,1340 13668,1351 13663,1363 13657,1374 13652,1386 13647,1398 13642,1410 13638,1423 13634,1435 13630,1448 13626,1461 13622,1475 13619,1488 13616,1502 13613,1516 13610,1530 13608,1544 13606,1559 13604,1573 13602,1588 13600,1603 13599,1619 13598,1634 13597,1650 13597,1666 13596,1682 13596,1699 13518,1718 13518,1702 13518,1685 13519,1670 13519,1654 13520,1638 13522,1623 13523,1608 13525,1593 13527,1578 13529,1563 13531,1549 13534,1535 13537,1521 13540,1508 13543,1494 13547,1481 13551,1468 13555,1455 13559,1442 13564,1430 13568,1418 13573,1406 13578,1394 13584,1382 13589,1371 13595,1360 13601,1349 13608,1338 13614,1327 13621,1317 13628,1307 13635,1297 13644,1285 13654,1274 13664,1263 13674,1253 13684,1244 13695,1236 13706,1229 13717,1222 13729,1216 13741,1211 "/>
    <polygon class="fil0" points="14233,2095 14311,2075 14317,2074 14323,2073 14328,2074 14334,2076 14339,2079 14343,2083 14348,2089 14352,2095 14356,2103 14360,2113 14363,2122 14366,2131 14369,2139 14371,2147 14372,2155 14373,2161 14374,2168 14374,2173 14374,2190 14373,2207 14372,2223 14371,2239 14369,2255 14366,2270 14364,2285 14360,2300 14357,2315 14353,2329 14348,2344 14343,2358 14338,2371 14332,2385 14326,2398 14319,2411 14312,2423 14305,2435 14298,2447 14290,2458 14283,2469 14275,2479 14268,2489 14260,2499 14252,2508 14244,2517 14236,2525 14228,2533 14220,2540 14211,2548 14203,2554 14194,2560 14185,2566 14176,2572 14167,2578 14158,2583 14148,2589 14139,2594 14129,2599 14119,2604 14108,2608 14098,2613 14087,2617 14077,2622 14066,2626 14055,2630 14043,2633 14032,2637 13953,2657 13964,2653 13976,2649 13987,2645 13998,2641 14009,2637 14019,2632 14030,2628 14040,2623 14050,2618 14060,2613 14070,2608 14079,2603 14088,2597 14098,2592 14106,2586 14115,2580 14124,2574 14132,2567 14141,2560 14149,2552 14157,2545 14165,2536 14173,2527 14181,2518 14189,2509 14197,2499 14204,2488 14212,2478 14219,2466 14226,2455 14233,2443 14240,2430 14247,2417 14253,2404 14259,2391 14264,2377 14269,2363 14274,2349 14278,2335 14282,2320 14285,2305 14288,2290 14290,2274 14292,2258 14294,2242 14295,2226 14295,2210 14295,2193 14295,2187 14295,2181 14293,2174 14292,2167 14290,2159 14287,2151 14285,2142 14281,2132 14278,2123 14274,2115 14269,2108 14265,2103 14260,2098 14255,2095 14249,2093 14244,2093 14238,2093 "/>
    <polygon class="fil0" points="13646,1031 13725,1011 13743,1006 13763,1002 13782,998 13802,994 13822,992 13843,989 13864,987 13885,986 13906,985 13928,985 13948,985 13968,986 13987,987 14005,988 14024,990 14041,993 14059,996 14076,999 14092,1003 14109,1007 14125,1011 14140,1017 14155,1022 14170,1028 14184,1034 14198,1041 14211,1048 14224,1056 14237,1064 14249,1073 14261,1082 14272,1091 14283,1101 14294,1111 14304,1122 14313,1133 14323,1145 14332,1157 14340,1170 14348,1183 14356,1196 14364,1210 14369,1220 14374,1231 14379,1242 14384,1252 14388,1262 14392,1273 14395,1283 14398,1293 14401,1303 14403,1313 14405,1323 14407,1333 14408,1343 14409,1353 14410,1362 14410,1372 14410,1382 14410,1391 14410,1400 14410,1408 14409,1417 14409,1425 14409,1433 14408,1441 14408,1448 14407,1455 14407,1462 14406,1469 14405,1476 14404,1482 14404,1488 14403,1493 14402,1499 14400,1505 14399,1512 14397,1519 14395,1526 14392,1533 14390,1541 14387,1549 14384,1558 14380,1567 14376,1576 14372,1585 14368,1595 14363,1606 14358,1616 14353,1627 14347,1638 14342,1649 14336,1660 14330,1671 14323,1681 14317,1692 14310,1702 14303,1712 14296,1722 14288,1732 14280,1741 14273,1751 14264,1760 14256,1770 14247,1779 14239,1788 14229,1797 14220,1806 14209,1814 14198,1823 14186,1832 14174,1840 14161,1849 14147,1857 14132,1866 14117,1874 14102,1883 14085,1891 14069,1899 14051,1907 14033,1915 14014,1923 14004,1927 13994,1931 13985,1935 13975,1939 13965,1942 13954,1946 13944,1949 13934,1953 13923,1956 13913,1959 13834,1979 13845,1976 13855,1972 13865,1969 13876,1965 13886,1962 13896,1958 13906,1955 13916,1951 13925,1947 13935,1943 13954,1935 13972,1927 13990,1919 14007,1910 14023,1902 14039,1894 14054,1885 14068,1877 14082,1868 14095,1860 14107,1851 14119,1843 14130,1834 14141,1825 14151,1816 14160,1807 14169,1798 14177,1789 14186,1780 14194,1770 14202,1761 14209,1751 14217,1741 14224,1731 14231,1721 14238,1711 14245,1701 14251,1690 14257,1680 14263,1669 14269,1658 14274,1647 14279,1636 14284,1625 14289,1615 14293,1605 14297,1595 14301,1586 14305,1577 14308,1569 14311,1560 14314,1553 14316,1545 14318,1538 14320,1531 14322,1525 14323,1519 14324,1513 14325,1507 14326,1501 14326,1495 14327,1489 14328,1482 14328,1475 14329,1468 14329,1460 14330,1453 14330,1445 14330,1436 14331,1428 14331,1419 14331,1410 14331,1401 14331,1392 14331,1382 14330,1372 14330,1362 14328,1353 14327,1343 14325,1333 14322,1323 14320,1313 14316,1302 14313,1292 14309,1282 14305,1271 14301,1261 14296,1250 14290,1240 14285,1229 14277,1215 14270,1202 14262,1189 14253,1177 14244,1164 14235,1153 14225,1142 14215,1131 14204,1121 14193,1111 14182,1101 14170,1092 14158,1084 14145,1076 14132,1068 14119,1061 14105,1054 14091,1047 14076,1041 14061,1036 14046,1031 14030,1026 14014,1022 13997,1018 13980,1015 13963,1012 13945,1010 13926,1008 13908,1006 13889,1005 13869,1005 13849,1004 13828,1005 13806,1005 13785,1007 13764,1009 13743,1011 13723,1014 13703,1017 13684,1021 13665,1026 "/>
    <polygon class="fil0" points="13562,2030 13641,2011 13636,2013 13632,2015 13629,2019 13627,2023 13625,2028 13625,2034 13625,2043 13626,2052 13628,2062 13631,2074 13634,2086 13638,2099 13643,2113 13648,2129 13654,2144 13660,2159 13666,2173 13673,2186 13679,2199 13686,2211 13693,2223 13700,2234 13710,2246 13721,2257 13732,2268 13744,2278 13756,2287 13769,2295 13783,2302 13797,2309 13812,2315 13827,2320 13843,2324 13860,2328 13877,2330 13895,2332 13913,2333 13932,2334 13951,2333 13969,2332 13988,2330 14006,2328 14023,2324 14040,2320 14057,2315 13978,2334 13962,2339 13944,2344 13927,2347 13909,2350 13891,2352 13872,2353 13853,2353 13834,2353 13816,2352 13798,2350 13781,2347 13764,2344 13748,2339 13733,2334 13718,2328 13704,2322 13690,2314 13677,2306 13665,2297 13653,2287 13642,2277 13631,2265 13621,2253 13614,2242 13607,2231 13600,2218 13594,2206 13587,2192 13581,2178 13575,2163 13569,2148 13564,2133 13559,2119 13555,2106 13552,2093 13549,2082 13548,2071 13546,2062 13546,2054 13547,2048 13548,2043 13550,2038 13553,2035 13557,2032 "/>
   </g>
   <path class="fil1" d="M103 1236l-17 -674c0,-107 -12,-192 -36,-253 -24,-62 -36,-96 -36,-100 0,-53 81,-93 241,-122 161,-28 283,-43 368,-43 84,0 130,21 137,61 150,669 276,1133 378,1392 12,28 25,43 38,43 13,0 24,-11 34,-32 159,-450 299,-895 421,-1335 9,-29 33,-51 71,-66 38,-16 104,-30 198,-45 94,-14 188,-21 280,-21 93,0 140,19 140,57 0,2 -4,21 -11,55 -7,35 -14,77 -22,127 -7,50 -15,111 -25,182 -21,164 -35,353 -41,566 -6,212 -9,426 -9,640l8 375c0,171 11,293 34,366 22,72 33,114 33,124 0,11 -8,24 -25,38 -73,59 -185,89 -335,89 -95,0 -149,-32 -161,-96 -7,-33 -10,-86 -10,-159 0,-73 7,-296 21,-669 14,-374 22,-645 22,-815 0,-171 -10,-256 -29,-256 -2,0 -4,1 -4,2 0,1 -3,3 -10,6 -7,2 -26,39 -56,110 -29,71 -88,248 -176,528 -88,281 -168,543 -239,787 -72,244 -111,375 -118,394 -26,65 -76,97 -150,97 -36,0 -64,-13 -86,-39 -76,-353 -211,-856 -406,-1510l-100 -325c-5,-12 -10,-18 -15,-18 -12,0 -20,9 -25,25 -9,155 -14,459 -14,912 0,453 17,739 50,858 2,5 4,12 4,22 0,50 -40,86 -118,109 -79,22 -149,34 -212,34 -63,0 -95,-15 -95,-43 0,-3 6,-22 18,-57 36,-122 59,-298 69,-528 11,-231 16,-495 16,-793zm3323 -656c-188,235 -324,471 -407,706l4 0c330,0 520,1 569,2 48,1 75,-1 80,-5 5,-5 8,-11 11,-18 -41,-293 -73,-492 -97,-598 -23,-106 -47,-159 -71,-159 -24,0 -54,24 -89,72zm-318 1680l79 -14c23,0 35,13 35,39 0,84 -16,154 -50,211 -33,57 -75,98 -124,121 -81,41 -150,61 -207,61 -110,0 -192,-41 -247,-123 -54,-82 -82,-206 -82,-371 0,-166 45,-380 136,-644l-207 0c-26,0 -39,-13 -39,-40 0,-26 20,-68 60,-126 41,-59 84,-88 129,-88l160 0c169,-376 368,-700 596,-974 60,-71 133,-138 220,-200 87,-62 154,-93 201,-93 48,0 84,22 107,65 62,100 135,465 218,1095 29,271 78,552 148,841 70,289 135,457 195,505 14,9 21,21 21,35 0,36 -50,69 -152,100 -101,31 -178,47 -232,47 -53,0 -94,-7 -123,-20 -28,-13 -46,-27 -53,-41 -43,-93 -86,-314 -129,-664l-21 -168c-10,-111 -19,-196 -29,-253l-25 -18 -745 -3c-29,121 -43,227 -43,317 0,91 3,157 9,198 6,42 25,87 59,134 33,48 78,71 135,71zm2184 -1948c-43,0 -80,7 -111,21 -30,15 -46,33 -46,54 -28,100 -43,398 -43,894 0,496 -1,774 -3,833 45,72 115,107 210,107 169,0 296,-93 382,-280 86,-187 129,-421 129,-703 0,-282 -42,-507 -125,-674 -84,-168 -214,-252 -393,-252zm-681 2352c-36,-5 -54,-16 -54,-32l11 -43c59,-129 89,-591 89,-1388 0,-381 -10,-619 -30,-714 -21,-95 -37,-156 -49,-182l-17 -36c-10,-9 -15,-23 -15,-41 0,-18 15,-32 43,-44 186,-74 430,-111 732,-111 635,0 952,404 952,1213 0,317 -55,606 -167,867 -45,100 -98,187 -157,259 -60,73 -138,133 -234,182 -96,49 -203,73 -319,73 -24,-2 -55,-6 -91,-10 -37,-5 -92,-23 -165,-54 -72,-31 -121,-71 -148,-121 -88,121 -215,182 -381,182zm3047 -1620l0 50 632 0 0 -8c2,-57 3,-129 3,-215 0,-87 -1,-163 -3,-229 -3,-65 -5,-121 -7,-166 -3,-45 -6,-84 -9,-118 -4,-33 -7,-58 -9,-76 -3,-18 -4,-34 -4,-48 0,-15 13,-31 39,-50 115,-77 242,-115 382,-115 88,0 132,16 132,47 0,2 -2,15 -7,39 -45,226 -74,539 -86,939 -7,399 -10,613 -10,642 0,369 21,624 64,767 7,19 11,35 11,48 0,13 -10,28 -29,45 -88,57 -202,86 -342,86 -91,0 -142,-31 -154,-93 -7,-34 -11,-85 -11,-155 0,-71 5,-178 13,-323 8,-146 15,-399 20,-760l-625 0c0,542 17,923 50,1141 0,58 -55,105 -164,141 -110,37 -200,56 -271,56 -72,0 -107,-11 -107,-32 0,-15 3,-33 10,-54 45,-100 68,-502 68,-1206l0 -46 -210 0c-19,0 -29,-8 -29,-22 0,-5 5,-23 14,-55 10,-32 32,-70 66,-113 35,-42 73,-64 116,-64l40 0c0,-469 -28,-739 -83,-810l-14 -21c-14,-12 -21,-27 -21,-45 0,-18 13,-33 39,-45 36,-21 99,-42 191,-64 92,-21 174,-32 248,-32 74,0 111,17 111,50l0 11c-29,247 -47,548 -54,903zm1709 235c-61,3 -106,4 -133,6 -28,1 -41,-6 -41,-20 0,-14 7,-29 21,-43 152,-140 409,-210 771,-210 123,0 221,10 292,32l36 10c29,12 43,25 43,40 0,11 -8,21 -25,28 -64,19 -126,50 -186,91 -59,42 -89,71 -89,88l22 25c76,42 135,110 176,203 42,93 65,175 70,246l7 111c0,235 -66,429 -196,581 -131,153 -310,229 -536,229 -114,0 -213,-20 -296,-61 -83,-40 -144,-86 -184,-137 -39,-51 -70,-109 -94,-173 -29,-88 -43,-179 -43,-273 0,-94 16,-189 48,-284 32,-95 69,-165 111,-211 41,-45 88,-82 141,-110 66,-36 120,-54 160,-54 41,0 61,9 61,25l-21 36c-53,62 -90,143 -113,243 -22,100 -34,188 -34,266 0,77 10,154 29,230 19,76 40,132 64,169 24,37 51,65 82,84 45,29 93,43 143,43 50,0 99,-20 146,-59 48,-39 82,-91 104,-155 42,-119 64,-242 64,-368 0,-200 -51,-354 -152,-464 -101,-109 -250,-164 -448,-164zm2413 -243c-43,257 -65,585 -65,982 0,292 12,485 36,578l14 46c0,31 -26,47 -78,47 -183,0 -288,-51 -314,-154 -3,-12 -8,-18 -16,-18 -9,0 -16,5 -23,15 -74,97 -188,146 -343,146 -86,0 -175,-21 -268,-64 -57,-26 -103,-72 -139,-138 -35,-65 -53,-145 -53,-240l53 -782c0,-164 -16,-281 -50,-350 -12,-26 -18,-43 -18,-50 0,-14 6,-23 18,-28 38,-12 87,-18 147,-18 230,0 346,95 346,285 0,60 -25,196 -73,407 -49,212 -74,362 -74,452 0,89 20,157 59,205 40,47 94,71 164,71 71,0 126,-25 166,-75 41,-50 65,-100 72,-150l10 -75c10,-83 15,-229 15,-438 0,-210 -7,-342 -20,-398 -13,-56 -20,-91 -20,-106 0,-59 48,-106 143,-141 95,-34 181,-51 257,-51 36,0 54,14 54,42zm1256 1100c0,102 -20,191 -59,267 -39,76 -84,132 -134,168 -50,36 -109,64 -178,86 -91,28 -173,42 -247,42 -154,0 -283,-30 -385,-91 -102,-60 -153,-157 -153,-290 0,-79 21,-143 64,-193 66,-74 146,-111 239,-111 28,0 43,13 43,40 0,2 -6,20 -16,55 -11,34 -16,78 -16,130 0,52 20,99 62,139 42,41 92,61 152,61 59,0 107,-10 142,-30 36,-21 61,-46 75,-77 22,-43 33,-83 33,-121 0,-69 -35,-129 -104,-179 -69,-50 -145,-89 -228,-118 -84,-28 -160,-76 -229,-142 -69,-67 -103,-150 -103,-250 0,-171 54,-300 162,-386 108,-85 255,-128 441,-128 81,0 166,11 255,34 89,22 134,61 134,114 0,54 -9,103 -27,148 -18,45 -40,68 -66,68 -14,0 -24,-5 -28,-16 -5,-11 -14,-23 -25,-38 -12,-14 -41,-32 -86,-55 -45,-23 -84,-34 -116,-34 -32,0 -54,1 -64,2 -11,1 -29,5 -56,11 -26,6 -50,15 -71,26 -55,31 -82,77 -82,136 0,38 8,66 25,84 17,18 30,31 39,41 10,9 26,21 50,34 24,13 41,22 50,27 10,4 31,14 64,30 34,15 55,26 65,30 252,119 378,281 378,486zm482 -418l3 89c0,15 10,22 29,22 76,-7 142,-27 200,-59 57,-32 99,-69 128,-109 57,-88 88,-164 93,-228l3 -43c0,-129 -51,-193 -153,-193 -76,0 -138,33 -186,100 -78,105 -117,245 -117,421zm777 475c0,90 -18,169 -55,237 -37,68 -78,118 -125,150 -46,32 -100,58 -162,77 -79,23 -154,35 -225,35 -200,0 -347,-75 -442,-225 -96,-149 -143,-340 -143,-572 0,-232 59,-439 176,-619 118,-181 295,-272 530,-272 215,0 360,75 436,225 31,57 46,111 46,163 0,51 -2,91 -7,121 -5,30 -21,74 -50,134 -28,59 -67,113 -114,160 -48,48 -123,93 -225,136 -102,43 -222,71 -360,86 -19,0 -29,8 -29,25 0,21 8,52 23,94 16,42 33,77 52,105 52,67 130,100 232,100 102,0 189,-33 260,-100 39,-35 69,-79 93,-132 10,-19 22,-28 38,-28 15,0 28,13 37,39 10,26 14,46 14,61z"/>
  </g>
 </g>
</svg>
