<?xml version="1.0" encoding="UTF-8"?>
<!DOCTYPE svg PUBLIC "-//W3C//DTD SVG 1.1//EN" "http://www.w3.org/Graphics/SVG/1.1/DTD/svg11.dtd">
<!-- Creator: CorelDRAW X8 -->
<svg xmlns="http://www.w3.org/2000/svg" xml:space="preserve" width="259.226mm" height="29.1903mm" version="1.1" style="shape-rendering:geometricPrecision; text-rendering:geometricPrecision; image-rendering:optimizeQuality; fill-rule:evenodd; clip-rule:evenodd"
viewBox="0 0 25923 2919"
 xmlns:xlink="http://www.w3.org/1999/xlink">
 <defs>
  <style type="text/css">
   <![CDATA[
    .fil0 {fill:black}
    .fil4 {fill:#15A7D9}
    .fil5 {fill:#5FB750}
    .fil2 {fill:#E73D2A}
    .fil3 {fill:#F6D016}
    .fil1 {fill:#FEFEFE}
   ]]>
  </style>
 </defs>
 <g id="Layer_x0020_1">
  <metadata id="CorelCorpID_0Corel-Layer"/>
  <g id="_1844709790800">
   <path class="fil0" d="M23322 1437c8,4 59,47 102,69 -8,23 -67,114 -86,145 -10,17 -17,32 -31,44l15 -258zm-16704 -100c37,-24 117,-56 163,-78 29,-13 57,-36 88,-24l408 195c-62,27 -265,137 -345,178 -175,89 -117,92 -247,5 -23,-16 -54,-34 -75,-52l8 -224zm-6618 953l0 333c131,17 503,95 661,125 92,17 621,123 665,122 34,-68 51,-167 84,-241 45,-97 304,-657 318,-670 78,79 104,185 285,324 24,18 99,81 124,87 26,-33 173,-152 216,-195l217 -195c38,37 265,899 275,939l32 0c31,-13 861,-75 962,-80l12 58 2234 1 -21 -167c71,35 133,160 287,173 88,8 1090,-98 1266,-106l12 91 1188 0 11 -29 1150 37 9 -19c0,-1 1,-3 2,-4l723 32c14,-83 50,-179 69,-279l12 -38c25,32 61,86 79,119 23,42 39,103 69,136l1018 65 43 -627c19,9 77,66 99,84 110,88 276,250 392,345 18,15 32,29 49,44 89,73 158,165 325,140l877 -228c49,-13 101,-27 148,-39 46,-13 104,-32 150,-39l-16 330 1270 0 0 -456c176,-34 439,8 579,-81 54,-34 198,-180 256,-239 26,-26 59,-57 87,-80l92 826 1186 0 11 -29 1151 39c7,-9 2,-1 7,-13 1,-4 1,-7 4,-13l759 -86c5,75 -5,56 77,66 43,5 88,12 132,17 125,14 660,-64 806,-81l1052 -126 46 233 2289 2 -43 -160c41,23 77,60 116,88 40,29 79,54 135,67 91,22 300,11 404,10 136,-2 271,2 407,3 139,1 270,-6 407,-11 24,-28 53,-97 73,-134 50,-93 508,-953 517,-986l-266 -185c-19,-13 -76,-50 -87,-67l207 -256c50,-60 161,-205 223,-243l0 -244c-30,-17 -168,-161 -197,-193 -113,-125 -265,-273 -375,-395 -98,-108 -95,-121 -233,-147 -60,-12 -669,-9 -764,-5 -169,7 -215,100 -311,199 -12,12 -19,23 -30,36 -12,12 -19,18 -30,31 -19,23 -39,45 -59,68 -56,67 -158,170 -213,237 -11,14 -15,19 -28,32l-242 267 174 -865 -2056 -1c-27,110 -63,210 -87,326l-137 677c-29,140 16,238 17,370l-691 79c10,-220 27,-453 44,-672 6,-79 47,-635 41,-667 -137,-13 -1370,-145 -1396,-157l-29 0 5 163c-1,-2 -2,-4 -3,-5 0,-1 -2,-3 -2,-4 -1,-2 -2,-3 -3,-5 0,-1 -1,-3 -1,-4 -2,-4 -4,-15 -5,-19 -2,-13 -4,-23 -6,-37 -4,-20 -7,-47 -15,-65 -82,-8 -201,-2 -287,-2 -37,0 -83,12 -127,15 -229,16 -464,18 -681,35l-1 36 -835 -32c-2,48 3,147 -12,185 -1,-36 -3,-72 -3,-107 -2,-67 -4,-48 -8,-84 -3,-25 -302,-24 -348,-17 -230,37 -561,101 -792,150 -160,35 -93,14 -126,61 -114,-62 -212,-174 -328,-200 -66,-15 -183,-8 -256,-8l-1321 0 -28 577c-13,-5 -16,-10 -26,-23l-302 -374c-153,-198 -263,-155 -557,-165 -118,-4 -235,-8 -352,-12 -122,-5 -216,-23 -320,28 -109,55 -390,251 -447,275l8 -153c-20,-10 -1191,-194 -1255,-194l-10 147 -55 -110 -849 1c-13,7 -5,-1 -11,12 -10,20 -87,520 -105,557 -24,-60 -11,-441 -34,-483l-11 -5c-2,0 -3,-1 -5,-1l-54 -6c-184,-17 -324,-25 -512,-33 -283,-13 -285,-29 -566,39 -3,41 2,92 -10,125 -1,-41 -1,-175 -11,-205 -78,-5 -179,-12 -255,-10 -111,4 -531,94 -666,117 -1,-1 -1,-3 -2,-4 0,-1 -1,-3 -1,-4l-8 -22c-297,-38 -762,-63 -1074,-83 -178,-11 -300,91 -423,157 -62,33 -126,70 -188,103 -39,21 -156,89 -188,101 11,-119 10,-241 4,-361 -37,-9 -1397,-3 -1505,-3 -163,0 -340,-7 -501,0 -27,111 -156,704 -173,828 -21,-49 -97,-338 -119,-416 -39,-137 -88,-275 -125,-408l-920 20c-35,43 -158,260 -182,276 -19,-35 -31,-95 -42,-137 -6,-25 -11,-46 -17,-71 -5,-22 -6,-55 -23,-65l-1064 -2c-9,41 -34,128 -49,167 -36,92 -436,803 -521,969 -137,266 -303,557 -448,828 -55,104 -86,190 -164,257z"/>
   <path class="fil1" d="M23307 1695c14,-12 21,-27 31,-44 19,-31 78,-122 86,-145 -43,-22 -94,-65 -102,-69l-15 258z"/>
   <g>
    <path class="fil2" d="M265 2389l0 3 883 167c14,-43 235,-504 263,-564 44,-96 86,-186 131,-280 22,-48 44,-94 66,-140l48 -104c3,-6 5,-11 8,-17l13 -17c57,60 409,558 440,582l215 -191c39,-34 338,-311 367,-320 8,39 165,485 185,545l158 573 837 -67c-2,-42 -62,-227 -77,-280 -28,-96 -53,-186 -81,-283 -55,-188 -106,-376 -161,-564 -56,-188 -108,-374 -162,-564 -46,-163 -112,-410 -160,-562l-583 12 -394 619 -107 -300c-19,-54 -37,-104 -55,-156 -17,-48 -43,-111 -54,-157l-665 -2c-11,38 -746,1382 -833,1549 -46,88 -93,173 -139,258 -21,38 -128,244 -143,260z"/>
    <path class="fil2" d="M12895 1124l388 87 16 350c-47,11 -111,39 -160,57 -27,9 -52,19 -79,28 -36,13 -45,26 -74,5 -36,-25 -239,-159 -253,-175l162 -352zm1155 1174c57,-339 117,-673 176,-1010 11,-62 26,-97 5,-123l-597 -736c-85,-105 -57,-94 -126,-96l-643 -22c-42,-2 -106,-7 -146,-5 -28,2 -242,145 -275,166 -121,74 -240,150 -360,228 -98,63 -112,53 -119,107l-126 835c-8,51 -25,102 -6,122l945 835c39,39 43,24 105,8 105,-27 1137,-294 1167,-309z"/>
    <path class="fil3" d="M11864 420l-727 -112 -34 720c-8,-4 -412,-662 -443,-722l-476 0 -413 2282 739 33c14,-54 54,-297 68,-372l51 -283c4,-25 9,-74 22,-89 11,25 41,65 57,90l347 526c17,27 42,60 55,87l603 37 151 -2197z"/>
    <path class="fil4" d="M8403 296c-33,-2 -662,121 -712,131 -15,3 -29,5 -45,8 -24,4 -30,0 -30,20l249 2159 681 -1 -15 -641c28,-13 421,-86 439,-82l5 698 728 24 -128 -2247c-63,-5 -617,-33 -643,-27l-29 840 -462 70 -38 -952z"/>
    <path class="fil4" d="M16301 441c-6,25 51,475 59,543 63,537 132,1095 188,1630l681 -1 -15 -641c31,-14 421,-87 439,-82l5 698 728 25 -129 -2248 -642 -27 -30 838c-26,9 -440,73 -461,71l-38 -951c-30,-3 -702,127 -785,145z"/>
    <path class="fil5" d="M15143 1406l20 -378c17,-1 429,88 446,97 -73,90 -160,182 -229,267 -7,9 -15,17 -23,27 -14,15 -9,14 -36,10 -57,-7 -125,-12 -178,-23zm-839 1237l728 0 0 -440c144,-9 285,-19 430,-29 72,-5 143,-10 216,-14 68,-4 61,-17 140,-90 20,-19 36,-38 56,-57l293 -280c38,-36 80,-75 117,-114l-45 -927c-18,-18 -59,-41 -80,-57 -140,-99 -314,-211 -446,-309 -22,-15 -20,-16 -52,-16l-1243 0 -114 2333z"/>
    <path class="fil4" d="M25658 894l0 -7c-24,-22 -37,-36 -57,-59l-506 -533c-13,-5 -641,-2 -687,-2 -101,0 -54,-4 -145,88 -21,22 -34,37 -56,61l-705 790c10,12 393,235 441,263 129,76 327,188 445,263l-94 143 -602 -340c-44,84 -101,170 -151,255 -24,40 -143,230 -150,261 26,13 612,479 632,495 19,16 58,53 85,55 91,4 322,-1 422,-1 182,0 385,9 565,0l410 -776c-204,-142 -429,-315 -635,-463 -31,-23 -194,-137 -208,-155l113 -147c37,5 400,260 476,298 28,-22 361,-447 407,-489z"/>
    <path class="fil5" d="M4061 2622l1723 0c-2,-20 -112,-269 -129,-309 -19,-42 -129,-291 -131,-313l-729 -9c-9,-31 -51,-146 -50,-170l593 -54 29 -491c-30,-12 -130,-15 -164,-17 -134,-10 -391,-24 -499,-39l7 -157c38,-20 733,-104 751,-120 18,-28 57,-266 68,-319 14,-68 65,-273 64,-327l-1535 0c-42,185 -76,369 -113,552 -9,44 -19,91 -28,137 -40,189 -30,107 -11,295 6,50 11,99 17,149 23,199 45,396 68,595 10,96 56,543 69,597z"/>
    <path class="fil5" d="M21758 2621l1725 1c-12,-42 -44,-109 -63,-153l-201 -469 -725 -9c-11,-36 -51,-140 -52,-170 67,-5 570,-48 595,-58l29 -492 -663 -50 6 -159 752 -117 132 -647 -1535 -1c-21,71 -93,447 -114,549 -9,48 -18,92 -28,139 -36,181 -33,100 -11,288 6,50 11,102 17,151 22,202 45,396 67,599 13,115 53,517 69,598z"/>
    <path class="fil3" d="M7621 2521c-16,-92 -130,-527 -161,-655l-48 -193c-1,-4 -1,-7 -3,-11 -4,-12 -1,-6 -5,-11l-551 285c-98,50 -69,52 -136,6 -43,-29 -83,-55 -126,-85l-252 -169 21 -535 454 -212c34,-17 35,-19 72,-1 34,17 494,235 528,244l38 -827c-121,-13 -251,-18 -372,-26l-471 -33c-47,-2 -161,74 -203,98l-516 283c-38,20 -29,14 -45,54l-255 651c-21,54 -4,70 20,160l127 471c29,104 26,83 127,172l373 329c34,29 72,60 105,91 32,30 20,25 76,19l1203 -105z"/>
    <path class="fil3" d="M19686 2598c31,4 378,-42 440,-50 145,-17 289,-33 434,-51 94,-12 799,-90 866,-105l-90 -718 -960 113 92 -1405 -871 -96 89 2312z"/>
    <path class="fil2" d="M19075 276l-49 0c-29,12 -485,35 -557,38l80 2290c67,1 180,-19 251,-26 110,-13 725,-75 743,-87 -14,-89 -39,-187 -58,-279l-293 -1383c-39,-184 -82,-370 -117,-553z"/>
   </g>
  </g>
 </g>
</svg>
