<?xml version="1.0" encoding="UTF-8"?>
<!DOCTYPE svg PUBLIC "-//W3C//DTD SVG 1.1//EN" "http://www.w3.org/Graphics/SVG/1.1/DTD/svg11.dtd">
<!-- Creator: CorelDRAW X8 -->
<svg xmlns="http://www.w3.org/2000/svg" xml:space="preserve" width="243.724mm" height="51.5282mm" version="1.1" style="shape-rendering:geometricPrecision; text-rendering:geometricPrecision; image-rendering:optimizeQuality; fill-rule:evenodd; clip-rule:evenodd"
viewBox="0 0 23273 4920"
 xmlns:xlink="http://www.w3.org/1999/xlink">
 <defs>
  <style type="text/css">
   <![CDATA[
    .fil0 {fill:black}
    .fil7 {fill:#ECECEC}
    .fil4 {fill:#F4F4F4}
    .fil6 {fill:#FAFAFA}
    .fil5 {fill:#FBFBFB}
    .fil3 {fill:#FCFCFC}
    .fil2 {fill:#FDFDFD}
    .fil1 {fill:#FEFEFE}
    .fil8 {fill:url(#id0);fill-rule:nonzero}
   ]]>
  </style>
  <linearGradient id="id0" gradientUnits="objectBoundingBox" x1="50.588%" y1="0%" x2="50.588%" y2="100%">
   <stop offset="0" style="stop-opacity:1; stop-color:#EF1C23"/>
   <stop offset="1" style="stop-opacity:1; stop-color:#FBBD10"/>
  </linearGradient>
 </defs>
 <g id="Layer_x0020_1">
  <metadata id="CorelCorpID_0Corel-Layer"/>
  <g id="_1844709804784">
   <path class="fil0" d="M13169 3120c11,-19 36,-39 61,-46l5 47 -66 -1zm-3994 -95c122,7 64,23 83,66l20 59 -105 44 2 -169zm-1168 52c-21,-9 -138,-80 -150,-99l186 -3c-4,42 -17,76 -36,102zm2515 -68l-25 -30 47 -2 -4 -64c26,39 43,79 40,140 -20,-10 -16,-12 -35,-23 -8,54 -28,124 -68,147 -31,-19 -63,-56 -93,-79l-86 -78 224 -11zm-126 -207c124,6 115,54 122,-48 3,-50 14,-136 47,-162 34,15 33,19 34,66 1,49 -6,40 6,82 0,2 1,3 2,5 7,29 -40,99 -56,123l-57 -2c16,5 27,18 40,29l-10 41c-14,-6 -3,8 -20,-14 -17,-23 11,-34 -24,-29 22,26 13,6 -1,68 -40,-14 -55,-60 -86,-84l72 9c-15,-39 -35,-32 -69,-84zm81 -265l77 44c-9,16 4,4 -14,19 -34,29 -94,-20 -104,-45l41 -18zm-2727 -123c54,-23 58,-9 92,17 48,37 55,31 61,75 -63,-7 -139,-51 -153,-92zm2862 -133c-5,19 -137,221 -154,241 -32,-15 -87,-86 -91,-143l245 -98zm-5949 467c-25,-147 -18,-199 15,-347 17,-75 6,-64 128,-128 48,-26 35,-32 38,-91 5,-75 6,-163 18,-237l25 45 70 -26 238 284c22,23 64,68 75,92 -60,35 -163,22 -227,-1 -100,-36 -120,-90 -157,-116l38 288 -77 -28c-33,68 -134,236 -184,265zm3127 -361c-27,-23 -131,-143 -40,-175 43,-16 184,-48 230,-55 -12,24 -170,217 -190,230zm-6742 -184c-3,-51 -4,-104 -5,-155 -2,-73 -16,-85 23,-128 34,20 47,62 109,58 49,-3 70,-30 128,-29 5,91 -135,250 -255,254zm8146 -1029c31,43 88,94 89,180 -23,-6 -299,-82 -318,-103l229 -77zm2165 -571c-1,100 50,591 36,650 -9,37 -59,110 -74,152l-27 -25c-149,-193 -412,-305 -635,-396 -74,-30 -183,-75 -257,-94 -27,21 -86,107 -114,141l-227 289c-29,36 -76,113 -113,138 -12,-14 -23,-36 -26,-57 -4,-31 7,-34 23,-55l-25 9 -4 -32c-35,66 -80,86 -136,129 -252,194 -425,475 -524,786 -28,90 -89,347 -71,444l53 1 -4 73c-24,-8 -41,-31 -72,-41l19 -507 24 9c44,-249 77,-504 116,-757 18,-124 80,-193 124,-308 199,-517 -84,-974 -630,-971 -75,0 -121,11 -164,-53 -26,-39 -64,-88 -83,-128 -7,23 -2,8 -8,18l-750 94c-3,258 -13,718 45,975 18,76 7,79 67,74l-2 168c-4,75 -29,37 -154,58 -216,37 -438,145 -594,294 -35,34 -82,94 -114,121l-172 -187c-121,-148 -290,-221 -493,-214 -61,2 -112,-4 -174,5 -193,27 -80,69 -213,-17 -23,-15 -47,-28 -75,-40 -51,-24 -106,-51 -166,-65 -146,-32 -154,-17 -205,-27 -39,-8 -104,-57 -151,-74 -123,95 -55,111 -233,80 -47,-9 -254,-50 -285,-45 -7,56 -48,334 -66,360 -83,-43 -441,-331 -508,-404 -8,18 11,-3 -7,24l-521 13c-20,-260 -88,-434 -205,-636 -61,-107 -133,-179 -246,-250 -288,-179 -756,-196 -1140,-139 -64,10 -238,36 -283,57 -227,106 -410,241 -641,356 -80,40 -393,192 -493,159 -25,-8 -100,-37 -118,-51 -60,-48 -195,-212 -247,-246 -62,193 -108,402 -160,599 -54,199 -20,208 -71,212 -59,3 -126,-9 -185,-12 8,29 371,610 428,687 20,28 95,102 97,121 10,72 -34,308 -33,406 99,-18 255,-86 358,-121 19,-7 100,-46 117,-28 12,14 127,1097 142,1216 6,47 23,47 32,81 24,82 -22,247 22,311 121,177 279,323 426,477l221 226c74,80 120,173 193,253 28,-36 202,-952 240,-1136 34,-165 27,-589 39,-783 68,-17 133,-34 199,-57 37,-13 163,-68 184,-70 27,442 153,838 499,1077 127,88 192,115 369,153 245,55 426,59 652,-67 50,-28 40,-19 94,0 178,60 383,66 557,7 63,-22 146,-83 176,-69 15,6 75,35 86,43 24,16 32,60 41,89 37,1 38,-14 70,4 52,28 182,157 238,203 57,46 34,46 132,48 108,1 195,-37 275,-80l215 -142c15,30 40,58 62,87 37,52 17,40 84,65 115,41 243,75 370,36 51,-16 54,-30 113,-32 93,-4 184,-9 278,-12 19,-59 41,-121 62,-182 7,-21 12,-29 18,-43l42 -140c-49,-13 -75,-11 -90,-60 -11,-38 -25,-74 -30,-110 47,58 82,108 131,157 353,353 866,349 1298,140 246,-119 110,-139 304,-31 44,24 86,39 137,53 109,28 226,23 334,-1 83,-19 196,-75 264,-115 126,-76 124,-110 202,-168 105,104 298,216 484,276 479,152 1089,34 1441,-321 69,-69 106,-154 159,-214 13,18 5,18 14,33 15,28 -5,5 26,21l-152 498c153,15 311,19 465,30 111,8 261,101 351,145l497 250c52,25 113,65 168,80l-48 -508 241 -122 18 -518 45 93c14,31 30,62 46,91 92,172 222,297 399,394 70,37 103,55 189,74 263,59 409,93 668,-16 118,-50 58,-64 188,-24 219,67 463,47 651,-60 88,-49 233,-174 269,-260 26,-64 50,-125 76,-188 19,-46 66,-147 73,-189l-51 -42c16,-35 46,-79 67,-115 48,-84 153,-290 158,-379l-702 -300c-43,82 -93,168 -154,239 -4,5 -8,10 -13,14 -13,12 -3,5 -15,11 -36,-83 -12,-227 6,-313 29,-138 31,-95 169,-181l36 -632c-91,-81 -201,-144 -296,-220l-270 -232 6 29c-122,7 -248,8 -371,11 -56,2 -286,0 -338,12 -26,6 -8,1 -19,6l-40 126c-278,48 -392,124 -541,272 -52,51 -98,104 -136,170 -18,31 -13,40 -52,50 -60,16 -275,74 -324,75 -4,-115 -29,-212 -85,-297 -109,-168 -274,-229 -466,-280 -213,-55 -168,25 -298,-75l-413 -333c-72,-57 -137,-110 -207,-167 -47,-38 -163,-142 -208,-164z"/>
   <path class="fil0" d="M22392 4539l16 15 -48 25 67 149 -34 29c-31,-73 -44,-101 -40,-192l39 -9 0 -17zm0 0l-68 -49c-27,-23 -14,3 -13,-26l71 -7 10 82zm-1533 -605c59,-43 98,-21 177,-14 -9,36 -32,93 -57,115 -49,-14 -107,-71 -120,-101zm215 -10l-30 -2 18 -83c19,12 24,12 25,33 0,1 -1,21 -2,23l-11 29zm1662 -358l83 13 -6 69c-21,-11 -23,-20 -39,-36 -21,-22 -26,-20 -38,-46zm-2805 -585l46 -4 -2 -60c29,28 41,85 42,136l-35 -23c-12,49 -21,94 -53,132l-11 12c-1,0 -2,2 -4,3 -31,-21 -166,-131 -177,-158l219 -8c-11,-19 -13,-14 -25,-30zm55 -115l-56 -1c30,15 42,33 32,72 -50,-26 -13,-33 -41,-46 -3,9 23,22 -14,68 -30,-17 -60,-59 -79,-81l70 8c-18,-44 -49,-52 -67,-84l118 17c5,-101 12,-147 45,-228 66,21 30,79 45,147 6,30 6,23 -17,69 -12,23 -21,40 -36,59zm-115 -313l43 -16c16,12 53,36 75,46 -26,36 -52,32 -91,4 -19,-14 -23,-30 -27,-34zm15 -31c-35,-29 -70,-80 -86,-141l248 -102c-8,21 -137,229 -162,243zm1781 -475l-29 -165 104 -14c-9,39 -55,161 -75,179zm950 -104c11,-19 30,-34 42,-48 21,-25 23,-45 56,-29 -13,35 -62,59 -98,77zm-6106 -1219c36,-4 85,14 119,21 -11,25 -27,44 -41,67 -32,51 -14,24 -65,41 -2,48 7,53 -23,86l10 -215zm6762 3430l0 -136c-14,-30 -17,-82 -26,-120 -20,-78 -82,-255 -121,-312 -141,-17 -97,-15 -178,-80 -49,-38 -101,-67 -172,-86 -37,-10 -74,-15 -114,-16 -68,0 -59,9 -102,-26 -31,-25 -130,-97 -143,-123 40,-13 148,-49 186,-72 8,-5 6,-4 11,-9 -74,-70 -277,-182 -364,-257 11,-25 66,-92 88,-121 125,-163 228,-348 307,-542 19,-47 39,-118 62,-155 48,-80 121,-183 130,-295 -39,114 -92,160 -202,209l19 38c-24,-6 -51,-11 -66,-24l37 -28c5,-12 78,-60 108,-90 39,-40 63,-112 93,-143 -11,-25 -18,-26 -35,-41l14 -42c-41,-20 -76,-49 -112,-74l-106 -81 31 -255c-102,-19 -156,-24 -259,-3 -37,8 -40,-9 -63,-27 -27,6 -52,24 -75,38 -47,-19 40,23 -13,-8 0,0 1,-4 -18,-9 -23,-6 -93,12 -118,17 -245,50 -345,189 -482,332 -48,51 -24,41 -26,109 -1,26 -37,97 -45,145 -14,81 0,114 1,185 -185,-198 -377,-171 -456,-204 -23,-10 -44,-25 -73,-32l-24 30 -86 -5c-12,13 6,1 -6,5 -23,-21 -33,-26 -52,-40 9,-174 18,-260 -71,-393 -69,-103 -138,-159 -252,-229 -146,-91 -322,-170 -488,-232 -49,-18 -132,-53 -177,-62 -45,55 -388,506 -430,540 9,-111 28,-115 27,-271 -1,-244 -78,-501 -238,-657 -51,-49 -109,-91 -162,-137 -56,-48 -99,-79 -180,-119 -307,-151 -680,-175 -1028,-141 -296,28 -589,214 -839,357 -46,25 -106,-51 -197,-78 -96,-30 -165,-18 -259,3l-15 276 46 -20c-10,26 -26,37 -36,64 -8,-10 -3,-3 -9,-17 -5,-11 -1,-6 -7,-19 -43,18 -110,114 -128,162 -55,144 -1,133 46,212 28,-11 15,-16 34,-14l10 1c28,-59 -26,15 0,-41 5,-13 22,-28 28,-40 2,34 -6,41 -6,58l1 69c-18,-10 -14,-9 -24,-29 -15,6 -22,6 -44,4 -8,27 -20,34 -31,60 -28,-5 -7,11 -27,-21l12 40c-41,-8 -70,-66 -93,-102 -1,34 5,59 3,94 -14,224 11,412 124,605 95,163 252,315 468,382l141 897 65 1 47 695 39 11c2,191 -38,63 129,322 83,129 482,731 554,824 22,-48 225,-889 257,-1026 7,-29 4,-45 29,-59 42,-22 43,-9 63,11 89,-30 21,21 116,-15 163,-62 317,-145 453,-252 21,-16 47,-41 68,-54 2,1 3,1 4,3l115 156c141,163 276,268 489,360 214,92 475,127 716,100 87,-9 166,-33 245,-42 15,31 50,79 73,97 52,-15 174,-105 205,-109 39,-4 177,98 193,122 39,-6 15,-14 41,-11 9,0 29,12 43,16 103,-81 118,-136 160,-252 1,-1 3,-1 4,0l28 1c1,-24 6,-53 -7,-70 -20,-26 -18,18 -26,-50l-56 26c0,-32 -7,-53 26,-54 34,0 17,5 28,11l23 10 10 47 126 -16c-8,25 -61,120 -85,139 -16,-10 -19,-15 -34,-25 -3,3 -4,6 -8,15 -47,131 -19,123 -161,231 90,-35 157,-118 215,-177 25,-26 77,-59 110,-87 21,-18 31,-26 54,-47 17,-16 36,-34 52,-46 59,107 133,218 198,311 129,181 272,324 442,460 26,21 37,45 57,72 63,84 174,211 276,241 -38,-47 -82,-47 -116,-116 -34,-67 -34,-111 -34,-195l-74 10c6,-18 22,-37 33,-52 18,-27 19,-30 60,-26 6,-28 11,-41 29,-51 1,2 2,3 2,6 6,64 -2,36 -37,53l-10 52 23 6c2,1 4,2 6,2l10 6c5,73 22,125 57,179 18,29 83,112 111,127l68 -28 40 33c50,-21 110,-84 164,-109l168 125c74,-36 127,-165 151,-247 11,-38 45,-39 79,-55l-6 -106c2,0 19,-6 19,-6 39,-14 55,-75 80,-141 31,-81 39,-178 52,-211z"/>
   <path class="fil1" d="M4663 2748c50,-29 151,-197 184,-265l77 28 -38 -288c37,26 57,80 157,116 64,23 167,36 227,1 -11,-24 -53,-69 -75,-92l-238 -284 -70 26 -25 -45c-12,74 -13,162 -18,237 -3,59 10,65 -38,91 -122,64 -111,53 -128,128 -33,148 -40,200 -15,347z"/>
   <path class="fil2" d="M1048 2203c120,-4 260,-163 255,-254 -58,-1 -79,26 -128,29 -62,4 -75,-38 -109,-58 -39,43 -25,55 -23,128 1,51 2,104 5,155z"/>
   <path class="fil2" d="M10396 2802c34,52 54,45 69,84l-72 -9c31,24 46,70 86,84 14,-62 23,-42 1,-68 35,-5 7,6 24,29 17,22 6,8 20,14l10 -41c-13,-11 -24,-24 -40,-29l57 2c16,-24 63,-94 56,-123 -1,-2 -2,-3 -2,-5 -12,-42 -5,-33 -6,-82 -1,-47 0,-51 -34,-66 -33,26 -44,112 -47,162 -7,102 2,54 -122,48z"/>
   <path class="fil2" d="M19986 2866c15,-19 24,-36 36,-59 23,-46 23,-39 17,-69 -15,-68 21,-126 -45,-147 -33,81 -40,127 -45,228l-118 -17c18,32 49,40 67,84l-70 -8c19,22 49,64 79,81 37,-46 11,-59 14,-68 28,13 -9,20 41,46 10,-39 -2,-57 -32,-72l56 1z"/>
   <path class="fil1" d="M7790 2387c20,-13 178,-206 190,-230 -46,7 -187,39 -230,55 -91,32 13,152 40,175z"/>
   <path class="fil1" d="M8965 1251c19,21 295,97 318,103 -1,-86 -58,-137 -89,-180l-229 77z"/>
   <path class="fil2" d="M19737 3019c11,27 146,137 177,158 2,-1 3,-3 4,-3l11 -12c32,-38 41,-83 53,-132l35 23c-1,-51 -13,-108 -42,-136l2 60 -46 4c12,16 14,11 25,30l-219 8z"/>
   <path class="fil2" d="M10544 2977l-47 2 25 30 -224 11 86 78c30,23 62,60 93,79 40,-23 60,-93 68,-147 19,11 15,13 35,23 3,-61 -14,-101 -40,-140l4 64z"/>
   <path class="fil1" d="M10367 2379c4,57 59,128 91,143 17,-20 149,-222 154,-241l-245 98z"/>
   <path class="fil1" d="M19886 2522c25,-14 154,-222 162,-243l-248 102c16,61 51,112 86,141z"/>
   <path class="fil1" d="M20859 3934c13,30 71,87 120,101 25,-22 48,-79 57,-115 -79,-7 -118,-29 -177,14z"/>
   <path class="fil3" d="M9173 3194l105 -44 -20 -59c-19,-43 39,-59 -83,-66l-2 169z"/>
   <path class="fil2" d="M16501 939c30,-33 21,-38 23,-86 51,-17 33,10 65,-41 14,-23 30,-42 41,-67 -34,-7 -83,-25 -119,-21l-10 215z"/>
   <path class="fil2" d="M8007 3077c19,-26 32,-60 36,-102l-186 3c12,19 129,90 150,99z"/>
   <path class="fil3" d="M21667 2047c20,-18 66,-140 75,-179l-104 14 29 165z"/>
   <path class="fil2" d="M7750 2414c14,41 90,85 153,92 -6,-44 -13,-38 -61,-75 -34,-26 -38,-40 -92,-17z"/>
   <path class="fil4" d="M22392 4539l0 17 -39 9c-4,91 9,119 40,192l34 -29 -67 -149 48 -25 -16 -15z"/>
   <path class="fil3" d="M10436 2555c10,25 70,74 104,45 18,-15 5,-3 14,-19l-77 -44 -41 18z"/>
   <path class="fil3" d="M19871 2553c4,4 8,20 27,34 39,28 65,32 91,-4 -22,-10 -59,-34 -75,-46l-43 16z"/>
   <path class="fil5" d="M22392 4539l-10 -82 -71 7c-1,29 -14,3 13,26l68 49z"/>
   <path class="fil5" d="M22736 3566c12,26 17,24 38,46 16,16 18,25 39,36l6 -69 -83 -13z"/>
   <path class="fil6" d="M21085 3895c1,-2 2,-22 2,-23 -1,-21 -6,-21 -25,-33l-18 83 30 2 11 -29z"/>
   <path class="fil7" d="M22617 1943c36,-18 85,-42 98,-77 -33,-16 -35,4 -56,29 -12,14 -31,29 -42,48z"/>
   <path class="fil6" d="M13169 3120l66 1 -5 -47c-25,7 -50,27 -61,46z"/>
  </g>
  <path class="fil8" d="M640 1117c100,41 213,44 341,10 128,-33 256,-81 385,-143 128,-63 253,-130 374,-205 121,-74 227,-133 317,-176 0,0 48,-9 144,-26 97,-18 210,-29 341,-33 131,-4 262,7 392,33 131,26 231,80 301,164 0,0 20,36 62,107 42,71 73,166 94,283 22,118 18,252 -10,403 -29,152 -114,308 -257,470 0,0 -24,30 -71,89 -47,59 -120,127 -220,203 -100,75 -226,147 -379,214 -154,68 -336,110 -548,126l-33 1000 -68 332 -36 -49 -42 81c0,0 -20,-20 -60,-62 -40,-42 -84,-94 -132,-156 0,0 -1,-44 -4,-132 -2,-87 -17,-156 -44,-204l-171 -1482c-2,-22 -35,-21 -98,4 -63,24 -112,8 -145,-49 0,0 -13,-4 -37,-12 -25,-8 -61,-4 -109,12 0,0 1,-14 3,-42 2,-29 21,-45 55,-51 0,0 -32,-4 -97,-10 -65,-7 -120,-48 -167,-124 0,0 8,1 23,2 16,2 21,-12 16,-42 0,0 -34,-39 -100,-118 -67,-78 -82,-186 -45,-324 0,0 6,7 17,19 11,12 23,14 33,6 0,0 -6,-16 -16,-47 -11,-31 -14,-55 -9,-71zm1346 251l-73 952c0,0 50,-26 150,-77 101,-51 210,-123 330,-217 119,-93 228,-203 325,-330 97,-127 143,-265 138,-417 0,0 -24,-26 -70,-79 -47,-52 -131,-64 -252,-34 -2,-3 -29,5 -80,24 -51,19 -108,41 -171,65 -63,24 -124,48 -183,71 -58,23 -97,37 -114,42z"/>
  <path id="1" class="fil8" d="M3917 1794c33,-33 50,-73 51,-122 0,-49 1,-73 1,-73 -53,-24 -68,-75 -45,-152 23,-77 35,-115 35,-115 14,38 50,83 108,136 57,52 116,104 177,155 60,52 115,95 164,130 48,35 72,53 72,53l-12 214 -101 57c-89,283 -122,502 -100,654 23,152 65,263 127,330 61,67 126,106 194,115 67,10 101,15 101,15 63,-14 125,-49 186,-104 61,-55 113,-113 158,-174 44,-61 81,-116 109,-166 28,-50 42,-75 42,-75 -47,154 -125,310 -234,466 -109,156 -164,235 -164,235l235 -199 -141 349c-70,81 -146,127 -226,139 -80,12 -154,8 -221,-12 -68,-20 -124,-45 -169,-75 -44,-30 -67,-44 -67,-44 -182,156 -342,219 -481,188 -139,-31 -209,-47 -209,-47 -152,-67 -260,-169 -325,-305 -65,-136 -105,-274 -121,-411 -15,-138 -18,-259 -8,-363 10,-103 15,-156 15,-156 34,-248 97,-421 190,-520 93,-99 187,-156 284,-174 96,-18 183,-14 260,12 76,26 115,39 115,39zm-527 745c10,21 18,69 24,143 6,75 9,112 9,112 15,73 52,121 108,146 57,24 118,36 180,38 63,2 120,-4 170,-14 50,-11 75,-16 75,-16 -30,-6 -53,-41 -67,-106 -13,-64 -17,-135 -12,-212 6,-77 21,-147 44,-209 23,-62 58,-95 102,-101 -56,19 -95,0 -116,-57 -22,-56 -32,-85 -32,-85l-335 8c-80,27 -125,93 -135,197 -10,103 -15,156 -15,156z"/>
  <path id="2" class="fil8" d="M5222 3620c0,0 1,2 2,8 1,5 17,4 46,-4 0,0 13,-42 39,-126 27,-83 43,-190 48,-320 0,0 0,0 0,0 -17,-18 -36,3 -58,65 -23,62 -33,87 -32,73 -4,-16 4,-73 24,-172 20,-99 37,-160 51,-184 3,-3 3,-7 -1,-12 -8,-122 -15,-243 -22,-363 -7,-120 -27,-272 -59,-455 -3,-19 -14,-52 -36,-100 -21,-47 -49,-64 -85,-50l91 -162 -37 -73 15 -85 93 16 -73 -154 224 118 201 8c0,0 41,18 125,54 83,37 121,143 115,318 0,0 54,-42 164,-127 109,-85 206,-120 291,-104 0,0 30,-1 90,-4 60,-2 115,29 165,94 0,0 20,20 60,62 40,42 86,97 137,164 50,68 97,144 141,229 43,85 70,170 80,253 0,0 -14,47 -42,142 -28,95 -57,200 -88,316 -31,116 -58,225 -80,326 -21,101 -27,158 -17,172 -16,100 11,147 83,142l-143 81 -38 113 -181 8c0,0 -7,10 -21,28 -15,19 -44,21 -88,4 0,0 -38,-50 -112,-151 -74,-102 -109,-167 -103,-197 0,0 6,-22 19,-65 13,-43 19,-79 19,-109l42 41 147 -503 24 272c0,0 20,-61 60,-184 39,-123 41,-244 5,-363 0,0 -30,-64 -92,-192 -61,-128 -128,-209 -201,-241l-158 -12c0,0 -31,36 -92,107 -61,71 -125,239 -193,504l103 -129c0,0 -9,27 -28,83 -19,55 -36,118 -51,188 -14,70 -23,137 -25,200 -2,64 15,105 50,124 -25,32 -2,87 67,166 70,78 95,138 76,178 0,0 -28,36 -85,107 -57,72 -126,128 -207,168 -81,38 -113,48 -97,31 15,-18 23,-27 23,-27l-82 -117 -25 77c0,0 0,-30 -2,-91 -1,-61 -19,-95 -55,-103 0,0 -12,-3 -37,-9 -24,-5 -46,5 -66,29 -34,-22 -79,-29 -134,-22 -54,6 -103,15 -146,26l172 -85z"/>
  <path id="3" class="fil8" d="M8283 1806c15,-49 14,-89 -5,-120 -18,-31 -28,-46 -28,-46 26,-17 43,-78 50,-185 6,-106 9,-220 8,-340 -2,-120 -5,-229 -10,-328 -4,-98 -7,-148 -7,-148 -21,60 -35,141 -41,243 -5,103 -8,154 -8,154 -16,-43 -27,-116 -33,-218 -6,-103 -10,-205 -13,-308 -2,-103 -3,-194 -2,-273 1,-80 2,-120 2,-120 9,35 61,121 156,257 95,136 248,201 461,193 160,-3 258,49 294,155 36,107 14,237 -68,391 -38,0 -65,57 -82,172 -18,115 -26,172 -26,172 -24,-21 -33,-52 -28,-93 5,-40 8,-60 8,-60 -31,67 -56,181 -73,342 -17,160 -31,324 -40,490 -10,166 -15,312 -18,437 -3,126 -4,188 -4,188 -23,49 -9,110 44,185 53,74 80,111 80,111 0,0 14,-6 43,-18 29,-12 34,3 14,46 -20,46 22,79 127,100 106,20 158,30 158,30l-187 32c24,54 67,83 129,87 62,4 94,6 94,6 -67,57 -107,79 -121,65 -14,-13 -21,-20 -21,-20 29,73 77,101 143,85 67,-16 100,-24 100,-24 -23,64 -73,116 -151,154 -77,38 -116,56 -116,56 -87,22 -158,18 -214,-10 -56,-28 -100,-64 -131,-107 -32,-43 -53,-85 -64,-126 -11,-40 -16,-60 -16,-60 -236,208 -446,336 -630,386 -183,50 -341,49 -472,-4 -132,-52 -237,-146 -314,-279 -78,-134 -127,-282 -149,-446 -21,-163 -13,-329 22,-498 36,-168 101,-316 195,-441 95,-126 220,-217 377,-273 157,-57 346,-55 567,8zm-655 919c4,-16 20,-41 48,-73 27,-32 41,-49 41,-49 -53,79 -76,158 -69,237 7,80 10,120 10,120 2,-46 14,-81 37,-106 22,-24 34,-36 34,-36 -45,116 -53,203 -25,259 28,57 67,96 118,118 51,21 102,32 152,30 51,-2 76,-2 76,-2 45,-8 85,-38 119,-91 34,-53 62,-109 84,-168 21,-59 36,-114 47,-162 10,-49 15,-73 15,-73 -19,11 -41,28 -66,51 -25,22 -37,34 -37,34l88 -117c4,-260 -37,-424 -125,-494 -88,-71 -132,-106 -132,-106 28,25 43,53 42,85 -1,33 -1,49 -1,49 -38,-70 -84,-105 -138,-105 -54,0 -81,0 -81,0 -60,5 -108,40 -141,103 -33,63 -57,132 -71,206 -15,75 -22,142 -23,201 -2,59 -2,89 -2,89z"/>
  <path id="4" class="fil8" d="M9678 2510c0,0 -19,20 -56,59 -38,39 -56,72 -55,99 0,0 3,-36 11,-109 7,-73 29,-162 67,-267 38,-106 96,-216 173,-330 78,-115 190,-213 336,-294 0,0 32,-50 97,-150 64,-100 71,-189 19,-267 0,0 39,14 118,42 79,29 165,64 259,106 94,42 179,88 256,139 77,52 113,102 108,150 0,0 -43,21 -129,61 -87,40 -136,92 -147,154 0,0 35,12 106,34 71,23 151,64 241,122 90,58 176,137 259,237 82,99 137,226 163,380 0,0 5,38 14,114 10,75 3,165 -21,269 -24,104 -75,211 -152,320 -78,109 -205,198 -379,265 -255,76 -477,87 -667,33 -189,-55 -340,-144 -452,-270 -112,-125 -183,-271 -214,-435 -30,-165 -15,-318 45,-462zm450 284c5,-16 25,-39 61,-69 37,-30 55,-45 55,-45 -68,73 -100,146 -93,219 6,73 9,109 9,109 0,-40 15,-72 46,-95 30,-23 45,-34 45,-34 -58,105 -70,184 -37,237 33,52 82,89 145,109 64,20 127,30 191,28 64,-1 96,-2 96,-2 61,-8 114,-36 158,-85 44,-48 81,-99 110,-154 29,-54 52,-103 66,-147 14,-45 22,-67 22,-67 -21,8 -49,23 -83,44 -34,22 -51,33 -51,33l114 -110c16,-240 -30,-392 -139,-457 -108,-65 -162,-97 -162,-97 34,24 53,50 56,77 4,26 6,40 6,40 -48,-65 -108,-96 -182,-93 -73,2 -110,4 -110,4 -80,6 -141,37 -184,95 -42,58 -74,122 -95,190 -21,69 -34,132 -38,187 -4,55 -6,83 -6,83z"/>
  <path id="5" class="fil8" d="M11720 1899c0,0 6,-27 18,-81 12,-54 -21,-119 -98,-195l42 -81c0,0 31,25 94,73 62,49 96,96 100,142 0,0 0,-27 1,-81 1,-54 -23,-101 -72,-142l-5 -85c0,0 58,47 173,140 115,93 229,129 340,107 0,0 57,15 170,45 114,30 169,89 167,178 0,0 -2,34 -7,101 -4,68 -59,168 -165,300l-12 304c0,0 66,-52 199,-156 133,-104 262,-155 385,-152 0,0 26,-6 76,-18 50,-12 108,-27 173,-43 65,-16 127,-31 186,-44 59,-14 97,-21 113,-21 0,0 -60,22 -179,65 -120,43 -203,92 -250,146 0,0 39,-22 115,-67 77,-44 165,-65 264,-63l140 81c14,11 -50,23 -189,35 -139,12 -233,37 -281,75 0,0 58,-13 176,-39 118,-26 196,-22 236,10 0,0 -45,19 -134,55 -89,36 -188,85 -295,144 -108,59 -205,125 -292,196 -86,72 -129,144 -127,217l-79 283c0,0 13,12 41,35 28,22 40,71 36,143l142 0 -6 175c0,0 -46,22 -138,68 -92,46 -135,95 -130,146 0,0 -64,-32 -193,-97 -128,-65 -236,-100 -324,-105l28 -89c0,0 9,3 28,10 18,6 40,-8 66,-43 0,0 -15,-31 -44,-93 -29,-62 -26,-119 9,-170 0,0 -15,13 -45,38 -29,26 -46,61 -50,104 0,0 -12,-51 -38,-152 -26,-101 -15,-223 31,-367 0,0 -9,8 -28,23 -19,14 -33,45 -43,91 0,0 1,-80 2,-239 0,-160 -18,-266 -55,-320 0,0 -13,21 -39,63 -26,42 -24,69 4,83 0,0 -9,11 -29,34 -20,23 -22,39 -8,47 0,0 -24,-50 -72,-150 -47,-100 -41,-246 18,-437l-11 -81 -58 52c-29,27 -35,2 -18,-77 17,-78 -3,-119 -59,-121z"/>
  <path id="6" class="fil8" d="M14457 1794c33,-33 50,-73 51,-122 1,-49 1,-73 1,-73 -52,-24 -67,-75 -44,-152 23,-77 35,-115 35,-115 14,38 50,83 107,136 58,52 117,104 177,155 61,52 115,95 164,130 49,35 73,53 73,53l-13 214 -100 57c-89,283 -123,502 -100,654 23,152 65,263 126,330 62,67 126,106 194,115 68,10 102,15 102,15 63,-14 124,-49 185,-104 61,-55 114,-113 158,-174 45,-61 81,-116 109,-166 28,-50 43,-75 43,-75 -47,154 -125,310 -234,466 -109,156 -164,235 -164,235l235 -199 -142 349c-70,81 -145,127 -225,139 -81,12 -154,8 -222,-12 -67,-20 -123,-45 -168,-75 -45,-30 -67,-44 -67,-44 -182,156 -343,219 -482,188 -139,-31 -208,-47 -208,-47 -152,-67 -260,-169 -325,-305 -65,-136 -105,-274 -121,-411 -16,-138 -18,-259 -8,-363 10,-103 15,-156 15,-156 34,-248 97,-421 190,-520 92,-99 187,-156 283,-174 97,-18 183,-14 260,12 77,26 115,39 115,39zm-527 745c10,21 18,69 24,143 6,75 9,112 9,112 16,73 52,121 109,146 57,24 117,36 180,38 63,2 120,-4 170,-14 50,-11 75,-16 75,-16 -31,-6 -54,-41 -67,-106 -14,-64 -18,-135 -12,-212 6,-77 20,-147 44,-209 23,-62 57,-95 102,-101 -57,19 -96,0 -117,-57 -21,-56 -32,-85 -32,-85l-334 8c-80,27 -126,93 -136,197 -10,103 -15,156 -15,156z"/>
  <path id="7" class="fil8" d="M17172 1636c0,0 -7,19 -20,58 -13,39 -40,62 -82,67 0,0 -24,-6 -72,-18 -48,-12 -99,-41 -152,-85 -53,-45 -98,-110 -137,-197 -40,-86 -49,-205 -31,-356 0,0 -3,-41 -11,-123 -8,-83 -31,-136 -71,-160 0,0 21,14 63,44 42,30 62,57 62,81 10,30 17,35 20,14 3,-20 1,-47 -5,-81 -5,-34 -15,-65 -29,-95 -14,-30 -32,-40 -56,-32 0,0 26,11 78,34 52,23 85,74 99,152l79 -113 9 133c0,0 32,-20 98,-62 65,-42 143,-90 234,-144 92,-54 189,-106 293,-156 104,-50 196,-83 276,-99 5,-11 119,-17 341,-18 221,-2 415,46 581,143 0,0 55,45 164,136 109,91 156,256 141,496 0,0 -6,27 -16,81 -10,54 -32,120 -63,198 -32,79 -79,162 -142,251 -63,90 -149,171 -258,243 0,0 50,11 148,33 98,22 191,69 280,142 0,0 -29,-13 -87,-39 -58,-26 -102,-34 -131,-26 0,0 31,11 92,34 61,23 104,67 127,132 39,178 -25,386 -190,625 -165,239 -385,405 -661,496 0,0 27,-14 81,-44 54,-30 87,-69 100,-118 0,0 -24,21 -73,63 -49,42 -108,75 -177,99l68 -85c0,0 -20,14 -60,41 -39,27 -75,38 -106,32 0,0 17,-9 50,-28 34,-19 48,-38 42,-57l-114 49 52 -73 -175 93 71 -113c0,0 25,-18 75,-55 50,-36 108,-81 173,-134 66,-52 130,-106 192,-162 61,-55 106,-101 132,-139 98,-114 143,-216 137,-308 -6,-92 -43,-158 -111,-198 -67,-41 -154,-50 -260,-27 -106,23 -209,93 -307,209l-53 -12c0,0 -20,-29 -59,-85 -39,-57 -52,-108 -39,-154 0,0 3,12 10,36 7,24 22,35 44,33 0,0 2,-28 6,-83 4,-56 -8,-128 -35,-217 32,40 85,53 158,36 73,-16 148,-46 224,-89 77,-43 148,-95 214,-156 67,-60 112,-117 136,-168 0,0 14,-30 40,-89 27,-59 42,-123 46,-192 3,-69 -18,-130 -63,-182 -45,-53 -141,-74 -287,-63 0,0 -68,14 -205,40 -137,27 -243,89 -317,187l-31 1372 50 -97 -38 1021 64 -102 -105 422 -133 -199 21 -352 -62 308 -90 -1361 -26 628 -205 -1308 -26 -8z"/>
  <path id="8" class="fil8" d="M19113 2510c0,0 -19,20 -56,59 -38,39 -56,72 -55,99 0,0 3,-36 11,-109 7,-73 29,-162 67,-267 38,-106 96,-216 173,-330 78,-115 190,-213 336,-294 0,0 32,-50 97,-150 65,-100 71,-189 19,-267 0,0 39,14 118,42 79,29 165,64 259,106 94,42 180,88 256,139 77,52 113,102 108,150 0,0 -43,21 -129,61 -87,40 -136,92 -147,154 0,0 35,12 106,34 71,23 151,64 241,122 90,58 176,137 259,237 82,99 137,226 163,380 0,0 5,38 14,114 10,75 3,165 -21,269 -24,104 -75,211 -152,320 -78,109 -205,198 -379,265 -255,76 -477,87 -667,33 -189,-55 -340,-144 -452,-270 -112,-125 -183,-271 -214,-435 -30,-165 -15,-318 45,-462zm450 284c5,-16 25,-39 61,-69 37,-30 55,-45 55,-45 -68,73 -99,146 -93,219 6,73 9,109 9,109 0,-40 15,-72 46,-95 30,-23 45,-34 45,-34 -58,105 -70,184 -37,237 33,52 82,89 145,109 64,20 127,30 191,28 64,-1 96,-2 96,-2 61,-8 114,-36 158,-85 44,-48 81,-99 110,-154 29,-54 52,-103 66,-147 15,-45 22,-67 22,-67 -21,8 -49,23 -83,44 -34,22 -51,33 -51,33l114 -110c16,-240 -30,-392 -139,-457 -108,-65 -162,-97 -162,-97 34,24 53,50 57,77 3,26 5,40 5,40 -48,-65 -108,-96 -182,-93 -73,2 -110,4 -110,4 -80,6 -141,37 -183,95 -43,58 -75,122 -96,190 -21,69 -33,132 -38,187 -4,55 -6,83 -6,83z"/>
  <path id="9" class="fil8" d="M20830 2162c0,0 26,13 79,39 52,25 95,36 128,34 0,0 29,6 86,18 58,12 96,35 114,67 0,0 11,28 32,85 21,57 30,97 26,121 -6,25 -13,17 -20,-22 -8,-39 -21,-65 -42,-79 -16,11 1,77 52,199 51,121 118,221 200,299 13,-10 23,-18 28,-24 6,-6 16,-15 30,-28 16,-19 31,-41 46,-65 -2,8 -3,14 -2,16 0,3 1,4 1,4 20,-8 50,-46 87,-115 37,-69 74,-143 110,-221 35,-78 66,-150 92,-215 25,-64 38,-97 38,-97 24,-59 30,-103 19,-131 -11,-29 -17,-43 -17,-43 -24,-32 -28,-63 -10,-91 17,-28 25,-43 25,-43l-50 -40 87 8 -8 -61c69,-75 144,-117 226,-123 81,-7 122,-10 122,-10 24,0 56,-22 94,-65 38,-43 58,-65 58,-65l-53 105 82 -48 -47 85c13,-16 28,-22 47,-16 19,5 28,8 28,8 -16,0 -29,9 -38,28 -9,19 -13,28 -13,28 -8,49 -26,95 -53,138 -28,43 -42,65 -42,65l63 -8 -92 57c-74,237 -197,464 -366,680 -170,216 -266,336 -289,360l116 81c-42,16 -36,59 20,130 55,70 124,144 206,223 81,78 160,147 237,208 77,61 116,91 116,91 55,57 105,83 149,77 45,-5 67,-8 67,-8 56,-16 96,-9 122,22 25,31 38,47 38,47l86 -49 -73 106 82 12c45,113 44,219 -4,318 -48,98 -72,147 -72,147 -17,33 -11,79 17,140 29,61 43,91 43,91l-103 -101 9 117 -77 -89c14,19 10,39 -10,61 -21,22 -31,32 -31,32 10,-18 7,-38 -9,-56 -17,-19 -25,-29 -25,-29 -58,-26 -104,-64 -140,-113 -36,-49 -53,-73 -53,-73l-29 77 -6 -130c-212,-153 -392,-352 -539,-597 -146,-244 -243,-419 -291,-524l6 69c0,0 -12,-17 -35,-51 -23,-34 -46,-45 -68,-34l-1 -9c-55,84 -124,175 -207,274 -83,99 -175,178 -275,241l-6 81 -18 -53c0,0 -13,15 -38,45 -26,30 -55,52 -89,68 0,0 -6,6 -17,17 -11,10 -14,22 -10,36 0,0 -6,-7 -20,-22 -14,-15 -15,-28 -4,-39l-55 53 9 -77 -69 61c0,0 10,-20 30,-59 20,-39 24,-68 13,-87 0,0 -15,-34 -43,-103 -29,-69 -27,-140 6,-213l58 -4 -50 -73 60 37c0,0 9,-10 27,-29 19,-18 46,-20 82,-4 0,0 14,3 43,8 28,6 62,-9 101,-44 0,0 38,-28 116,-85 77,-57 146,-112 206,-166l41 -49c-78,-129 -173,-283 -283,-461 -110,-179 -183,-278 -218,-300 0,0 8,0 24,2 16,1 27,5 34,10 0,0 -7,-6 -22,-18 -14,-12 -29,-20 -44,-22l31 -13 -19 -32z"/>
 </g>
</svg>
