<?xml version="1.0" encoding="UTF-8"?>
<!DOCTYPE svg PUBLIC "-//W3C//DTD SVG 1.1//EN" "http://www.w3.org/Graphics/SVG/1.1/DTD/svg11.dtd">
<!-- Creator: CorelDRAW X8 -->
<svg xmlns="http://www.w3.org/2000/svg" xml:space="preserve" width="218.273mm" height="24.108mm" version="1.1" style="shape-rendering:geometricPrecision; text-rendering:geometricPrecision; image-rendering:optimizeQuality; fill-rule:evenodd; clip-rule:evenodd"
viewBox="0 0 21827 2411"
 xmlns:xlink="http://www.w3.org/1999/xlink">
 <defs>
  <style type="text/css">
   <![CDATA[
    .fil0 {fill:#051E3C}
    .fil1 {fill:#0F1177}
    .fil2 {fill:url(#id0)}
    .fil3 {fill:url(#id1);fill-rule:nonzero}
   ]]>
  </style>
  <linearGradient id="id0" gradientUnits="userSpaceOnUse" x1="10885.5" y1="308.7" x2="10885.5" y2="2102.13">
   <stop offset="0" style="stop-opacity:1; stop-color:#FFFD4E"/>
   <stop offset="1" style="stop-opacity:1; stop-color:#C86A0A"/>
  </linearGradient>
  <linearGradient id="id1" gradientUnits="objectBoundingBox" x1="50.0061%" y1="0.321318%" x2="50.0061%" y2="99.9998%">
   <stop offset="0" style="stop-opacity:1; stop-color:#FD9E01"/>
   <stop offset="1" style="stop-opacity:1; stop-color:#FFFD01"/>
  </linearGradient>
 </defs>
 <g id="Layer_x0020_1">
  <metadata id="CorelCorpID_0Corel-Layer"/>
  <g id="_2495084810144">
   <path class="fil0" d="M6507 138l0 -74 -3132 0 0 69c-37,-8 -73,-32 -109,-47 -116,-49 -264,-81 -400,-81 -221,0 -337,-4 -547,67 -196,65 -48,72 -383,24 -138,-20 -283,-34 -423,-49 -36,-4 -74,-6 -110,-6l-114 -4c-20,0 -40,0 -60,0 -57,0 -114,-12 -173,-4 -67,10 -147,9 -213,22 -139,28 -223,52 -352,119 -61,32 -123,75 -171,123 -13,13 -20,16 -32,28 -51,49 -94,106 -134,165 -24,35 -40,77 -58,116 -12,28 -21,55 -30,89 -44,176 -48,305 -4,482 28,111 78,208 148,294 8,9 17,21 24,31 12,16 7,17 1,37 -10,29 -16,55 -26,85l-55 165c-19,57 -34,113 -53,168 -9,29 -20,52 -28,82 -7,28 -16,56 -25,84 -15,43 -48,132 -48,178 0,42 81,34 106,36 361,35 711,91 1082,60 50,-4 92,0 141,-6 41,-5 81,-14 122,-24 60,-15 112,-34 166,-59 66,-30 128,-65 185,-108l78 -69c16,-12 26,-27 41,-37 38,25 71,62 109,88 55,37 106,77 169,102 96,39 112,61 242,93 72,18 155,29 240,34l159 0c101,-6 200,-21 284,-49 88,-29 170,-55 251,-98 0,23 0,46 0,69 0,22 -7,55 14,55l3063 0c68,0 55,-63 55,-129 30,20 71,37 108,53 110,46 275,91 401,90 69,-1 35,6 110,0 13,-1 28,0 41,0 151,0 315,-10 453,-43l260 -66c75,-21 184,-60 256,-69 48,-6 36,-14 6,-105 -31,-96 -115,-273 -136,-360l775 0c-13,55 -39,108 -59,161 -10,29 -18,52 -29,81l-59 166c-10,27 -19,54 -30,85 -15,45 -70,136 21,136l1344 0c27,0 43,-4 58,-25l11 -16c6,25 23,41 55,41l1353 0c79,0 44,-73 26,-118l-52 -146c-10,-27 -17,-46 -27,-74l-77 -216c-10,-24 -21,-51 -26,-75l1100 0 0 615c0,20 25,14 46,14 313,-4 627,0 940,0 919,0 1837,4 2756,0 82,-1 148,23 229,23 145,0 292,-7 420,-43 90,-26 177,-65 259,-109 0,69 -15,129 55,129l3072 0 0 -124c21,2 47,19 64,27 68,34 133,52 210,71 202,51 410,51 621,31 108,-11 282,-42 386,-72 80,-24 310,-98 379,-98 0,-59 -21,-105 -42,-156 -17,-42 -32,-92 -49,-134 -17,-44 -31,-85 -48,-131 -9,-23 -17,-44 -26,-66 -60,-153 -113,-309 -173,-461 -52,-132 -59,-115 -20,-242l64 -207c29,-105 58,-215 92,-317 34,-101 59,-210 93,-311 42,-127 -7,-98 -233,-140 -209,-40 -342,-55 -494,-58l-147 0c-54,1 -111,3 -177,5 -26,0 -58,3 -84,7 -56,8 -103,13 -152,27 -100,28 -114,36 -200,71 -21,8 -44,23 -64,28l0 -74 -3127 0 0 69c-44,-10 -88,-37 -130,-53 -298,-114 -689,-98 -975,8 -107,40 -252,130 -341,209 -9,9 -11,13 -21,20 -17,-24 -78,-76 -104,-94 -131,-91 -269,-159 -447,-159l-3067 0 0 561 -1078 0c-3,-33 -110,-307 -128,-359l-50 -143c-7,-19 -20,-59 -42,-59l-1238 0c-42,0 -58,80 -73,125 -39,118 -134,339 -157,436l-1261 0c4,-46 91,-308 110,-377 12,-44 33,-90 33,-142 0,-22 -48,-13 -86,-21l-276 -49c-87,-17 -230,-31 -384,-36l-248 0c-119,4 -230,16 -308,38 -67,18 -135,43 -199,71 -23,10 -43,18 -63,29z"/>
   <path class="fil1" d="M6477 185l0 -95 -3072 0 0 91 -62 -29c-152,-77 -336,-121 -513,-121 -149,0 -297,3 -432,45 -42,13 -87,27 -128,44l-120 56c2,-10 3,-10 4,-23l-440 -58c-212,-26 -405,-32 -625,-32 -305,0 -536,84 -709,219l-92 81c-13,13 -16,19 -27,32l-53 65c-17,23 -32,45 -46,71 -122,228 -138,510 -35,748 28,64 63,119 104,173 60,80 47,32 19,133 -21,77 -55,160 -76,237 -13,49 -154,462 -147,474 6,11 25,6 41,8 12,1 34,2 50,5 125,15 251,24 376,41 90,13 297,25 391,25 41,0 63,5 100,5l150 -5c20,-1 24,-4 49,-4 131,-1 238,-19 357,-61l107 -47c57,-28 109,-64 159,-103 37,-29 83,-83 112,-102 16,4 59,50 77,63 55,40 106,83 167,114l94 47c67,31 135,54 209,72 71,16 143,26 215,30l143 0c180,-9 357,-56 515,-134 22,-11 44,-28 66,-33l0 140 3059 0c22,0 13,-43 13,-63 0,-26 0,-52 0,-77 18,4 64,29 84,39 118,60 252,93 386,112 124,16 234,4 360,3 25,0 29,-4 54,-5 23,0 34,-3 59,-5 171,-14 352,-65 516,-113 24,-7 176,-52 200,-54 -2,-26 -73,-202 -83,-229 -15,-39 -82,-207 -85,-234l852 0c-10,43 -95,263 -114,317l-84 237c-5,14 -38,72 -10,72l1377 0c21,0 23,-46 27,-60 5,-21 14,-49 14,-71l9 0c1,22 11,48 16,70 4,19 6,61 25,61l1378 0c19,0 10,-15 5,-27l-214 -599 1169 0 0 626 3712 0c41,0 155,27 253,27 219,0 364,-21 555,-103 29,-12 105,-59 130,-64 0,25 0,51 0,77 0,20 -8,63 13,63l3059 0 0 -145c25,16 52,28 80,42 140,71 291,99 447,120 21,3 40,0 60,3 48,8 186,-6 243,-6 65,-1 158,-15 223,-26 78,-12 140,-27 211,-43 50,-11 359,-105 395,-108 -2,-18 -8,-29 -13,-42 -6,-14 -9,-28 -14,-40 -9,-27 -21,-57 -32,-82 -11,-28 -18,-54 -29,-84l-182 -488c-11,-30 -20,-53 -31,-83 -13,-33 -90,-225 -86,-244 8,-43 85,-283 103,-346 9,-31 17,-59 25,-88l128 -434c42,-146 57,-135 3,-145 -35,-6 -61,-11 -98,-16 -29,-4 -64,-11 -96,-17 -31,-6 -65,-11 -96,-17 -106,-22 -247,-36 -393,-42l-226 0c-119,5 -232,17 -320,39 -83,21 -157,48 -229,84 -15,7 -60,33 -73,36l0 -95 -3072 0 0 91c-21,-11 -38,-20 -62,-29 -72,-30 -117,-52 -197,-75 -247,-69 -558,-65 -799,16 -36,12 -71,22 -102,38 -79,38 -106,55 -179,98 -28,17 -55,40 -80,60 -26,20 -50,46 -77,64 -19,-13 -35,-34 -53,-51l-59 -50c-142,-107 -302,-162 -486,-162l-2991 0 0 549c0,10 -3,13 -13,13l-1101 0c-15,0 -15,-12 -19,-26l-170 -470c-6,-17 -15,-66 -33,-66l-1224 0c-20,0 -28,46 -33,62l-50 140c-9,27 -18,47 -27,73 -18,49 -91,238 -103,287l-1319 0c31,-132 78,-263 115,-393 9,-35 35,-97 35,-137 -29,0 -61,-9 -87,-13l-266 -47c-93,-15 -188,-28 -282,-31 -21,0 -22,-4 -41,-5l-267 0c-117,5 -234,16 -323,40 -104,27 -203,69 -298,119z"/>
   <path class="fil2" d="M20678 1438c-96,0 -117,-27 -164,-90 -46,-63 -11,-153 32,-207 29,-36 54,-57 91,-87 62,-50 166,-102 252,-102 107,0 162,113 216,194l-41 48c-55,54 -60,70 -138,132 -75,59 -148,112 -248,112zm-12955 13l1389 0 0 -516 -1389 0 0 516zm-7379 -554c0,117 7,217 65,315 26,43 67,101 106,131 17,13 28,24 45,36 15,10 31,18 48,28 19,11 32,18 52,28 35,17 79,34 117,45 60,16 146,20 215,21 26,1 47,9 72,9 -7,9 2,8 -43,12 -91,8 -241,15 -330,6 -18,-3 -44,-1 -63,-1 -27,0 -38,-4 -59,-4l-128 396c-8,30 -40,113 -42,137 37,0 86,9 123,12 227,20 258,26 500,26 220,0 400,-3 573,-129 65,-47 133,-108 174,-178 97,-162 103,-385 26,-551 -68,-146 -224,-247 -382,-278 -67,-14 -182,-18 -256,-32 -16,-3 -22,-1 -30,-12 31,-1 99,-13 170,-13 100,0 254,4 347,25l38 -131c15,-53 110,-380 110,-406 -22,0 -43,-5 -61,-7 -270,-36 -375,-35 -654,-35 -102,0 -202,13 -281,36 -80,24 -159,61 -218,105 -125,93 -234,234 -234,409zm9686 279l9 0c1,14 16,56 21,67l-51 0c6,-11 20,-53 21,-67zm-1028 897l779 0c1,-19 9,-43 14,-62 6,-22 10,-41 15,-61 6,-24 29,-108 30,-127l389 0c1,19 9,44 14,63l46 187 779 0c-2,-20 -12,-37 -18,-55 -6,-18 -12,-33 -19,-53 -13,-37 -26,-69 -38,-106 -46,-136 -106,-286 -153,-422l-77 -215c-12,-37 -26,-71 -38,-106 -51,-154 -133,-377 -190,-529l-58 -158c-6,-18 -16,-42 -19,-57l-847 0 -153 423c-42,116 -109,316 -153,426l-76 212c-14,36 -24,69 -38,105l-76 212c-15,36 -24,70 -38,106 -8,19 -74,198 -75,217zm-6342 -614l-30 0c-98,0 -241,-131 -118,-317 80,-122 333,-278 469,-143 115,115 35,265 -75,355 -64,53 -160,105 -246,105zm4460 -1150l190 0c112,4 218,14 301,28 14,2 65,8 70,13 4,5 5,-5 0,13l-14 46c-13,43 -26,82 -37,124 -12,42 -25,87 -38,127l-111 380c-9,30 -37,98 -28,126 74,213 169,444 246,660l66 175c-41,20 -242,60 -284,66 -172,25 -253,27 -423,27 -196,0 -465,-109 -600,-242 -55,-55 -118,-122 -156,-191 -39,-72 -103,-206 -103,-291l-4 703 -1537 0c-13,0 -18,-19 -24,-31l-102 -173c-8,-13 -12,-22 -20,-35l-41 -69c-41,-69 -93,-167 -132,-228l-11 -14 0 550 -639 0 -7 -663c-34,123 -57,180 -135,293 -37,54 -69,87 -116,134l-51 46c-72,58 -154,113 -247,150 -154,61 -238,69 -410,69 -193,0 -361,-70 -503,-166 -48,-32 -137,-115 -173,-160 -56,-69 -91,-113 -131,-200 -80,-173 -99,-378 -62,-566 39,-194 145,-363 292,-487 21,-18 39,-33 62,-49 22,-15 44,-29 67,-42 23,-14 48,-25 73,-37 149,-75 302,-82 473,-82 207,0 430,82 577,206l101 97c54,56 120,177 145,245 9,27 16,46 23,74l16 61 6 -624 851 0c13,0 16,17 22,28 6,12 10,21 16,31l226 451c1,-1 2,1 2,2l0 -512 1389 0 4 647c0,-43 32,-132 46,-165 33,-73 52,-106 95,-168l68 -84c12,-15 38,-40 53,-53 98,-87 194,-147 328,-192 86,-29 205,-44 331,-48zm-108 1129c-105,0 -118,-39 -145,-71 -18,-21 -41,-49 -41,-85 0,-44 30,-107 50,-132 28,-36 55,-62 91,-91 86,-66 240,-150 338,-83 56,38 57,51 95,108 11,17 35,49 39,66l-130 137c-83,73 -180,151 -297,151zm13775 -1129l205 0c98,3 191,12 266,24 29,5 58,14 88,14 -3,36 -46,166 -57,204 -21,68 -40,131 -59,199l-89 301c-35,125 -36,82 11,209l159 425c14,38 113,291 116,320 -17,0 -55,12 -72,17 -20,6 -44,12 -67,18 -182,43 -368,54 -560,54 -166,0 -335,-60 -464,-137 -21,-13 -42,-26 -61,-40 -11,-8 -20,-15 -29,-22l-103 -96c-23,-28 -49,-52 -69,-83 -14,-21 -27,-38 -38,-59 -40,-73 -104,-208 -104,-295l-4 711 -1532 0c-15,0 -39,-50 -47,-64l-161 -278c-14,-23 -108,-193 -122,-204l0 546 -644 0 0 -673c-7,11 -9,29 -12,39 -4,16 -7,24 -12,39 -51,153 -124,249 -235,361 -85,84 -188,151 -299,196 -217,88 -505,90 -727,1 -64,-25 -124,-59 -180,-99 -85,-60 -163,-136 -222,-221 -102,-149 -163,-296 -163,-498l4 -131c-13,20 -15,49 -23,70 -10,23 -18,42 -30,63 -35,58 -74,110 -124,156 -47,43 -105,89 -170,104l216 296c30,44 205,271 212,297l-737 0c-5,-20 -27,-42 -39,-58 -84,-112 -162,-227 -246,-339 -11,-15 -27,-43 -41,-52l0 449 -703 0 0 -1121 -415 0 0 1121 -702 0 0 -1121 -419 0 0 499 -1376 0c-10,0 -13,-3 -13,-13l0 -503 1372 0 0 -563 2701 0c179,0 295,68 407,185 12,12 24,28 34,42 33,44 57,90 77,144 33,87 32,148 32,264l4 0c0,-39 31,-119 44,-151 16,-43 43,-94 66,-129 25,-36 52,-79 84,-111 18,-18 28,-33 46,-50 85,-82 183,-146 294,-190 142,-56 262,-63 423,-63 220,0 415,72 578,200 67,53 138,132 183,207 37,63 107,207 107,282l4 -630 855 0c13,0 17,17 23,28l111 227c23,45 43,87 65,130 12,24 51,115 68,127l0 -512 1384 0 4 656c0,-44 32,-131 46,-166 20,-51 45,-96 72,-140 52,-83 124,-157 201,-218 77,-62 171,-115 275,-148 86,-28 206,-42 333,-47zm-4466 1150c-70,0 -95,-9 -140,-54 -235,-233 361,-656 503,-351 35,77 9,146 -26,204 -57,95 -213,201 -337,201zm-817 -380c-1,-8 6,-16 3,-3 0,0 0,17 -3,3zm4 -30c0,-11 7,-1 3,0 0,0 -3,12 -3,0zm5 -25c-2,-8 5,-16 2,-3 0,0 0,17 -2,3zm-745 -30l-246 0 0 -106 224 0c94,0 82,106 22,106z"/>
   <path class="fil3" d="M415 925c0,-149 63,-272 191,-369 128,-97 296,-143 505,-136 189,-7 386,4 593,31l-111 395c-84,-12 -195,-17 -331,-16 -138,1 -212,23 -225,66 -13,43 4,72 50,87 47,15 128,27 244,36 120,9 224,52 311,131 88,78 131,191 131,337 7,153 -50,281 -171,383 -121,103 -264,151 -429,146 -166,16 -393,8 -681,-23l127 -395c328,14 505,-1 533,-47 28,-45 16,-78 -37,-99 -48,-17 -118,-26 -210,-26 -92,-1 -195,-37 -307,-108 -125,-93 -186,-224 -183,-393z"/>
   <path id="1" class="fil3" d="M1908 1199c0,-229 79,-423 239,-580 159,-157 365,-236 616,-236 254,0 461,73 620,218 160,145 244,344 251,598 0,231 -85,427 -256,589 -171,163 -376,244 -615,244 -239,0 -442,-81 -607,-244 -166,-162 -248,-358 -248,-589zm676 -229c-84,58 -142,130 -174,214 -33,84 -23,164 29,241 54,74 126,110 216,107 90,-3 177,-35 260,-95 84,-56 143,-126 175,-211 32,-85 23,-166 -27,-243 -55,-75 -127,-110 -217,-106 -90,4 -177,35 -262,93z"/>
   <polygon id="2" class="fil3" points="3759,2000 3759,445 4505,445 4878,1191 4878,445 5376,445 5376,2000 4692,2000 4256,1254 4256,2000 "/>
   <polygon id="3" class="fil3" points="5501,2000 5501,445 6123,445 6123,2000 "/>
   <path id="4" class="fil3" d="M6255 1199c-5,-221 70,-411 227,-570 157,-159 353,-241 589,-246 208,-9 382,-1 522,23l-172 581c-18,-27 -49,-54 -93,-81 -44,-27 -106,-32 -185,-15 -79,18 -157,59 -235,124 -74,59 -122,126 -144,200 -22,74 -6,141 49,200 37,60 98,91 183,94 84,4 166,-22 244,-76 79,-59 139,-110 179,-154l251 675c-170,46 -369,70 -599,70 -241,-16 -437,-99 -589,-249 -151,-151 -227,-342 -227,-576z"/>
   <polygon id="5" class="fil3" points="7795,1378 7795,1005 9039,1005 9039,1378 "/>
   <path id="6" class="fil3" d="M9101 2000l560 -1555 746 0 561 1555 -623 0 -62 -248 -498 0 -62 248 -622 0zm1058 -684l-125 -373 -124 373 249 0z"/>
   <polygon id="7" class="fil3" points="10968,1378 10968,1005 12212,1005 12212,1378 "/>
   <polygon id="8" class="fil3" points="12336,881 12336,445 13767,445 13767,881 13332,881 13332,2000 12772,2000 12772,881 "/>
   <path id="9" class="fil3" d="M13892 445l1088 0c127,0 237,49 329,147 92,98 138,215 138,351 0,137 -46,254 -138,352 -78,83 -168,130 -272,142l410 563 -560 0 -406 -560 -29 0 0 560 -560 0 0 -1555zm560 373l0 249 311 0c33,0 62,-12 87,-36 25,-24 37,-53 37,-88 0,-34 -12,-63 -37,-88 -25,-24 -54,-37 -87,-37l-311 0z"/>
   <path id="10" class="fil3" d="M15572 1199c0,-229 79,-423 239,-580 159,-157 364,-236 616,-236 254,0 461,73 620,218 160,145 243,344 251,598 0,231 -86,427 -257,589 -171,163 -375,244 -614,244 -240,0 -442,-81 -608,-244 -165,-162 -247,-358 -247,-589zm676 -229c-84,58 -143,130 -175,214 -32,84 -23,164 29,241 55,74 127,110 217,107 90,-3 177,-35 260,-95 84,-56 142,-126 175,-211 32,-85 23,-166 -28,-243 -54,-75 -126,-110 -216,-106 -90,4 -178,35 -262,93z"/>
   <polygon id="11" class="fil3" points="17422,2000 17422,445 18169,445 18542,1191 18542,445 19040,445 19040,2000 18356,2000 17920,1254 17920,2000 "/>
   <polygon id="12" class="fil3" points="19164,2000 19164,445 19786,445 19786,2000 "/>
   <path id="13" class="fil3" d="M19918 1199c-5,-221 71,-411 228,-570 157,-159 353,-241 589,-246 207,-9 381,-1 521,23l-171 581c-18,-27 -49,-54 -93,-81 -44,-27 -106,-32 -185,-15 -79,18 -157,59 -235,124 -74,59 -122,126 -144,200 -22,74 -6,141 49,200 37,60 98,91 182,94 85,4 166,-22 245,-76 79,-59 139,-110 179,-154l251 675c-170,46 -369,70 -599,70 -241,-16 -437,-99 -589,-249 -152,-151 -228,-342 -228,-576z"/>
  </g>
 </g>
</svg>
