<?xml version="1.0" encoding="UTF-8"?>
<!DOCTYPE svg PUBLIC "-//W3C//DTD SVG 1.1//EN" "http://www.w3.org/Graphics/SVG/1.1/DTD/svg11.dtd">
<!-- Creator: CorelDRAW X8 -->
<svg xmlns="http://www.w3.org/2000/svg" xml:space="preserve" width="268.774mm" height="37.6098mm" version="1.1" style="shape-rendering:geometricPrecision; text-rendering:geometricPrecision; image-rendering:optimizeQuality; fill-rule:evenodd; clip-rule:evenodd"
viewBox="0 0 27294 3819"
 xmlns:xlink="http://www.w3.org/1999/xlink">
 <defs>
  <style type="text/css">
   <![CDATA[
    .fil0 {fill:#301F0C}
    .fil1 {fill:#FEFEFE}
    .fil2 {fill:url(#id0);fill-rule:nonzero}
   ]]>
  </style>
  <linearGradient id="id0" gradientUnits="objectBoundingBox" x1="50.197%" y1="101.958%" x2="49.803%" y2="0%">
   <stop offset="0" style="stop-opacity:1; stop-color:#E29D25"/>
   <stop offset="0.329412" style="stop-opacity:1; stop-color:#E8BE4A"/>
   <stop offset="0.329412" style="stop-opacity:1; stop-color:#E8AF20"/>
   <stop offset="0.501961" style="stop-opacity:1; stop-color:#EDC01B"/>
   <stop offset="0.658824" style="stop-opacity:1; stop-color:#EED147"/>
   <stop offset="1" style="stop-opacity:1; stop-color:#EFE06F"/>
  </linearGradient>
 </defs>
 <g id="Layer_x0020_1">
  <metadata id="CorelCorpID_0Corel-Layer"/>
  <g id="_1844709791952">
   <g>
    <path class="fil0" d="M11106 1673c-28,-52 -31,-402 -32,-488 -1,-158 2,-332 28,-485 37,129 45,854 4,973zm-11106 -1391l0 68c18,45 66,1014 72,1147 103,-4 469,-43 539,-29l56 1965 1294 0 -55 -1971 186 9 1 527c13,475 72,968 158,1431 45,11 1557,4 1681,4 172,0 393,12 560,-2 13,-76 29,-151 44,-227 15,-79 23,-153 36,-235 78,75 219,178 310,231 425,250 876,305 1377,244 203,-24 1590,-11 1930,-11 85,0 193,-6 276,1l185 385 7 0c39,-29 158,-79 211,-105 238,-116 373,-178 595,-340 33,-24 56,-44 87,-68 182,-142 357,-363 431,-585 4,-10 6,-20 10,-31l12 -23c29,45 45,98 71,146 174,326 432,601 832,672 454,80 797,-93 1065,-411 32,-39 55,-76 86,-119l77 478 2241 0c29,-148 66,-308 78,-462 30,13 23,19 47,39 13,11 26,22 40,34 28,22 58,43 89,67 54,40 125,86 191,120 557,288 948,260 1561,185 4,-23 -109,-1187 -123,-1239l-60 -5 -81 -675 120 0 134 -1240c-452,-52 -794,-108 -1252,55 -266,94 -468,226 -659,403l-127 138c-16,19 -21,30 -37,45 -52,-62 -100,-157 -214,-246 -18,-14 -32,-27 -49,-40 -336,-254 -796,-366 -1222,-395 -132,-9 -575,-32 -690,-31 -10,19 -9,22 -11,45l-2197 1 -15 43 -147 -275 -7 0c-88,72 -551,238 -907,581 -123,118 -237,278 -304,441 -13,31 -22,76 -39,103 -131,-394 -405,-774 -819,-908 -234,-76 -520,-65 -741,24 -112,45 -191,99 -272,161 -82,64 -126,115 -188,191 -4,4 -8,10 -13,15 -7,8 -4,5 -12,11l38 -363c-226,-16 -415,-60 -653,-52 -395,13 -752,128 -1059,348 -45,32 -160,120 -193,159 -30,36 -82,78 -128,136l-42 48c-25,-26 -54,-78 -78,-106 -211,-244 -468,-373 -797,-468 -405,-117 -863,-118 -1303,-136l-14 62c-81,0 -192,-18 -278,-25 -662,-47 -1281,-3 -1942,60z"/>
    <path class="fil0" d="M19383 1428c6,-94 31,-384 67,-447 31,119 58,315 61,448l-128 -1zm2303 259c-34,-324 -45,-662 -2,-985 51,98 43,867 2,985zm5608 -1345l0 -48c-276,-29 -536,-68 -819,-82 -421,-20 -885,-6 -1307,30 -38,3 -33,1 -53,-6 -45,-14 -1241,-5 -1276,-5l42 459c-26,-33 -52,-82 -79,-122 -135,-203 -339,-401 -609,-394 -167,4 -214,63 -300,101l-10 -44 -4515 0c-38,121 -82,238 -121,360 -198,631 -214,1481 -84,2126 72,351 130,423 232,716l2114 0c57,-148 156,-384 185,-544 1,1 3,3 4,4l77 115c90,121 155,196 280,289 383,284 914,272 1298,-21 39,-30 66,-57 99,-90 33,-32 58,-59 91,-98 14,-16 29,-36 41,-53 12,-17 24,-38 41,-53l57 451 1298 0 -69 -407 102 135c99,137 204,262 392,319 131,39 287,21 393,-39 364,-205 359,-657 378,-1043 8,-153 13,-307 15,-461 3,-149 -8,-322 0,-466l119 -3 61 1965 1292 0 -52 -1974 561 40c33,-68 89,-1085 122,-1157z"/>
    <path class="fil1" d="M21686 1687c41,-118 49,-887 -2,-985 -43,323 -32,661 2,985z"/>
    <path class="fil1" d="M11106 1673c41,-119 33,-844 -4,-973 -26,153 -29,327 -28,485 1,86 4,436 32,488z"/>
    <path class="fil1" d="M19383 1428l128 1c-3,-133 -30,-329 -61,-448 -36,63 -61,353 -67,447z"/>
   </g>
   <polygon class="fil2" points="1413,3090 1413,504 447,504 447,160 2768,160 2768,504 1802,504 1802,3090 "/>
   <path id="1" class="fil2" d="M2967 3090l0 -2124 323 0 0 326c83,-151 159,-251 229,-298 71,-49 148,-73 232,-73 121,0 245,38 370,114l-128 332c-88,-49 -175,-73 -262,-73 -79,0 -149,24 -211,71 -62,47 -106,112 -133,196 -40,128 -60,267 -60,420l0 1109 -360 0z"/>
   <path id="2" class="fil2" d="M5783 2403l372 49c-58,216 -166,385 -325,504 -158,119 -360,179 -606,179 -310,0 -555,-95 -737,-286 -181,-190 -272,-459 -272,-803 0,-356 92,-633 275,-829 184,-198 422,-296 714,-296 283,0 514,96 694,289 179,193 269,465 269,815 0,21 0,53 -2,95l-1582 0c14,233 80,412 198,535 118,124 266,186 443,186 132,0 244,-35 337,-105 93,-69 167,-180 222,-333zm-1179 -577l1183 0c-16,-179 -62,-313 -136,-402 -114,-138 -263,-208 -445,-208 -165,0 -303,55 -416,166 -112,110 -174,258 -186,444z"/>
   <path id="3" class="fil2" d="M7997 2824c-133,114 -262,194 -386,241 -123,47 -256,70 -397,70 -234,0 -413,-56 -539,-170 -125,-113 -188,-259 -188,-435 0,-104 24,-199 71,-285 48,-86 110,-154 186,-206 77,-52 163,-91 259,-118 71,-18 178,-36 321,-54 291,-34 505,-75 643,-123 1,-49 2,-81 2,-94 0,-146 -35,-249 -103,-309 -92,-81 -229,-121 -410,-121 -170,0 -296,30 -376,89 -81,60 -141,165 -180,316l-351 -49c32,-151 84,-273 158,-366 73,-92 180,-163 319,-214 138,-49 300,-75 483,-75 181,0 329,21 443,64 113,43 197,97 251,161 53,65 90,147 112,246 12,61 18,172 18,331l0 477c0,334 7,544 22,634 15,89 45,174 88,256l-376 0c-36,-75 -60,-164 -70,-266zm-28 -798c-131,53 -328,98 -590,135 -148,21 -253,45 -315,72 -61,27 -108,65 -142,116 -33,51 -50,108 -50,170 0,95 36,175 109,238 73,64 179,96 319,96 139,0 262,-30 371,-91 107,-60 187,-142 238,-247 38,-81 58,-200 58,-358l2 -131z"/>
   <path id="4" class="fil2" d="M8743 2456l356 -57c20,142 75,251 167,328 91,75 220,114 383,114 166,0 289,-34 369,-101 80,-67 120,-146 120,-237 0,-81 -36,-145 -108,-192 -50,-32 -173,-72 -368,-122 -263,-66 -445,-123 -548,-172 -101,-49 -178,-116 -231,-202 -52,-85 -79,-180 -79,-283 0,-95 22,-182 65,-263 44,-80 102,-147 177,-200 56,-41 132,-76 228,-105 97,-28 200,-43 310,-43 167,0 313,24 438,73 126,47 219,113 279,195 60,82 101,192 124,330l-352 49c-16,-111 -62,-197 -139,-259 -76,-62 -184,-93 -324,-93 -164,0 -282,27 -352,82 -71,54 -106,118 -106,191 0,47 14,89 44,127 29,38 75,70 137,95 37,14 142,44 318,92 253,68 431,124 532,167 101,43 180,106 237,188 58,82 87,185 87,307 0,120 -35,232 -105,338 -71,106 -172,188 -303,246 -133,58 -282,86 -448,86 -276,0 -487,-57 -631,-171 -145,-115 -237,-284 -277,-508z"/>
   <path id="5" class="fil2" d="M12320 3090l0 -316c-166,241 -389,361 -672,361 -125,0 -242,-24 -350,-71 -109,-49 -189,-109 -242,-181 -52,-73 -89,-162 -110,-267 -15,-71 -22,-183 -22,-335l0 -1315 360 0 0 1176c0,187 8,314 22,379 22,95 70,168 144,222 73,54 163,81 271,81 107,0 208,-27 302,-82 95,-56 161,-131 201,-226 39,-95 59,-233 59,-414l0 -1136 360 0 0 2124 -323 0z"/>
   <path id="6" class="fil2" d="M13204 3090l0 -2124 323 0 0 326c83,-151 159,-251 230,-298 70,-49 147,-73 231,-73 121,0 245,38 370,114l-128 332c-87,-49 -175,-73 -262,-73 -78,0 -149,24 -211,71 -62,47 -106,112 -133,196 -40,128 -60,267 -60,420l0 1109 -360 0z"/>
   <path id="7" class="fil2" d="M16020 2403l372 49c-58,216 -166,385 -325,504 -158,119 -360,179 -606,179 -310,0 -555,-95 -737,-286 -181,-190 -272,-459 -272,-803 0,-356 92,-633 275,-829 184,-198 422,-296 714,-296 283,0 515,96 694,289 179,193 269,465 269,815 0,21 0,53 -2,95l-1581 0c13,233 79,412 197,535 118,124 266,186 443,186 132,0 244,-35 337,-105 94,-69 167,-180 222,-333zm-1179 -577l1183 0c-16,-179 -62,-313 -136,-402 -114,-138 -263,-208 -445,-208 -165,0 -303,55 -416,166 -112,110 -174,258 -186,444z"/>
   <polygon id="8" class="fil2" points="18045,3090 18045,160 18434,160 18434,1367 19948,1367 19948,160 20337,160 20337,3090 19948,3090 19948,1711 18434,1711 18434,3090 "/>
   <path id="9" class="fil2" d="M22327 3090l0 -316c-165,241 -389,361 -672,361 -125,0 -241,-24 -350,-71 -108,-49 -189,-109 -241,-181 -53,-73 -90,-162 -111,-267 -14,-71 -22,-183 -22,-335l0 -1315 360 0 0 1176c0,187 8,314 22,379 23,95 71,168 144,222 73,54 163,81 271,81 108,0 209,-27 303,-82 94,-56 161,-131 200,-226 39,-95 59,-233 59,-414l0 -1136 360 0 0 2124 -323 0z"/>
   <path id="10" class="fil2" d="M23216 3090l0 -2124 323 0 0 302c155,-231 380,-347 674,-347 129,0 246,23 353,69 107,46 188,107 241,181 53,74 91,163 112,265 13,67 19,184 19,350l0 1304 -360 0 0 -1290c0,-147 -13,-257 -41,-329 -28,-72 -78,-130 -149,-174 -71,-43 -155,-65 -250,-65 -153,0 -285,49 -396,146 -111,97 -166,282 -166,553l0 1159 -360 0z"/>
   <path id="11" class="fil2" d="M26273 2769l49 318c-101,21 -191,32 -270,32 -131,0 -232,-21 -304,-62 -72,-42 -122,-96 -151,-163 -30,-68 -44,-210 -44,-426l0 -1223 -266 0 0 -279 266 0 0 -525 360 -216 0 741 360 0 0 279 -360 0 0 1244c0,103 6,169 19,198 13,29 33,53 62,70 28,17 69,26 122,26 40,0 92,-4 157,-14z"/>
  </g>
 </g>
</svg>
